G04 #@! TF.FileFunction,Copper,L2,Bot,Signal*
%FSLAX46Y46*%
G04 Gerber Fmt 4.6, Leading zero omitted, Abs format (unit mm)*
G04 Created by KiCad (PCBNEW 4.0.6) date 10/01/17 20:02:49*
%MOMM*%
%LPD*%
G01*
G04 APERTURE LIST*
%ADD10C,0.100000*%
%ADD11C,3.000000*%
%ADD12C,4.064000*%
%ADD13C,1.500000*%
%ADD14C,3.200000*%
%ADD15C,2.500000*%
%ADD16R,1.600000X1.600000*%
%ADD17O,1.600000X1.600000*%
%ADD18R,1.100000X1.100000*%
%ADD19C,1.100000*%
%ADD20R,1.700000X1.700000*%
%ADD21O,1.700000X1.700000*%
%ADD22O,1.524000X2.000000*%
%ADD23C,2.100000*%
%ADD24C,6.000000*%
%ADD25C,1.600000*%
%ADD26C,2.700000*%
%ADD27C,1.700000*%
%ADD28C,0.600000*%
%ADD29C,0.500000*%
%ADD30C,2.000000*%
%ADD31C,1.500000*%
%ADD32C,0.254000*%
G04 APERTURE END LIST*
D10*
D11*
X175240000Y-109220000D03*
X198140000Y-109220000D03*
D12*
X86360000Y-58420000D03*
X86360000Y-121920000D03*
X236220000Y-121920000D03*
D13*
X97880000Y-76835000D03*
X100420000Y-78105000D03*
X100420000Y-75565000D03*
X97880000Y-74295000D03*
X100420000Y-73025000D03*
X97880000Y-71755000D03*
X97880000Y-69215000D03*
X100420000Y-70485000D03*
D14*
X91530000Y-67945000D03*
X91530000Y-79375000D03*
D15*
X88480000Y-65785000D03*
X88480000Y-81535000D03*
D16*
X205740000Y-78740000D03*
D17*
X213360000Y-96520000D03*
X205740000Y-81280000D03*
X213360000Y-93980000D03*
X205740000Y-83820000D03*
X213360000Y-91440000D03*
X205740000Y-86360000D03*
X213360000Y-88900000D03*
X205740000Y-88900000D03*
X213360000Y-86360000D03*
X205740000Y-91440000D03*
X213360000Y-83820000D03*
X205740000Y-93980000D03*
X213360000Y-81280000D03*
X205740000Y-96520000D03*
X213360000Y-78740000D03*
D18*
X111760000Y-63500000D03*
D19*
X114300000Y-63500000D03*
X116840000Y-63500000D03*
X119380000Y-63500000D03*
D18*
X111760000Y-104140000D03*
D19*
X114300000Y-104140000D03*
X116840000Y-104140000D03*
X119380000Y-104140000D03*
D13*
X224700000Y-70485000D03*
X222160000Y-69215000D03*
X222160000Y-71755000D03*
X224700000Y-73025000D03*
X222160000Y-74295000D03*
X224700000Y-75565000D03*
X224700000Y-78105000D03*
X222160000Y-76835000D03*
D14*
X231050000Y-79375000D03*
X231050000Y-67945000D03*
D15*
X234100000Y-81535000D03*
X234100000Y-65785000D03*
D20*
X129540000Y-66040000D03*
D21*
X129540000Y-68580000D03*
X129540000Y-71120000D03*
X129540000Y-73660000D03*
X129540000Y-76200000D03*
X129540000Y-78740000D03*
X129540000Y-81280000D03*
X129540000Y-83820000D03*
X129540000Y-86360000D03*
X129540000Y-88900000D03*
X129540000Y-91440000D03*
X129540000Y-93980000D03*
D20*
X167640000Y-66040000D03*
D21*
X167640000Y-68580000D03*
X167640000Y-71120000D03*
X167640000Y-73660000D03*
X167640000Y-76200000D03*
X167640000Y-78740000D03*
X167640000Y-81280000D03*
X167640000Y-83820000D03*
X167640000Y-86360000D03*
X167640000Y-88900000D03*
X167640000Y-91440000D03*
X167640000Y-93980000D03*
D20*
X144780000Y-66040000D03*
D21*
X144780000Y-68580000D03*
X144780000Y-71120000D03*
X144780000Y-73660000D03*
X144780000Y-76200000D03*
X144780000Y-78740000D03*
X144780000Y-81280000D03*
X144780000Y-83820000D03*
X144780000Y-86360000D03*
X144780000Y-88900000D03*
X144780000Y-91440000D03*
X144780000Y-93980000D03*
D20*
X182880000Y-66040000D03*
D21*
X182880000Y-68580000D03*
X182880000Y-71120000D03*
X182880000Y-73660000D03*
X182880000Y-76200000D03*
X182880000Y-78740000D03*
X182880000Y-81280000D03*
X182880000Y-83820000D03*
X182880000Y-86360000D03*
X182880000Y-88900000D03*
X182880000Y-91440000D03*
X182880000Y-93980000D03*
D22*
X149860000Y-83820000D03*
X149860000Y-81280000D03*
X149860000Y-78740000D03*
X149860000Y-76200000D03*
X124460000Y-86360000D03*
X124460000Y-93980000D03*
X149860000Y-88900000D03*
D23*
X227410000Y-87670000D03*
X237410000Y-90170000D03*
X227410000Y-92670000D03*
D24*
X232410000Y-90170000D03*
D22*
X149860000Y-66040000D03*
X149860000Y-71120000D03*
X124460000Y-68580000D03*
X124460000Y-66040000D03*
X187960000Y-83820000D03*
X187960000Y-81280000D03*
X187960000Y-78740000D03*
X187960000Y-76200000D03*
X162560000Y-81280000D03*
X162560000Y-91440000D03*
X162560000Y-93980000D03*
X187960000Y-93980000D03*
X218440000Y-88900000D03*
X200660000Y-81280000D03*
X200660000Y-78740000D03*
D16*
X201930000Y-69215000D03*
D25*
X204430000Y-69215000D03*
D22*
X200660000Y-88900000D03*
X200660000Y-83820000D03*
X187960000Y-88900000D03*
X187960000Y-91440000D03*
X162560000Y-83820000D03*
X162560000Y-88900000D03*
X187960000Y-66040000D03*
D13*
X224700000Y-103505000D03*
X222160000Y-102235000D03*
X222160000Y-104775000D03*
X224700000Y-106045000D03*
X222160000Y-107315000D03*
X224700000Y-108585000D03*
X224700000Y-111125000D03*
X222160000Y-109855000D03*
D14*
X231050000Y-112395000D03*
X231050000Y-100965000D03*
D15*
X234100000Y-114555000D03*
X234100000Y-98805000D03*
D22*
X187960000Y-71120000D03*
X187960000Y-86360000D03*
X200660000Y-86360000D03*
D23*
X90540000Y-111500000D03*
D26*
X92450000Y-99440000D03*
X96260000Y-107060000D03*
X96895000Y-99440000D03*
D23*
X100710000Y-103250000D03*
D26*
X87370000Y-107060000D03*
D12*
X236220000Y-58420000D03*
D22*
X109220000Y-111760000D03*
X111760000Y-111760000D03*
X121920000Y-111760000D03*
X119380000Y-111760000D03*
D27*
X152400000Y-109220000D03*
X157400000Y-109220000D03*
X162400000Y-109220000D03*
D28*
X148590000Y-114300000D03*
X179070000Y-114300000D03*
X198120000Y-71755000D03*
X193040000Y-66675000D03*
X109855000Y-67945000D03*
X114300000Y-83185000D03*
X116840000Y-80645000D03*
X187960000Y-102870000D03*
X185420000Y-100330000D03*
X147320000Y-100330000D03*
X134620000Y-85090000D03*
X154940000Y-93345000D03*
X157480000Y-90805000D03*
X170815000Y-94615000D03*
X184150000Y-60960000D03*
X219075000Y-69215000D03*
X216535000Y-83185000D03*
X191135000Y-93980000D03*
X181610000Y-102235000D03*
X156845000Y-102235000D03*
X156845000Y-66675000D03*
X141605000Y-65405000D03*
X100420000Y-78105000D03*
X106045000Y-121920000D03*
X219710000Y-71755000D03*
X163195000Y-70485000D03*
X178435000Y-73025000D03*
X180340000Y-104140000D03*
X183515000Y-107315000D03*
X215900000Y-106045000D03*
X160655000Y-64770000D03*
X156845000Y-60960000D03*
X129540000Y-62230000D03*
X118745000Y-82550000D03*
X116205000Y-85090000D03*
D29*
X200660000Y-86360000D02*
X205740000Y-86360000D01*
X129540000Y-83820000D02*
X130175000Y-84455000D01*
X130175000Y-84455000D02*
X131445000Y-84455000D01*
X131445000Y-84455000D02*
X145415000Y-98425000D01*
X145415000Y-98425000D02*
X203835000Y-98425000D01*
X203835000Y-98425000D02*
X204470000Y-97790000D01*
X204470000Y-97790000D02*
X207010000Y-97790000D01*
X207010000Y-97790000D02*
X213360000Y-91440000D01*
X200660000Y-83820000D02*
X205740000Y-83820000D01*
X148590000Y-114300000D02*
X179070000Y-114300000D01*
X200660000Y-88900000D02*
X205740000Y-88900000D01*
X213360000Y-86360000D02*
X207010000Y-92710000D01*
X207010000Y-92710000D02*
X204470000Y-92710000D01*
X204470000Y-92710000D02*
X201295000Y-95885000D01*
X201295000Y-95885000D02*
X180975000Y-95885000D01*
X180975000Y-95885000D02*
X171450000Y-86360000D01*
X171450000Y-86360000D02*
X167640000Y-86360000D01*
X213360000Y-83820000D02*
X201295000Y-71755000D01*
X201295000Y-71755000D02*
X198120000Y-71755000D01*
X193040000Y-66675000D02*
X189230000Y-62865000D01*
X189230000Y-62865000D02*
X141605000Y-62865000D01*
X141605000Y-62865000D02*
X140335000Y-64135000D01*
X140335000Y-64135000D02*
X123190000Y-64135000D01*
X123190000Y-64135000D02*
X114300000Y-73025000D01*
X114300000Y-73025000D02*
X100420000Y-73025000D01*
X100420000Y-73025000D02*
X100330000Y-73025000D01*
X100330000Y-73025000D02*
X99060000Y-74295000D01*
X99060000Y-74295000D02*
X97880000Y-74295000D01*
X114300000Y-63500000D02*
X109855000Y-67945000D01*
X114300000Y-83185000D02*
X116840000Y-80645000D01*
X114300000Y-104140000D02*
X116840000Y-104140000D01*
X237410000Y-90170000D02*
X237490000Y-90170000D01*
X237490000Y-90170000D02*
X237490000Y-90805000D01*
X237490000Y-90805000D02*
X227330000Y-100965000D01*
X227330000Y-100965000D02*
X220980000Y-100965000D01*
X220980000Y-100965000D02*
X219075000Y-102870000D01*
X219075000Y-102870000D02*
X187960000Y-102870000D01*
X185420000Y-100330000D02*
X147320000Y-100330000D01*
X134620000Y-85090000D02*
X130810000Y-81280000D01*
X130810000Y-81280000D02*
X129540000Y-81280000D01*
X144780000Y-93980000D02*
X145415000Y-93345000D01*
X145415000Y-93345000D02*
X154940000Y-93345000D01*
X157480000Y-90805000D02*
X157480000Y-91440000D01*
X157480000Y-91440000D02*
X161290000Y-95250000D01*
X161290000Y-95250000D02*
X161290000Y-95885000D01*
X161290000Y-95885000D02*
X169545000Y-95885000D01*
X169545000Y-95885000D02*
X170815000Y-94615000D01*
X184150000Y-60960000D02*
X184785000Y-61595000D01*
X184785000Y-61595000D02*
X190500000Y-61595000D01*
X190500000Y-61595000D02*
X195580000Y-66675000D01*
X195580000Y-66675000D02*
X204470000Y-66675000D01*
X204470000Y-66675000D02*
X205740000Y-67945000D01*
X205740000Y-67945000D02*
X215900000Y-67945000D01*
X215900000Y-67945000D02*
X217170000Y-69215000D01*
X217170000Y-69215000D02*
X219075000Y-69215000D01*
X216535000Y-83185000D02*
X214630000Y-85090000D01*
X214630000Y-85090000D02*
X212090000Y-85090000D01*
X212090000Y-85090000D02*
X207010000Y-90170000D01*
X207010000Y-90170000D02*
X204470000Y-90170000D01*
X204470000Y-90170000D02*
X200660000Y-93980000D01*
X200660000Y-93980000D02*
X191135000Y-93980000D01*
X181610000Y-102235000D02*
X156845000Y-102235000D01*
X222160000Y-74295000D02*
X222250000Y-74295000D01*
X222250000Y-74295000D02*
X223520000Y-73025000D01*
X223520000Y-73025000D02*
X224700000Y-73025000D01*
X144780000Y-86360000D02*
X145415000Y-86995000D01*
X145415000Y-86995000D02*
X151130000Y-86995000D01*
X151130000Y-86995000D02*
X161290000Y-97155000D01*
X161290000Y-97155000D02*
X202565000Y-97155000D01*
X202565000Y-97155000D02*
X204470000Y-95250000D01*
X204470000Y-95250000D02*
X207010000Y-95250000D01*
X207010000Y-95250000D02*
X212090000Y-90170000D01*
X212090000Y-90170000D02*
X214630000Y-90170000D01*
X214630000Y-90170000D02*
X214630000Y-88265000D01*
X214630000Y-88265000D02*
X224790000Y-78105000D01*
X224790000Y-78105000D02*
X224700000Y-78105000D01*
X156845000Y-66675000D02*
X154305000Y-64135000D01*
X154305000Y-64135000D02*
X142875000Y-64135000D01*
X142875000Y-64135000D02*
X141605000Y-65405000D01*
X144780000Y-83820000D02*
X149860000Y-83820000D01*
X149860000Y-81280000D02*
X144780000Y-81280000D01*
X144780000Y-78740000D02*
X149860000Y-78740000D01*
X149860000Y-76200000D02*
X144780000Y-76200000D01*
X124460000Y-86360000D02*
X129540000Y-86360000D01*
X124460000Y-93980000D02*
X129540000Y-93980000D01*
X149860000Y-88900000D02*
X144780000Y-88900000D01*
X149860000Y-66040000D02*
X144780000Y-66040000D01*
X149860000Y-71120000D02*
X144780000Y-71120000D01*
X124460000Y-68580000D02*
X129540000Y-68580000D01*
X129540000Y-66040000D02*
X124460000Y-66040000D01*
X187960000Y-83820000D02*
X182880000Y-83820000D01*
X182880000Y-81280000D02*
X187960000Y-81280000D01*
X182880000Y-78740000D02*
X187960000Y-78740000D01*
X187960000Y-76200000D02*
X182880000Y-76200000D01*
X162560000Y-81280000D02*
X167640000Y-81280000D01*
X162560000Y-91440000D02*
X167640000Y-91440000D01*
X162560000Y-93980000D02*
X167640000Y-93980000D01*
X182880000Y-93980000D02*
X187960000Y-93980000D01*
X200660000Y-81280000D02*
X205740000Y-81280000D01*
X205740000Y-78740000D02*
X200660000Y-78740000D01*
D30*
X100420000Y-75565000D02*
X100420000Y-78105000D01*
X97880000Y-76835000D02*
X99150000Y-76835000D01*
X99150000Y-76835000D02*
X100420000Y-75565000D01*
X97880000Y-76835000D02*
X97880000Y-80100000D01*
X106045000Y-88265000D02*
X106045000Y-121920000D01*
X97880000Y-80100000D02*
X106045000Y-88265000D01*
D29*
X201930000Y-69215000D02*
X211455000Y-78740000D01*
X211455000Y-78740000D02*
X213360000Y-78740000D01*
X222160000Y-102235000D02*
X222250000Y-102235000D01*
X222250000Y-102235000D02*
X215265000Y-109220000D01*
X215265000Y-109220000D02*
X198140000Y-109220000D01*
X219710000Y-71755000D02*
X220980000Y-70485000D01*
X220980000Y-70485000D02*
X224700000Y-70485000D01*
X144780000Y-73660000D02*
X145415000Y-73025000D01*
X145415000Y-73025000D02*
X151130000Y-73025000D01*
X151130000Y-73025000D02*
X153670000Y-70485000D01*
X153670000Y-70485000D02*
X163195000Y-70485000D01*
X178435000Y-73025000D02*
X179070000Y-73660000D01*
X179070000Y-73660000D02*
X182880000Y-73660000D01*
X182880000Y-73660000D02*
X183515000Y-73025000D01*
X183515000Y-73025000D02*
X189230000Y-73025000D01*
X189230000Y-73025000D02*
X192405000Y-69850000D01*
X192405000Y-69850000D02*
X201295000Y-69850000D01*
X201295000Y-69850000D02*
X201930000Y-69215000D01*
X100420000Y-75565000D02*
X100330000Y-75565000D01*
X100330000Y-75565000D02*
X99060000Y-76835000D01*
X99060000Y-76835000D02*
X97880000Y-76835000D01*
X224700000Y-103505000D02*
X224790000Y-103505000D01*
X224790000Y-103505000D02*
X223520000Y-102235000D01*
X223520000Y-102235000D02*
X222160000Y-102235000D01*
X182880000Y-88900000D02*
X187960000Y-88900000D01*
X182880000Y-91440000D02*
X187960000Y-91440000D01*
X162560000Y-83820000D02*
X167640000Y-83820000D01*
X162560000Y-88900000D02*
X167640000Y-88900000D01*
X187960000Y-66040000D02*
X182880000Y-66040000D01*
X129540000Y-88900000D02*
X130175000Y-89535000D01*
X130175000Y-89535000D02*
X131445000Y-89535000D01*
X131445000Y-89535000D02*
X146050000Y-104140000D01*
X146050000Y-104140000D02*
X180340000Y-104140000D01*
X183515000Y-107315000D02*
X184785000Y-106045000D01*
X184785000Y-106045000D02*
X215900000Y-106045000D01*
X222160000Y-104775000D02*
X222250000Y-104775000D01*
X222250000Y-104775000D02*
X223520000Y-106045000D01*
X223520000Y-106045000D02*
X224700000Y-106045000D01*
X129540000Y-91440000D02*
X130175000Y-92075000D01*
X130175000Y-92075000D02*
X131445000Y-92075000D01*
X131445000Y-92075000D02*
X152400000Y-113030000D01*
X152400000Y-113030000D02*
X177165000Y-113030000D01*
X177165000Y-113030000D02*
X177800000Y-112395000D01*
X177800000Y-112395000D02*
X178435000Y-112395000D01*
X178435000Y-112395000D02*
X179070000Y-111760000D01*
X179070000Y-111760000D02*
X198755000Y-111760000D01*
X198755000Y-111760000D02*
X199390000Y-111125000D01*
X199390000Y-111125000D02*
X200025000Y-111125000D01*
X200025000Y-111125000D02*
X200660000Y-110490000D01*
X200660000Y-110490000D02*
X216535000Y-110490000D01*
X216535000Y-110490000D02*
X219710000Y-107315000D01*
X219710000Y-107315000D02*
X222160000Y-107315000D01*
X222160000Y-107315000D02*
X222250000Y-107315000D01*
X222250000Y-107315000D02*
X223520000Y-108585000D01*
X223520000Y-108585000D02*
X224700000Y-108585000D01*
X187960000Y-71120000D02*
X182880000Y-71120000D01*
X187960000Y-86360000D02*
X182880000Y-86360000D01*
D30*
X175240000Y-109220000D02*
X175260000Y-109220000D01*
X175260000Y-109220000D02*
X172085000Y-106045000D01*
X172085000Y-106045000D02*
X155575000Y-106045000D01*
X155575000Y-106045000D02*
X153670000Y-107950000D01*
X153670000Y-107950000D02*
X153035000Y-107950000D01*
X153035000Y-107950000D02*
X152400000Y-108585000D01*
X152400000Y-108585000D02*
X152400000Y-109220000D01*
D31*
X175240000Y-109220000D02*
X175260000Y-109220000D01*
D30*
X175240000Y-109220000D02*
X175260000Y-109220000D01*
X152400000Y-108585000D02*
X152400000Y-109220000D01*
D29*
X175240000Y-109220000D02*
X175260000Y-109220000D01*
X167640000Y-68580000D02*
X168275000Y-67945000D01*
X168275000Y-67945000D02*
X169545000Y-67945000D01*
X169545000Y-67945000D02*
X169545000Y-64135000D01*
X169545000Y-64135000D02*
X161290000Y-64135000D01*
X161290000Y-64135000D02*
X160655000Y-64770000D01*
X156845000Y-60960000D02*
X156210000Y-61595000D01*
X156210000Y-61595000D02*
X140335000Y-61595000D01*
X140335000Y-61595000D02*
X139700000Y-62230000D01*
X139700000Y-62230000D02*
X129540000Y-62230000D01*
X118745000Y-82550000D02*
X116205000Y-85090000D01*
D32*
G36*
X233867193Y-54892115D02*
X232696227Y-56061040D01*
X232061723Y-57589094D01*
X232060279Y-59243647D01*
X232692115Y-60772807D01*
X233861040Y-61943773D01*
X235389094Y-62578277D01*
X237043647Y-62579721D01*
X238572807Y-61947885D01*
X239743773Y-60778960D01*
X240098000Y-59925887D01*
X240098000Y-120414536D01*
X239747885Y-119567193D01*
X238578960Y-118396227D01*
X237050906Y-117761723D01*
X235396353Y-117760279D01*
X233867193Y-118392115D01*
X232696227Y-119561040D01*
X232061723Y-121089094D01*
X232060279Y-122743647D01*
X232692115Y-124272807D01*
X233861040Y-125443773D01*
X234714113Y-125798000D01*
X87865464Y-125798000D01*
X88712807Y-125447885D01*
X89883773Y-124278960D01*
X90518277Y-122750906D01*
X90519721Y-121096353D01*
X89887885Y-119567193D01*
X88718960Y-118396227D01*
X87190906Y-117761723D01*
X85536353Y-117760279D01*
X84007193Y-118392115D01*
X82836227Y-119561040D01*
X82482000Y-120414113D01*
X82482000Y-112939648D01*
X89486432Y-112939648D01*
X89586961Y-113276202D01*
X90339229Y-113505709D01*
X91122063Y-113429866D01*
X91493039Y-113276202D01*
X91593568Y-112939648D01*
X90540000Y-111886080D01*
X89486432Y-112939648D01*
X82482000Y-112939648D01*
X82482000Y-111299229D01*
X88534291Y-111299229D01*
X88610134Y-112082063D01*
X88763798Y-112453039D01*
X89100352Y-112553568D01*
X90153920Y-111500000D01*
X90926080Y-111500000D01*
X91979648Y-112553568D01*
X92316202Y-112453039D01*
X92545709Y-111700771D01*
X92469866Y-110917937D01*
X92316202Y-110546961D01*
X91979648Y-110446432D01*
X90926080Y-111500000D01*
X90153920Y-111500000D01*
X89100352Y-110446432D01*
X88763798Y-110546961D01*
X88534291Y-111299229D01*
X82482000Y-111299229D01*
X82482000Y-110060352D01*
X89486432Y-110060352D01*
X90540000Y-111113920D01*
X91593568Y-110060352D01*
X91493039Y-109723798D01*
X90740771Y-109494291D01*
X89957937Y-109570134D01*
X89586961Y-109723798D01*
X89486432Y-110060352D01*
X82482000Y-110060352D01*
X82482000Y-107550544D01*
X84892571Y-107550544D01*
X85268877Y-108461275D01*
X85965060Y-109158674D01*
X86875133Y-109536569D01*
X87860544Y-109537429D01*
X88771275Y-109161123D01*
X89215040Y-108718131D01*
X94987950Y-108718131D01*
X95125722Y-109085656D01*
X95987248Y-109365532D01*
X96890299Y-109294411D01*
X97394278Y-109085656D01*
X97532050Y-108718131D01*
X96260000Y-107446080D01*
X94987950Y-108718131D01*
X89215040Y-108718131D01*
X89468674Y-108464940D01*
X89846569Y-107554867D01*
X89847238Y-106787248D01*
X93954468Y-106787248D01*
X94025589Y-107690299D01*
X94234344Y-108194278D01*
X94601869Y-108332050D01*
X95873920Y-107060000D01*
X96646080Y-107060000D01*
X97918131Y-108332050D01*
X98285656Y-108194278D01*
X98565532Y-107332752D01*
X98494411Y-106429701D01*
X98285656Y-105925722D01*
X97918131Y-105787950D01*
X96646080Y-107060000D01*
X95873920Y-107060000D01*
X94601869Y-105787950D01*
X94234344Y-105925722D01*
X93954468Y-106787248D01*
X89847238Y-106787248D01*
X89847429Y-106569456D01*
X89471123Y-105658725D01*
X89214715Y-105401869D01*
X94987950Y-105401869D01*
X96260000Y-106673920D01*
X97532050Y-105401869D01*
X97394278Y-105034344D01*
X96532752Y-104754468D01*
X95629701Y-104825589D01*
X95125722Y-105034344D01*
X94987950Y-105401869D01*
X89214715Y-105401869D01*
X88774940Y-104961326D01*
X87864867Y-104583431D01*
X86879456Y-104582571D01*
X85968725Y-104958877D01*
X85271326Y-105655060D01*
X84893431Y-106565133D01*
X84892571Y-107550544D01*
X82482000Y-107550544D01*
X82482000Y-103681132D01*
X98532623Y-103681132D01*
X98863353Y-104481560D01*
X99475218Y-105094495D01*
X100275068Y-105426621D01*
X101141132Y-105427377D01*
X101941560Y-105096647D01*
X102554495Y-104484782D01*
X102886621Y-103684932D01*
X102887377Y-102818868D01*
X102556647Y-102018440D01*
X101944782Y-101405505D01*
X101144932Y-101073379D01*
X100278868Y-101072623D01*
X99478440Y-101403353D01*
X98865505Y-102015218D01*
X98533379Y-102815068D01*
X98532623Y-103681132D01*
X82482000Y-103681132D01*
X82482000Y-99930544D01*
X89972571Y-99930544D01*
X90348877Y-100841275D01*
X91045060Y-101538674D01*
X91955133Y-101916569D01*
X92940544Y-101917429D01*
X93851275Y-101541123D01*
X94548674Y-100844940D01*
X94672337Y-100547126D01*
X94793877Y-100841275D01*
X95490060Y-101538674D01*
X96400133Y-101916569D01*
X97385544Y-101917429D01*
X98296275Y-101541123D01*
X98993674Y-100844940D01*
X99371569Y-99934867D01*
X99372429Y-98949456D01*
X98996123Y-98038725D01*
X98299940Y-97341326D01*
X97389867Y-96963431D01*
X96404456Y-96962571D01*
X95493725Y-97338877D01*
X94796326Y-98035060D01*
X94672663Y-98332874D01*
X94551123Y-98038725D01*
X93854940Y-97341326D01*
X92944867Y-96963431D01*
X91959456Y-96962571D01*
X91048725Y-97338877D01*
X90351326Y-98035060D01*
X89973431Y-98945133D01*
X89972571Y-99930544D01*
X82482000Y-99930544D01*
X82482000Y-82005740D01*
X86102588Y-82005740D01*
X86463703Y-82879703D01*
X87131780Y-83548947D01*
X88005111Y-83911586D01*
X88950740Y-83912412D01*
X89824703Y-83551297D01*
X90493947Y-82883220D01*
X90843043Y-82042503D01*
X90985186Y-82101526D01*
X92070054Y-82102472D01*
X93072703Y-81688186D01*
X93840490Y-80921738D01*
X94256526Y-79919814D01*
X94257472Y-78834946D01*
X93843186Y-77832297D01*
X93076738Y-77064510D01*
X92524018Y-76835000D01*
X95753000Y-76835000D01*
X95753000Y-80100000D01*
X95914908Y-80913968D01*
X96375984Y-81604016D01*
X103918000Y-89146032D01*
X103918000Y-121920000D01*
X104079908Y-122733968D01*
X104540984Y-123424016D01*
X105231032Y-123885092D01*
X106045000Y-124047000D01*
X106858968Y-123885092D01*
X107549016Y-123424016D01*
X108010092Y-122733968D01*
X108172000Y-121920000D01*
X108172000Y-113567646D01*
X108497111Y-113784878D01*
X109220000Y-113928670D01*
X109942889Y-113784878D01*
X110490000Y-113419311D01*
X111037111Y-113784878D01*
X111760000Y-113928670D01*
X112482889Y-113784878D01*
X113095725Y-113375395D01*
X113505208Y-112762559D01*
X113649000Y-112039670D01*
X113649000Y-111480330D01*
X117491000Y-111480330D01*
X117491000Y-112039670D01*
X117634792Y-112762559D01*
X118044275Y-113375395D01*
X118657111Y-113784878D01*
X119380000Y-113928670D01*
X120102889Y-113784878D01*
X120650000Y-113419311D01*
X121197111Y-113784878D01*
X121920000Y-113928670D01*
X122642889Y-113784878D01*
X123255725Y-113375395D01*
X123665208Y-112762559D01*
X123809000Y-112039670D01*
X123809000Y-111480330D01*
X123665208Y-110757441D01*
X123255725Y-110144605D01*
X122642889Y-109735122D01*
X121920000Y-109591330D01*
X121197111Y-109735122D01*
X120650000Y-110100689D01*
X120102889Y-109735122D01*
X119380000Y-109591330D01*
X118657111Y-109735122D01*
X118044275Y-110144605D01*
X117634792Y-110757441D01*
X117491000Y-111480330D01*
X113649000Y-111480330D01*
X113505208Y-110757441D01*
X113095725Y-110144605D01*
X112482889Y-109735122D01*
X111760000Y-109591330D01*
X111037111Y-109735122D01*
X110490000Y-110100689D01*
X109942889Y-109735122D01*
X109220000Y-109591330D01*
X108497111Y-109735122D01*
X108172000Y-109952354D01*
X108172000Y-103590000D01*
X110060921Y-103590000D01*
X110060921Y-104690000D01*
X110139506Y-105107641D01*
X110386331Y-105491219D01*
X110762944Y-105748548D01*
X111210000Y-105839079D01*
X112310000Y-105839079D01*
X112727641Y-105760494D01*
X113111219Y-105513669D01*
X113188621Y-105400387D01*
X113348816Y-105560862D01*
X113964961Y-105816708D01*
X114632112Y-105817290D01*
X115248703Y-105562520D01*
X115294302Y-105517000D01*
X115845030Y-105517000D01*
X115888816Y-105560862D01*
X116504961Y-105816708D01*
X117172112Y-105817290D01*
X117788703Y-105562520D01*
X118110147Y-105241636D01*
X118428816Y-105560862D01*
X119044961Y-105816708D01*
X119712112Y-105817290D01*
X120328703Y-105562520D01*
X120800862Y-105091184D01*
X121056708Y-104475039D01*
X121057290Y-103807888D01*
X120802520Y-103191297D01*
X120331184Y-102719138D01*
X119715039Y-102463292D01*
X119047888Y-102462710D01*
X118431297Y-102717480D01*
X118109853Y-103038364D01*
X117791184Y-102719138D01*
X117175039Y-102463292D01*
X116507888Y-102462710D01*
X115891297Y-102717480D01*
X115845698Y-102763000D01*
X115294970Y-102763000D01*
X115251184Y-102719138D01*
X114635039Y-102463292D01*
X113967888Y-102462710D01*
X113351297Y-102717480D01*
X113190852Y-102877646D01*
X113133669Y-102788781D01*
X112757056Y-102531452D01*
X112310000Y-102440921D01*
X111210000Y-102440921D01*
X110792359Y-102519506D01*
X110408781Y-102766331D01*
X110151452Y-103142944D01*
X110060921Y-103590000D01*
X108172000Y-103590000D01*
X108172000Y-88265000D01*
X108010092Y-87451032D01*
X107549016Y-86760984D01*
X104255635Y-83467603D01*
X112872752Y-83467603D01*
X113089543Y-83992275D01*
X113490614Y-84394047D01*
X114014907Y-84611752D01*
X114582603Y-84612248D01*
X114915334Y-84474766D01*
X114778248Y-84804907D01*
X114777752Y-85372603D01*
X114994543Y-85897275D01*
X115395614Y-86299047D01*
X115919907Y-86516752D01*
X116487603Y-86517248D01*
X117012275Y-86300457D01*
X117414047Y-85899386D01*
X117464507Y-85777865D01*
X119432372Y-83810000D01*
X119552275Y-83760457D01*
X119954047Y-83359386D01*
X120171752Y-82835093D01*
X120172248Y-82267397D01*
X119955457Y-81742725D01*
X119554386Y-81340953D01*
X119030093Y-81123248D01*
X118462397Y-81122752D01*
X118129666Y-81260234D01*
X118266752Y-80930093D01*
X118267248Y-80362397D01*
X118050457Y-79837725D01*
X117649386Y-79435953D01*
X117125093Y-79218248D01*
X116557397Y-79217752D01*
X116032725Y-79434543D01*
X115630953Y-79835614D01*
X115580493Y-79957135D01*
X113612628Y-81925000D01*
X113492725Y-81974543D01*
X113090953Y-82375614D01*
X112873248Y-82899907D01*
X112872752Y-83467603D01*
X104255635Y-83467603D01*
X100920480Y-80132448D01*
X101233968Y-80070092D01*
X101924016Y-79609016D01*
X102385092Y-78918968D01*
X102547000Y-78105000D01*
X102547000Y-75565000D01*
X102385092Y-74751032D01*
X102151876Y-74402000D01*
X114300000Y-74402000D01*
X114826955Y-74297182D01*
X115273686Y-73998686D01*
X117608049Y-71664323D01*
X127848421Y-71664323D01*
X127958964Y-71931243D01*
X128322736Y-72390000D01*
X127958964Y-72848757D01*
X127848421Y-73115677D01*
X128019057Y-73387000D01*
X129267000Y-73387000D01*
X129267000Y-71393000D01*
X129813000Y-71393000D01*
X129813000Y-73387000D01*
X131060943Y-73387000D01*
X131231579Y-73115677D01*
X131121036Y-72848757D01*
X130757264Y-72390000D01*
X131121036Y-71931243D01*
X131231579Y-71664323D01*
X131060943Y-71393000D01*
X129813000Y-71393000D01*
X129267000Y-71393000D01*
X128019057Y-71393000D01*
X127848421Y-71664323D01*
X117608049Y-71664323D01*
X122634329Y-66638043D01*
X122714792Y-67042559D01*
X122893490Y-67310000D01*
X122714792Y-67577441D01*
X122571000Y-68300330D01*
X122571000Y-68859670D01*
X122714792Y-69582559D01*
X123124275Y-70195395D01*
X123737111Y-70604878D01*
X124460000Y-70748670D01*
X125182889Y-70604878D01*
X125795725Y-70195395D01*
X125955015Y-69957000D01*
X128089320Y-69957000D01*
X128103318Y-69977950D01*
X128180424Y-70029471D01*
X127958964Y-70308757D01*
X127848421Y-70575677D01*
X128019057Y-70847000D01*
X129267000Y-70847000D01*
X129267000Y-70827000D01*
X129813000Y-70827000D01*
X129813000Y-70847000D01*
X131060943Y-70847000D01*
X131231579Y-70575677D01*
X131121036Y-70308757D01*
X130899576Y-70029471D01*
X130976682Y-69977950D01*
X131405242Y-69336565D01*
X131555732Y-68580000D01*
X131405242Y-67823435D01*
X131262344Y-67609574D01*
X131448548Y-67337056D01*
X131539079Y-66890000D01*
X131539079Y-65512000D01*
X140177905Y-65512000D01*
X140177752Y-65687603D01*
X140394543Y-66212275D01*
X140795614Y-66614047D01*
X141319907Y-66831752D01*
X141887603Y-66832248D01*
X142412275Y-66615457D01*
X142780921Y-66247454D01*
X142780921Y-66890000D01*
X142859506Y-67307641D01*
X143106331Y-67691219D01*
X143206290Y-67759518D01*
X143198964Y-67768757D01*
X143088421Y-68035677D01*
X143259057Y-68307000D01*
X144507000Y-68307000D01*
X144507000Y-68287000D01*
X145053000Y-68287000D01*
X145053000Y-68307000D01*
X146300943Y-68307000D01*
X146471579Y-68035677D01*
X146361036Y-67768757D01*
X146355824Y-67762184D01*
X146431219Y-67713669D01*
X146633925Y-67417000D01*
X148364985Y-67417000D01*
X148524275Y-67655395D01*
X149137111Y-68064878D01*
X149860000Y-68208670D01*
X150582889Y-68064878D01*
X151195725Y-67655395D01*
X151605208Y-67042559D01*
X151749000Y-66319670D01*
X151749000Y-65760330D01*
X151699604Y-65512000D01*
X153734628Y-65512000D01*
X155585000Y-67362372D01*
X155634543Y-67482275D01*
X156035614Y-67884047D01*
X156559907Y-68101752D01*
X157127603Y-68102248D01*
X157652275Y-67885457D01*
X158054047Y-67484386D01*
X158271752Y-66960093D01*
X158272248Y-66392397D01*
X158055457Y-65867725D01*
X157654386Y-65465953D01*
X157532865Y-65415493D01*
X156359372Y-64242000D01*
X159329112Y-64242000D01*
X159228248Y-64484907D01*
X159227752Y-65052603D01*
X159444543Y-65577275D01*
X159845614Y-65979047D01*
X160369907Y-66196752D01*
X160937603Y-66197248D01*
X161462275Y-65980457D01*
X161864047Y-65579386D01*
X161892028Y-65512000D01*
X165640921Y-65512000D01*
X165640921Y-66890000D01*
X165719506Y-67307641D01*
X165915688Y-67612518D01*
X165774758Y-67823435D01*
X165624268Y-68580000D01*
X165774758Y-69336565D01*
X166203318Y-69977950D01*
X166280424Y-70029471D01*
X166058964Y-70308757D01*
X165948421Y-70575677D01*
X166119057Y-70847000D01*
X167367000Y-70847000D01*
X167367000Y-70827000D01*
X167913000Y-70827000D01*
X167913000Y-70847000D01*
X169160943Y-70847000D01*
X169331579Y-70575677D01*
X169221036Y-70308757D01*
X168999576Y-70029471D01*
X169076682Y-69977950D01*
X169505242Y-69336565D01*
X169508139Y-69322000D01*
X169545000Y-69322000D01*
X170071955Y-69217182D01*
X170518686Y-68918686D01*
X170817182Y-68471955D01*
X170922000Y-67945000D01*
X170922000Y-64242000D01*
X181421997Y-64242000D01*
X181228781Y-64366331D01*
X180971452Y-64742944D01*
X180880921Y-65190000D01*
X180880921Y-66890000D01*
X180959506Y-67307641D01*
X181206331Y-67691219D01*
X181306290Y-67759518D01*
X181298964Y-67768757D01*
X181188421Y-68035677D01*
X181359057Y-68307000D01*
X182607000Y-68307000D01*
X182607000Y-68287000D01*
X183153000Y-68287000D01*
X183153000Y-68307000D01*
X184400943Y-68307000D01*
X184571579Y-68035677D01*
X184461036Y-67768757D01*
X184455824Y-67762184D01*
X184531219Y-67713669D01*
X184733925Y-67417000D01*
X186464985Y-67417000D01*
X186624275Y-67655395D01*
X187237111Y-68064878D01*
X187960000Y-68208670D01*
X188682889Y-68064878D01*
X189295725Y-67655395D01*
X189705208Y-67042559D01*
X189849000Y-66319670D01*
X189849000Y-65760330D01*
X189767318Y-65349690D01*
X191780000Y-67362372D01*
X191829543Y-67482275D01*
X192230614Y-67884047D01*
X192754907Y-68101752D01*
X193322603Y-68102248D01*
X193847275Y-67885457D01*
X194249047Y-67484386D01*
X194305664Y-67348036D01*
X194606314Y-67648686D01*
X195053045Y-67947182D01*
X195580000Y-68052000D01*
X200054430Y-68052000D01*
X199980921Y-68415000D01*
X199980921Y-68473000D01*
X192405000Y-68473000D01*
X191878045Y-68577818D01*
X191431314Y-68876314D01*
X189785671Y-70521957D01*
X189705208Y-70117441D01*
X189295725Y-69504605D01*
X188682889Y-69095122D01*
X187960000Y-68951330D01*
X187237111Y-69095122D01*
X186624275Y-69504605D01*
X186464985Y-69743000D01*
X184330680Y-69743000D01*
X184316682Y-69722050D01*
X184239576Y-69670529D01*
X184461036Y-69391243D01*
X184571579Y-69124323D01*
X184400943Y-68853000D01*
X183153000Y-68853000D01*
X183153000Y-68873000D01*
X182607000Y-68873000D01*
X182607000Y-68853000D01*
X181359057Y-68853000D01*
X181188421Y-69124323D01*
X181298964Y-69391243D01*
X181520424Y-69670529D01*
X181443318Y-69722050D01*
X181014758Y-70363435D01*
X180864268Y-71120000D01*
X181014758Y-71876565D01*
X181286329Y-72283000D01*
X179672428Y-72283000D01*
X179645457Y-72217725D01*
X179244386Y-71815953D01*
X178720093Y-71598248D01*
X178152397Y-71597752D01*
X177627725Y-71814543D01*
X177225953Y-72215614D01*
X177008248Y-72739907D01*
X177007752Y-73307603D01*
X177224543Y-73832275D01*
X177625614Y-74234047D01*
X177747135Y-74284507D01*
X178096314Y-74633686D01*
X178543045Y-74932182D01*
X179070000Y-75037000D01*
X181286329Y-75037000D01*
X181014758Y-75443435D01*
X180864268Y-76200000D01*
X181014758Y-76956565D01*
X181357824Y-77470000D01*
X181014758Y-77983435D01*
X180864268Y-78740000D01*
X181014758Y-79496565D01*
X181357824Y-80010000D01*
X181014758Y-80523435D01*
X180864268Y-81280000D01*
X181014758Y-82036565D01*
X181357824Y-82550000D01*
X181014758Y-83063435D01*
X180864268Y-83820000D01*
X181014758Y-84576565D01*
X181357824Y-85090000D01*
X181014758Y-85603435D01*
X180864268Y-86360000D01*
X181014758Y-87116565D01*
X181357824Y-87630000D01*
X181014758Y-88143435D01*
X180864268Y-88900000D01*
X181014758Y-89656565D01*
X181357824Y-90170000D01*
X181014758Y-90683435D01*
X180864268Y-91440000D01*
X181014758Y-92196565D01*
X181357824Y-92710000D01*
X181014758Y-93223435D01*
X180889670Y-93852298D01*
X172423686Y-85386314D01*
X171976955Y-85087818D01*
X171450000Y-84983000D01*
X169233671Y-84983000D01*
X169505242Y-84576565D01*
X169655732Y-83820000D01*
X169505242Y-83063435D01*
X169162176Y-82550000D01*
X169505242Y-82036565D01*
X169655732Y-81280000D01*
X169505242Y-80523435D01*
X169162176Y-80010000D01*
X169505242Y-79496565D01*
X169655732Y-78740000D01*
X169505242Y-77983435D01*
X169162176Y-77470000D01*
X169505242Y-76956565D01*
X169655732Y-76200000D01*
X169505242Y-75443435D01*
X169076682Y-74802050D01*
X168999576Y-74750529D01*
X169221036Y-74471243D01*
X169331579Y-74204323D01*
X169160943Y-73933000D01*
X167913000Y-73933000D01*
X167913000Y-73953000D01*
X167367000Y-73953000D01*
X167367000Y-73933000D01*
X166119057Y-73933000D01*
X165948421Y-74204323D01*
X166058964Y-74471243D01*
X166280424Y-74750529D01*
X166203318Y-74802050D01*
X165774758Y-75443435D01*
X165624268Y-76200000D01*
X165774758Y-76956565D01*
X166117824Y-77470000D01*
X165774758Y-77983435D01*
X165624268Y-78740000D01*
X165774758Y-79496565D01*
X166046329Y-79903000D01*
X164055015Y-79903000D01*
X163895725Y-79664605D01*
X163282889Y-79255122D01*
X162560000Y-79111330D01*
X161837111Y-79255122D01*
X161224275Y-79664605D01*
X160814792Y-80277441D01*
X160671000Y-81000330D01*
X160671000Y-81559670D01*
X160814792Y-82282559D01*
X160993490Y-82550000D01*
X160814792Y-82817441D01*
X160671000Y-83540330D01*
X160671000Y-84099670D01*
X160814792Y-84822559D01*
X161224275Y-85435395D01*
X161837111Y-85844878D01*
X162560000Y-85988670D01*
X163282889Y-85844878D01*
X163895725Y-85435395D01*
X164055015Y-85197000D01*
X166046329Y-85197000D01*
X165774758Y-85603435D01*
X165624268Y-86360000D01*
X165774758Y-87116565D01*
X166046329Y-87523000D01*
X164055015Y-87523000D01*
X163895725Y-87284605D01*
X163282889Y-86875122D01*
X162560000Y-86731330D01*
X161837111Y-86875122D01*
X161224275Y-87284605D01*
X160814792Y-87897441D01*
X160671000Y-88620330D01*
X160671000Y-89179670D01*
X160814792Y-89902559D01*
X160993490Y-90170000D01*
X160814792Y-90437441D01*
X160671000Y-91160330D01*
X160671000Y-91719670D01*
X160814792Y-92442559D01*
X160993490Y-92710000D01*
X160874882Y-92887510D01*
X158906901Y-90919529D01*
X158907248Y-90522397D01*
X158690457Y-89997725D01*
X158289386Y-89595953D01*
X157765093Y-89378248D01*
X157197397Y-89377752D01*
X156672725Y-89594543D01*
X156270953Y-89995614D01*
X156214336Y-90131964D01*
X152103686Y-86021314D01*
X151656955Y-85722818D01*
X151130000Y-85618000D01*
X150922437Y-85618000D01*
X151195725Y-85435395D01*
X151605208Y-84822559D01*
X151749000Y-84099670D01*
X151749000Y-83540330D01*
X151605208Y-82817441D01*
X151426510Y-82550000D01*
X151605208Y-82282559D01*
X151749000Y-81559670D01*
X151749000Y-81000330D01*
X151605208Y-80277441D01*
X151426510Y-80010000D01*
X151605208Y-79742559D01*
X151749000Y-79019670D01*
X151749000Y-78460330D01*
X151605208Y-77737441D01*
X151426510Y-77470000D01*
X151605208Y-77202559D01*
X151749000Y-76479670D01*
X151749000Y-75920330D01*
X151605208Y-75197441D01*
X151195725Y-74584605D01*
X150922437Y-74402000D01*
X151130000Y-74402000D01*
X151656955Y-74297182D01*
X152103686Y-73998686D01*
X154240372Y-71862000D01*
X162790091Y-71862000D01*
X162909907Y-71911752D01*
X163477603Y-71912248D01*
X164002275Y-71695457D01*
X164033463Y-71664323D01*
X165948421Y-71664323D01*
X166058964Y-71931243D01*
X166422736Y-72390000D01*
X166058964Y-72848757D01*
X165948421Y-73115677D01*
X166119057Y-73387000D01*
X167367000Y-73387000D01*
X167367000Y-71393000D01*
X167913000Y-71393000D01*
X167913000Y-73387000D01*
X169160943Y-73387000D01*
X169331579Y-73115677D01*
X169221036Y-72848757D01*
X168857264Y-72390000D01*
X169221036Y-71931243D01*
X169331579Y-71664323D01*
X169160943Y-71393000D01*
X167913000Y-71393000D01*
X167367000Y-71393000D01*
X166119057Y-71393000D01*
X165948421Y-71664323D01*
X164033463Y-71664323D01*
X164404047Y-71294386D01*
X164621752Y-70770093D01*
X164622248Y-70202397D01*
X164405457Y-69677725D01*
X164004386Y-69275953D01*
X163480093Y-69058248D01*
X162912397Y-69057752D01*
X162790788Y-69108000D01*
X153670000Y-69108000D01*
X153143045Y-69212818D01*
X152696314Y-69511314D01*
X151685671Y-70521957D01*
X151605208Y-70117441D01*
X151195725Y-69504605D01*
X150582889Y-69095122D01*
X149860000Y-68951330D01*
X149137111Y-69095122D01*
X148524275Y-69504605D01*
X148364985Y-69743000D01*
X146230680Y-69743000D01*
X146216682Y-69722050D01*
X146139576Y-69670529D01*
X146361036Y-69391243D01*
X146471579Y-69124323D01*
X146300943Y-68853000D01*
X145053000Y-68853000D01*
X145053000Y-68873000D01*
X144507000Y-68873000D01*
X144507000Y-68853000D01*
X143259057Y-68853000D01*
X143088421Y-69124323D01*
X143198964Y-69391243D01*
X143420424Y-69670529D01*
X143343318Y-69722050D01*
X142914758Y-70363435D01*
X142764268Y-71120000D01*
X142914758Y-71876565D01*
X143257824Y-72390000D01*
X142914758Y-72903435D01*
X142764268Y-73660000D01*
X142914758Y-74416565D01*
X143257824Y-74930000D01*
X142914758Y-75443435D01*
X142764268Y-76200000D01*
X142914758Y-76956565D01*
X143257824Y-77470000D01*
X142914758Y-77983435D01*
X142764268Y-78740000D01*
X142914758Y-79496565D01*
X143257824Y-80010000D01*
X142914758Y-80523435D01*
X142764268Y-81280000D01*
X142914758Y-82036565D01*
X143257824Y-82550000D01*
X142914758Y-83063435D01*
X142764268Y-83820000D01*
X142914758Y-84576565D01*
X143257824Y-85090000D01*
X142914758Y-85603435D01*
X142764268Y-86360000D01*
X142914758Y-87116565D01*
X143257824Y-87630000D01*
X142914758Y-88143435D01*
X142764268Y-88900000D01*
X142914758Y-89656565D01*
X143257824Y-90170000D01*
X142914758Y-90683435D01*
X142764268Y-91440000D01*
X142914758Y-92196565D01*
X143257824Y-92710000D01*
X142914758Y-93223435D01*
X142789670Y-93852298D01*
X135293220Y-86355848D01*
X135427275Y-86300457D01*
X135829047Y-85899386D01*
X136046752Y-85375093D01*
X136047248Y-84807397D01*
X135830457Y-84282725D01*
X135429386Y-83880953D01*
X135307865Y-83830493D01*
X131783686Y-80306314D01*
X131336955Y-80007818D01*
X131095699Y-79959829D01*
X131405242Y-79496565D01*
X131555732Y-78740000D01*
X131405242Y-77983435D01*
X131062176Y-77470000D01*
X131405242Y-76956565D01*
X131555732Y-76200000D01*
X131405242Y-75443435D01*
X130976682Y-74802050D01*
X130899576Y-74750529D01*
X131121036Y-74471243D01*
X131231579Y-74204323D01*
X131060943Y-73933000D01*
X129813000Y-73933000D01*
X129813000Y-73953000D01*
X129267000Y-73953000D01*
X129267000Y-73933000D01*
X128019057Y-73933000D01*
X127848421Y-74204323D01*
X127958964Y-74471243D01*
X128180424Y-74750529D01*
X128103318Y-74802050D01*
X127674758Y-75443435D01*
X127524268Y-76200000D01*
X127674758Y-76956565D01*
X128017824Y-77470000D01*
X127674758Y-77983435D01*
X127524268Y-78740000D01*
X127674758Y-79496565D01*
X128017824Y-80010000D01*
X127674758Y-80523435D01*
X127524268Y-81280000D01*
X127674758Y-82036565D01*
X128017824Y-82550000D01*
X127674758Y-83063435D01*
X127524268Y-83820000D01*
X127674758Y-84576565D01*
X127946329Y-84983000D01*
X125955015Y-84983000D01*
X125795725Y-84744605D01*
X125182889Y-84335122D01*
X124460000Y-84191330D01*
X123737111Y-84335122D01*
X123124275Y-84744605D01*
X122714792Y-85357441D01*
X122571000Y-86080330D01*
X122571000Y-86639670D01*
X122714792Y-87362559D01*
X123124275Y-87975395D01*
X123737111Y-88384878D01*
X124460000Y-88528670D01*
X125182889Y-88384878D01*
X125795725Y-87975395D01*
X125955015Y-87737000D01*
X127946329Y-87737000D01*
X127674758Y-88143435D01*
X127524268Y-88900000D01*
X127674758Y-89656565D01*
X128017824Y-90170000D01*
X127674758Y-90683435D01*
X127524268Y-91440000D01*
X127674758Y-92196565D01*
X127946329Y-92603000D01*
X125955015Y-92603000D01*
X125795725Y-92364605D01*
X125182889Y-91955122D01*
X124460000Y-91811330D01*
X123737111Y-91955122D01*
X123124275Y-92364605D01*
X122714792Y-92977441D01*
X122571000Y-93700330D01*
X122571000Y-94259670D01*
X122714792Y-94982559D01*
X123124275Y-95595395D01*
X123737111Y-96004878D01*
X124460000Y-96148670D01*
X125182889Y-96004878D01*
X125795725Y-95595395D01*
X125955015Y-95357000D01*
X128089320Y-95357000D01*
X128103318Y-95377950D01*
X128744703Y-95806510D01*
X129501268Y-95957000D01*
X129578732Y-95957000D01*
X130335297Y-95806510D01*
X130976682Y-95377950D01*
X131405242Y-94736565D01*
X131530330Y-94107702D01*
X150345628Y-112923000D01*
X148994909Y-112923000D01*
X148875093Y-112873248D01*
X148307397Y-112872752D01*
X147782725Y-113089543D01*
X147380953Y-113490614D01*
X147163248Y-114014907D01*
X147162752Y-114582603D01*
X147379543Y-115107275D01*
X147780614Y-115509047D01*
X148304907Y-115726752D01*
X148872603Y-115727248D01*
X148994212Y-115677000D01*
X178665091Y-115677000D01*
X178784907Y-115726752D01*
X179352603Y-115727248D01*
X179877275Y-115510457D01*
X180279047Y-115109386D01*
X180496752Y-114585093D01*
X180497248Y-114017397D01*
X180280457Y-113492725D01*
X179925353Y-113137000D01*
X198755000Y-113137000D01*
X199281955Y-113032182D01*
X199427317Y-112935054D01*
X228322528Y-112935054D01*
X228736814Y-113937703D01*
X229503262Y-114705490D01*
X230505186Y-115121526D01*
X231590054Y-115122472D01*
X231737401Y-115061590D01*
X232083703Y-115899703D01*
X232751780Y-116568947D01*
X233625111Y-116931586D01*
X234570740Y-116932412D01*
X235444703Y-116571297D01*
X236113947Y-115903220D01*
X236476586Y-115029889D01*
X236477412Y-114084260D01*
X236116297Y-113210297D01*
X235448220Y-112541053D01*
X234574889Y-112178414D01*
X233777191Y-112177717D01*
X233777472Y-111854946D01*
X233363186Y-110852297D01*
X232596738Y-110084510D01*
X231594814Y-109668474D01*
X230509946Y-109667528D01*
X229507297Y-110081814D01*
X228739510Y-110848262D01*
X228323474Y-111850186D01*
X228322528Y-112935054D01*
X199427317Y-112935054D01*
X199728686Y-112733686D01*
X199960372Y-112502000D01*
X200025000Y-112502000D01*
X200551955Y-112397182D01*
X200629697Y-112345236D01*
X223865845Y-112345236D01*
X223928728Y-112651021D01*
X224571420Y-112830012D01*
X225233687Y-112749431D01*
X225471272Y-112651021D01*
X225534155Y-112345236D01*
X224700000Y-111511080D01*
X223865845Y-112345236D01*
X200629697Y-112345236D01*
X200998686Y-112098686D01*
X201230372Y-111867000D01*
X216535000Y-111867000D01*
X217061955Y-111762182D01*
X217508686Y-111463686D01*
X220280372Y-108692000D01*
X220882433Y-108692000D01*
X220895415Y-108705004D01*
X220759668Y-108840751D01*
X220939762Y-109020845D01*
X220633979Y-109083728D01*
X220454988Y-109726420D01*
X220535569Y-110388687D01*
X220633979Y-110626272D01*
X220939764Y-110689155D01*
X221773920Y-109855000D01*
X221759777Y-109840858D01*
X222145858Y-109454777D01*
X222160000Y-109468920D01*
X222174143Y-109454778D01*
X222560223Y-109840858D01*
X222546080Y-109855000D01*
X222560223Y-109869143D01*
X222174142Y-110255223D01*
X222160000Y-110241080D01*
X221325845Y-111075236D01*
X221388728Y-111381021D01*
X222031420Y-111560012D01*
X222693687Y-111479431D01*
X222931272Y-111381021D01*
X222994155Y-111075238D01*
X223006022Y-111087105D01*
X223075569Y-111658687D01*
X223173979Y-111896272D01*
X223479764Y-111959155D01*
X224313920Y-111125000D01*
X224299778Y-111110858D01*
X224685858Y-110724777D01*
X224700000Y-110738920D01*
X224714143Y-110724778D01*
X225100223Y-111110858D01*
X225086080Y-111125000D01*
X225920236Y-111959155D01*
X226226021Y-111896272D01*
X226405012Y-111253580D01*
X226324431Y-110591313D01*
X226226021Y-110353728D01*
X225920238Y-110290845D01*
X226100332Y-110110751D01*
X225964476Y-109974895D01*
X226290316Y-109649624D01*
X226576674Y-108959996D01*
X226577325Y-108213280D01*
X226292171Y-107523154D01*
X226084480Y-107315100D01*
X226290316Y-107109624D01*
X226576674Y-106419996D01*
X226577325Y-105673280D01*
X226292171Y-104983154D01*
X226084480Y-104775100D01*
X226290316Y-104569624D01*
X226576674Y-103879996D01*
X226577325Y-103133280D01*
X226292171Y-102443154D01*
X226191194Y-102342000D01*
X227330000Y-102342000D01*
X227856955Y-102237182D01*
X228303686Y-101938686D01*
X228443805Y-101798567D01*
X228736814Y-102507703D01*
X229503262Y-103275490D01*
X230505186Y-103691526D01*
X231590054Y-103692472D01*
X232592703Y-103278186D01*
X233360490Y-102511738D01*
X233776526Y-101509814D01*
X233776812Y-101181719D01*
X234570740Y-101182412D01*
X235444703Y-100821297D01*
X236113947Y-100153220D01*
X236476586Y-99279889D01*
X236477412Y-98334260D01*
X236116297Y-97460297D01*
X235448220Y-96791053D01*
X234574889Y-96428414D01*
X233814622Y-96427750D01*
X237932922Y-92309450D01*
X238641560Y-92016647D01*
X239254495Y-91404782D01*
X239586621Y-90604932D01*
X239587377Y-89738868D01*
X239256647Y-88938440D01*
X238644782Y-88325505D01*
X237844932Y-87993379D01*
X236978868Y-87992623D01*
X236178440Y-88323353D01*
X236131686Y-88370025D01*
X235910741Y-87835296D01*
X234750810Y-86673340D01*
X233234513Y-86043718D01*
X231592690Y-86042285D01*
X230075296Y-86669259D01*
X229367734Y-87375588D01*
X229339866Y-87087937D01*
X229186202Y-86716961D01*
X228849648Y-86616432D01*
X227796080Y-87670000D01*
X227810223Y-87684143D01*
X227424143Y-88070223D01*
X227410000Y-88056080D01*
X226356432Y-89109648D01*
X226456961Y-89446202D01*
X227209229Y-89675709D01*
X227992063Y-89599866D01*
X228283601Y-89479106D01*
X228282558Y-90675097D01*
X227844932Y-90493379D01*
X226978868Y-90492623D01*
X226178440Y-90823353D01*
X225565505Y-91435218D01*
X225233379Y-92235068D01*
X225232623Y-93101132D01*
X225563353Y-93901560D01*
X226175218Y-94514495D01*
X226975068Y-94846621D01*
X227841132Y-94847377D01*
X228641560Y-94516647D01*
X229254495Y-93904782D01*
X229563654Y-93160242D01*
X230069190Y-93666660D01*
X231585487Y-94296282D01*
X232050940Y-94296688D01*
X226759628Y-99588000D01*
X220980000Y-99588000D01*
X220453045Y-99692818D01*
X220006314Y-99991314D01*
X218504628Y-101493000D01*
X188364909Y-101493000D01*
X188245093Y-101443248D01*
X187677397Y-101442752D01*
X187152725Y-101659543D01*
X186750953Y-102060614D01*
X186533248Y-102584907D01*
X186532752Y-103152603D01*
X186749543Y-103677275D01*
X187150614Y-104079047D01*
X187674907Y-104296752D01*
X188242603Y-104297248D01*
X188364212Y-104247000D01*
X218290628Y-104247000D01*
X217165848Y-105371780D01*
X217110457Y-105237725D01*
X216709386Y-104835953D01*
X216185093Y-104618248D01*
X215617397Y-104617752D01*
X215495788Y-104668000D01*
X184785000Y-104668000D01*
X184258045Y-104772818D01*
X183811314Y-105071314D01*
X182827628Y-106055000D01*
X182707725Y-106104543D01*
X182305953Y-106505614D01*
X182088248Y-107029907D01*
X182087752Y-107597603D01*
X182304543Y-108122275D01*
X182705614Y-108524047D01*
X183229907Y-108741752D01*
X183797603Y-108742248D01*
X184322275Y-108525457D01*
X184724047Y-108124386D01*
X184774507Y-108002865D01*
X185355372Y-107422000D01*
X196222755Y-107422000D01*
X195914236Y-107729981D01*
X195513457Y-108695165D01*
X195512545Y-109740250D01*
X195778124Y-110383000D01*
X179070000Y-110383000D01*
X178543045Y-110487818D01*
X178096314Y-110786314D01*
X177864628Y-111018000D01*
X177800000Y-111018000D01*
X177273045Y-111122818D01*
X176826314Y-111421314D01*
X176594628Y-111653000D01*
X176230867Y-111653000D01*
X176726132Y-111448361D01*
X177465764Y-110710019D01*
X177866543Y-109744835D01*
X177867455Y-108699750D01*
X177468361Y-107733868D01*
X176730019Y-106994236D01*
X175764835Y-106593457D01*
X175641381Y-106593349D01*
X174565032Y-105517000D01*
X179935091Y-105517000D01*
X180054907Y-105566752D01*
X180622603Y-105567248D01*
X181147275Y-105350457D01*
X181549047Y-104949386D01*
X181766752Y-104425093D01*
X181767248Y-103857397D01*
X181686539Y-103662068D01*
X181892603Y-103662248D01*
X182417275Y-103445457D01*
X182819047Y-103044386D01*
X183036752Y-102520093D01*
X183037248Y-101952397D01*
X182935852Y-101707000D01*
X185015091Y-101707000D01*
X185134907Y-101756752D01*
X185702603Y-101757248D01*
X186227275Y-101540457D01*
X186629047Y-101139386D01*
X186846752Y-100615093D01*
X186847248Y-100047397D01*
X186745852Y-99802000D01*
X203835000Y-99802000D01*
X204361955Y-99697182D01*
X204808686Y-99398686D01*
X205040372Y-99167000D01*
X207010000Y-99167000D01*
X207536955Y-99062182D01*
X207983686Y-98763686D01*
X211737401Y-95009971D01*
X211897783Y-95250000D01*
X211541932Y-95782569D01*
X211395248Y-96520000D01*
X211541932Y-97257431D01*
X211959653Y-97882595D01*
X212584817Y-98300316D01*
X213322248Y-98447000D01*
X213397752Y-98447000D01*
X214135183Y-98300316D01*
X214760347Y-97882595D01*
X215178068Y-97257431D01*
X215324752Y-96520000D01*
X215178068Y-95782569D01*
X214822217Y-95250000D01*
X215178068Y-94717431D01*
X215324752Y-93980000D01*
X215178068Y-93242569D01*
X214822217Y-92710000D01*
X215178068Y-92177431D01*
X215324752Y-91440000D01*
X215305450Y-91342961D01*
X215603686Y-91143686D01*
X215902182Y-90696955D01*
X216007000Y-90170000D01*
X216007000Y-88835372D01*
X216632682Y-88209690D01*
X216551000Y-88620330D01*
X216551000Y-89179670D01*
X216694792Y-89902559D01*
X217104275Y-90515395D01*
X217717111Y-90924878D01*
X218440000Y-91068670D01*
X219162889Y-90924878D01*
X219775725Y-90515395D01*
X220185208Y-89902559D01*
X220329000Y-89179670D01*
X220329000Y-88620330D01*
X220185208Y-87897441D01*
X219899087Y-87469229D01*
X225404291Y-87469229D01*
X225480134Y-88252063D01*
X225633798Y-88623039D01*
X225970352Y-88723568D01*
X227023920Y-87670000D01*
X225970352Y-86616432D01*
X225633798Y-86716961D01*
X225404291Y-87469229D01*
X219899087Y-87469229D01*
X219775725Y-87284605D01*
X219162889Y-86875122D01*
X218440000Y-86731330D01*
X218029360Y-86813012D01*
X218612020Y-86230352D01*
X226356432Y-86230352D01*
X227410000Y-87283920D01*
X228463568Y-86230352D01*
X228363039Y-85893798D01*
X227610771Y-85664291D01*
X226827937Y-85740134D01*
X226456961Y-85893798D01*
X226356432Y-86230352D01*
X218612020Y-86230352D01*
X224860231Y-79982141D01*
X225071720Y-79982325D01*
X225234528Y-79915054D01*
X228322528Y-79915054D01*
X228736814Y-80917703D01*
X229503262Y-81685490D01*
X230505186Y-82101526D01*
X231590054Y-82102472D01*
X231737401Y-82041590D01*
X232083703Y-82879703D01*
X232751780Y-83548947D01*
X233625111Y-83911586D01*
X234570740Y-83912412D01*
X235444703Y-83551297D01*
X236113947Y-82883220D01*
X236476586Y-82009889D01*
X236477412Y-81064260D01*
X236116297Y-80190297D01*
X235448220Y-79521053D01*
X234574889Y-79158414D01*
X233777191Y-79157717D01*
X233777472Y-78834946D01*
X233363186Y-77832297D01*
X232596738Y-77064510D01*
X231594814Y-76648474D01*
X230509946Y-76647528D01*
X229507297Y-77061814D01*
X228739510Y-77828262D01*
X228323474Y-78830186D01*
X228322528Y-79915054D01*
X225234528Y-79915054D01*
X225761846Y-79697171D01*
X226290316Y-79169624D01*
X226576674Y-78479996D01*
X226577325Y-77733280D01*
X226292171Y-77043154D01*
X226084480Y-76835100D01*
X226290316Y-76629624D01*
X226576674Y-75939996D01*
X226577325Y-75193280D01*
X226292171Y-74503154D01*
X226084480Y-74295100D01*
X226290316Y-74089624D01*
X226576674Y-73399996D01*
X226577325Y-72653280D01*
X226292171Y-71963154D01*
X226084480Y-71755100D01*
X226290316Y-71549624D01*
X226576674Y-70859996D01*
X226577325Y-70113280D01*
X226292171Y-69423154D01*
X225764624Y-68894684D01*
X225074996Y-68608326D01*
X224328280Y-68607675D01*
X223996602Y-68744722D01*
X223889310Y-68485054D01*
X228322528Y-68485054D01*
X228736814Y-69487703D01*
X229503262Y-70255490D01*
X230505186Y-70671526D01*
X231590054Y-70672472D01*
X232592703Y-70258186D01*
X233360490Y-69491738D01*
X233776526Y-68489814D01*
X233776812Y-68161719D01*
X234570740Y-68162412D01*
X235444703Y-67801297D01*
X236113947Y-67133220D01*
X236476586Y-66259889D01*
X236477412Y-65314260D01*
X236116297Y-64440297D01*
X235448220Y-63771053D01*
X234574889Y-63408414D01*
X233629260Y-63407588D01*
X232755297Y-63768703D01*
X232086053Y-64436780D01*
X231736957Y-65277497D01*
X231594814Y-65218474D01*
X230509946Y-65217528D01*
X229507297Y-65631814D01*
X228739510Y-66398262D01*
X228323474Y-67400186D01*
X228322528Y-68485054D01*
X223889310Y-68485054D01*
X223752171Y-68153154D01*
X223224624Y-67624684D01*
X222534996Y-67338326D01*
X221788280Y-67337675D01*
X221098154Y-67622829D01*
X220569684Y-68150376D01*
X220373922Y-68621825D01*
X220285457Y-68407725D01*
X219884386Y-68005953D01*
X219360093Y-67788248D01*
X218792397Y-67787752D01*
X218670788Y-67838000D01*
X217740372Y-67838000D01*
X216873686Y-66971314D01*
X216426955Y-66672818D01*
X215900000Y-66568000D01*
X206310372Y-66568000D01*
X205443686Y-65701314D01*
X204996955Y-65402818D01*
X204470000Y-65298000D01*
X196150372Y-65298000D01*
X191473686Y-60621314D01*
X191026955Y-60322818D01*
X190500000Y-60218000D01*
X185387428Y-60218000D01*
X185360457Y-60152725D01*
X184959386Y-59750953D01*
X184435093Y-59533248D01*
X183867397Y-59532752D01*
X183342725Y-59749543D01*
X182940953Y-60150614D01*
X182723248Y-60674907D01*
X182722752Y-61242603D01*
X182824148Y-61488000D01*
X158170888Y-61488000D01*
X158271752Y-61245093D01*
X158272248Y-60677397D01*
X158055457Y-60152725D01*
X157654386Y-59750953D01*
X157130093Y-59533248D01*
X156562397Y-59532752D01*
X156037725Y-59749543D01*
X155635953Y-60150614D01*
X155607972Y-60218000D01*
X140335000Y-60218000D01*
X139808045Y-60322818D01*
X139361314Y-60621314D01*
X139129628Y-60853000D01*
X129944909Y-60853000D01*
X129825093Y-60803248D01*
X129257397Y-60802752D01*
X128732725Y-61019543D01*
X128330953Y-61420614D01*
X128113248Y-61944907D01*
X128112752Y-62512603D01*
X128214148Y-62758000D01*
X123190000Y-62758000D01*
X122663045Y-62862818D01*
X122216314Y-63161314D01*
X113729628Y-71648000D01*
X101697567Y-71648000D01*
X101684585Y-71634996D01*
X101820332Y-71499249D01*
X101640238Y-71319155D01*
X101946021Y-71256272D01*
X102125012Y-70613580D01*
X102044431Y-69951313D01*
X101946021Y-69713728D01*
X101640236Y-69650845D01*
X100806080Y-70485000D01*
X100820223Y-70499142D01*
X100434142Y-70885223D01*
X100420000Y-70871080D01*
X100405858Y-70885223D01*
X100019777Y-70499142D01*
X100033920Y-70485000D01*
X100019778Y-70470858D01*
X100405858Y-70084777D01*
X100420000Y-70098920D01*
X101254155Y-69264764D01*
X101191272Y-68958979D01*
X100548580Y-68779988D01*
X99886313Y-68860569D01*
X99648728Y-68958979D01*
X99585845Y-69264762D01*
X99573978Y-69252895D01*
X99504431Y-68681313D01*
X99406021Y-68443728D01*
X99100236Y-68380845D01*
X98266080Y-69215000D01*
X98280223Y-69229143D01*
X97894142Y-69615223D01*
X97880000Y-69601080D01*
X97351093Y-70129987D01*
X97346313Y-70130569D01*
X97108728Y-70228979D01*
X97071611Y-70409470D01*
X97045845Y-70435236D01*
X97056079Y-70485000D01*
X97045845Y-70534764D01*
X97071611Y-70560530D01*
X97108728Y-70741021D01*
X97307445Y-70796364D01*
X97880000Y-71368920D01*
X97894143Y-71354778D01*
X98280223Y-71740858D01*
X98266080Y-71755000D01*
X98280223Y-71769142D01*
X97894142Y-72155223D01*
X97880000Y-72141080D01*
X97865858Y-72155223D01*
X97479777Y-71769142D01*
X97493920Y-71755000D01*
X96659764Y-70920845D01*
X96353979Y-70983728D01*
X96174988Y-71626420D01*
X96255569Y-72288687D01*
X96353979Y-72526272D01*
X96659762Y-72589155D01*
X96479668Y-72769249D01*
X96615524Y-72905105D01*
X96289684Y-73230376D01*
X96003326Y-73920004D01*
X96002675Y-74666720D01*
X96287829Y-75356846D01*
X96330285Y-75399377D01*
X95914908Y-76021032D01*
X95753000Y-76835000D01*
X92524018Y-76835000D01*
X92074814Y-76648474D01*
X90989946Y-76647528D01*
X89987297Y-77061814D01*
X89219510Y-77828262D01*
X88803474Y-78830186D01*
X88803188Y-79158281D01*
X88009260Y-79157588D01*
X87135297Y-79518703D01*
X86466053Y-80186780D01*
X86103414Y-81060111D01*
X86102588Y-82005740D01*
X82482000Y-82005740D01*
X82482000Y-66255740D01*
X86102588Y-66255740D01*
X86463703Y-67129703D01*
X87131780Y-67798947D01*
X88005111Y-68161586D01*
X88802809Y-68162283D01*
X88802528Y-68485054D01*
X89216814Y-69487703D01*
X89983262Y-70255490D01*
X90985186Y-70671526D01*
X92070054Y-70672472D01*
X93072703Y-70258186D01*
X93840490Y-69491738D01*
X94008793Y-69086420D01*
X96174988Y-69086420D01*
X96255569Y-69748687D01*
X96353979Y-69986272D01*
X96659764Y-70049155D01*
X97493920Y-69215000D01*
X96659764Y-68380845D01*
X96353979Y-68443728D01*
X96174988Y-69086420D01*
X94008793Y-69086420D01*
X94256526Y-68489814D01*
X94256957Y-67994764D01*
X97045845Y-67994764D01*
X97880000Y-68828920D01*
X98481316Y-68227603D01*
X108427752Y-68227603D01*
X108644543Y-68752275D01*
X109045614Y-69154047D01*
X109569907Y-69371752D01*
X110137603Y-69372248D01*
X110662275Y-69155457D01*
X111064047Y-68754386D01*
X111114507Y-68632865D01*
X114570136Y-65177236D01*
X114632112Y-65177290D01*
X115248703Y-64922520D01*
X115570147Y-64601636D01*
X115888816Y-64920862D01*
X116504961Y-65176708D01*
X117172112Y-65177290D01*
X117788703Y-64922520D01*
X118138730Y-64573103D01*
X118692977Y-64573103D01*
X118730361Y-64858607D01*
X119299729Y-65003795D01*
X119881316Y-64920044D01*
X120029639Y-64858607D01*
X120067023Y-64573103D01*
X119380000Y-63886080D01*
X118692977Y-64573103D01*
X118138730Y-64573103D01*
X118260862Y-64451184D01*
X118415752Y-64078168D01*
X118993920Y-63500000D01*
X119766080Y-63500000D01*
X120453103Y-64187023D01*
X120738607Y-64149639D01*
X120883795Y-63580271D01*
X120800044Y-62998684D01*
X120738607Y-62850361D01*
X120453103Y-62812977D01*
X119766080Y-63500000D01*
X118993920Y-63500000D01*
X118415530Y-62921610D01*
X118262520Y-62551297D01*
X118138337Y-62426897D01*
X118692977Y-62426897D01*
X119380000Y-63113920D01*
X120067023Y-62426897D01*
X120029639Y-62141393D01*
X119460271Y-61996205D01*
X118878684Y-62079956D01*
X118730361Y-62141393D01*
X118692977Y-62426897D01*
X118138337Y-62426897D01*
X117791184Y-62079138D01*
X117175039Y-61823292D01*
X116507888Y-61822710D01*
X115891297Y-62077480D01*
X115569853Y-62398364D01*
X115251184Y-62079138D01*
X114635039Y-61823292D01*
X113967888Y-61822710D01*
X113351297Y-62077480D01*
X113190852Y-62237646D01*
X113133669Y-62148781D01*
X112757056Y-61891452D01*
X112310000Y-61800921D01*
X111210000Y-61800921D01*
X110792359Y-61879506D01*
X110408781Y-62126331D01*
X110151452Y-62502944D01*
X110060921Y-62950000D01*
X110060921Y-64050000D01*
X110139506Y-64467641D01*
X110386331Y-64851219D01*
X110751737Y-65100891D01*
X109167628Y-66685000D01*
X109047725Y-66734543D01*
X108645953Y-67135614D01*
X108428248Y-67659907D01*
X108427752Y-68227603D01*
X98481316Y-68227603D01*
X98714155Y-67994764D01*
X98651272Y-67688979D01*
X98008580Y-67509988D01*
X97346313Y-67590569D01*
X97108728Y-67688979D01*
X97045845Y-67994764D01*
X94256957Y-67994764D01*
X94257472Y-67404946D01*
X93843186Y-66402297D01*
X93076738Y-65634510D01*
X92074814Y-65218474D01*
X90989946Y-65217528D01*
X90842599Y-65278410D01*
X90496297Y-64440297D01*
X89828220Y-63771053D01*
X88954889Y-63408414D01*
X88009260Y-63407588D01*
X87135297Y-63768703D01*
X86466053Y-64436780D01*
X86103414Y-65310111D01*
X86102588Y-66255740D01*
X82482000Y-66255740D01*
X82482000Y-59925464D01*
X82832115Y-60772807D01*
X84001040Y-61943773D01*
X85529094Y-62578277D01*
X87183647Y-62579721D01*
X88712807Y-61947885D01*
X89883773Y-60778960D01*
X90518277Y-59250906D01*
X90519721Y-57596353D01*
X89887885Y-56067193D01*
X88718960Y-54896227D01*
X87865887Y-54542000D01*
X234714536Y-54542000D01*
X233867193Y-54892115D01*
X233867193Y-54892115D01*
G37*
X233867193Y-54892115D02*
X232696227Y-56061040D01*
X232061723Y-57589094D01*
X232060279Y-59243647D01*
X232692115Y-60772807D01*
X233861040Y-61943773D01*
X235389094Y-62578277D01*
X237043647Y-62579721D01*
X238572807Y-61947885D01*
X239743773Y-60778960D01*
X240098000Y-59925887D01*
X240098000Y-120414536D01*
X239747885Y-119567193D01*
X238578960Y-118396227D01*
X237050906Y-117761723D01*
X235396353Y-117760279D01*
X233867193Y-118392115D01*
X232696227Y-119561040D01*
X232061723Y-121089094D01*
X232060279Y-122743647D01*
X232692115Y-124272807D01*
X233861040Y-125443773D01*
X234714113Y-125798000D01*
X87865464Y-125798000D01*
X88712807Y-125447885D01*
X89883773Y-124278960D01*
X90518277Y-122750906D01*
X90519721Y-121096353D01*
X89887885Y-119567193D01*
X88718960Y-118396227D01*
X87190906Y-117761723D01*
X85536353Y-117760279D01*
X84007193Y-118392115D01*
X82836227Y-119561040D01*
X82482000Y-120414113D01*
X82482000Y-112939648D01*
X89486432Y-112939648D01*
X89586961Y-113276202D01*
X90339229Y-113505709D01*
X91122063Y-113429866D01*
X91493039Y-113276202D01*
X91593568Y-112939648D01*
X90540000Y-111886080D01*
X89486432Y-112939648D01*
X82482000Y-112939648D01*
X82482000Y-111299229D01*
X88534291Y-111299229D01*
X88610134Y-112082063D01*
X88763798Y-112453039D01*
X89100352Y-112553568D01*
X90153920Y-111500000D01*
X90926080Y-111500000D01*
X91979648Y-112553568D01*
X92316202Y-112453039D01*
X92545709Y-111700771D01*
X92469866Y-110917937D01*
X92316202Y-110546961D01*
X91979648Y-110446432D01*
X90926080Y-111500000D01*
X90153920Y-111500000D01*
X89100352Y-110446432D01*
X88763798Y-110546961D01*
X88534291Y-111299229D01*
X82482000Y-111299229D01*
X82482000Y-110060352D01*
X89486432Y-110060352D01*
X90540000Y-111113920D01*
X91593568Y-110060352D01*
X91493039Y-109723798D01*
X90740771Y-109494291D01*
X89957937Y-109570134D01*
X89586961Y-109723798D01*
X89486432Y-110060352D01*
X82482000Y-110060352D01*
X82482000Y-107550544D01*
X84892571Y-107550544D01*
X85268877Y-108461275D01*
X85965060Y-109158674D01*
X86875133Y-109536569D01*
X87860544Y-109537429D01*
X88771275Y-109161123D01*
X89215040Y-108718131D01*
X94987950Y-108718131D01*
X95125722Y-109085656D01*
X95987248Y-109365532D01*
X96890299Y-109294411D01*
X97394278Y-109085656D01*
X97532050Y-108718131D01*
X96260000Y-107446080D01*
X94987950Y-108718131D01*
X89215040Y-108718131D01*
X89468674Y-108464940D01*
X89846569Y-107554867D01*
X89847238Y-106787248D01*
X93954468Y-106787248D01*
X94025589Y-107690299D01*
X94234344Y-108194278D01*
X94601869Y-108332050D01*
X95873920Y-107060000D01*
X96646080Y-107060000D01*
X97918131Y-108332050D01*
X98285656Y-108194278D01*
X98565532Y-107332752D01*
X98494411Y-106429701D01*
X98285656Y-105925722D01*
X97918131Y-105787950D01*
X96646080Y-107060000D01*
X95873920Y-107060000D01*
X94601869Y-105787950D01*
X94234344Y-105925722D01*
X93954468Y-106787248D01*
X89847238Y-106787248D01*
X89847429Y-106569456D01*
X89471123Y-105658725D01*
X89214715Y-105401869D01*
X94987950Y-105401869D01*
X96260000Y-106673920D01*
X97532050Y-105401869D01*
X97394278Y-105034344D01*
X96532752Y-104754468D01*
X95629701Y-104825589D01*
X95125722Y-105034344D01*
X94987950Y-105401869D01*
X89214715Y-105401869D01*
X88774940Y-104961326D01*
X87864867Y-104583431D01*
X86879456Y-104582571D01*
X85968725Y-104958877D01*
X85271326Y-105655060D01*
X84893431Y-106565133D01*
X84892571Y-107550544D01*
X82482000Y-107550544D01*
X82482000Y-103681132D01*
X98532623Y-103681132D01*
X98863353Y-104481560D01*
X99475218Y-105094495D01*
X100275068Y-105426621D01*
X101141132Y-105427377D01*
X101941560Y-105096647D01*
X102554495Y-104484782D01*
X102886621Y-103684932D01*
X102887377Y-102818868D01*
X102556647Y-102018440D01*
X101944782Y-101405505D01*
X101144932Y-101073379D01*
X100278868Y-101072623D01*
X99478440Y-101403353D01*
X98865505Y-102015218D01*
X98533379Y-102815068D01*
X98532623Y-103681132D01*
X82482000Y-103681132D01*
X82482000Y-99930544D01*
X89972571Y-99930544D01*
X90348877Y-100841275D01*
X91045060Y-101538674D01*
X91955133Y-101916569D01*
X92940544Y-101917429D01*
X93851275Y-101541123D01*
X94548674Y-100844940D01*
X94672337Y-100547126D01*
X94793877Y-100841275D01*
X95490060Y-101538674D01*
X96400133Y-101916569D01*
X97385544Y-101917429D01*
X98296275Y-101541123D01*
X98993674Y-100844940D01*
X99371569Y-99934867D01*
X99372429Y-98949456D01*
X98996123Y-98038725D01*
X98299940Y-97341326D01*
X97389867Y-96963431D01*
X96404456Y-96962571D01*
X95493725Y-97338877D01*
X94796326Y-98035060D01*
X94672663Y-98332874D01*
X94551123Y-98038725D01*
X93854940Y-97341326D01*
X92944867Y-96963431D01*
X91959456Y-96962571D01*
X91048725Y-97338877D01*
X90351326Y-98035060D01*
X89973431Y-98945133D01*
X89972571Y-99930544D01*
X82482000Y-99930544D01*
X82482000Y-82005740D01*
X86102588Y-82005740D01*
X86463703Y-82879703D01*
X87131780Y-83548947D01*
X88005111Y-83911586D01*
X88950740Y-83912412D01*
X89824703Y-83551297D01*
X90493947Y-82883220D01*
X90843043Y-82042503D01*
X90985186Y-82101526D01*
X92070054Y-82102472D01*
X93072703Y-81688186D01*
X93840490Y-80921738D01*
X94256526Y-79919814D01*
X94257472Y-78834946D01*
X93843186Y-77832297D01*
X93076738Y-77064510D01*
X92524018Y-76835000D01*
X95753000Y-76835000D01*
X95753000Y-80100000D01*
X95914908Y-80913968D01*
X96375984Y-81604016D01*
X103918000Y-89146032D01*
X103918000Y-121920000D01*
X104079908Y-122733968D01*
X104540984Y-123424016D01*
X105231032Y-123885092D01*
X106045000Y-124047000D01*
X106858968Y-123885092D01*
X107549016Y-123424016D01*
X108010092Y-122733968D01*
X108172000Y-121920000D01*
X108172000Y-113567646D01*
X108497111Y-113784878D01*
X109220000Y-113928670D01*
X109942889Y-113784878D01*
X110490000Y-113419311D01*
X111037111Y-113784878D01*
X111760000Y-113928670D01*
X112482889Y-113784878D01*
X113095725Y-113375395D01*
X113505208Y-112762559D01*
X113649000Y-112039670D01*
X113649000Y-111480330D01*
X117491000Y-111480330D01*
X117491000Y-112039670D01*
X117634792Y-112762559D01*
X118044275Y-113375395D01*
X118657111Y-113784878D01*
X119380000Y-113928670D01*
X120102889Y-113784878D01*
X120650000Y-113419311D01*
X121197111Y-113784878D01*
X121920000Y-113928670D01*
X122642889Y-113784878D01*
X123255725Y-113375395D01*
X123665208Y-112762559D01*
X123809000Y-112039670D01*
X123809000Y-111480330D01*
X123665208Y-110757441D01*
X123255725Y-110144605D01*
X122642889Y-109735122D01*
X121920000Y-109591330D01*
X121197111Y-109735122D01*
X120650000Y-110100689D01*
X120102889Y-109735122D01*
X119380000Y-109591330D01*
X118657111Y-109735122D01*
X118044275Y-110144605D01*
X117634792Y-110757441D01*
X117491000Y-111480330D01*
X113649000Y-111480330D01*
X113505208Y-110757441D01*
X113095725Y-110144605D01*
X112482889Y-109735122D01*
X111760000Y-109591330D01*
X111037111Y-109735122D01*
X110490000Y-110100689D01*
X109942889Y-109735122D01*
X109220000Y-109591330D01*
X108497111Y-109735122D01*
X108172000Y-109952354D01*
X108172000Y-103590000D01*
X110060921Y-103590000D01*
X110060921Y-104690000D01*
X110139506Y-105107641D01*
X110386331Y-105491219D01*
X110762944Y-105748548D01*
X111210000Y-105839079D01*
X112310000Y-105839079D01*
X112727641Y-105760494D01*
X113111219Y-105513669D01*
X113188621Y-105400387D01*
X113348816Y-105560862D01*
X113964961Y-105816708D01*
X114632112Y-105817290D01*
X115248703Y-105562520D01*
X115294302Y-105517000D01*
X115845030Y-105517000D01*
X115888816Y-105560862D01*
X116504961Y-105816708D01*
X117172112Y-105817290D01*
X117788703Y-105562520D01*
X118110147Y-105241636D01*
X118428816Y-105560862D01*
X119044961Y-105816708D01*
X119712112Y-105817290D01*
X120328703Y-105562520D01*
X120800862Y-105091184D01*
X121056708Y-104475039D01*
X121057290Y-103807888D01*
X120802520Y-103191297D01*
X120331184Y-102719138D01*
X119715039Y-102463292D01*
X119047888Y-102462710D01*
X118431297Y-102717480D01*
X118109853Y-103038364D01*
X117791184Y-102719138D01*
X117175039Y-102463292D01*
X116507888Y-102462710D01*
X115891297Y-102717480D01*
X115845698Y-102763000D01*
X115294970Y-102763000D01*
X115251184Y-102719138D01*
X114635039Y-102463292D01*
X113967888Y-102462710D01*
X113351297Y-102717480D01*
X113190852Y-102877646D01*
X113133669Y-102788781D01*
X112757056Y-102531452D01*
X112310000Y-102440921D01*
X111210000Y-102440921D01*
X110792359Y-102519506D01*
X110408781Y-102766331D01*
X110151452Y-103142944D01*
X110060921Y-103590000D01*
X108172000Y-103590000D01*
X108172000Y-88265000D01*
X108010092Y-87451032D01*
X107549016Y-86760984D01*
X104255635Y-83467603D01*
X112872752Y-83467603D01*
X113089543Y-83992275D01*
X113490614Y-84394047D01*
X114014907Y-84611752D01*
X114582603Y-84612248D01*
X114915334Y-84474766D01*
X114778248Y-84804907D01*
X114777752Y-85372603D01*
X114994543Y-85897275D01*
X115395614Y-86299047D01*
X115919907Y-86516752D01*
X116487603Y-86517248D01*
X117012275Y-86300457D01*
X117414047Y-85899386D01*
X117464507Y-85777865D01*
X119432372Y-83810000D01*
X119552275Y-83760457D01*
X119954047Y-83359386D01*
X120171752Y-82835093D01*
X120172248Y-82267397D01*
X119955457Y-81742725D01*
X119554386Y-81340953D01*
X119030093Y-81123248D01*
X118462397Y-81122752D01*
X118129666Y-81260234D01*
X118266752Y-80930093D01*
X118267248Y-80362397D01*
X118050457Y-79837725D01*
X117649386Y-79435953D01*
X117125093Y-79218248D01*
X116557397Y-79217752D01*
X116032725Y-79434543D01*
X115630953Y-79835614D01*
X115580493Y-79957135D01*
X113612628Y-81925000D01*
X113492725Y-81974543D01*
X113090953Y-82375614D01*
X112873248Y-82899907D01*
X112872752Y-83467603D01*
X104255635Y-83467603D01*
X100920480Y-80132448D01*
X101233968Y-80070092D01*
X101924016Y-79609016D01*
X102385092Y-78918968D01*
X102547000Y-78105000D01*
X102547000Y-75565000D01*
X102385092Y-74751032D01*
X102151876Y-74402000D01*
X114300000Y-74402000D01*
X114826955Y-74297182D01*
X115273686Y-73998686D01*
X117608049Y-71664323D01*
X127848421Y-71664323D01*
X127958964Y-71931243D01*
X128322736Y-72390000D01*
X127958964Y-72848757D01*
X127848421Y-73115677D01*
X128019057Y-73387000D01*
X129267000Y-73387000D01*
X129267000Y-71393000D01*
X129813000Y-71393000D01*
X129813000Y-73387000D01*
X131060943Y-73387000D01*
X131231579Y-73115677D01*
X131121036Y-72848757D01*
X130757264Y-72390000D01*
X131121036Y-71931243D01*
X131231579Y-71664323D01*
X131060943Y-71393000D01*
X129813000Y-71393000D01*
X129267000Y-71393000D01*
X128019057Y-71393000D01*
X127848421Y-71664323D01*
X117608049Y-71664323D01*
X122634329Y-66638043D01*
X122714792Y-67042559D01*
X122893490Y-67310000D01*
X122714792Y-67577441D01*
X122571000Y-68300330D01*
X122571000Y-68859670D01*
X122714792Y-69582559D01*
X123124275Y-70195395D01*
X123737111Y-70604878D01*
X124460000Y-70748670D01*
X125182889Y-70604878D01*
X125795725Y-70195395D01*
X125955015Y-69957000D01*
X128089320Y-69957000D01*
X128103318Y-69977950D01*
X128180424Y-70029471D01*
X127958964Y-70308757D01*
X127848421Y-70575677D01*
X128019057Y-70847000D01*
X129267000Y-70847000D01*
X129267000Y-70827000D01*
X129813000Y-70827000D01*
X129813000Y-70847000D01*
X131060943Y-70847000D01*
X131231579Y-70575677D01*
X131121036Y-70308757D01*
X130899576Y-70029471D01*
X130976682Y-69977950D01*
X131405242Y-69336565D01*
X131555732Y-68580000D01*
X131405242Y-67823435D01*
X131262344Y-67609574D01*
X131448548Y-67337056D01*
X131539079Y-66890000D01*
X131539079Y-65512000D01*
X140177905Y-65512000D01*
X140177752Y-65687603D01*
X140394543Y-66212275D01*
X140795614Y-66614047D01*
X141319907Y-66831752D01*
X141887603Y-66832248D01*
X142412275Y-66615457D01*
X142780921Y-66247454D01*
X142780921Y-66890000D01*
X142859506Y-67307641D01*
X143106331Y-67691219D01*
X143206290Y-67759518D01*
X143198964Y-67768757D01*
X143088421Y-68035677D01*
X143259057Y-68307000D01*
X144507000Y-68307000D01*
X144507000Y-68287000D01*
X145053000Y-68287000D01*
X145053000Y-68307000D01*
X146300943Y-68307000D01*
X146471579Y-68035677D01*
X146361036Y-67768757D01*
X146355824Y-67762184D01*
X146431219Y-67713669D01*
X146633925Y-67417000D01*
X148364985Y-67417000D01*
X148524275Y-67655395D01*
X149137111Y-68064878D01*
X149860000Y-68208670D01*
X150582889Y-68064878D01*
X151195725Y-67655395D01*
X151605208Y-67042559D01*
X151749000Y-66319670D01*
X151749000Y-65760330D01*
X151699604Y-65512000D01*
X153734628Y-65512000D01*
X155585000Y-67362372D01*
X155634543Y-67482275D01*
X156035614Y-67884047D01*
X156559907Y-68101752D01*
X157127603Y-68102248D01*
X157652275Y-67885457D01*
X158054047Y-67484386D01*
X158271752Y-66960093D01*
X158272248Y-66392397D01*
X158055457Y-65867725D01*
X157654386Y-65465953D01*
X157532865Y-65415493D01*
X156359372Y-64242000D01*
X159329112Y-64242000D01*
X159228248Y-64484907D01*
X159227752Y-65052603D01*
X159444543Y-65577275D01*
X159845614Y-65979047D01*
X160369907Y-66196752D01*
X160937603Y-66197248D01*
X161462275Y-65980457D01*
X161864047Y-65579386D01*
X161892028Y-65512000D01*
X165640921Y-65512000D01*
X165640921Y-66890000D01*
X165719506Y-67307641D01*
X165915688Y-67612518D01*
X165774758Y-67823435D01*
X165624268Y-68580000D01*
X165774758Y-69336565D01*
X166203318Y-69977950D01*
X166280424Y-70029471D01*
X166058964Y-70308757D01*
X165948421Y-70575677D01*
X166119057Y-70847000D01*
X167367000Y-70847000D01*
X167367000Y-70827000D01*
X167913000Y-70827000D01*
X167913000Y-70847000D01*
X169160943Y-70847000D01*
X169331579Y-70575677D01*
X169221036Y-70308757D01*
X168999576Y-70029471D01*
X169076682Y-69977950D01*
X169505242Y-69336565D01*
X169508139Y-69322000D01*
X169545000Y-69322000D01*
X170071955Y-69217182D01*
X170518686Y-68918686D01*
X170817182Y-68471955D01*
X170922000Y-67945000D01*
X170922000Y-64242000D01*
X181421997Y-64242000D01*
X181228781Y-64366331D01*
X180971452Y-64742944D01*
X180880921Y-65190000D01*
X180880921Y-66890000D01*
X180959506Y-67307641D01*
X181206331Y-67691219D01*
X181306290Y-67759518D01*
X181298964Y-67768757D01*
X181188421Y-68035677D01*
X181359057Y-68307000D01*
X182607000Y-68307000D01*
X182607000Y-68287000D01*
X183153000Y-68287000D01*
X183153000Y-68307000D01*
X184400943Y-68307000D01*
X184571579Y-68035677D01*
X184461036Y-67768757D01*
X184455824Y-67762184D01*
X184531219Y-67713669D01*
X184733925Y-67417000D01*
X186464985Y-67417000D01*
X186624275Y-67655395D01*
X187237111Y-68064878D01*
X187960000Y-68208670D01*
X188682889Y-68064878D01*
X189295725Y-67655395D01*
X189705208Y-67042559D01*
X189849000Y-66319670D01*
X189849000Y-65760330D01*
X189767318Y-65349690D01*
X191780000Y-67362372D01*
X191829543Y-67482275D01*
X192230614Y-67884047D01*
X192754907Y-68101752D01*
X193322603Y-68102248D01*
X193847275Y-67885457D01*
X194249047Y-67484386D01*
X194305664Y-67348036D01*
X194606314Y-67648686D01*
X195053045Y-67947182D01*
X195580000Y-68052000D01*
X200054430Y-68052000D01*
X199980921Y-68415000D01*
X199980921Y-68473000D01*
X192405000Y-68473000D01*
X191878045Y-68577818D01*
X191431314Y-68876314D01*
X189785671Y-70521957D01*
X189705208Y-70117441D01*
X189295725Y-69504605D01*
X188682889Y-69095122D01*
X187960000Y-68951330D01*
X187237111Y-69095122D01*
X186624275Y-69504605D01*
X186464985Y-69743000D01*
X184330680Y-69743000D01*
X184316682Y-69722050D01*
X184239576Y-69670529D01*
X184461036Y-69391243D01*
X184571579Y-69124323D01*
X184400943Y-68853000D01*
X183153000Y-68853000D01*
X183153000Y-68873000D01*
X182607000Y-68873000D01*
X182607000Y-68853000D01*
X181359057Y-68853000D01*
X181188421Y-69124323D01*
X181298964Y-69391243D01*
X181520424Y-69670529D01*
X181443318Y-69722050D01*
X181014758Y-70363435D01*
X180864268Y-71120000D01*
X181014758Y-71876565D01*
X181286329Y-72283000D01*
X179672428Y-72283000D01*
X179645457Y-72217725D01*
X179244386Y-71815953D01*
X178720093Y-71598248D01*
X178152397Y-71597752D01*
X177627725Y-71814543D01*
X177225953Y-72215614D01*
X177008248Y-72739907D01*
X177007752Y-73307603D01*
X177224543Y-73832275D01*
X177625614Y-74234047D01*
X177747135Y-74284507D01*
X178096314Y-74633686D01*
X178543045Y-74932182D01*
X179070000Y-75037000D01*
X181286329Y-75037000D01*
X181014758Y-75443435D01*
X180864268Y-76200000D01*
X181014758Y-76956565D01*
X181357824Y-77470000D01*
X181014758Y-77983435D01*
X180864268Y-78740000D01*
X181014758Y-79496565D01*
X181357824Y-80010000D01*
X181014758Y-80523435D01*
X180864268Y-81280000D01*
X181014758Y-82036565D01*
X181357824Y-82550000D01*
X181014758Y-83063435D01*
X180864268Y-83820000D01*
X181014758Y-84576565D01*
X181357824Y-85090000D01*
X181014758Y-85603435D01*
X180864268Y-86360000D01*
X181014758Y-87116565D01*
X181357824Y-87630000D01*
X181014758Y-88143435D01*
X180864268Y-88900000D01*
X181014758Y-89656565D01*
X181357824Y-90170000D01*
X181014758Y-90683435D01*
X180864268Y-91440000D01*
X181014758Y-92196565D01*
X181357824Y-92710000D01*
X181014758Y-93223435D01*
X180889670Y-93852298D01*
X172423686Y-85386314D01*
X171976955Y-85087818D01*
X171450000Y-84983000D01*
X169233671Y-84983000D01*
X169505242Y-84576565D01*
X169655732Y-83820000D01*
X169505242Y-83063435D01*
X169162176Y-82550000D01*
X169505242Y-82036565D01*
X169655732Y-81280000D01*
X169505242Y-80523435D01*
X169162176Y-80010000D01*
X169505242Y-79496565D01*
X169655732Y-78740000D01*
X169505242Y-77983435D01*
X169162176Y-77470000D01*
X169505242Y-76956565D01*
X169655732Y-76200000D01*
X169505242Y-75443435D01*
X169076682Y-74802050D01*
X168999576Y-74750529D01*
X169221036Y-74471243D01*
X169331579Y-74204323D01*
X169160943Y-73933000D01*
X167913000Y-73933000D01*
X167913000Y-73953000D01*
X167367000Y-73953000D01*
X167367000Y-73933000D01*
X166119057Y-73933000D01*
X165948421Y-74204323D01*
X166058964Y-74471243D01*
X166280424Y-74750529D01*
X166203318Y-74802050D01*
X165774758Y-75443435D01*
X165624268Y-76200000D01*
X165774758Y-76956565D01*
X166117824Y-77470000D01*
X165774758Y-77983435D01*
X165624268Y-78740000D01*
X165774758Y-79496565D01*
X166046329Y-79903000D01*
X164055015Y-79903000D01*
X163895725Y-79664605D01*
X163282889Y-79255122D01*
X162560000Y-79111330D01*
X161837111Y-79255122D01*
X161224275Y-79664605D01*
X160814792Y-80277441D01*
X160671000Y-81000330D01*
X160671000Y-81559670D01*
X160814792Y-82282559D01*
X160993490Y-82550000D01*
X160814792Y-82817441D01*
X160671000Y-83540330D01*
X160671000Y-84099670D01*
X160814792Y-84822559D01*
X161224275Y-85435395D01*
X161837111Y-85844878D01*
X162560000Y-85988670D01*
X163282889Y-85844878D01*
X163895725Y-85435395D01*
X164055015Y-85197000D01*
X166046329Y-85197000D01*
X165774758Y-85603435D01*
X165624268Y-86360000D01*
X165774758Y-87116565D01*
X166046329Y-87523000D01*
X164055015Y-87523000D01*
X163895725Y-87284605D01*
X163282889Y-86875122D01*
X162560000Y-86731330D01*
X161837111Y-86875122D01*
X161224275Y-87284605D01*
X160814792Y-87897441D01*
X160671000Y-88620330D01*
X160671000Y-89179670D01*
X160814792Y-89902559D01*
X160993490Y-90170000D01*
X160814792Y-90437441D01*
X160671000Y-91160330D01*
X160671000Y-91719670D01*
X160814792Y-92442559D01*
X160993490Y-92710000D01*
X160874882Y-92887510D01*
X158906901Y-90919529D01*
X158907248Y-90522397D01*
X158690457Y-89997725D01*
X158289386Y-89595953D01*
X157765093Y-89378248D01*
X157197397Y-89377752D01*
X156672725Y-89594543D01*
X156270953Y-89995614D01*
X156214336Y-90131964D01*
X152103686Y-86021314D01*
X151656955Y-85722818D01*
X151130000Y-85618000D01*
X150922437Y-85618000D01*
X151195725Y-85435395D01*
X151605208Y-84822559D01*
X151749000Y-84099670D01*
X151749000Y-83540330D01*
X151605208Y-82817441D01*
X151426510Y-82550000D01*
X151605208Y-82282559D01*
X151749000Y-81559670D01*
X151749000Y-81000330D01*
X151605208Y-80277441D01*
X151426510Y-80010000D01*
X151605208Y-79742559D01*
X151749000Y-79019670D01*
X151749000Y-78460330D01*
X151605208Y-77737441D01*
X151426510Y-77470000D01*
X151605208Y-77202559D01*
X151749000Y-76479670D01*
X151749000Y-75920330D01*
X151605208Y-75197441D01*
X151195725Y-74584605D01*
X150922437Y-74402000D01*
X151130000Y-74402000D01*
X151656955Y-74297182D01*
X152103686Y-73998686D01*
X154240372Y-71862000D01*
X162790091Y-71862000D01*
X162909907Y-71911752D01*
X163477603Y-71912248D01*
X164002275Y-71695457D01*
X164033463Y-71664323D01*
X165948421Y-71664323D01*
X166058964Y-71931243D01*
X166422736Y-72390000D01*
X166058964Y-72848757D01*
X165948421Y-73115677D01*
X166119057Y-73387000D01*
X167367000Y-73387000D01*
X167367000Y-71393000D01*
X167913000Y-71393000D01*
X167913000Y-73387000D01*
X169160943Y-73387000D01*
X169331579Y-73115677D01*
X169221036Y-72848757D01*
X168857264Y-72390000D01*
X169221036Y-71931243D01*
X169331579Y-71664323D01*
X169160943Y-71393000D01*
X167913000Y-71393000D01*
X167367000Y-71393000D01*
X166119057Y-71393000D01*
X165948421Y-71664323D01*
X164033463Y-71664323D01*
X164404047Y-71294386D01*
X164621752Y-70770093D01*
X164622248Y-70202397D01*
X164405457Y-69677725D01*
X164004386Y-69275953D01*
X163480093Y-69058248D01*
X162912397Y-69057752D01*
X162790788Y-69108000D01*
X153670000Y-69108000D01*
X153143045Y-69212818D01*
X152696314Y-69511314D01*
X151685671Y-70521957D01*
X151605208Y-70117441D01*
X151195725Y-69504605D01*
X150582889Y-69095122D01*
X149860000Y-68951330D01*
X149137111Y-69095122D01*
X148524275Y-69504605D01*
X148364985Y-69743000D01*
X146230680Y-69743000D01*
X146216682Y-69722050D01*
X146139576Y-69670529D01*
X146361036Y-69391243D01*
X146471579Y-69124323D01*
X146300943Y-68853000D01*
X145053000Y-68853000D01*
X145053000Y-68873000D01*
X144507000Y-68873000D01*
X144507000Y-68853000D01*
X143259057Y-68853000D01*
X143088421Y-69124323D01*
X143198964Y-69391243D01*
X143420424Y-69670529D01*
X143343318Y-69722050D01*
X142914758Y-70363435D01*
X142764268Y-71120000D01*
X142914758Y-71876565D01*
X143257824Y-72390000D01*
X142914758Y-72903435D01*
X142764268Y-73660000D01*
X142914758Y-74416565D01*
X143257824Y-74930000D01*
X142914758Y-75443435D01*
X142764268Y-76200000D01*
X142914758Y-76956565D01*
X143257824Y-77470000D01*
X142914758Y-77983435D01*
X142764268Y-78740000D01*
X142914758Y-79496565D01*
X143257824Y-80010000D01*
X142914758Y-80523435D01*
X142764268Y-81280000D01*
X142914758Y-82036565D01*
X143257824Y-82550000D01*
X142914758Y-83063435D01*
X142764268Y-83820000D01*
X142914758Y-84576565D01*
X143257824Y-85090000D01*
X142914758Y-85603435D01*
X142764268Y-86360000D01*
X142914758Y-87116565D01*
X143257824Y-87630000D01*
X142914758Y-88143435D01*
X142764268Y-88900000D01*
X142914758Y-89656565D01*
X143257824Y-90170000D01*
X142914758Y-90683435D01*
X142764268Y-91440000D01*
X142914758Y-92196565D01*
X143257824Y-92710000D01*
X142914758Y-93223435D01*
X142789670Y-93852298D01*
X135293220Y-86355848D01*
X135427275Y-86300457D01*
X135829047Y-85899386D01*
X136046752Y-85375093D01*
X136047248Y-84807397D01*
X135830457Y-84282725D01*
X135429386Y-83880953D01*
X135307865Y-83830493D01*
X131783686Y-80306314D01*
X131336955Y-80007818D01*
X131095699Y-79959829D01*
X131405242Y-79496565D01*
X131555732Y-78740000D01*
X131405242Y-77983435D01*
X131062176Y-77470000D01*
X131405242Y-76956565D01*
X131555732Y-76200000D01*
X131405242Y-75443435D01*
X130976682Y-74802050D01*
X130899576Y-74750529D01*
X131121036Y-74471243D01*
X131231579Y-74204323D01*
X131060943Y-73933000D01*
X129813000Y-73933000D01*
X129813000Y-73953000D01*
X129267000Y-73953000D01*
X129267000Y-73933000D01*
X128019057Y-73933000D01*
X127848421Y-74204323D01*
X127958964Y-74471243D01*
X128180424Y-74750529D01*
X128103318Y-74802050D01*
X127674758Y-75443435D01*
X127524268Y-76200000D01*
X127674758Y-76956565D01*
X128017824Y-77470000D01*
X127674758Y-77983435D01*
X127524268Y-78740000D01*
X127674758Y-79496565D01*
X128017824Y-80010000D01*
X127674758Y-80523435D01*
X127524268Y-81280000D01*
X127674758Y-82036565D01*
X128017824Y-82550000D01*
X127674758Y-83063435D01*
X127524268Y-83820000D01*
X127674758Y-84576565D01*
X127946329Y-84983000D01*
X125955015Y-84983000D01*
X125795725Y-84744605D01*
X125182889Y-84335122D01*
X124460000Y-84191330D01*
X123737111Y-84335122D01*
X123124275Y-84744605D01*
X122714792Y-85357441D01*
X122571000Y-86080330D01*
X122571000Y-86639670D01*
X122714792Y-87362559D01*
X123124275Y-87975395D01*
X123737111Y-88384878D01*
X124460000Y-88528670D01*
X125182889Y-88384878D01*
X125795725Y-87975395D01*
X125955015Y-87737000D01*
X127946329Y-87737000D01*
X127674758Y-88143435D01*
X127524268Y-88900000D01*
X127674758Y-89656565D01*
X128017824Y-90170000D01*
X127674758Y-90683435D01*
X127524268Y-91440000D01*
X127674758Y-92196565D01*
X127946329Y-92603000D01*
X125955015Y-92603000D01*
X125795725Y-92364605D01*
X125182889Y-91955122D01*
X124460000Y-91811330D01*
X123737111Y-91955122D01*
X123124275Y-92364605D01*
X122714792Y-92977441D01*
X122571000Y-93700330D01*
X122571000Y-94259670D01*
X122714792Y-94982559D01*
X123124275Y-95595395D01*
X123737111Y-96004878D01*
X124460000Y-96148670D01*
X125182889Y-96004878D01*
X125795725Y-95595395D01*
X125955015Y-95357000D01*
X128089320Y-95357000D01*
X128103318Y-95377950D01*
X128744703Y-95806510D01*
X129501268Y-95957000D01*
X129578732Y-95957000D01*
X130335297Y-95806510D01*
X130976682Y-95377950D01*
X131405242Y-94736565D01*
X131530330Y-94107702D01*
X150345628Y-112923000D01*
X148994909Y-112923000D01*
X148875093Y-112873248D01*
X148307397Y-112872752D01*
X147782725Y-113089543D01*
X147380953Y-113490614D01*
X147163248Y-114014907D01*
X147162752Y-114582603D01*
X147379543Y-115107275D01*
X147780614Y-115509047D01*
X148304907Y-115726752D01*
X148872603Y-115727248D01*
X148994212Y-115677000D01*
X178665091Y-115677000D01*
X178784907Y-115726752D01*
X179352603Y-115727248D01*
X179877275Y-115510457D01*
X180279047Y-115109386D01*
X180496752Y-114585093D01*
X180497248Y-114017397D01*
X180280457Y-113492725D01*
X179925353Y-113137000D01*
X198755000Y-113137000D01*
X199281955Y-113032182D01*
X199427317Y-112935054D01*
X228322528Y-112935054D01*
X228736814Y-113937703D01*
X229503262Y-114705490D01*
X230505186Y-115121526D01*
X231590054Y-115122472D01*
X231737401Y-115061590D01*
X232083703Y-115899703D01*
X232751780Y-116568947D01*
X233625111Y-116931586D01*
X234570740Y-116932412D01*
X235444703Y-116571297D01*
X236113947Y-115903220D01*
X236476586Y-115029889D01*
X236477412Y-114084260D01*
X236116297Y-113210297D01*
X235448220Y-112541053D01*
X234574889Y-112178414D01*
X233777191Y-112177717D01*
X233777472Y-111854946D01*
X233363186Y-110852297D01*
X232596738Y-110084510D01*
X231594814Y-109668474D01*
X230509946Y-109667528D01*
X229507297Y-110081814D01*
X228739510Y-110848262D01*
X228323474Y-111850186D01*
X228322528Y-112935054D01*
X199427317Y-112935054D01*
X199728686Y-112733686D01*
X199960372Y-112502000D01*
X200025000Y-112502000D01*
X200551955Y-112397182D01*
X200629697Y-112345236D01*
X223865845Y-112345236D01*
X223928728Y-112651021D01*
X224571420Y-112830012D01*
X225233687Y-112749431D01*
X225471272Y-112651021D01*
X225534155Y-112345236D01*
X224700000Y-111511080D01*
X223865845Y-112345236D01*
X200629697Y-112345236D01*
X200998686Y-112098686D01*
X201230372Y-111867000D01*
X216535000Y-111867000D01*
X217061955Y-111762182D01*
X217508686Y-111463686D01*
X220280372Y-108692000D01*
X220882433Y-108692000D01*
X220895415Y-108705004D01*
X220759668Y-108840751D01*
X220939762Y-109020845D01*
X220633979Y-109083728D01*
X220454988Y-109726420D01*
X220535569Y-110388687D01*
X220633979Y-110626272D01*
X220939764Y-110689155D01*
X221773920Y-109855000D01*
X221759777Y-109840858D01*
X222145858Y-109454777D01*
X222160000Y-109468920D01*
X222174143Y-109454778D01*
X222560223Y-109840858D01*
X222546080Y-109855000D01*
X222560223Y-109869143D01*
X222174142Y-110255223D01*
X222160000Y-110241080D01*
X221325845Y-111075236D01*
X221388728Y-111381021D01*
X222031420Y-111560012D01*
X222693687Y-111479431D01*
X222931272Y-111381021D01*
X222994155Y-111075238D01*
X223006022Y-111087105D01*
X223075569Y-111658687D01*
X223173979Y-111896272D01*
X223479764Y-111959155D01*
X224313920Y-111125000D01*
X224299778Y-111110858D01*
X224685858Y-110724777D01*
X224700000Y-110738920D01*
X224714143Y-110724778D01*
X225100223Y-111110858D01*
X225086080Y-111125000D01*
X225920236Y-111959155D01*
X226226021Y-111896272D01*
X226405012Y-111253580D01*
X226324431Y-110591313D01*
X226226021Y-110353728D01*
X225920238Y-110290845D01*
X226100332Y-110110751D01*
X225964476Y-109974895D01*
X226290316Y-109649624D01*
X226576674Y-108959996D01*
X226577325Y-108213280D01*
X226292171Y-107523154D01*
X226084480Y-107315100D01*
X226290316Y-107109624D01*
X226576674Y-106419996D01*
X226577325Y-105673280D01*
X226292171Y-104983154D01*
X226084480Y-104775100D01*
X226290316Y-104569624D01*
X226576674Y-103879996D01*
X226577325Y-103133280D01*
X226292171Y-102443154D01*
X226191194Y-102342000D01*
X227330000Y-102342000D01*
X227856955Y-102237182D01*
X228303686Y-101938686D01*
X228443805Y-101798567D01*
X228736814Y-102507703D01*
X229503262Y-103275490D01*
X230505186Y-103691526D01*
X231590054Y-103692472D01*
X232592703Y-103278186D01*
X233360490Y-102511738D01*
X233776526Y-101509814D01*
X233776812Y-101181719D01*
X234570740Y-101182412D01*
X235444703Y-100821297D01*
X236113947Y-100153220D01*
X236476586Y-99279889D01*
X236477412Y-98334260D01*
X236116297Y-97460297D01*
X235448220Y-96791053D01*
X234574889Y-96428414D01*
X233814622Y-96427750D01*
X237932922Y-92309450D01*
X238641560Y-92016647D01*
X239254495Y-91404782D01*
X239586621Y-90604932D01*
X239587377Y-89738868D01*
X239256647Y-88938440D01*
X238644782Y-88325505D01*
X237844932Y-87993379D01*
X236978868Y-87992623D01*
X236178440Y-88323353D01*
X236131686Y-88370025D01*
X235910741Y-87835296D01*
X234750810Y-86673340D01*
X233234513Y-86043718D01*
X231592690Y-86042285D01*
X230075296Y-86669259D01*
X229367734Y-87375588D01*
X229339866Y-87087937D01*
X229186202Y-86716961D01*
X228849648Y-86616432D01*
X227796080Y-87670000D01*
X227810223Y-87684143D01*
X227424143Y-88070223D01*
X227410000Y-88056080D01*
X226356432Y-89109648D01*
X226456961Y-89446202D01*
X227209229Y-89675709D01*
X227992063Y-89599866D01*
X228283601Y-89479106D01*
X228282558Y-90675097D01*
X227844932Y-90493379D01*
X226978868Y-90492623D01*
X226178440Y-90823353D01*
X225565505Y-91435218D01*
X225233379Y-92235068D01*
X225232623Y-93101132D01*
X225563353Y-93901560D01*
X226175218Y-94514495D01*
X226975068Y-94846621D01*
X227841132Y-94847377D01*
X228641560Y-94516647D01*
X229254495Y-93904782D01*
X229563654Y-93160242D01*
X230069190Y-93666660D01*
X231585487Y-94296282D01*
X232050940Y-94296688D01*
X226759628Y-99588000D01*
X220980000Y-99588000D01*
X220453045Y-99692818D01*
X220006314Y-99991314D01*
X218504628Y-101493000D01*
X188364909Y-101493000D01*
X188245093Y-101443248D01*
X187677397Y-101442752D01*
X187152725Y-101659543D01*
X186750953Y-102060614D01*
X186533248Y-102584907D01*
X186532752Y-103152603D01*
X186749543Y-103677275D01*
X187150614Y-104079047D01*
X187674907Y-104296752D01*
X188242603Y-104297248D01*
X188364212Y-104247000D01*
X218290628Y-104247000D01*
X217165848Y-105371780D01*
X217110457Y-105237725D01*
X216709386Y-104835953D01*
X216185093Y-104618248D01*
X215617397Y-104617752D01*
X215495788Y-104668000D01*
X184785000Y-104668000D01*
X184258045Y-104772818D01*
X183811314Y-105071314D01*
X182827628Y-106055000D01*
X182707725Y-106104543D01*
X182305953Y-106505614D01*
X182088248Y-107029907D01*
X182087752Y-107597603D01*
X182304543Y-108122275D01*
X182705614Y-108524047D01*
X183229907Y-108741752D01*
X183797603Y-108742248D01*
X184322275Y-108525457D01*
X184724047Y-108124386D01*
X184774507Y-108002865D01*
X185355372Y-107422000D01*
X196222755Y-107422000D01*
X195914236Y-107729981D01*
X195513457Y-108695165D01*
X195512545Y-109740250D01*
X195778124Y-110383000D01*
X179070000Y-110383000D01*
X178543045Y-110487818D01*
X178096314Y-110786314D01*
X177864628Y-111018000D01*
X177800000Y-111018000D01*
X177273045Y-111122818D01*
X176826314Y-111421314D01*
X176594628Y-111653000D01*
X176230867Y-111653000D01*
X176726132Y-111448361D01*
X177465764Y-110710019D01*
X177866543Y-109744835D01*
X177867455Y-108699750D01*
X177468361Y-107733868D01*
X176730019Y-106994236D01*
X175764835Y-106593457D01*
X175641381Y-106593349D01*
X174565032Y-105517000D01*
X179935091Y-105517000D01*
X180054907Y-105566752D01*
X180622603Y-105567248D01*
X181147275Y-105350457D01*
X181549047Y-104949386D01*
X181766752Y-104425093D01*
X181767248Y-103857397D01*
X181686539Y-103662068D01*
X181892603Y-103662248D01*
X182417275Y-103445457D01*
X182819047Y-103044386D01*
X183036752Y-102520093D01*
X183037248Y-101952397D01*
X182935852Y-101707000D01*
X185015091Y-101707000D01*
X185134907Y-101756752D01*
X185702603Y-101757248D01*
X186227275Y-101540457D01*
X186629047Y-101139386D01*
X186846752Y-100615093D01*
X186847248Y-100047397D01*
X186745852Y-99802000D01*
X203835000Y-99802000D01*
X204361955Y-99697182D01*
X204808686Y-99398686D01*
X205040372Y-99167000D01*
X207010000Y-99167000D01*
X207536955Y-99062182D01*
X207983686Y-98763686D01*
X211737401Y-95009971D01*
X211897783Y-95250000D01*
X211541932Y-95782569D01*
X211395248Y-96520000D01*
X211541932Y-97257431D01*
X211959653Y-97882595D01*
X212584817Y-98300316D01*
X213322248Y-98447000D01*
X213397752Y-98447000D01*
X214135183Y-98300316D01*
X214760347Y-97882595D01*
X215178068Y-97257431D01*
X215324752Y-96520000D01*
X215178068Y-95782569D01*
X214822217Y-95250000D01*
X215178068Y-94717431D01*
X215324752Y-93980000D01*
X215178068Y-93242569D01*
X214822217Y-92710000D01*
X215178068Y-92177431D01*
X215324752Y-91440000D01*
X215305450Y-91342961D01*
X215603686Y-91143686D01*
X215902182Y-90696955D01*
X216007000Y-90170000D01*
X216007000Y-88835372D01*
X216632682Y-88209690D01*
X216551000Y-88620330D01*
X216551000Y-89179670D01*
X216694792Y-89902559D01*
X217104275Y-90515395D01*
X217717111Y-90924878D01*
X218440000Y-91068670D01*
X219162889Y-90924878D01*
X219775725Y-90515395D01*
X220185208Y-89902559D01*
X220329000Y-89179670D01*
X220329000Y-88620330D01*
X220185208Y-87897441D01*
X219899087Y-87469229D01*
X225404291Y-87469229D01*
X225480134Y-88252063D01*
X225633798Y-88623039D01*
X225970352Y-88723568D01*
X227023920Y-87670000D01*
X225970352Y-86616432D01*
X225633798Y-86716961D01*
X225404291Y-87469229D01*
X219899087Y-87469229D01*
X219775725Y-87284605D01*
X219162889Y-86875122D01*
X218440000Y-86731330D01*
X218029360Y-86813012D01*
X218612020Y-86230352D01*
X226356432Y-86230352D01*
X227410000Y-87283920D01*
X228463568Y-86230352D01*
X228363039Y-85893798D01*
X227610771Y-85664291D01*
X226827937Y-85740134D01*
X226456961Y-85893798D01*
X226356432Y-86230352D01*
X218612020Y-86230352D01*
X224860231Y-79982141D01*
X225071720Y-79982325D01*
X225234528Y-79915054D01*
X228322528Y-79915054D01*
X228736814Y-80917703D01*
X229503262Y-81685490D01*
X230505186Y-82101526D01*
X231590054Y-82102472D01*
X231737401Y-82041590D01*
X232083703Y-82879703D01*
X232751780Y-83548947D01*
X233625111Y-83911586D01*
X234570740Y-83912412D01*
X235444703Y-83551297D01*
X236113947Y-82883220D01*
X236476586Y-82009889D01*
X236477412Y-81064260D01*
X236116297Y-80190297D01*
X235448220Y-79521053D01*
X234574889Y-79158414D01*
X233777191Y-79157717D01*
X233777472Y-78834946D01*
X233363186Y-77832297D01*
X232596738Y-77064510D01*
X231594814Y-76648474D01*
X230509946Y-76647528D01*
X229507297Y-77061814D01*
X228739510Y-77828262D01*
X228323474Y-78830186D01*
X228322528Y-79915054D01*
X225234528Y-79915054D01*
X225761846Y-79697171D01*
X226290316Y-79169624D01*
X226576674Y-78479996D01*
X226577325Y-77733280D01*
X226292171Y-77043154D01*
X226084480Y-76835100D01*
X226290316Y-76629624D01*
X226576674Y-75939996D01*
X226577325Y-75193280D01*
X226292171Y-74503154D01*
X226084480Y-74295100D01*
X226290316Y-74089624D01*
X226576674Y-73399996D01*
X226577325Y-72653280D01*
X226292171Y-71963154D01*
X226084480Y-71755100D01*
X226290316Y-71549624D01*
X226576674Y-70859996D01*
X226577325Y-70113280D01*
X226292171Y-69423154D01*
X225764624Y-68894684D01*
X225074996Y-68608326D01*
X224328280Y-68607675D01*
X223996602Y-68744722D01*
X223889310Y-68485054D01*
X228322528Y-68485054D01*
X228736814Y-69487703D01*
X229503262Y-70255490D01*
X230505186Y-70671526D01*
X231590054Y-70672472D01*
X232592703Y-70258186D01*
X233360490Y-69491738D01*
X233776526Y-68489814D01*
X233776812Y-68161719D01*
X234570740Y-68162412D01*
X235444703Y-67801297D01*
X236113947Y-67133220D01*
X236476586Y-66259889D01*
X236477412Y-65314260D01*
X236116297Y-64440297D01*
X235448220Y-63771053D01*
X234574889Y-63408414D01*
X233629260Y-63407588D01*
X232755297Y-63768703D01*
X232086053Y-64436780D01*
X231736957Y-65277497D01*
X231594814Y-65218474D01*
X230509946Y-65217528D01*
X229507297Y-65631814D01*
X228739510Y-66398262D01*
X228323474Y-67400186D01*
X228322528Y-68485054D01*
X223889310Y-68485054D01*
X223752171Y-68153154D01*
X223224624Y-67624684D01*
X222534996Y-67338326D01*
X221788280Y-67337675D01*
X221098154Y-67622829D01*
X220569684Y-68150376D01*
X220373922Y-68621825D01*
X220285457Y-68407725D01*
X219884386Y-68005953D01*
X219360093Y-67788248D01*
X218792397Y-67787752D01*
X218670788Y-67838000D01*
X217740372Y-67838000D01*
X216873686Y-66971314D01*
X216426955Y-66672818D01*
X215900000Y-66568000D01*
X206310372Y-66568000D01*
X205443686Y-65701314D01*
X204996955Y-65402818D01*
X204470000Y-65298000D01*
X196150372Y-65298000D01*
X191473686Y-60621314D01*
X191026955Y-60322818D01*
X190500000Y-60218000D01*
X185387428Y-60218000D01*
X185360457Y-60152725D01*
X184959386Y-59750953D01*
X184435093Y-59533248D01*
X183867397Y-59532752D01*
X183342725Y-59749543D01*
X182940953Y-60150614D01*
X182723248Y-60674907D01*
X182722752Y-61242603D01*
X182824148Y-61488000D01*
X158170888Y-61488000D01*
X158271752Y-61245093D01*
X158272248Y-60677397D01*
X158055457Y-60152725D01*
X157654386Y-59750953D01*
X157130093Y-59533248D01*
X156562397Y-59532752D01*
X156037725Y-59749543D01*
X155635953Y-60150614D01*
X155607972Y-60218000D01*
X140335000Y-60218000D01*
X139808045Y-60322818D01*
X139361314Y-60621314D01*
X139129628Y-60853000D01*
X129944909Y-60853000D01*
X129825093Y-60803248D01*
X129257397Y-60802752D01*
X128732725Y-61019543D01*
X128330953Y-61420614D01*
X128113248Y-61944907D01*
X128112752Y-62512603D01*
X128214148Y-62758000D01*
X123190000Y-62758000D01*
X122663045Y-62862818D01*
X122216314Y-63161314D01*
X113729628Y-71648000D01*
X101697567Y-71648000D01*
X101684585Y-71634996D01*
X101820332Y-71499249D01*
X101640238Y-71319155D01*
X101946021Y-71256272D01*
X102125012Y-70613580D01*
X102044431Y-69951313D01*
X101946021Y-69713728D01*
X101640236Y-69650845D01*
X100806080Y-70485000D01*
X100820223Y-70499142D01*
X100434142Y-70885223D01*
X100420000Y-70871080D01*
X100405858Y-70885223D01*
X100019777Y-70499142D01*
X100033920Y-70485000D01*
X100019778Y-70470858D01*
X100405858Y-70084777D01*
X100420000Y-70098920D01*
X101254155Y-69264764D01*
X101191272Y-68958979D01*
X100548580Y-68779988D01*
X99886313Y-68860569D01*
X99648728Y-68958979D01*
X99585845Y-69264762D01*
X99573978Y-69252895D01*
X99504431Y-68681313D01*
X99406021Y-68443728D01*
X99100236Y-68380845D01*
X98266080Y-69215000D01*
X98280223Y-69229143D01*
X97894142Y-69615223D01*
X97880000Y-69601080D01*
X97351093Y-70129987D01*
X97346313Y-70130569D01*
X97108728Y-70228979D01*
X97071611Y-70409470D01*
X97045845Y-70435236D01*
X97056079Y-70485000D01*
X97045845Y-70534764D01*
X97071611Y-70560530D01*
X97108728Y-70741021D01*
X97307445Y-70796364D01*
X97880000Y-71368920D01*
X97894143Y-71354778D01*
X98280223Y-71740858D01*
X98266080Y-71755000D01*
X98280223Y-71769142D01*
X97894142Y-72155223D01*
X97880000Y-72141080D01*
X97865858Y-72155223D01*
X97479777Y-71769142D01*
X97493920Y-71755000D01*
X96659764Y-70920845D01*
X96353979Y-70983728D01*
X96174988Y-71626420D01*
X96255569Y-72288687D01*
X96353979Y-72526272D01*
X96659762Y-72589155D01*
X96479668Y-72769249D01*
X96615524Y-72905105D01*
X96289684Y-73230376D01*
X96003326Y-73920004D01*
X96002675Y-74666720D01*
X96287829Y-75356846D01*
X96330285Y-75399377D01*
X95914908Y-76021032D01*
X95753000Y-76835000D01*
X92524018Y-76835000D01*
X92074814Y-76648474D01*
X90989946Y-76647528D01*
X89987297Y-77061814D01*
X89219510Y-77828262D01*
X88803474Y-78830186D01*
X88803188Y-79158281D01*
X88009260Y-79157588D01*
X87135297Y-79518703D01*
X86466053Y-80186780D01*
X86103414Y-81060111D01*
X86102588Y-82005740D01*
X82482000Y-82005740D01*
X82482000Y-66255740D01*
X86102588Y-66255740D01*
X86463703Y-67129703D01*
X87131780Y-67798947D01*
X88005111Y-68161586D01*
X88802809Y-68162283D01*
X88802528Y-68485054D01*
X89216814Y-69487703D01*
X89983262Y-70255490D01*
X90985186Y-70671526D01*
X92070054Y-70672472D01*
X93072703Y-70258186D01*
X93840490Y-69491738D01*
X94008793Y-69086420D01*
X96174988Y-69086420D01*
X96255569Y-69748687D01*
X96353979Y-69986272D01*
X96659764Y-70049155D01*
X97493920Y-69215000D01*
X96659764Y-68380845D01*
X96353979Y-68443728D01*
X96174988Y-69086420D01*
X94008793Y-69086420D01*
X94256526Y-68489814D01*
X94256957Y-67994764D01*
X97045845Y-67994764D01*
X97880000Y-68828920D01*
X98481316Y-68227603D01*
X108427752Y-68227603D01*
X108644543Y-68752275D01*
X109045614Y-69154047D01*
X109569907Y-69371752D01*
X110137603Y-69372248D01*
X110662275Y-69155457D01*
X111064047Y-68754386D01*
X111114507Y-68632865D01*
X114570136Y-65177236D01*
X114632112Y-65177290D01*
X115248703Y-64922520D01*
X115570147Y-64601636D01*
X115888816Y-64920862D01*
X116504961Y-65176708D01*
X117172112Y-65177290D01*
X117788703Y-64922520D01*
X118138730Y-64573103D01*
X118692977Y-64573103D01*
X118730361Y-64858607D01*
X119299729Y-65003795D01*
X119881316Y-64920044D01*
X120029639Y-64858607D01*
X120067023Y-64573103D01*
X119380000Y-63886080D01*
X118692977Y-64573103D01*
X118138730Y-64573103D01*
X118260862Y-64451184D01*
X118415752Y-64078168D01*
X118993920Y-63500000D01*
X119766080Y-63500000D01*
X120453103Y-64187023D01*
X120738607Y-64149639D01*
X120883795Y-63580271D01*
X120800044Y-62998684D01*
X120738607Y-62850361D01*
X120453103Y-62812977D01*
X119766080Y-63500000D01*
X118993920Y-63500000D01*
X118415530Y-62921610D01*
X118262520Y-62551297D01*
X118138337Y-62426897D01*
X118692977Y-62426897D01*
X119380000Y-63113920D01*
X120067023Y-62426897D01*
X120029639Y-62141393D01*
X119460271Y-61996205D01*
X118878684Y-62079956D01*
X118730361Y-62141393D01*
X118692977Y-62426897D01*
X118138337Y-62426897D01*
X117791184Y-62079138D01*
X117175039Y-61823292D01*
X116507888Y-61822710D01*
X115891297Y-62077480D01*
X115569853Y-62398364D01*
X115251184Y-62079138D01*
X114635039Y-61823292D01*
X113967888Y-61822710D01*
X113351297Y-62077480D01*
X113190852Y-62237646D01*
X113133669Y-62148781D01*
X112757056Y-61891452D01*
X112310000Y-61800921D01*
X111210000Y-61800921D01*
X110792359Y-61879506D01*
X110408781Y-62126331D01*
X110151452Y-62502944D01*
X110060921Y-62950000D01*
X110060921Y-64050000D01*
X110139506Y-64467641D01*
X110386331Y-64851219D01*
X110751737Y-65100891D01*
X109167628Y-66685000D01*
X109047725Y-66734543D01*
X108645953Y-67135614D01*
X108428248Y-67659907D01*
X108427752Y-68227603D01*
X98481316Y-68227603D01*
X98714155Y-67994764D01*
X98651272Y-67688979D01*
X98008580Y-67509988D01*
X97346313Y-67590569D01*
X97108728Y-67688979D01*
X97045845Y-67994764D01*
X94256957Y-67994764D01*
X94257472Y-67404946D01*
X93843186Y-66402297D01*
X93076738Y-65634510D01*
X92074814Y-65218474D01*
X90989946Y-65217528D01*
X90842599Y-65278410D01*
X90496297Y-64440297D01*
X89828220Y-63771053D01*
X88954889Y-63408414D01*
X88009260Y-63407588D01*
X87135297Y-63768703D01*
X86466053Y-64436780D01*
X86103414Y-65310111D01*
X86102588Y-66255740D01*
X82482000Y-66255740D01*
X82482000Y-59925464D01*
X82832115Y-60772807D01*
X84001040Y-61943773D01*
X85529094Y-62578277D01*
X87183647Y-62579721D01*
X88712807Y-61947885D01*
X89883773Y-60778960D01*
X90518277Y-59250906D01*
X90519721Y-57596353D01*
X89887885Y-56067193D01*
X88718960Y-54896227D01*
X87865887Y-54542000D01*
X234714536Y-54542000D01*
X233867193Y-54892115D01*
G36*
X161106487Y-108312571D02*
X160790482Y-108388063D01*
X160594631Y-109067326D01*
X160673631Y-109769833D01*
X160790482Y-110051937D01*
X161106490Y-110127430D01*
X162013920Y-109220000D01*
X161999778Y-109205858D01*
X162385858Y-108819778D01*
X162400000Y-108833920D01*
X162414143Y-108819778D01*
X162800223Y-109205858D01*
X162786080Y-109220000D01*
X163693510Y-110127430D01*
X164009518Y-110051937D01*
X164205369Y-109372674D01*
X164126369Y-108670167D01*
X164009518Y-108388063D01*
X163693513Y-108312571D01*
X163834084Y-108172000D01*
X171203968Y-108172000D01*
X172612684Y-109580716D01*
X172612545Y-109740250D01*
X173011639Y-110706132D01*
X173749981Y-111445764D01*
X174249061Y-111653000D01*
X152970372Y-111653000D01*
X152620510Y-111303138D01*
X153213968Y-111185092D01*
X153904016Y-110724016D01*
X154365092Y-110033968D01*
X154384815Y-109934815D01*
X154483968Y-109915092D01*
X155174016Y-109454016D01*
X155423012Y-109205020D01*
X155422657Y-109611524D01*
X155723003Y-110338418D01*
X156278657Y-110895042D01*
X157005025Y-111196656D01*
X157791524Y-111197343D01*
X158518418Y-110896997D01*
X158902574Y-110513510D01*
X161492570Y-110513510D01*
X161568063Y-110829518D01*
X162247326Y-111025369D01*
X162949833Y-110946369D01*
X163231937Y-110829518D01*
X163307430Y-110513510D01*
X162400000Y-109606080D01*
X161492570Y-110513510D01*
X158902574Y-110513510D01*
X159075042Y-110341343D01*
X159376656Y-109614975D01*
X159377343Y-108828476D01*
X159106093Y-108172000D01*
X160965916Y-108172000D01*
X161106487Y-108312571D01*
X161106487Y-108312571D01*
G37*
X161106487Y-108312571D02*
X160790482Y-108388063D01*
X160594631Y-109067326D01*
X160673631Y-109769833D01*
X160790482Y-110051937D01*
X161106490Y-110127430D01*
X162013920Y-109220000D01*
X161999778Y-109205858D01*
X162385858Y-108819778D01*
X162400000Y-108833920D01*
X162414143Y-108819778D01*
X162800223Y-109205858D01*
X162786080Y-109220000D01*
X163693510Y-110127430D01*
X164009518Y-110051937D01*
X164205369Y-109372674D01*
X164126369Y-108670167D01*
X164009518Y-108388063D01*
X163693513Y-108312571D01*
X163834084Y-108172000D01*
X171203968Y-108172000D01*
X172612684Y-109580716D01*
X172612545Y-109740250D01*
X173011639Y-110706132D01*
X173749981Y-111445764D01*
X174249061Y-111653000D01*
X152970372Y-111653000D01*
X152620510Y-111303138D01*
X153213968Y-111185092D01*
X153904016Y-110724016D01*
X154365092Y-110033968D01*
X154384815Y-109934815D01*
X154483968Y-109915092D01*
X155174016Y-109454016D01*
X155423012Y-109205020D01*
X155422657Y-109611524D01*
X155723003Y-110338418D01*
X156278657Y-110895042D01*
X157005025Y-111196656D01*
X157791524Y-111197343D01*
X158518418Y-110896997D01*
X158902574Y-110513510D01*
X161492570Y-110513510D01*
X161568063Y-110829518D01*
X162247326Y-111025369D01*
X162949833Y-110946369D01*
X163231937Y-110829518D01*
X163307430Y-110513510D01*
X162400000Y-109606080D01*
X161492570Y-110513510D01*
X158902574Y-110513510D01*
X159075042Y-110341343D01*
X159376656Y-109614975D01*
X159377343Y-108828476D01*
X159106093Y-108172000D01*
X160965916Y-108172000D01*
X161106487Y-108312571D01*
G36*
X204830223Y-69200858D02*
X204816080Y-69215000D01*
X205686894Y-70085813D01*
X205997784Y-70016616D01*
X206185209Y-69355632D01*
X206181277Y-69322000D01*
X215329628Y-69322000D01*
X216196314Y-70188686D01*
X216643045Y-70487182D01*
X217170000Y-70592000D01*
X218670091Y-70592000D01*
X218789907Y-70641752D01*
X218805333Y-70641765D01*
X218500953Y-70945614D01*
X218283248Y-71469907D01*
X218282752Y-72037603D01*
X218499543Y-72562275D01*
X218900614Y-72964047D01*
X219424907Y-73181752D01*
X219992603Y-73182248D01*
X220517275Y-72965457D01*
X220616901Y-72866004D01*
X220775520Y-73024900D01*
X220569684Y-73230376D01*
X220283326Y-73920004D01*
X220282675Y-74666720D01*
X220567829Y-75356846D01*
X220895414Y-75685005D01*
X220759668Y-75820751D01*
X220939762Y-76000845D01*
X220633979Y-76063728D01*
X220454988Y-76706420D01*
X220535569Y-77368687D01*
X220633979Y-77606272D01*
X220939764Y-77669155D01*
X221773920Y-76835000D01*
X221759777Y-76820858D01*
X222145858Y-76434777D01*
X222160000Y-76448920D01*
X222174143Y-76434778D01*
X222560223Y-76820858D01*
X222546080Y-76835000D01*
X222560223Y-76849142D01*
X222174143Y-77235223D01*
X222160000Y-77221080D01*
X221325845Y-78055236D01*
X221388728Y-78361021D01*
X222031420Y-78540012D01*
X222459730Y-78487898D01*
X217962175Y-82985453D01*
X217962248Y-82902397D01*
X217745457Y-82377725D01*
X217344386Y-81975953D01*
X216820093Y-81758248D01*
X216252397Y-81757752D01*
X215727725Y-81974543D01*
X215325953Y-82375614D01*
X215275493Y-82497135D01*
X214982599Y-82790029D01*
X214822217Y-82550000D01*
X215178068Y-82017431D01*
X215324752Y-81280000D01*
X215178068Y-80542569D01*
X214822217Y-80010000D01*
X215178068Y-79477431D01*
X215324752Y-78740000D01*
X215178068Y-78002569D01*
X214760347Y-77377405D01*
X214135183Y-76959684D01*
X213397752Y-76813000D01*
X213322248Y-76813000D01*
X212584817Y-76959684D01*
X212007684Y-77345312D01*
X205270492Y-70608120D01*
X205300813Y-70471894D01*
X204430000Y-69601080D01*
X204415858Y-69615223D01*
X204029778Y-69229143D01*
X204043920Y-69215000D01*
X204029778Y-69200858D01*
X204415858Y-68814778D01*
X204430000Y-68828920D01*
X204444143Y-68814778D01*
X204830223Y-69200858D01*
X204830223Y-69200858D01*
G37*
X204830223Y-69200858D02*
X204816080Y-69215000D01*
X205686894Y-70085813D01*
X205997784Y-70016616D01*
X206185209Y-69355632D01*
X206181277Y-69322000D01*
X215329628Y-69322000D01*
X216196314Y-70188686D01*
X216643045Y-70487182D01*
X217170000Y-70592000D01*
X218670091Y-70592000D01*
X218789907Y-70641752D01*
X218805333Y-70641765D01*
X218500953Y-70945614D01*
X218283248Y-71469907D01*
X218282752Y-72037603D01*
X218499543Y-72562275D01*
X218900614Y-72964047D01*
X219424907Y-73181752D01*
X219992603Y-73182248D01*
X220517275Y-72965457D01*
X220616901Y-72866004D01*
X220775520Y-73024900D01*
X220569684Y-73230376D01*
X220283326Y-73920004D01*
X220282675Y-74666720D01*
X220567829Y-75356846D01*
X220895414Y-75685005D01*
X220759668Y-75820751D01*
X220939762Y-76000845D01*
X220633979Y-76063728D01*
X220454988Y-76706420D01*
X220535569Y-77368687D01*
X220633979Y-77606272D01*
X220939764Y-77669155D01*
X221773920Y-76835000D01*
X221759777Y-76820858D01*
X222145858Y-76434777D01*
X222160000Y-76448920D01*
X222174143Y-76434778D01*
X222560223Y-76820858D01*
X222546080Y-76835000D01*
X222560223Y-76849142D01*
X222174143Y-77235223D01*
X222160000Y-77221080D01*
X221325845Y-78055236D01*
X221388728Y-78361021D01*
X222031420Y-78540012D01*
X222459730Y-78487898D01*
X217962175Y-82985453D01*
X217962248Y-82902397D01*
X217745457Y-82377725D01*
X217344386Y-81975953D01*
X216820093Y-81758248D01*
X216252397Y-81757752D01*
X215727725Y-81974543D01*
X215325953Y-82375614D01*
X215275493Y-82497135D01*
X214982599Y-82790029D01*
X214822217Y-82550000D01*
X215178068Y-82017431D01*
X215324752Y-81280000D01*
X215178068Y-80542569D01*
X214822217Y-80010000D01*
X215178068Y-79477431D01*
X215324752Y-78740000D01*
X215178068Y-78002569D01*
X214760347Y-77377405D01*
X214135183Y-76959684D01*
X213397752Y-76813000D01*
X213322248Y-76813000D01*
X212584817Y-76959684D01*
X212007684Y-77345312D01*
X205270492Y-70608120D01*
X205300813Y-70471894D01*
X204430000Y-69601080D01*
X204415858Y-69615223D01*
X204029778Y-69229143D01*
X204043920Y-69215000D01*
X204029778Y-69200858D01*
X204415858Y-68814778D01*
X204430000Y-68828920D01*
X204444143Y-68814778D01*
X204830223Y-69200858D01*
M02*
