G04 #@! TF.FileFunction,Copper,L1,Top,Signal*
%FSLAX46Y46*%
G04 Gerber Fmt 4.6, Leading zero omitted, Abs format (unit mm)*
G04 Created by KiCad (PCBNEW 4.0.6) date 10/01/17 20:02:49*
%MOMM*%
%LPD*%
G01*
G04 APERTURE LIST*
%ADD10C,0.100000*%
%ADD11C,3.000000*%
%ADD12C,4.064000*%
%ADD13C,1.500000*%
%ADD14C,3.200000*%
%ADD15C,2.500000*%
%ADD16R,1.600000X1.600000*%
%ADD17O,1.600000X1.600000*%
%ADD18R,1.100000X1.100000*%
%ADD19C,1.100000*%
%ADD20R,1.700000X1.700000*%
%ADD21O,1.700000X1.700000*%
%ADD22O,1.524000X2.000000*%
%ADD23C,2.100000*%
%ADD24C,6.000000*%
%ADD25C,1.600000*%
%ADD26C,2.700000*%
%ADD27C,1.700000*%
%ADD28C,0.600000*%
%ADD29C,0.500000*%
%ADD30C,2.000000*%
%ADD31C,0.254000*%
G04 APERTURE END LIST*
D10*
D11*
X175240000Y-109220000D03*
X198140000Y-109220000D03*
D12*
X86360000Y-58420000D03*
X86360000Y-121920000D03*
X236220000Y-121920000D03*
D13*
X97880000Y-76835000D03*
X100420000Y-78105000D03*
X100420000Y-75565000D03*
X97880000Y-74295000D03*
X100420000Y-73025000D03*
X97880000Y-71755000D03*
X97880000Y-69215000D03*
X100420000Y-70485000D03*
D14*
X91530000Y-67945000D03*
X91530000Y-79375000D03*
D15*
X88480000Y-65785000D03*
X88480000Y-81535000D03*
D16*
X205740000Y-78740000D03*
D17*
X213360000Y-96520000D03*
X205740000Y-81280000D03*
X213360000Y-93980000D03*
X205740000Y-83820000D03*
X213360000Y-91440000D03*
X205740000Y-86360000D03*
X213360000Y-88900000D03*
X205740000Y-88900000D03*
X213360000Y-86360000D03*
X205740000Y-91440000D03*
X213360000Y-83820000D03*
X205740000Y-93980000D03*
X213360000Y-81280000D03*
X205740000Y-96520000D03*
X213360000Y-78740000D03*
D18*
X111760000Y-63500000D03*
D19*
X114300000Y-63500000D03*
X116840000Y-63500000D03*
X119380000Y-63500000D03*
D18*
X111760000Y-104140000D03*
D19*
X114300000Y-104140000D03*
X116840000Y-104140000D03*
X119380000Y-104140000D03*
D13*
X224700000Y-70485000D03*
X222160000Y-69215000D03*
X222160000Y-71755000D03*
X224700000Y-73025000D03*
X222160000Y-74295000D03*
X224700000Y-75565000D03*
X224700000Y-78105000D03*
X222160000Y-76835000D03*
D14*
X231050000Y-79375000D03*
X231050000Y-67945000D03*
D15*
X234100000Y-81535000D03*
X234100000Y-65785000D03*
D20*
X129540000Y-66040000D03*
D21*
X129540000Y-68580000D03*
X129540000Y-71120000D03*
X129540000Y-73660000D03*
X129540000Y-76200000D03*
X129540000Y-78740000D03*
X129540000Y-81280000D03*
X129540000Y-83820000D03*
X129540000Y-86360000D03*
X129540000Y-88900000D03*
X129540000Y-91440000D03*
X129540000Y-93980000D03*
D20*
X167640000Y-66040000D03*
D21*
X167640000Y-68580000D03*
X167640000Y-71120000D03*
X167640000Y-73660000D03*
X167640000Y-76200000D03*
X167640000Y-78740000D03*
X167640000Y-81280000D03*
X167640000Y-83820000D03*
X167640000Y-86360000D03*
X167640000Y-88900000D03*
X167640000Y-91440000D03*
X167640000Y-93980000D03*
D20*
X144780000Y-66040000D03*
D21*
X144780000Y-68580000D03*
X144780000Y-71120000D03*
X144780000Y-73660000D03*
X144780000Y-76200000D03*
X144780000Y-78740000D03*
X144780000Y-81280000D03*
X144780000Y-83820000D03*
X144780000Y-86360000D03*
X144780000Y-88900000D03*
X144780000Y-91440000D03*
X144780000Y-93980000D03*
D20*
X182880000Y-66040000D03*
D21*
X182880000Y-68580000D03*
X182880000Y-71120000D03*
X182880000Y-73660000D03*
X182880000Y-76200000D03*
X182880000Y-78740000D03*
X182880000Y-81280000D03*
X182880000Y-83820000D03*
X182880000Y-86360000D03*
X182880000Y-88900000D03*
X182880000Y-91440000D03*
X182880000Y-93980000D03*
D22*
X149860000Y-83820000D03*
X149860000Y-81280000D03*
X149860000Y-78740000D03*
X149860000Y-76200000D03*
X124460000Y-86360000D03*
X124460000Y-93980000D03*
X149860000Y-88900000D03*
D23*
X227410000Y-87670000D03*
X237410000Y-90170000D03*
X227410000Y-92670000D03*
D24*
X232410000Y-90170000D03*
D22*
X149860000Y-66040000D03*
X149860000Y-71120000D03*
X124460000Y-68580000D03*
X124460000Y-66040000D03*
X187960000Y-83820000D03*
X187960000Y-81280000D03*
X187960000Y-78740000D03*
X187960000Y-76200000D03*
X162560000Y-81280000D03*
X162560000Y-91440000D03*
X162560000Y-93980000D03*
X187960000Y-93980000D03*
X218440000Y-88900000D03*
X200660000Y-81280000D03*
X200660000Y-78740000D03*
D16*
X201930000Y-69215000D03*
D25*
X204430000Y-69215000D03*
D22*
X200660000Y-88900000D03*
X200660000Y-83820000D03*
X187960000Y-88900000D03*
X187960000Y-91440000D03*
X162560000Y-83820000D03*
X162560000Y-88900000D03*
X187960000Y-66040000D03*
D13*
X224700000Y-103505000D03*
X222160000Y-102235000D03*
X222160000Y-104775000D03*
X224700000Y-106045000D03*
X222160000Y-107315000D03*
X224700000Y-108585000D03*
X224700000Y-111125000D03*
X222160000Y-109855000D03*
D14*
X231050000Y-112395000D03*
X231050000Y-100965000D03*
D15*
X234100000Y-114555000D03*
X234100000Y-98805000D03*
D22*
X187960000Y-71120000D03*
X187960000Y-86360000D03*
X200660000Y-86360000D03*
D23*
X90540000Y-111500000D03*
D26*
X92450000Y-99440000D03*
X96260000Y-107060000D03*
X96895000Y-99440000D03*
D23*
X100710000Y-103250000D03*
D26*
X87370000Y-107060000D03*
D12*
X236220000Y-58420000D03*
D22*
X109220000Y-111760000D03*
X111760000Y-111760000D03*
X121920000Y-111760000D03*
X119380000Y-111760000D03*
D27*
X152400000Y-109220000D03*
X157400000Y-109220000D03*
X162400000Y-109220000D03*
D28*
X148590000Y-114300000D03*
X179070000Y-114300000D03*
X198120000Y-71755000D03*
X193040000Y-66675000D03*
X109855000Y-67945000D03*
X114300000Y-83185000D03*
X116840000Y-80645000D03*
X187960000Y-102870000D03*
X185420000Y-100330000D03*
X147320000Y-100330000D03*
X134620000Y-85090000D03*
X154940000Y-93345000D03*
X157480000Y-90805000D03*
X170815000Y-94615000D03*
X184150000Y-60960000D03*
X219075000Y-69215000D03*
X216535000Y-83185000D03*
X191135000Y-93980000D03*
X181610000Y-102235000D03*
X156845000Y-102235000D03*
X156845000Y-66675000D03*
X141605000Y-65405000D03*
X100420000Y-78105000D03*
X106045000Y-121920000D03*
X219710000Y-71755000D03*
X163195000Y-70485000D03*
X178435000Y-73025000D03*
X180340000Y-104140000D03*
X183515000Y-107315000D03*
X215900000Y-106045000D03*
X160655000Y-64770000D03*
X156845000Y-60960000D03*
X129540000Y-62230000D03*
X118745000Y-82550000D03*
X116205000Y-85090000D03*
D29*
X213360000Y-93980000D02*
X213360000Y-96520000D01*
X213360000Y-91440000D02*
X213360000Y-93980000D01*
X157400000Y-109220000D02*
X157480000Y-109220000D01*
X157480000Y-109220000D02*
X152400000Y-114300000D01*
X152400000Y-114300000D02*
X148590000Y-114300000D01*
X179070000Y-114300000D02*
X203200000Y-90170000D01*
X203200000Y-90170000D02*
X207010000Y-90170000D01*
X207010000Y-90170000D02*
X208280000Y-88900000D01*
X208280000Y-88900000D02*
X213360000Y-88900000D01*
X198120000Y-71755000D02*
X193040000Y-66675000D01*
X109855000Y-67945000D02*
X103505000Y-74295000D01*
X103505000Y-74295000D02*
X103505000Y-74930000D01*
X103505000Y-74930000D02*
X102235000Y-76200000D01*
X102235000Y-76200000D02*
X102235000Y-78740000D01*
X102235000Y-78740000D02*
X97155000Y-83820000D01*
X97155000Y-83820000D02*
X97155000Y-99695000D01*
X97155000Y-99695000D02*
X96895000Y-99440000D01*
X100710000Y-103250000D02*
X101600000Y-102870000D01*
X101600000Y-102870000D02*
X114300000Y-90170000D01*
X114300000Y-90170000D02*
X114300000Y-83185000D01*
X116840000Y-80645000D02*
X116840000Y-63500000D01*
X187960000Y-102870000D02*
X185420000Y-100330000D01*
X147320000Y-100330000D02*
X134620000Y-87630000D01*
X134620000Y-87630000D02*
X134620000Y-85090000D01*
X154940000Y-93345000D02*
X157480000Y-90805000D01*
X170815000Y-94615000D02*
X180975000Y-84455000D01*
X180975000Y-84455000D02*
X180975000Y-64135000D01*
X180975000Y-64135000D02*
X184150000Y-60960000D01*
X219075000Y-69215000D02*
X220345000Y-70485000D01*
X220345000Y-70485000D02*
X220980000Y-70485000D01*
X220980000Y-70485000D02*
X220980000Y-71120000D01*
X220980000Y-71120000D02*
X221615000Y-71120000D01*
X221615000Y-71120000D02*
X222250000Y-71755000D01*
X222250000Y-71755000D02*
X222160000Y-71755000D01*
X222160000Y-71755000D02*
X222250000Y-71755000D01*
X222250000Y-71755000D02*
X222250000Y-69215000D01*
X222250000Y-69215000D02*
X222160000Y-69215000D01*
X222160000Y-74295000D02*
X222250000Y-74295000D01*
X222250000Y-74295000D02*
X216535000Y-80010000D01*
X216535000Y-80010000D02*
X216535000Y-83185000D01*
X191135000Y-93980000D02*
X189230000Y-95885000D01*
X189230000Y-95885000D02*
X187960000Y-95885000D01*
X187960000Y-95885000D02*
X181610000Y-102235000D01*
X156845000Y-102235000D02*
X146685000Y-92075000D01*
X146685000Y-92075000D02*
X145415000Y-92075000D01*
X145415000Y-92075000D02*
X144780000Y-91440000D01*
X224700000Y-78105000D02*
X224790000Y-78105000D01*
X224790000Y-78105000D02*
X224790000Y-75565000D01*
X224790000Y-75565000D02*
X224700000Y-75565000D01*
X167640000Y-76200000D02*
X166370000Y-76200000D01*
X166370000Y-76200000D02*
X156845000Y-66675000D01*
X141605000Y-65405000D02*
X131445000Y-75565000D01*
X131445000Y-75565000D02*
X130175000Y-75565000D01*
X130175000Y-75565000D02*
X129540000Y-76200000D01*
X167640000Y-78740000D02*
X165735000Y-78740000D01*
X165735000Y-78740000D02*
X151130000Y-64135000D01*
X151130000Y-64135000D02*
X142875000Y-64135000D01*
X142875000Y-64135000D02*
X142875000Y-66040000D01*
X142875000Y-66040000D02*
X132715000Y-76200000D01*
X132715000Y-76200000D02*
X132715000Y-76835000D01*
X132715000Y-76835000D02*
X131445000Y-78105000D01*
X131445000Y-78105000D02*
X130175000Y-78105000D01*
X130175000Y-78105000D02*
X129540000Y-78740000D01*
X213360000Y-81280000D02*
X215265000Y-83185000D01*
X215265000Y-83185000D02*
X215265000Y-84455000D01*
X215265000Y-84455000D02*
X218440000Y-87630000D01*
X218440000Y-87630000D02*
X218440000Y-88900000D01*
X205740000Y-91440000D02*
X205740000Y-93980000D01*
D30*
X106045000Y-121920000D02*
X106680000Y-121920000D01*
X198140000Y-109220000D02*
X198140000Y-119995000D01*
X196215000Y-121920000D02*
X106680000Y-121920000D01*
X106680000Y-121920000D02*
X106045000Y-121920000D01*
X198140000Y-119995000D02*
X196215000Y-121920000D01*
D29*
X144780000Y-73660000D02*
X143510000Y-73660000D01*
X143510000Y-73660000D02*
X131445000Y-85725000D01*
X131445000Y-85725000D02*
X131445000Y-95885000D01*
X131445000Y-95885000D02*
X127635000Y-95885000D01*
X127635000Y-95885000D02*
X125730000Y-93980000D01*
X125730000Y-93980000D02*
X125730000Y-92075000D01*
X125730000Y-92075000D02*
X111760000Y-78105000D01*
X111760000Y-78105000D02*
X111760000Y-63500000D01*
X111760000Y-63500000D02*
X102235000Y-73025000D01*
X102235000Y-73025000D02*
X102235000Y-73660000D01*
X102235000Y-73660000D02*
X100330000Y-75565000D01*
X100330000Y-75565000D02*
X100420000Y-75565000D01*
X213360000Y-78740000D02*
X219710000Y-72390000D01*
X219710000Y-72390000D02*
X219710000Y-71755000D01*
X163195000Y-70485000D02*
X165735000Y-67945000D01*
X165735000Y-67945000D02*
X165735000Y-64135000D01*
X165735000Y-64135000D02*
X169545000Y-64135000D01*
X169545000Y-64135000D02*
X178435000Y-73025000D01*
X224700000Y-70485000D02*
X224790000Y-70485000D01*
X224790000Y-70485000D02*
X226060000Y-71755000D01*
X226060000Y-71755000D02*
X226060000Y-79375000D01*
X226060000Y-79375000D02*
X225425000Y-80010000D01*
X225425000Y-80010000D02*
X225425000Y-88900000D01*
X225425000Y-88900000D02*
X227330000Y-90805000D01*
X227330000Y-90805000D02*
X227330000Y-92710000D01*
X227330000Y-92710000D02*
X227410000Y-92670000D01*
X227410000Y-92670000D02*
X227330000Y-92710000D01*
X227330000Y-92710000D02*
X224790000Y-95250000D01*
X224790000Y-95250000D02*
X224790000Y-103505000D01*
X224790000Y-103505000D02*
X224700000Y-103505000D01*
X100420000Y-75565000D02*
X100330000Y-75565000D01*
X100330000Y-75565000D02*
X100330000Y-78105000D01*
X100330000Y-78105000D02*
X100420000Y-78105000D01*
X111760000Y-104140000D02*
X111760000Y-111760000D01*
X119380000Y-104140000D02*
X119380000Y-111760000D01*
X180340000Y-104140000D02*
X183515000Y-107315000D01*
X215900000Y-106045000D02*
X220980000Y-106045000D01*
X220980000Y-106045000D02*
X222250000Y-104775000D01*
X222250000Y-104775000D02*
X222160000Y-104775000D01*
X160655000Y-64770000D02*
X156845000Y-60960000D01*
X129540000Y-62230000D02*
X125730000Y-66040000D01*
X125730000Y-66040000D02*
X125730000Y-70485000D01*
X125730000Y-70485000D02*
X118745000Y-77470000D01*
X118745000Y-77470000D02*
X118745000Y-82550000D01*
X116205000Y-85090000D02*
X115570000Y-85725000D01*
X115570000Y-85725000D02*
X115570000Y-91440000D01*
X115570000Y-91440000D02*
X109220000Y-97790000D01*
X109220000Y-97790000D02*
X109220000Y-111760000D01*
X121920000Y-111760000D02*
X123825000Y-116205000D01*
X123825000Y-116205000D02*
X161925000Y-116205000D01*
X161925000Y-116205000D02*
X169545000Y-102235000D01*
X169545000Y-102235000D02*
X169545000Y-66675000D01*
X169545000Y-66675000D02*
X168910000Y-66040000D01*
X168910000Y-66040000D02*
X167640000Y-66040000D01*
D31*
G36*
X233867193Y-54892115D02*
X232696227Y-56061040D01*
X232061723Y-57589094D01*
X232060279Y-59243647D01*
X232692115Y-60772807D01*
X233861040Y-61943773D01*
X235389094Y-62578277D01*
X237043647Y-62579721D01*
X238572807Y-61947885D01*
X239743773Y-60778960D01*
X240098000Y-59925887D01*
X240098000Y-120414536D01*
X239747885Y-119567193D01*
X238578960Y-118396227D01*
X237050906Y-117761723D01*
X235396353Y-117760279D01*
X233867193Y-118392115D01*
X232696227Y-119561040D01*
X232061723Y-121089094D01*
X232060279Y-122743647D01*
X232692115Y-124272807D01*
X233861040Y-125443773D01*
X234714113Y-125798000D01*
X87865464Y-125798000D01*
X88712807Y-125447885D01*
X89883773Y-124278960D01*
X90518277Y-122750906D01*
X90519002Y-121920000D01*
X103918000Y-121920000D01*
X104079908Y-122733968D01*
X104540984Y-123424016D01*
X105231032Y-123885092D01*
X106045000Y-124047000D01*
X196215000Y-124047000D01*
X197028968Y-123885092D01*
X197719016Y-123424016D01*
X199644016Y-121499016D01*
X200105092Y-120808968D01*
X200267000Y-119995000D01*
X200267000Y-112935054D01*
X228322528Y-112935054D01*
X228736814Y-113937703D01*
X229503262Y-114705490D01*
X230505186Y-115121526D01*
X231590054Y-115122472D01*
X231737401Y-115061590D01*
X232083703Y-115899703D01*
X232751780Y-116568947D01*
X233625111Y-116931586D01*
X234570740Y-116932412D01*
X235444703Y-116571297D01*
X236113947Y-115903220D01*
X236476586Y-115029889D01*
X236477412Y-114084260D01*
X236116297Y-113210297D01*
X235448220Y-112541053D01*
X234574889Y-112178414D01*
X233777191Y-112177717D01*
X233777472Y-111854946D01*
X233363186Y-110852297D01*
X232596738Y-110084510D01*
X231594814Y-109668474D01*
X230509946Y-109667528D01*
X229507297Y-110081814D01*
X228739510Y-110848262D01*
X228323474Y-111850186D01*
X228322528Y-112935054D01*
X200267000Y-112935054D01*
X200267000Y-112345236D01*
X223865845Y-112345236D01*
X223928728Y-112651021D01*
X224571420Y-112830012D01*
X225233687Y-112749431D01*
X225471272Y-112651021D01*
X225534155Y-112345236D01*
X224700000Y-111511080D01*
X223865845Y-112345236D01*
X200267000Y-112345236D01*
X200267000Y-110808611D01*
X200365764Y-110710019D01*
X200766543Y-109744835D01*
X200767455Y-108699750D01*
X200368361Y-107733868D01*
X199630019Y-106994236D01*
X198664835Y-106593457D01*
X197619750Y-106592545D01*
X196653868Y-106991639D01*
X195914236Y-107729981D01*
X195513457Y-108695165D01*
X195512545Y-109740250D01*
X195911639Y-110706132D01*
X196013000Y-110807670D01*
X196013000Y-119113968D01*
X195333968Y-119793000D01*
X106045000Y-119793000D01*
X105231032Y-119954908D01*
X104540984Y-120415984D01*
X104079908Y-121106032D01*
X103918000Y-121920000D01*
X90519002Y-121920000D01*
X90519721Y-121096353D01*
X89887885Y-119567193D01*
X88718960Y-118396227D01*
X87190906Y-117761723D01*
X85536353Y-117760279D01*
X84007193Y-118392115D01*
X82836227Y-119561040D01*
X82482000Y-120414113D01*
X82482000Y-112939648D01*
X89486432Y-112939648D01*
X89586961Y-113276202D01*
X90339229Y-113505709D01*
X91122063Y-113429866D01*
X91493039Y-113276202D01*
X91593568Y-112939648D01*
X90540000Y-111886080D01*
X89486432Y-112939648D01*
X82482000Y-112939648D01*
X82482000Y-111299229D01*
X88534291Y-111299229D01*
X88610134Y-112082063D01*
X88763798Y-112453039D01*
X89100352Y-112553568D01*
X90153920Y-111500000D01*
X90926080Y-111500000D01*
X91979648Y-112553568D01*
X92316202Y-112453039D01*
X92545709Y-111700771D01*
X92469866Y-110917937D01*
X92316202Y-110546961D01*
X91979648Y-110446432D01*
X90926080Y-111500000D01*
X90153920Y-111500000D01*
X89100352Y-110446432D01*
X88763798Y-110546961D01*
X88534291Y-111299229D01*
X82482000Y-111299229D01*
X82482000Y-110060352D01*
X89486432Y-110060352D01*
X90540000Y-111113920D01*
X91593568Y-110060352D01*
X91493039Y-109723798D01*
X90740771Y-109494291D01*
X89957937Y-109570134D01*
X89586961Y-109723798D01*
X89486432Y-110060352D01*
X82482000Y-110060352D01*
X82482000Y-107550544D01*
X84892571Y-107550544D01*
X85268877Y-108461275D01*
X85965060Y-109158674D01*
X86875133Y-109536569D01*
X87860544Y-109537429D01*
X88771275Y-109161123D01*
X89215040Y-108718131D01*
X94987950Y-108718131D01*
X95125722Y-109085656D01*
X95987248Y-109365532D01*
X96890299Y-109294411D01*
X97394278Y-109085656D01*
X97532050Y-108718131D01*
X96260000Y-107446080D01*
X94987950Y-108718131D01*
X89215040Y-108718131D01*
X89468674Y-108464940D01*
X89846569Y-107554867D01*
X89847238Y-106787248D01*
X93954468Y-106787248D01*
X94025589Y-107690299D01*
X94234344Y-108194278D01*
X94601869Y-108332050D01*
X95873920Y-107060000D01*
X96646080Y-107060000D01*
X97918131Y-108332050D01*
X98285656Y-108194278D01*
X98565532Y-107332752D01*
X98494411Y-106429701D01*
X98285656Y-105925722D01*
X97918131Y-105787950D01*
X96646080Y-107060000D01*
X95873920Y-107060000D01*
X94601869Y-105787950D01*
X94234344Y-105925722D01*
X93954468Y-106787248D01*
X89847238Y-106787248D01*
X89847429Y-106569456D01*
X89471123Y-105658725D01*
X89214715Y-105401869D01*
X94987950Y-105401869D01*
X96260000Y-106673920D01*
X97532050Y-105401869D01*
X97394278Y-105034344D01*
X96532752Y-104754468D01*
X95629701Y-104825589D01*
X95125722Y-105034344D01*
X94987950Y-105401869D01*
X89214715Y-105401869D01*
X88774940Y-104961326D01*
X87864867Y-104583431D01*
X86879456Y-104582571D01*
X85968725Y-104958877D01*
X85271326Y-105655060D01*
X84893431Y-106565133D01*
X84892571Y-107550544D01*
X82482000Y-107550544D01*
X82482000Y-99930544D01*
X89972571Y-99930544D01*
X90348877Y-100841275D01*
X91045060Y-101538674D01*
X91955133Y-101916569D01*
X92940544Y-101917429D01*
X93851275Y-101541123D01*
X94548674Y-100844940D01*
X94672337Y-100547126D01*
X94793877Y-100841275D01*
X95490060Y-101538674D01*
X96400133Y-101916569D01*
X97385544Y-101917429D01*
X98296275Y-101541123D01*
X98993674Y-100844940D01*
X99371569Y-99934867D01*
X99372429Y-98949456D01*
X98996123Y-98038725D01*
X98532000Y-97573791D01*
X98532000Y-84390372D01*
X103208686Y-79713686D01*
X103507182Y-79266955D01*
X103612000Y-78740000D01*
X103612000Y-76770372D01*
X104478686Y-75903686D01*
X104777182Y-75456955D01*
X104882000Y-74930000D01*
X104882000Y-74865372D01*
X110383000Y-69364372D01*
X110383000Y-78105000D01*
X110487818Y-78631955D01*
X110786314Y-79078686D01*
X113626780Y-81919152D01*
X113492725Y-81974543D01*
X113090953Y-82375614D01*
X112873248Y-82899907D01*
X112872752Y-83467603D01*
X112923000Y-83589212D01*
X112923000Y-89599628D01*
X101359961Y-101162667D01*
X101144932Y-101073379D01*
X100278868Y-101072623D01*
X99478440Y-101403353D01*
X98865505Y-102015218D01*
X98533379Y-102815068D01*
X98532623Y-103681132D01*
X98863353Y-104481560D01*
X99475218Y-105094495D01*
X100275068Y-105426621D01*
X101141132Y-105427377D01*
X101941560Y-105096647D01*
X102554495Y-104484782D01*
X102886621Y-103684932D01*
X102886756Y-103530616D01*
X107843000Y-98574372D01*
X107843000Y-110206378D01*
X107474792Y-110757441D01*
X107331000Y-111480330D01*
X107331000Y-112039670D01*
X107474792Y-112762559D01*
X107884275Y-113375395D01*
X108497111Y-113784878D01*
X109220000Y-113928670D01*
X109942889Y-113784878D01*
X110490000Y-113419311D01*
X111037111Y-113784878D01*
X111760000Y-113928670D01*
X112482889Y-113784878D01*
X113095725Y-113375395D01*
X113505208Y-112762559D01*
X113649000Y-112039670D01*
X113649000Y-111480330D01*
X113505208Y-110757441D01*
X113137000Y-110206378D01*
X113137000Y-105475937D01*
X113188621Y-105400387D01*
X113348816Y-105560862D01*
X113964961Y-105816708D01*
X114632112Y-105817290D01*
X115248703Y-105562520D01*
X115570147Y-105241636D01*
X115888816Y-105560862D01*
X116504961Y-105816708D01*
X117172112Y-105817290D01*
X117788703Y-105562520D01*
X118003000Y-105348597D01*
X118003000Y-110206378D01*
X117634792Y-110757441D01*
X117491000Y-111480330D01*
X117491000Y-112039670D01*
X117634792Y-112762559D01*
X118044275Y-113375395D01*
X118657111Y-113784878D01*
X119380000Y-113928670D01*
X120102889Y-113784878D01*
X120650000Y-113419311D01*
X121197111Y-113784878D01*
X121298299Y-113805006D01*
X122559337Y-116747427D01*
X122706647Y-116962177D01*
X122851314Y-117178686D01*
X122858422Y-117183436D01*
X122863258Y-117190485D01*
X123081513Y-117332500D01*
X123298045Y-117477182D01*
X123306430Y-117478850D01*
X123313595Y-117483512D01*
X123569600Y-117531198D01*
X123825000Y-117582000D01*
X161925000Y-117582000D01*
X162117782Y-117543653D01*
X162313543Y-117526046D01*
X162379230Y-117491648D01*
X162451955Y-117477182D01*
X162615384Y-117367982D01*
X162789509Y-117276799D01*
X162837033Y-117219881D01*
X162898686Y-117178686D01*
X163007887Y-117015255D01*
X163133862Y-116864379D01*
X164378466Y-114582603D01*
X177642752Y-114582603D01*
X177859543Y-115107275D01*
X178260614Y-115509047D01*
X178784907Y-115726752D01*
X179352603Y-115727248D01*
X179877275Y-115510457D01*
X180279047Y-115109386D01*
X180329507Y-114987865D01*
X198260968Y-97056404D01*
X204098416Y-97056404D01*
X204199916Y-97301491D01*
X204616211Y-97831368D01*
X205203593Y-98161602D01*
X205467000Y-97993554D01*
X205467000Y-96793000D01*
X206013000Y-96793000D01*
X206013000Y-97993554D01*
X206276407Y-98161602D01*
X206863789Y-97831368D01*
X207280084Y-97301491D01*
X207381584Y-97056404D01*
X207210117Y-96793000D01*
X206013000Y-96793000D01*
X205467000Y-96793000D01*
X204269883Y-96793000D01*
X204098416Y-97056404D01*
X198260968Y-97056404D01*
X200800968Y-94516404D01*
X204098416Y-94516404D01*
X204199916Y-94761491D01*
X204583710Y-95250000D01*
X204199916Y-95738509D01*
X204098416Y-95983596D01*
X204269883Y-96247000D01*
X205467000Y-96247000D01*
X205467000Y-94253000D01*
X206013000Y-94253000D01*
X206013000Y-96247000D01*
X207210117Y-96247000D01*
X207381584Y-95983596D01*
X207280084Y-95738509D01*
X206896290Y-95250000D01*
X207280084Y-94761491D01*
X207381584Y-94516404D01*
X207210117Y-94253000D01*
X206013000Y-94253000D01*
X205467000Y-94253000D01*
X204269883Y-94253000D01*
X204098416Y-94516404D01*
X200800968Y-94516404D01*
X203770372Y-91547000D01*
X204013000Y-91547000D01*
X204013000Y-91713002D01*
X204269882Y-91713002D01*
X204098416Y-91976404D01*
X204199916Y-92221491D01*
X204583710Y-92710000D01*
X204199916Y-93198509D01*
X204098416Y-93443596D01*
X204269883Y-93707000D01*
X205467000Y-93707000D01*
X205467000Y-91713000D01*
X205447000Y-91713000D01*
X205447000Y-91547000D01*
X206033000Y-91547000D01*
X206033000Y-91713000D01*
X206013000Y-91713000D01*
X206013000Y-93707000D01*
X207210117Y-93707000D01*
X207381584Y-93443596D01*
X207280084Y-93198509D01*
X206896290Y-92710000D01*
X207280084Y-92221491D01*
X207381584Y-91976404D01*
X207210118Y-91713002D01*
X207467000Y-91713002D01*
X207467000Y-91456097D01*
X207536955Y-91442182D01*
X207983686Y-91143686D01*
X208850372Y-90277000D01*
X211826288Y-90277000D01*
X211541932Y-90702569D01*
X211395248Y-91440000D01*
X211541932Y-92177431D01*
X211897783Y-92710000D01*
X211541932Y-93242569D01*
X211395248Y-93980000D01*
X211541932Y-94717431D01*
X211897783Y-95250000D01*
X211541932Y-95782569D01*
X211395248Y-96520000D01*
X211541932Y-97257431D01*
X211959653Y-97882595D01*
X212584817Y-98300316D01*
X213322248Y-98447000D01*
X213397752Y-98447000D01*
X214135183Y-98300316D01*
X214760347Y-97882595D01*
X215178068Y-97257431D01*
X215324752Y-96520000D01*
X215178068Y-95782569D01*
X214822217Y-95250000D01*
X215178068Y-94717431D01*
X215324752Y-93980000D01*
X215178068Y-93242569D01*
X214822217Y-92710000D01*
X215178068Y-92177431D01*
X215324752Y-91440000D01*
X215178068Y-90702569D01*
X214822217Y-90170000D01*
X215178068Y-89637431D01*
X215324752Y-88900000D01*
X215178068Y-88162569D01*
X214822217Y-87630000D01*
X215178068Y-87097431D01*
X215307809Y-86445181D01*
X216720938Y-87858310D01*
X216694792Y-87897441D01*
X216551000Y-88620330D01*
X216551000Y-89179670D01*
X216694792Y-89902559D01*
X217104275Y-90515395D01*
X217717111Y-90924878D01*
X218440000Y-91068670D01*
X219162889Y-90924878D01*
X219775725Y-90515395D01*
X220185208Y-89902559D01*
X220329000Y-89179670D01*
X220329000Y-88620330D01*
X220185208Y-87897441D01*
X219775725Y-87284605D01*
X219744092Y-87263469D01*
X219712182Y-87103045D01*
X219413686Y-86656314D01*
X217208220Y-84450848D01*
X217342275Y-84395457D01*
X217744047Y-83994386D01*
X217961752Y-83470093D01*
X217962248Y-82902397D01*
X217912000Y-82780788D01*
X217912000Y-80580372D01*
X220843096Y-77649276D01*
X220939764Y-77669155D01*
X221773920Y-76835000D01*
X221759778Y-76820858D01*
X222145858Y-76434778D01*
X222160000Y-76448920D01*
X222174143Y-76434778D01*
X222560223Y-76820858D01*
X222546080Y-76835000D01*
X222560223Y-76849142D01*
X222174143Y-77235223D01*
X222160000Y-77221080D01*
X221325845Y-78055236D01*
X221388728Y-78361021D01*
X222031420Y-78540012D01*
X222693687Y-78459431D01*
X222822737Y-78405977D01*
X222822675Y-78476720D01*
X223107829Y-79166846D01*
X223635376Y-79695316D01*
X224074338Y-79877589D01*
X224048000Y-80010000D01*
X224048000Y-88900000D01*
X224152818Y-89426955D01*
X224451314Y-89873686D01*
X225789371Y-91211743D01*
X225565505Y-91435218D01*
X225233379Y-92235068D01*
X225232834Y-92859794D01*
X223816314Y-94276314D01*
X223517818Y-94723045D01*
X223413000Y-95250000D01*
X223413000Y-100833390D01*
X223224624Y-100644684D01*
X222534996Y-100358326D01*
X221788280Y-100357675D01*
X221098154Y-100642829D01*
X220569684Y-101170376D01*
X220283326Y-101860004D01*
X220282675Y-102606720D01*
X220567829Y-103296846D01*
X220775520Y-103504900D01*
X220569684Y-103710376D01*
X220283326Y-104400004D01*
X220283092Y-104668000D01*
X216304909Y-104668000D01*
X216185093Y-104618248D01*
X215617397Y-104617752D01*
X215092725Y-104834543D01*
X214690953Y-105235614D01*
X214473248Y-105759907D01*
X214472752Y-106327603D01*
X214689543Y-106852275D01*
X215090614Y-107254047D01*
X215614907Y-107471752D01*
X216182603Y-107472248D01*
X216304212Y-107422000D01*
X220282906Y-107422000D01*
X220282675Y-107686720D01*
X220567829Y-108376846D01*
X220895414Y-108705005D01*
X220759668Y-108840751D01*
X220939762Y-109020845D01*
X220633979Y-109083728D01*
X220454988Y-109726420D01*
X220535569Y-110388687D01*
X220633979Y-110626272D01*
X220939764Y-110689155D01*
X221773920Y-109855000D01*
X221759777Y-109840858D01*
X222145858Y-109454777D01*
X222160000Y-109468920D01*
X222174143Y-109454778D01*
X222560223Y-109840858D01*
X222546080Y-109855000D01*
X222560223Y-109869143D01*
X222174142Y-110255223D01*
X222160000Y-110241080D01*
X221325845Y-111075236D01*
X221388728Y-111381021D01*
X222031420Y-111560012D01*
X222693687Y-111479431D01*
X222931272Y-111381021D01*
X222994155Y-111075238D01*
X223006022Y-111087105D01*
X223075569Y-111658687D01*
X223173979Y-111896272D01*
X223479764Y-111959155D01*
X224313920Y-111125000D01*
X224299778Y-111110858D01*
X224685858Y-110724777D01*
X224700000Y-110738920D01*
X224714143Y-110724778D01*
X225100223Y-111110858D01*
X225086080Y-111125000D01*
X225920236Y-111959155D01*
X226226021Y-111896272D01*
X226405012Y-111253580D01*
X226324431Y-110591313D01*
X226226021Y-110353728D01*
X225920238Y-110290845D01*
X226100332Y-110110751D01*
X225964476Y-109974895D01*
X226290316Y-109649624D01*
X226576674Y-108959996D01*
X226577325Y-108213280D01*
X226292171Y-107523154D01*
X226084480Y-107315100D01*
X226290316Y-107109624D01*
X226576674Y-106419996D01*
X226577325Y-105673280D01*
X226292171Y-104983154D01*
X226084480Y-104775100D01*
X226290316Y-104569624D01*
X226576674Y-103879996D01*
X226577325Y-103133280D01*
X226292171Y-102443154D01*
X226167000Y-102317764D01*
X226167000Y-101505054D01*
X228322528Y-101505054D01*
X228736814Y-102507703D01*
X229503262Y-103275490D01*
X230505186Y-103691526D01*
X231590054Y-103692472D01*
X232592703Y-103278186D01*
X233360490Y-102511738D01*
X233776526Y-101509814D01*
X233776812Y-101181719D01*
X234570740Y-101182412D01*
X235444703Y-100821297D01*
X236113947Y-100153220D01*
X236476586Y-99279889D01*
X236477412Y-98334260D01*
X236116297Y-97460297D01*
X235448220Y-96791053D01*
X234574889Y-96428414D01*
X233629260Y-96427588D01*
X232755297Y-96788703D01*
X232086053Y-97456780D01*
X231736957Y-98297497D01*
X231594814Y-98238474D01*
X230509946Y-98237528D01*
X229507297Y-98651814D01*
X228739510Y-99418262D01*
X228323474Y-100420186D01*
X228322528Y-101505054D01*
X226167000Y-101505054D01*
X226167000Y-95820372D01*
X227140606Y-94846766D01*
X227841132Y-94847377D01*
X228641560Y-94516647D01*
X229254495Y-93904782D01*
X229563654Y-93160242D01*
X230069190Y-93666660D01*
X231585487Y-94296282D01*
X233227310Y-94297715D01*
X234744704Y-93670741D01*
X235906660Y-92510810D01*
X236131100Y-91970300D01*
X236175218Y-92014495D01*
X236975068Y-92346621D01*
X237841132Y-92347377D01*
X238641560Y-92016647D01*
X239254495Y-91404782D01*
X239586621Y-90604932D01*
X239587377Y-89738868D01*
X239256647Y-88938440D01*
X238644782Y-88325505D01*
X237844932Y-87993379D01*
X236978868Y-87992623D01*
X236178440Y-88323353D01*
X236131686Y-88370025D01*
X235910741Y-87835296D01*
X234750810Y-86673340D01*
X233234513Y-86043718D01*
X231592690Y-86042285D01*
X230075296Y-86669259D01*
X229367734Y-87375588D01*
X229339866Y-87087937D01*
X229186202Y-86716961D01*
X228849648Y-86616432D01*
X227796080Y-87670000D01*
X227810223Y-87684143D01*
X227424143Y-88070223D01*
X227410000Y-88056080D01*
X227395858Y-88070223D01*
X227009778Y-87684143D01*
X227023920Y-87670000D01*
X227009778Y-87655858D01*
X227395858Y-87269778D01*
X227410000Y-87283920D01*
X228463568Y-86230352D01*
X228363039Y-85893798D01*
X227610771Y-85664291D01*
X226827937Y-85740134D01*
X226802000Y-85750878D01*
X226802000Y-80580372D01*
X227033686Y-80348686D01*
X227323429Y-79915054D01*
X228322528Y-79915054D01*
X228736814Y-80917703D01*
X229503262Y-81685490D01*
X230505186Y-82101526D01*
X231590054Y-82102472D01*
X231737401Y-82041590D01*
X232083703Y-82879703D01*
X232751780Y-83548947D01*
X233625111Y-83911586D01*
X234570740Y-83912412D01*
X235444703Y-83551297D01*
X236113947Y-82883220D01*
X236476586Y-82009889D01*
X236477412Y-81064260D01*
X236116297Y-80190297D01*
X235448220Y-79521053D01*
X234574889Y-79158414D01*
X233777191Y-79157717D01*
X233777472Y-78834946D01*
X233363186Y-77832297D01*
X232596738Y-77064510D01*
X231594814Y-76648474D01*
X230509946Y-76647528D01*
X229507297Y-77061814D01*
X228739510Y-77828262D01*
X228323474Y-78830186D01*
X228322528Y-79915054D01*
X227323429Y-79915054D01*
X227332182Y-79901955D01*
X227437000Y-79375000D01*
X227437000Y-71755000D01*
X227332182Y-71228045D01*
X227033686Y-70781314D01*
X226577141Y-70324769D01*
X226577325Y-70113280D01*
X226292171Y-69423154D01*
X225764624Y-68894684D01*
X225074996Y-68608326D01*
X224328280Y-68607675D01*
X223996602Y-68744722D01*
X223889310Y-68485054D01*
X228322528Y-68485054D01*
X228736814Y-69487703D01*
X229503262Y-70255490D01*
X230505186Y-70671526D01*
X231590054Y-70672472D01*
X232592703Y-70258186D01*
X233360490Y-69491738D01*
X233776526Y-68489814D01*
X233776812Y-68161719D01*
X234570740Y-68162412D01*
X235444703Y-67801297D01*
X236113947Y-67133220D01*
X236476586Y-66259889D01*
X236477412Y-65314260D01*
X236116297Y-64440297D01*
X235448220Y-63771053D01*
X234574889Y-63408414D01*
X233629260Y-63407588D01*
X232755297Y-63768703D01*
X232086053Y-64436780D01*
X231736957Y-65277497D01*
X231594814Y-65218474D01*
X230509946Y-65217528D01*
X229507297Y-65631814D01*
X228739510Y-66398262D01*
X228323474Y-67400186D01*
X228322528Y-68485054D01*
X223889310Y-68485054D01*
X223752171Y-68153154D01*
X223224624Y-67624684D01*
X222534996Y-67338326D01*
X221788280Y-67337675D01*
X221098154Y-67622829D01*
X220569684Y-68150376D01*
X220390140Y-68582768D01*
X220335000Y-68527628D01*
X220285457Y-68407725D01*
X219884386Y-68005953D01*
X219360093Y-67788248D01*
X218792397Y-67787752D01*
X218267725Y-68004543D01*
X217865953Y-68405614D01*
X217648248Y-68929907D01*
X217647752Y-69497603D01*
X217864543Y-70022275D01*
X218265614Y-70424047D01*
X218387135Y-70474507D01*
X218679753Y-70767125D01*
X218500953Y-70945614D01*
X218283248Y-71469907D01*
X218282899Y-71869729D01*
X213339628Y-76813000D01*
X213322248Y-76813000D01*
X212584817Y-76959684D01*
X211959653Y-77377405D01*
X211541932Y-78002569D01*
X211395248Y-78740000D01*
X211541932Y-79477431D01*
X211897783Y-80010000D01*
X211541932Y-80542569D01*
X211395248Y-81280000D01*
X211541932Y-82017431D01*
X211897783Y-82550000D01*
X211541932Y-83082569D01*
X211395248Y-83820000D01*
X211541932Y-84557431D01*
X211897783Y-85090000D01*
X211541932Y-85622569D01*
X211395248Y-86360000D01*
X211541932Y-87097431D01*
X211826288Y-87523000D01*
X208280000Y-87523000D01*
X207753045Y-87627818D01*
X207371227Y-87882941D01*
X207202217Y-87630000D01*
X207558068Y-87097431D01*
X207704752Y-86360000D01*
X207558068Y-85622569D01*
X207202217Y-85090000D01*
X207558068Y-84557431D01*
X207704752Y-83820000D01*
X207558068Y-83082569D01*
X207202217Y-82550000D01*
X207558068Y-82017431D01*
X207704752Y-81280000D01*
X207558068Y-80542569D01*
X207390418Y-80291663D01*
X207598548Y-79987056D01*
X207689079Y-79540000D01*
X207689079Y-77940000D01*
X207610494Y-77522359D01*
X207363669Y-77138781D01*
X206987056Y-76881452D01*
X206540000Y-76790921D01*
X204940000Y-76790921D01*
X204522359Y-76869506D01*
X204138781Y-77116331D01*
X203881452Y-77492944D01*
X203790921Y-77940000D01*
X203790921Y-79540000D01*
X203869506Y-79957641D01*
X204086964Y-80295581D01*
X203921932Y-80542569D01*
X203775248Y-81280000D01*
X203921932Y-82017431D01*
X204277783Y-82550000D01*
X203921932Y-83082569D01*
X203775248Y-83820000D01*
X203921932Y-84557431D01*
X204277783Y-85090000D01*
X203921932Y-85622569D01*
X203775248Y-86360000D01*
X203921932Y-87097431D01*
X204277783Y-87630000D01*
X203921932Y-88162569D01*
X203796532Y-88793000D01*
X203200000Y-88793000D01*
X202673045Y-88897818D01*
X202549000Y-88980702D01*
X202549000Y-88620330D01*
X202405208Y-87897441D01*
X202226510Y-87630000D01*
X202405208Y-87362559D01*
X202549000Y-86639670D01*
X202549000Y-86080330D01*
X202405208Y-85357441D01*
X202226510Y-85090000D01*
X202405208Y-84822559D01*
X202549000Y-84099670D01*
X202549000Y-83540330D01*
X202405208Y-82817441D01*
X202226510Y-82550000D01*
X202405208Y-82282559D01*
X202549000Y-81559670D01*
X202549000Y-81000330D01*
X202405208Y-80277441D01*
X202226510Y-80010000D01*
X202405208Y-79742559D01*
X202549000Y-79019670D01*
X202549000Y-78460330D01*
X202405208Y-77737441D01*
X201995725Y-77124605D01*
X201382889Y-76715122D01*
X200660000Y-76571330D01*
X199937111Y-76715122D01*
X199324275Y-77124605D01*
X198914792Y-77737441D01*
X198771000Y-78460330D01*
X198771000Y-79019670D01*
X198914792Y-79742559D01*
X199093490Y-80010000D01*
X198914792Y-80277441D01*
X198771000Y-81000330D01*
X198771000Y-81559670D01*
X198914792Y-82282559D01*
X199093490Y-82550000D01*
X198914792Y-82817441D01*
X198771000Y-83540330D01*
X198771000Y-84099670D01*
X198914792Y-84822559D01*
X199093490Y-85090000D01*
X198914792Y-85357441D01*
X198771000Y-86080330D01*
X198771000Y-86639670D01*
X198914792Y-87362559D01*
X199093490Y-87630000D01*
X198914792Y-87897441D01*
X198771000Y-88620330D01*
X198771000Y-89179670D01*
X198914792Y-89902559D01*
X199324275Y-90515395D01*
X199937111Y-90924878D01*
X200404734Y-91017894D01*
X189225848Y-102196780D01*
X189170457Y-102062725D01*
X188769386Y-101660953D01*
X188647865Y-101610493D01*
X186680000Y-99642628D01*
X186630457Y-99522725D01*
X186450210Y-99342162D01*
X188530372Y-97262000D01*
X189230000Y-97262000D01*
X189756955Y-97157182D01*
X190203686Y-96858686D01*
X191822372Y-95240000D01*
X191942275Y-95190457D01*
X192344047Y-94789386D01*
X192561752Y-94265093D01*
X192562248Y-93697397D01*
X192345457Y-93172725D01*
X191944386Y-92770953D01*
X191420093Y-92553248D01*
X190852397Y-92552752D01*
X190327725Y-92769543D01*
X189925953Y-93170614D01*
X189875493Y-93292135D01*
X189785671Y-93381957D01*
X189705208Y-92977441D01*
X189526510Y-92710000D01*
X189705208Y-92442559D01*
X189849000Y-91719670D01*
X189849000Y-91160330D01*
X189705208Y-90437441D01*
X189526510Y-90170000D01*
X189705208Y-89902559D01*
X189849000Y-89179670D01*
X189849000Y-88620330D01*
X189705208Y-87897441D01*
X189526510Y-87630000D01*
X189705208Y-87362559D01*
X189849000Y-86639670D01*
X189849000Y-86080330D01*
X189705208Y-85357441D01*
X189526510Y-85090000D01*
X189705208Y-84822559D01*
X189849000Y-84099670D01*
X189849000Y-83540330D01*
X189705208Y-82817441D01*
X189526510Y-82550000D01*
X189705208Y-82282559D01*
X189849000Y-81559670D01*
X189849000Y-81000330D01*
X189705208Y-80277441D01*
X189526510Y-80010000D01*
X189705208Y-79742559D01*
X189849000Y-79019670D01*
X189849000Y-78460330D01*
X189705208Y-77737441D01*
X189526510Y-77470000D01*
X189705208Y-77202559D01*
X189849000Y-76479670D01*
X189849000Y-75920330D01*
X189705208Y-75197441D01*
X189295725Y-74584605D01*
X188682889Y-74175122D01*
X187960000Y-74031330D01*
X187237111Y-74175122D01*
X186624275Y-74584605D01*
X186214792Y-75197441D01*
X186071000Y-75920330D01*
X186071000Y-76479670D01*
X186214792Y-77202559D01*
X186393490Y-77470000D01*
X186214792Y-77737441D01*
X186071000Y-78460330D01*
X186071000Y-79019670D01*
X186214792Y-79742559D01*
X186393490Y-80010000D01*
X186214792Y-80277441D01*
X186071000Y-81000330D01*
X186071000Y-81559670D01*
X186214792Y-82282559D01*
X186393490Y-82550000D01*
X186214792Y-82817441D01*
X186071000Y-83540330D01*
X186071000Y-84099670D01*
X186214792Y-84822559D01*
X186393490Y-85090000D01*
X186214792Y-85357441D01*
X186071000Y-86080330D01*
X186071000Y-86639670D01*
X186214792Y-87362559D01*
X186393490Y-87630000D01*
X186214792Y-87897441D01*
X186071000Y-88620330D01*
X186071000Y-89179670D01*
X186214792Y-89902559D01*
X186393490Y-90170000D01*
X186214792Y-90437441D01*
X186071000Y-91160330D01*
X186071000Y-91719670D01*
X186214792Y-92442559D01*
X186393490Y-92710000D01*
X186214792Y-92977441D01*
X186071000Y-93700330D01*
X186071000Y-94259670D01*
X186214792Y-94982559D01*
X186495283Y-95402345D01*
X180922628Y-100975000D01*
X180802725Y-101024543D01*
X180400953Y-101425614D01*
X180183248Y-101949907D01*
X180182752Y-102517603D01*
X180263461Y-102712932D01*
X180057397Y-102712752D01*
X179532725Y-102929543D01*
X179130953Y-103330614D01*
X178913248Y-103854907D01*
X178912752Y-104422603D01*
X179129543Y-104947275D01*
X179530614Y-105349047D01*
X179652135Y-105399507D01*
X182255000Y-108002372D01*
X182304543Y-108122275D01*
X182705614Y-108524047D01*
X182841964Y-108580664D01*
X178382628Y-113040000D01*
X178262725Y-113089543D01*
X177860953Y-113490614D01*
X177643248Y-114014907D01*
X177642752Y-114582603D01*
X164378466Y-114582603D01*
X167019750Y-109740250D01*
X172612545Y-109740250D01*
X173011639Y-110706132D01*
X173749981Y-111445764D01*
X174715165Y-111846543D01*
X175760250Y-111847455D01*
X176726132Y-111448361D01*
X177465764Y-110710019D01*
X177866543Y-109744835D01*
X177867455Y-108699750D01*
X177468361Y-107733868D01*
X176730019Y-106994236D01*
X175764835Y-106593457D01*
X174719750Y-106592545D01*
X173753868Y-106991639D01*
X173014236Y-107729981D01*
X172613457Y-108695165D01*
X172612545Y-109740250D01*
X167019750Y-109740250D01*
X170753862Y-102894380D01*
X170775987Y-102823608D01*
X170817182Y-102761955D01*
X170855528Y-102569175D01*
X170914176Y-102381576D01*
X170907534Y-102307726D01*
X170922000Y-102235000D01*
X170922000Y-96042095D01*
X171097603Y-96042248D01*
X171622275Y-95825457D01*
X172024047Y-95424386D01*
X172074507Y-95302865D01*
X180889670Y-86487702D01*
X181014758Y-87116565D01*
X181357824Y-87630000D01*
X181014758Y-88143435D01*
X180864268Y-88900000D01*
X181014758Y-89656565D01*
X181357824Y-90170000D01*
X181014758Y-90683435D01*
X180864268Y-91440000D01*
X181014758Y-92196565D01*
X181357824Y-92710000D01*
X181014758Y-93223435D01*
X180864268Y-93980000D01*
X181014758Y-94736565D01*
X181443318Y-95377950D01*
X182084703Y-95806510D01*
X182841268Y-95957000D01*
X182918732Y-95957000D01*
X183675297Y-95806510D01*
X184316682Y-95377950D01*
X184745242Y-94736565D01*
X184895732Y-93980000D01*
X184745242Y-93223435D01*
X184402176Y-92710000D01*
X184745242Y-92196565D01*
X184895732Y-91440000D01*
X184745242Y-90683435D01*
X184402176Y-90170000D01*
X184745242Y-89656565D01*
X184895732Y-88900000D01*
X184745242Y-88143435D01*
X184402176Y-87630000D01*
X184745242Y-87116565D01*
X184895732Y-86360000D01*
X184745242Y-85603435D01*
X184402176Y-85090000D01*
X184745242Y-84576565D01*
X184895732Y-83820000D01*
X184745242Y-83063435D01*
X184402176Y-82550000D01*
X184745242Y-82036565D01*
X184895732Y-81280000D01*
X184745242Y-80523435D01*
X184402176Y-80010000D01*
X184745242Y-79496565D01*
X184895732Y-78740000D01*
X184745242Y-77983435D01*
X184402176Y-77470000D01*
X184745242Y-76956565D01*
X184895732Y-76200000D01*
X184745242Y-75443435D01*
X184402176Y-74930000D01*
X184745242Y-74416565D01*
X184895732Y-73660000D01*
X184745242Y-72903435D01*
X184402176Y-72390000D01*
X184745242Y-71876565D01*
X184895732Y-71120000D01*
X184840103Y-70840330D01*
X186071000Y-70840330D01*
X186071000Y-71399670D01*
X186214792Y-72122559D01*
X186624275Y-72735395D01*
X187237111Y-73144878D01*
X187960000Y-73288670D01*
X188682889Y-73144878D01*
X189295725Y-72735395D01*
X189705208Y-72122559D01*
X189849000Y-71399670D01*
X189849000Y-70840330D01*
X189705208Y-70117441D01*
X189295725Y-69504605D01*
X188682889Y-69095122D01*
X187960000Y-68951330D01*
X187237111Y-69095122D01*
X186624275Y-69504605D01*
X186214792Y-70117441D01*
X186071000Y-70840330D01*
X184840103Y-70840330D01*
X184745242Y-70363435D01*
X184316682Y-69722050D01*
X184239576Y-69670529D01*
X184461036Y-69391243D01*
X184571579Y-69124323D01*
X184400943Y-68853000D01*
X183153000Y-68853000D01*
X183153000Y-68873000D01*
X182607000Y-68873000D01*
X182607000Y-68853000D01*
X182587000Y-68853000D01*
X182587000Y-68307000D01*
X182607000Y-68307000D01*
X182607000Y-68287000D01*
X183153000Y-68287000D01*
X183153000Y-68307000D01*
X184400943Y-68307000D01*
X184571579Y-68035677D01*
X184461036Y-67768757D01*
X184455824Y-67762184D01*
X184531219Y-67713669D01*
X184788548Y-67337056D01*
X184879079Y-66890000D01*
X184879079Y-65760330D01*
X186071000Y-65760330D01*
X186071000Y-66319670D01*
X186214792Y-67042559D01*
X186624275Y-67655395D01*
X187237111Y-68064878D01*
X187960000Y-68208670D01*
X188682889Y-68064878D01*
X189295725Y-67655395D01*
X189705208Y-67042559D01*
X189722106Y-66957603D01*
X191612752Y-66957603D01*
X191829543Y-67482275D01*
X192230614Y-67884047D01*
X192352135Y-67934507D01*
X196860000Y-72442372D01*
X196909543Y-72562275D01*
X197310614Y-72964047D01*
X197834907Y-73181752D01*
X198402603Y-73182248D01*
X198927275Y-72965457D01*
X199329047Y-72564386D01*
X199546752Y-72040093D01*
X199547248Y-71472397D01*
X199330457Y-70947725D01*
X198929386Y-70545953D01*
X198807865Y-70495493D01*
X196727372Y-68415000D01*
X199980921Y-68415000D01*
X199980921Y-70015000D01*
X200059506Y-70432641D01*
X200306331Y-70816219D01*
X200682944Y-71073548D01*
X201130000Y-71164079D01*
X202730000Y-71164079D01*
X203147641Y-71085494D01*
X203531219Y-70838669D01*
X203613892Y-70717673D01*
X203628384Y-70782784D01*
X204289368Y-70970209D01*
X204971763Y-70890420D01*
X205231616Y-70782784D01*
X205300813Y-70471894D01*
X204430000Y-69601080D01*
X204415858Y-69615223D01*
X204029778Y-69229143D01*
X204043920Y-69215000D01*
X204816080Y-69215000D01*
X205686894Y-70085813D01*
X205997784Y-70016616D01*
X206185209Y-69355632D01*
X206105420Y-68673237D01*
X205997784Y-68413384D01*
X205686894Y-68344187D01*
X204816080Y-69215000D01*
X204043920Y-69215000D01*
X204029778Y-69200858D01*
X204415858Y-68814778D01*
X204430000Y-68828920D01*
X205300813Y-67958106D01*
X205231616Y-67647216D01*
X204570632Y-67459791D01*
X203888237Y-67539580D01*
X203628384Y-67647216D01*
X203614712Y-67708644D01*
X203553669Y-67613781D01*
X203177056Y-67356452D01*
X202730000Y-67265921D01*
X201130000Y-67265921D01*
X200712359Y-67344506D01*
X200328781Y-67591331D01*
X200071452Y-67967944D01*
X199980921Y-68415000D01*
X196727372Y-68415000D01*
X194300000Y-65987628D01*
X194250457Y-65867725D01*
X193849386Y-65465953D01*
X193325093Y-65248248D01*
X192757397Y-65247752D01*
X192232725Y-65464543D01*
X191830953Y-65865614D01*
X191613248Y-66389907D01*
X191612752Y-66957603D01*
X189722106Y-66957603D01*
X189849000Y-66319670D01*
X189849000Y-65760330D01*
X189705208Y-65037441D01*
X189295725Y-64424605D01*
X188682889Y-64015122D01*
X187960000Y-63871330D01*
X187237111Y-64015122D01*
X186624275Y-64424605D01*
X186214792Y-65037441D01*
X186071000Y-65760330D01*
X184879079Y-65760330D01*
X184879079Y-65190000D01*
X184800494Y-64772359D01*
X184553669Y-64388781D01*
X184177056Y-64131452D01*
X183730000Y-64040921D01*
X183016451Y-64040921D01*
X184837372Y-62220000D01*
X184957275Y-62170457D01*
X185359047Y-61769386D01*
X185576752Y-61245093D01*
X185577248Y-60677397D01*
X185360457Y-60152725D01*
X184959386Y-59750953D01*
X184435093Y-59533248D01*
X183867397Y-59532752D01*
X183342725Y-59749543D01*
X182940953Y-60150614D01*
X182890493Y-60272135D01*
X180001314Y-63161314D01*
X179702818Y-63608045D01*
X179598000Y-64135000D01*
X179598000Y-72170185D01*
X179244386Y-71815953D01*
X179122865Y-71765493D01*
X170518686Y-63161314D01*
X170071955Y-62862818D01*
X169545000Y-62758000D01*
X165735000Y-62758000D01*
X165208045Y-62862818D01*
X164761314Y-63161314D01*
X164462818Y-63608045D01*
X164358000Y-64135000D01*
X164358000Y-67374628D01*
X162507628Y-69225000D01*
X162387725Y-69274543D01*
X161985953Y-69675614D01*
X161929336Y-69811964D01*
X158105000Y-65987628D01*
X158055457Y-65867725D01*
X157654386Y-65465953D01*
X157130093Y-65248248D01*
X156562397Y-65247752D01*
X156037725Y-65464543D01*
X155635953Y-65865614D01*
X155418248Y-66389907D01*
X155418173Y-66475801D01*
X152103686Y-63161314D01*
X151656955Y-62862818D01*
X151130000Y-62758000D01*
X142875000Y-62758000D01*
X142348045Y-62862818D01*
X141901314Y-63161314D01*
X141602818Y-63608045D01*
X141529243Y-63977933D01*
X141322397Y-63977752D01*
X140797725Y-64194543D01*
X140395953Y-64595614D01*
X140345493Y-64717135D01*
X131087462Y-73975166D01*
X131060943Y-73933000D01*
X129813000Y-73933000D01*
X129813000Y-73953000D01*
X129267000Y-73953000D01*
X129267000Y-73933000D01*
X128019057Y-73933000D01*
X127848421Y-74204323D01*
X127958964Y-74471243D01*
X128180424Y-74750529D01*
X128103318Y-74802050D01*
X127674758Y-75443435D01*
X127524268Y-76200000D01*
X127674758Y-76956565D01*
X128017824Y-77470000D01*
X127674758Y-77983435D01*
X127524268Y-78740000D01*
X127674758Y-79496565D01*
X128017824Y-80010000D01*
X127674758Y-80523435D01*
X127524268Y-81280000D01*
X127674758Y-82036565D01*
X128017824Y-82550000D01*
X127674758Y-83063435D01*
X127524268Y-83820000D01*
X127674758Y-84576565D01*
X128017824Y-85090000D01*
X127674758Y-85603435D01*
X127524268Y-86360000D01*
X127674758Y-87116565D01*
X128017824Y-87630000D01*
X127674758Y-88143435D01*
X127524268Y-88900000D01*
X127674758Y-89656565D01*
X128017824Y-90170000D01*
X127674758Y-90683435D01*
X127524268Y-91440000D01*
X127674758Y-92196565D01*
X128017824Y-92710000D01*
X127674758Y-93223435D01*
X127549670Y-93852298D01*
X127107000Y-93409628D01*
X127107000Y-92075000D01*
X127002182Y-91548045D01*
X126703686Y-91101314D01*
X124049360Y-88446988D01*
X124460000Y-88528670D01*
X125182889Y-88384878D01*
X125795725Y-87975395D01*
X126205208Y-87362559D01*
X126349000Y-86639670D01*
X126349000Y-86080330D01*
X126205208Y-85357441D01*
X125795725Y-84744605D01*
X125182889Y-84335122D01*
X124460000Y-84191330D01*
X123737111Y-84335122D01*
X123124275Y-84744605D01*
X122714792Y-85357441D01*
X122571000Y-86080330D01*
X122571000Y-86639670D01*
X122652682Y-87050310D01*
X119418220Y-83815848D01*
X119552275Y-83760457D01*
X119954047Y-83359386D01*
X120171752Y-82835093D01*
X120172248Y-82267397D01*
X120122000Y-82145788D01*
X120122000Y-78040372D01*
X126498049Y-71664323D01*
X127848421Y-71664323D01*
X127958964Y-71931243D01*
X128322736Y-72390000D01*
X127958964Y-72848757D01*
X127848421Y-73115677D01*
X128019057Y-73387000D01*
X129267000Y-73387000D01*
X129267000Y-71393000D01*
X129813000Y-71393000D01*
X129813000Y-73387000D01*
X131060943Y-73387000D01*
X131231579Y-73115677D01*
X131121036Y-72848757D01*
X130757264Y-72390000D01*
X131121036Y-71931243D01*
X131231579Y-71664323D01*
X131060943Y-71393000D01*
X129813000Y-71393000D01*
X129267000Y-71393000D01*
X128019057Y-71393000D01*
X127848421Y-71664323D01*
X126498049Y-71664323D01*
X126703686Y-71458686D01*
X127002182Y-71011955D01*
X127107000Y-70485000D01*
X127107000Y-66610372D01*
X127540921Y-66176451D01*
X127540921Y-66890000D01*
X127619506Y-67307641D01*
X127815688Y-67612518D01*
X127674758Y-67823435D01*
X127524268Y-68580000D01*
X127674758Y-69336565D01*
X128103318Y-69977950D01*
X128180424Y-70029471D01*
X127958964Y-70308757D01*
X127848421Y-70575677D01*
X128019057Y-70847000D01*
X129267000Y-70847000D01*
X129267000Y-70827000D01*
X129813000Y-70827000D01*
X129813000Y-70847000D01*
X131060943Y-70847000D01*
X131231579Y-70575677D01*
X131121036Y-70308757D01*
X130899576Y-70029471D01*
X130976682Y-69977950D01*
X131405242Y-69336565D01*
X131555732Y-68580000D01*
X131405242Y-67823435D01*
X131262344Y-67609574D01*
X131448548Y-67337056D01*
X131539079Y-66890000D01*
X131539079Y-65190000D01*
X131460494Y-64772359D01*
X131213669Y-64388781D01*
X130837056Y-64131452D01*
X130390000Y-64040921D01*
X129676451Y-64040921D01*
X130227372Y-63490000D01*
X130347275Y-63440457D01*
X130749047Y-63039386D01*
X130966752Y-62515093D01*
X130967248Y-61947397D01*
X130750457Y-61422725D01*
X130570650Y-61242603D01*
X155417752Y-61242603D01*
X155634543Y-61767275D01*
X156035614Y-62169047D01*
X156157135Y-62219507D01*
X159395000Y-65457372D01*
X159444543Y-65577275D01*
X159845614Y-65979047D01*
X160369907Y-66196752D01*
X160937603Y-66197248D01*
X161462275Y-65980457D01*
X161864047Y-65579386D01*
X162081752Y-65055093D01*
X162082248Y-64487397D01*
X161865457Y-63962725D01*
X161464386Y-63560953D01*
X161342865Y-63510493D01*
X158105000Y-60272628D01*
X158055457Y-60152725D01*
X157654386Y-59750953D01*
X157130093Y-59533248D01*
X156562397Y-59532752D01*
X156037725Y-59749543D01*
X155635953Y-60150614D01*
X155418248Y-60674907D01*
X155417752Y-61242603D01*
X130570650Y-61242603D01*
X130349386Y-61020953D01*
X129825093Y-60803248D01*
X129257397Y-60802752D01*
X128732725Y-61019543D01*
X128330953Y-61420614D01*
X128280493Y-61542135D01*
X125557320Y-64265308D01*
X125182889Y-64015122D01*
X124460000Y-63871330D01*
X123737111Y-64015122D01*
X123124275Y-64424605D01*
X122714792Y-65037441D01*
X122571000Y-65760330D01*
X122571000Y-66319670D01*
X122714792Y-67042559D01*
X122893490Y-67310000D01*
X122714792Y-67577441D01*
X122571000Y-68300330D01*
X122571000Y-68859670D01*
X122714792Y-69582559D01*
X123124275Y-70195395D01*
X123692535Y-70575093D01*
X118217000Y-76050628D01*
X118217000Y-64573103D01*
X118692977Y-64573103D01*
X118730361Y-64858607D01*
X119299729Y-65003795D01*
X119881316Y-64920044D01*
X120029639Y-64858607D01*
X120067023Y-64573103D01*
X119380000Y-63886080D01*
X118692977Y-64573103D01*
X118217000Y-64573103D01*
X118217000Y-64494970D01*
X118260862Y-64451184D01*
X118415752Y-64078168D01*
X118993920Y-63500000D01*
X119766080Y-63500000D01*
X120453103Y-64187023D01*
X120738607Y-64149639D01*
X120883795Y-63580271D01*
X120800044Y-62998684D01*
X120738607Y-62850361D01*
X120453103Y-62812977D01*
X119766080Y-63500000D01*
X118993920Y-63500000D01*
X118415530Y-62921610D01*
X118262520Y-62551297D01*
X118138337Y-62426897D01*
X118692977Y-62426897D01*
X119380000Y-63113920D01*
X120067023Y-62426897D01*
X120029639Y-62141393D01*
X119460271Y-61996205D01*
X118878684Y-62079956D01*
X118730361Y-62141393D01*
X118692977Y-62426897D01*
X118138337Y-62426897D01*
X117791184Y-62079138D01*
X117175039Y-61823292D01*
X116507888Y-61822710D01*
X115891297Y-62077480D01*
X115569853Y-62398364D01*
X115251184Y-62079138D01*
X114635039Y-61823292D01*
X113967888Y-61822710D01*
X113351297Y-62077480D01*
X113190852Y-62237646D01*
X113133669Y-62148781D01*
X112757056Y-61891452D01*
X112310000Y-61800921D01*
X111210000Y-61800921D01*
X110792359Y-61879506D01*
X110408781Y-62126331D01*
X110151452Y-62502944D01*
X110060921Y-62950000D01*
X110060921Y-63251707D01*
X101816856Y-71495773D01*
X101640238Y-71319155D01*
X101946021Y-71256272D01*
X102125012Y-70613580D01*
X102044431Y-69951313D01*
X101946021Y-69713728D01*
X101640236Y-69650845D01*
X100806080Y-70485000D01*
X100820223Y-70499142D01*
X100434142Y-70885223D01*
X100420000Y-70871080D01*
X100405858Y-70885223D01*
X100019777Y-70499142D01*
X100033920Y-70485000D01*
X100019778Y-70470858D01*
X100405858Y-70084777D01*
X100420000Y-70098920D01*
X101254155Y-69264764D01*
X101191272Y-68958979D01*
X100548580Y-68779988D01*
X99886313Y-68860569D01*
X99648728Y-68958979D01*
X99585845Y-69264762D01*
X99573978Y-69252895D01*
X99504431Y-68681313D01*
X99406021Y-68443728D01*
X99100236Y-68380845D01*
X98266080Y-69215000D01*
X98280223Y-69229143D01*
X97894142Y-69615223D01*
X97880000Y-69601080D01*
X97351093Y-70129987D01*
X97346313Y-70130569D01*
X97108728Y-70228979D01*
X97071611Y-70409470D01*
X97045845Y-70435236D01*
X97056079Y-70485000D01*
X97045845Y-70534764D01*
X97071611Y-70560530D01*
X97108728Y-70741021D01*
X97307445Y-70796364D01*
X97880000Y-71368920D01*
X97894143Y-71354778D01*
X98280223Y-71740858D01*
X98266080Y-71755000D01*
X98280223Y-71769142D01*
X97894142Y-72155223D01*
X97880000Y-72141080D01*
X97865858Y-72155223D01*
X97479777Y-71769142D01*
X97493920Y-71755000D01*
X96659764Y-70920845D01*
X96353979Y-70983728D01*
X96174988Y-71626420D01*
X96255569Y-72288687D01*
X96353979Y-72526272D01*
X96659762Y-72589155D01*
X96479668Y-72769249D01*
X96615524Y-72905105D01*
X96289684Y-73230376D01*
X96003326Y-73920004D01*
X96002675Y-74666720D01*
X96287829Y-75356846D01*
X96495520Y-75564900D01*
X96289684Y-75770376D01*
X96003326Y-76460004D01*
X96002675Y-77206720D01*
X96287829Y-77896846D01*
X96815376Y-78425316D01*
X97505004Y-78711674D01*
X98251720Y-78712325D01*
X98583398Y-78575278D01*
X98827829Y-79166846D01*
X99343854Y-79683774D01*
X96181314Y-82846314D01*
X95882818Y-83293045D01*
X95778000Y-83820000D01*
X95778000Y-97221417D01*
X95493725Y-97338877D01*
X94796326Y-98035060D01*
X94672663Y-98332874D01*
X94551123Y-98038725D01*
X93854940Y-97341326D01*
X92944867Y-96963431D01*
X91959456Y-96962571D01*
X91048725Y-97338877D01*
X90351326Y-98035060D01*
X89973431Y-98945133D01*
X89972571Y-99930544D01*
X82482000Y-99930544D01*
X82482000Y-82005740D01*
X86102588Y-82005740D01*
X86463703Y-82879703D01*
X87131780Y-83548947D01*
X88005111Y-83911586D01*
X88950740Y-83912412D01*
X89824703Y-83551297D01*
X90493947Y-82883220D01*
X90843043Y-82042503D01*
X90985186Y-82101526D01*
X92070054Y-82102472D01*
X93072703Y-81688186D01*
X93840490Y-80921738D01*
X94256526Y-79919814D01*
X94257472Y-78834946D01*
X93843186Y-77832297D01*
X93076738Y-77064510D01*
X92074814Y-76648474D01*
X90989946Y-76647528D01*
X89987297Y-77061814D01*
X89219510Y-77828262D01*
X88803474Y-78830186D01*
X88803188Y-79158281D01*
X88009260Y-79157588D01*
X87135297Y-79518703D01*
X86466053Y-80186780D01*
X86103414Y-81060111D01*
X86102588Y-82005740D01*
X82482000Y-82005740D01*
X82482000Y-66255740D01*
X86102588Y-66255740D01*
X86463703Y-67129703D01*
X87131780Y-67798947D01*
X88005111Y-68161586D01*
X88802809Y-68162283D01*
X88802528Y-68485054D01*
X89216814Y-69487703D01*
X89983262Y-70255490D01*
X90985186Y-70671526D01*
X92070054Y-70672472D01*
X93072703Y-70258186D01*
X93840490Y-69491738D01*
X94008793Y-69086420D01*
X96174988Y-69086420D01*
X96255569Y-69748687D01*
X96353979Y-69986272D01*
X96659764Y-70049155D01*
X97493920Y-69215000D01*
X96659764Y-68380845D01*
X96353979Y-68443728D01*
X96174988Y-69086420D01*
X94008793Y-69086420D01*
X94256526Y-68489814D01*
X94256957Y-67994764D01*
X97045845Y-67994764D01*
X97880000Y-68828920D01*
X98714155Y-67994764D01*
X98651272Y-67688979D01*
X98008580Y-67509988D01*
X97346313Y-67590569D01*
X97108728Y-67688979D01*
X97045845Y-67994764D01*
X94256957Y-67994764D01*
X94257472Y-67404946D01*
X93843186Y-66402297D01*
X93076738Y-65634510D01*
X92074814Y-65218474D01*
X90989946Y-65217528D01*
X90842599Y-65278410D01*
X90496297Y-64440297D01*
X89828220Y-63771053D01*
X88954889Y-63408414D01*
X88009260Y-63407588D01*
X87135297Y-63768703D01*
X86466053Y-64436780D01*
X86103414Y-65310111D01*
X86102588Y-66255740D01*
X82482000Y-66255740D01*
X82482000Y-59925464D01*
X82832115Y-60772807D01*
X84001040Y-61943773D01*
X85529094Y-62578277D01*
X87183647Y-62579721D01*
X88712807Y-61947885D01*
X89883773Y-60778960D01*
X90518277Y-59250906D01*
X90519721Y-57596353D01*
X89887885Y-56067193D01*
X88718960Y-54896227D01*
X87865887Y-54542000D01*
X234714536Y-54542000D01*
X233867193Y-54892115D01*
X233867193Y-54892115D01*
G37*
X233867193Y-54892115D02*
X232696227Y-56061040D01*
X232061723Y-57589094D01*
X232060279Y-59243647D01*
X232692115Y-60772807D01*
X233861040Y-61943773D01*
X235389094Y-62578277D01*
X237043647Y-62579721D01*
X238572807Y-61947885D01*
X239743773Y-60778960D01*
X240098000Y-59925887D01*
X240098000Y-120414536D01*
X239747885Y-119567193D01*
X238578960Y-118396227D01*
X237050906Y-117761723D01*
X235396353Y-117760279D01*
X233867193Y-118392115D01*
X232696227Y-119561040D01*
X232061723Y-121089094D01*
X232060279Y-122743647D01*
X232692115Y-124272807D01*
X233861040Y-125443773D01*
X234714113Y-125798000D01*
X87865464Y-125798000D01*
X88712807Y-125447885D01*
X89883773Y-124278960D01*
X90518277Y-122750906D01*
X90519002Y-121920000D01*
X103918000Y-121920000D01*
X104079908Y-122733968D01*
X104540984Y-123424016D01*
X105231032Y-123885092D01*
X106045000Y-124047000D01*
X196215000Y-124047000D01*
X197028968Y-123885092D01*
X197719016Y-123424016D01*
X199644016Y-121499016D01*
X200105092Y-120808968D01*
X200267000Y-119995000D01*
X200267000Y-112935054D01*
X228322528Y-112935054D01*
X228736814Y-113937703D01*
X229503262Y-114705490D01*
X230505186Y-115121526D01*
X231590054Y-115122472D01*
X231737401Y-115061590D01*
X232083703Y-115899703D01*
X232751780Y-116568947D01*
X233625111Y-116931586D01*
X234570740Y-116932412D01*
X235444703Y-116571297D01*
X236113947Y-115903220D01*
X236476586Y-115029889D01*
X236477412Y-114084260D01*
X236116297Y-113210297D01*
X235448220Y-112541053D01*
X234574889Y-112178414D01*
X233777191Y-112177717D01*
X233777472Y-111854946D01*
X233363186Y-110852297D01*
X232596738Y-110084510D01*
X231594814Y-109668474D01*
X230509946Y-109667528D01*
X229507297Y-110081814D01*
X228739510Y-110848262D01*
X228323474Y-111850186D01*
X228322528Y-112935054D01*
X200267000Y-112935054D01*
X200267000Y-112345236D01*
X223865845Y-112345236D01*
X223928728Y-112651021D01*
X224571420Y-112830012D01*
X225233687Y-112749431D01*
X225471272Y-112651021D01*
X225534155Y-112345236D01*
X224700000Y-111511080D01*
X223865845Y-112345236D01*
X200267000Y-112345236D01*
X200267000Y-110808611D01*
X200365764Y-110710019D01*
X200766543Y-109744835D01*
X200767455Y-108699750D01*
X200368361Y-107733868D01*
X199630019Y-106994236D01*
X198664835Y-106593457D01*
X197619750Y-106592545D01*
X196653868Y-106991639D01*
X195914236Y-107729981D01*
X195513457Y-108695165D01*
X195512545Y-109740250D01*
X195911639Y-110706132D01*
X196013000Y-110807670D01*
X196013000Y-119113968D01*
X195333968Y-119793000D01*
X106045000Y-119793000D01*
X105231032Y-119954908D01*
X104540984Y-120415984D01*
X104079908Y-121106032D01*
X103918000Y-121920000D01*
X90519002Y-121920000D01*
X90519721Y-121096353D01*
X89887885Y-119567193D01*
X88718960Y-118396227D01*
X87190906Y-117761723D01*
X85536353Y-117760279D01*
X84007193Y-118392115D01*
X82836227Y-119561040D01*
X82482000Y-120414113D01*
X82482000Y-112939648D01*
X89486432Y-112939648D01*
X89586961Y-113276202D01*
X90339229Y-113505709D01*
X91122063Y-113429866D01*
X91493039Y-113276202D01*
X91593568Y-112939648D01*
X90540000Y-111886080D01*
X89486432Y-112939648D01*
X82482000Y-112939648D01*
X82482000Y-111299229D01*
X88534291Y-111299229D01*
X88610134Y-112082063D01*
X88763798Y-112453039D01*
X89100352Y-112553568D01*
X90153920Y-111500000D01*
X90926080Y-111500000D01*
X91979648Y-112553568D01*
X92316202Y-112453039D01*
X92545709Y-111700771D01*
X92469866Y-110917937D01*
X92316202Y-110546961D01*
X91979648Y-110446432D01*
X90926080Y-111500000D01*
X90153920Y-111500000D01*
X89100352Y-110446432D01*
X88763798Y-110546961D01*
X88534291Y-111299229D01*
X82482000Y-111299229D01*
X82482000Y-110060352D01*
X89486432Y-110060352D01*
X90540000Y-111113920D01*
X91593568Y-110060352D01*
X91493039Y-109723798D01*
X90740771Y-109494291D01*
X89957937Y-109570134D01*
X89586961Y-109723798D01*
X89486432Y-110060352D01*
X82482000Y-110060352D01*
X82482000Y-107550544D01*
X84892571Y-107550544D01*
X85268877Y-108461275D01*
X85965060Y-109158674D01*
X86875133Y-109536569D01*
X87860544Y-109537429D01*
X88771275Y-109161123D01*
X89215040Y-108718131D01*
X94987950Y-108718131D01*
X95125722Y-109085656D01*
X95987248Y-109365532D01*
X96890299Y-109294411D01*
X97394278Y-109085656D01*
X97532050Y-108718131D01*
X96260000Y-107446080D01*
X94987950Y-108718131D01*
X89215040Y-108718131D01*
X89468674Y-108464940D01*
X89846569Y-107554867D01*
X89847238Y-106787248D01*
X93954468Y-106787248D01*
X94025589Y-107690299D01*
X94234344Y-108194278D01*
X94601869Y-108332050D01*
X95873920Y-107060000D01*
X96646080Y-107060000D01*
X97918131Y-108332050D01*
X98285656Y-108194278D01*
X98565532Y-107332752D01*
X98494411Y-106429701D01*
X98285656Y-105925722D01*
X97918131Y-105787950D01*
X96646080Y-107060000D01*
X95873920Y-107060000D01*
X94601869Y-105787950D01*
X94234344Y-105925722D01*
X93954468Y-106787248D01*
X89847238Y-106787248D01*
X89847429Y-106569456D01*
X89471123Y-105658725D01*
X89214715Y-105401869D01*
X94987950Y-105401869D01*
X96260000Y-106673920D01*
X97532050Y-105401869D01*
X97394278Y-105034344D01*
X96532752Y-104754468D01*
X95629701Y-104825589D01*
X95125722Y-105034344D01*
X94987950Y-105401869D01*
X89214715Y-105401869D01*
X88774940Y-104961326D01*
X87864867Y-104583431D01*
X86879456Y-104582571D01*
X85968725Y-104958877D01*
X85271326Y-105655060D01*
X84893431Y-106565133D01*
X84892571Y-107550544D01*
X82482000Y-107550544D01*
X82482000Y-99930544D01*
X89972571Y-99930544D01*
X90348877Y-100841275D01*
X91045060Y-101538674D01*
X91955133Y-101916569D01*
X92940544Y-101917429D01*
X93851275Y-101541123D01*
X94548674Y-100844940D01*
X94672337Y-100547126D01*
X94793877Y-100841275D01*
X95490060Y-101538674D01*
X96400133Y-101916569D01*
X97385544Y-101917429D01*
X98296275Y-101541123D01*
X98993674Y-100844940D01*
X99371569Y-99934867D01*
X99372429Y-98949456D01*
X98996123Y-98038725D01*
X98532000Y-97573791D01*
X98532000Y-84390372D01*
X103208686Y-79713686D01*
X103507182Y-79266955D01*
X103612000Y-78740000D01*
X103612000Y-76770372D01*
X104478686Y-75903686D01*
X104777182Y-75456955D01*
X104882000Y-74930000D01*
X104882000Y-74865372D01*
X110383000Y-69364372D01*
X110383000Y-78105000D01*
X110487818Y-78631955D01*
X110786314Y-79078686D01*
X113626780Y-81919152D01*
X113492725Y-81974543D01*
X113090953Y-82375614D01*
X112873248Y-82899907D01*
X112872752Y-83467603D01*
X112923000Y-83589212D01*
X112923000Y-89599628D01*
X101359961Y-101162667D01*
X101144932Y-101073379D01*
X100278868Y-101072623D01*
X99478440Y-101403353D01*
X98865505Y-102015218D01*
X98533379Y-102815068D01*
X98532623Y-103681132D01*
X98863353Y-104481560D01*
X99475218Y-105094495D01*
X100275068Y-105426621D01*
X101141132Y-105427377D01*
X101941560Y-105096647D01*
X102554495Y-104484782D01*
X102886621Y-103684932D01*
X102886756Y-103530616D01*
X107843000Y-98574372D01*
X107843000Y-110206378D01*
X107474792Y-110757441D01*
X107331000Y-111480330D01*
X107331000Y-112039670D01*
X107474792Y-112762559D01*
X107884275Y-113375395D01*
X108497111Y-113784878D01*
X109220000Y-113928670D01*
X109942889Y-113784878D01*
X110490000Y-113419311D01*
X111037111Y-113784878D01*
X111760000Y-113928670D01*
X112482889Y-113784878D01*
X113095725Y-113375395D01*
X113505208Y-112762559D01*
X113649000Y-112039670D01*
X113649000Y-111480330D01*
X113505208Y-110757441D01*
X113137000Y-110206378D01*
X113137000Y-105475937D01*
X113188621Y-105400387D01*
X113348816Y-105560862D01*
X113964961Y-105816708D01*
X114632112Y-105817290D01*
X115248703Y-105562520D01*
X115570147Y-105241636D01*
X115888816Y-105560862D01*
X116504961Y-105816708D01*
X117172112Y-105817290D01*
X117788703Y-105562520D01*
X118003000Y-105348597D01*
X118003000Y-110206378D01*
X117634792Y-110757441D01*
X117491000Y-111480330D01*
X117491000Y-112039670D01*
X117634792Y-112762559D01*
X118044275Y-113375395D01*
X118657111Y-113784878D01*
X119380000Y-113928670D01*
X120102889Y-113784878D01*
X120650000Y-113419311D01*
X121197111Y-113784878D01*
X121298299Y-113805006D01*
X122559337Y-116747427D01*
X122706647Y-116962177D01*
X122851314Y-117178686D01*
X122858422Y-117183436D01*
X122863258Y-117190485D01*
X123081513Y-117332500D01*
X123298045Y-117477182D01*
X123306430Y-117478850D01*
X123313595Y-117483512D01*
X123569600Y-117531198D01*
X123825000Y-117582000D01*
X161925000Y-117582000D01*
X162117782Y-117543653D01*
X162313543Y-117526046D01*
X162379230Y-117491648D01*
X162451955Y-117477182D01*
X162615384Y-117367982D01*
X162789509Y-117276799D01*
X162837033Y-117219881D01*
X162898686Y-117178686D01*
X163007887Y-117015255D01*
X163133862Y-116864379D01*
X164378466Y-114582603D01*
X177642752Y-114582603D01*
X177859543Y-115107275D01*
X178260614Y-115509047D01*
X178784907Y-115726752D01*
X179352603Y-115727248D01*
X179877275Y-115510457D01*
X180279047Y-115109386D01*
X180329507Y-114987865D01*
X198260968Y-97056404D01*
X204098416Y-97056404D01*
X204199916Y-97301491D01*
X204616211Y-97831368D01*
X205203593Y-98161602D01*
X205467000Y-97993554D01*
X205467000Y-96793000D01*
X206013000Y-96793000D01*
X206013000Y-97993554D01*
X206276407Y-98161602D01*
X206863789Y-97831368D01*
X207280084Y-97301491D01*
X207381584Y-97056404D01*
X207210117Y-96793000D01*
X206013000Y-96793000D01*
X205467000Y-96793000D01*
X204269883Y-96793000D01*
X204098416Y-97056404D01*
X198260968Y-97056404D01*
X200800968Y-94516404D01*
X204098416Y-94516404D01*
X204199916Y-94761491D01*
X204583710Y-95250000D01*
X204199916Y-95738509D01*
X204098416Y-95983596D01*
X204269883Y-96247000D01*
X205467000Y-96247000D01*
X205467000Y-94253000D01*
X206013000Y-94253000D01*
X206013000Y-96247000D01*
X207210117Y-96247000D01*
X207381584Y-95983596D01*
X207280084Y-95738509D01*
X206896290Y-95250000D01*
X207280084Y-94761491D01*
X207381584Y-94516404D01*
X207210117Y-94253000D01*
X206013000Y-94253000D01*
X205467000Y-94253000D01*
X204269883Y-94253000D01*
X204098416Y-94516404D01*
X200800968Y-94516404D01*
X203770372Y-91547000D01*
X204013000Y-91547000D01*
X204013000Y-91713002D01*
X204269882Y-91713002D01*
X204098416Y-91976404D01*
X204199916Y-92221491D01*
X204583710Y-92710000D01*
X204199916Y-93198509D01*
X204098416Y-93443596D01*
X204269883Y-93707000D01*
X205467000Y-93707000D01*
X205467000Y-91713000D01*
X205447000Y-91713000D01*
X205447000Y-91547000D01*
X206033000Y-91547000D01*
X206033000Y-91713000D01*
X206013000Y-91713000D01*
X206013000Y-93707000D01*
X207210117Y-93707000D01*
X207381584Y-93443596D01*
X207280084Y-93198509D01*
X206896290Y-92710000D01*
X207280084Y-92221491D01*
X207381584Y-91976404D01*
X207210118Y-91713002D01*
X207467000Y-91713002D01*
X207467000Y-91456097D01*
X207536955Y-91442182D01*
X207983686Y-91143686D01*
X208850372Y-90277000D01*
X211826288Y-90277000D01*
X211541932Y-90702569D01*
X211395248Y-91440000D01*
X211541932Y-92177431D01*
X211897783Y-92710000D01*
X211541932Y-93242569D01*
X211395248Y-93980000D01*
X211541932Y-94717431D01*
X211897783Y-95250000D01*
X211541932Y-95782569D01*
X211395248Y-96520000D01*
X211541932Y-97257431D01*
X211959653Y-97882595D01*
X212584817Y-98300316D01*
X213322248Y-98447000D01*
X213397752Y-98447000D01*
X214135183Y-98300316D01*
X214760347Y-97882595D01*
X215178068Y-97257431D01*
X215324752Y-96520000D01*
X215178068Y-95782569D01*
X214822217Y-95250000D01*
X215178068Y-94717431D01*
X215324752Y-93980000D01*
X215178068Y-93242569D01*
X214822217Y-92710000D01*
X215178068Y-92177431D01*
X215324752Y-91440000D01*
X215178068Y-90702569D01*
X214822217Y-90170000D01*
X215178068Y-89637431D01*
X215324752Y-88900000D01*
X215178068Y-88162569D01*
X214822217Y-87630000D01*
X215178068Y-87097431D01*
X215307809Y-86445181D01*
X216720938Y-87858310D01*
X216694792Y-87897441D01*
X216551000Y-88620330D01*
X216551000Y-89179670D01*
X216694792Y-89902559D01*
X217104275Y-90515395D01*
X217717111Y-90924878D01*
X218440000Y-91068670D01*
X219162889Y-90924878D01*
X219775725Y-90515395D01*
X220185208Y-89902559D01*
X220329000Y-89179670D01*
X220329000Y-88620330D01*
X220185208Y-87897441D01*
X219775725Y-87284605D01*
X219744092Y-87263469D01*
X219712182Y-87103045D01*
X219413686Y-86656314D01*
X217208220Y-84450848D01*
X217342275Y-84395457D01*
X217744047Y-83994386D01*
X217961752Y-83470093D01*
X217962248Y-82902397D01*
X217912000Y-82780788D01*
X217912000Y-80580372D01*
X220843096Y-77649276D01*
X220939764Y-77669155D01*
X221773920Y-76835000D01*
X221759778Y-76820858D01*
X222145858Y-76434778D01*
X222160000Y-76448920D01*
X222174143Y-76434778D01*
X222560223Y-76820858D01*
X222546080Y-76835000D01*
X222560223Y-76849142D01*
X222174143Y-77235223D01*
X222160000Y-77221080D01*
X221325845Y-78055236D01*
X221388728Y-78361021D01*
X222031420Y-78540012D01*
X222693687Y-78459431D01*
X222822737Y-78405977D01*
X222822675Y-78476720D01*
X223107829Y-79166846D01*
X223635376Y-79695316D01*
X224074338Y-79877589D01*
X224048000Y-80010000D01*
X224048000Y-88900000D01*
X224152818Y-89426955D01*
X224451314Y-89873686D01*
X225789371Y-91211743D01*
X225565505Y-91435218D01*
X225233379Y-92235068D01*
X225232834Y-92859794D01*
X223816314Y-94276314D01*
X223517818Y-94723045D01*
X223413000Y-95250000D01*
X223413000Y-100833390D01*
X223224624Y-100644684D01*
X222534996Y-100358326D01*
X221788280Y-100357675D01*
X221098154Y-100642829D01*
X220569684Y-101170376D01*
X220283326Y-101860004D01*
X220282675Y-102606720D01*
X220567829Y-103296846D01*
X220775520Y-103504900D01*
X220569684Y-103710376D01*
X220283326Y-104400004D01*
X220283092Y-104668000D01*
X216304909Y-104668000D01*
X216185093Y-104618248D01*
X215617397Y-104617752D01*
X215092725Y-104834543D01*
X214690953Y-105235614D01*
X214473248Y-105759907D01*
X214472752Y-106327603D01*
X214689543Y-106852275D01*
X215090614Y-107254047D01*
X215614907Y-107471752D01*
X216182603Y-107472248D01*
X216304212Y-107422000D01*
X220282906Y-107422000D01*
X220282675Y-107686720D01*
X220567829Y-108376846D01*
X220895414Y-108705005D01*
X220759668Y-108840751D01*
X220939762Y-109020845D01*
X220633979Y-109083728D01*
X220454988Y-109726420D01*
X220535569Y-110388687D01*
X220633979Y-110626272D01*
X220939764Y-110689155D01*
X221773920Y-109855000D01*
X221759777Y-109840858D01*
X222145858Y-109454777D01*
X222160000Y-109468920D01*
X222174143Y-109454778D01*
X222560223Y-109840858D01*
X222546080Y-109855000D01*
X222560223Y-109869143D01*
X222174142Y-110255223D01*
X222160000Y-110241080D01*
X221325845Y-111075236D01*
X221388728Y-111381021D01*
X222031420Y-111560012D01*
X222693687Y-111479431D01*
X222931272Y-111381021D01*
X222994155Y-111075238D01*
X223006022Y-111087105D01*
X223075569Y-111658687D01*
X223173979Y-111896272D01*
X223479764Y-111959155D01*
X224313920Y-111125000D01*
X224299778Y-111110858D01*
X224685858Y-110724777D01*
X224700000Y-110738920D01*
X224714143Y-110724778D01*
X225100223Y-111110858D01*
X225086080Y-111125000D01*
X225920236Y-111959155D01*
X226226021Y-111896272D01*
X226405012Y-111253580D01*
X226324431Y-110591313D01*
X226226021Y-110353728D01*
X225920238Y-110290845D01*
X226100332Y-110110751D01*
X225964476Y-109974895D01*
X226290316Y-109649624D01*
X226576674Y-108959996D01*
X226577325Y-108213280D01*
X226292171Y-107523154D01*
X226084480Y-107315100D01*
X226290316Y-107109624D01*
X226576674Y-106419996D01*
X226577325Y-105673280D01*
X226292171Y-104983154D01*
X226084480Y-104775100D01*
X226290316Y-104569624D01*
X226576674Y-103879996D01*
X226577325Y-103133280D01*
X226292171Y-102443154D01*
X226167000Y-102317764D01*
X226167000Y-101505054D01*
X228322528Y-101505054D01*
X228736814Y-102507703D01*
X229503262Y-103275490D01*
X230505186Y-103691526D01*
X231590054Y-103692472D01*
X232592703Y-103278186D01*
X233360490Y-102511738D01*
X233776526Y-101509814D01*
X233776812Y-101181719D01*
X234570740Y-101182412D01*
X235444703Y-100821297D01*
X236113947Y-100153220D01*
X236476586Y-99279889D01*
X236477412Y-98334260D01*
X236116297Y-97460297D01*
X235448220Y-96791053D01*
X234574889Y-96428414D01*
X233629260Y-96427588D01*
X232755297Y-96788703D01*
X232086053Y-97456780D01*
X231736957Y-98297497D01*
X231594814Y-98238474D01*
X230509946Y-98237528D01*
X229507297Y-98651814D01*
X228739510Y-99418262D01*
X228323474Y-100420186D01*
X228322528Y-101505054D01*
X226167000Y-101505054D01*
X226167000Y-95820372D01*
X227140606Y-94846766D01*
X227841132Y-94847377D01*
X228641560Y-94516647D01*
X229254495Y-93904782D01*
X229563654Y-93160242D01*
X230069190Y-93666660D01*
X231585487Y-94296282D01*
X233227310Y-94297715D01*
X234744704Y-93670741D01*
X235906660Y-92510810D01*
X236131100Y-91970300D01*
X236175218Y-92014495D01*
X236975068Y-92346621D01*
X237841132Y-92347377D01*
X238641560Y-92016647D01*
X239254495Y-91404782D01*
X239586621Y-90604932D01*
X239587377Y-89738868D01*
X239256647Y-88938440D01*
X238644782Y-88325505D01*
X237844932Y-87993379D01*
X236978868Y-87992623D01*
X236178440Y-88323353D01*
X236131686Y-88370025D01*
X235910741Y-87835296D01*
X234750810Y-86673340D01*
X233234513Y-86043718D01*
X231592690Y-86042285D01*
X230075296Y-86669259D01*
X229367734Y-87375588D01*
X229339866Y-87087937D01*
X229186202Y-86716961D01*
X228849648Y-86616432D01*
X227796080Y-87670000D01*
X227810223Y-87684143D01*
X227424143Y-88070223D01*
X227410000Y-88056080D01*
X227395858Y-88070223D01*
X227009778Y-87684143D01*
X227023920Y-87670000D01*
X227009778Y-87655858D01*
X227395858Y-87269778D01*
X227410000Y-87283920D01*
X228463568Y-86230352D01*
X228363039Y-85893798D01*
X227610771Y-85664291D01*
X226827937Y-85740134D01*
X226802000Y-85750878D01*
X226802000Y-80580372D01*
X227033686Y-80348686D01*
X227323429Y-79915054D01*
X228322528Y-79915054D01*
X228736814Y-80917703D01*
X229503262Y-81685490D01*
X230505186Y-82101526D01*
X231590054Y-82102472D01*
X231737401Y-82041590D01*
X232083703Y-82879703D01*
X232751780Y-83548947D01*
X233625111Y-83911586D01*
X234570740Y-83912412D01*
X235444703Y-83551297D01*
X236113947Y-82883220D01*
X236476586Y-82009889D01*
X236477412Y-81064260D01*
X236116297Y-80190297D01*
X235448220Y-79521053D01*
X234574889Y-79158414D01*
X233777191Y-79157717D01*
X233777472Y-78834946D01*
X233363186Y-77832297D01*
X232596738Y-77064510D01*
X231594814Y-76648474D01*
X230509946Y-76647528D01*
X229507297Y-77061814D01*
X228739510Y-77828262D01*
X228323474Y-78830186D01*
X228322528Y-79915054D01*
X227323429Y-79915054D01*
X227332182Y-79901955D01*
X227437000Y-79375000D01*
X227437000Y-71755000D01*
X227332182Y-71228045D01*
X227033686Y-70781314D01*
X226577141Y-70324769D01*
X226577325Y-70113280D01*
X226292171Y-69423154D01*
X225764624Y-68894684D01*
X225074996Y-68608326D01*
X224328280Y-68607675D01*
X223996602Y-68744722D01*
X223889310Y-68485054D01*
X228322528Y-68485054D01*
X228736814Y-69487703D01*
X229503262Y-70255490D01*
X230505186Y-70671526D01*
X231590054Y-70672472D01*
X232592703Y-70258186D01*
X233360490Y-69491738D01*
X233776526Y-68489814D01*
X233776812Y-68161719D01*
X234570740Y-68162412D01*
X235444703Y-67801297D01*
X236113947Y-67133220D01*
X236476586Y-66259889D01*
X236477412Y-65314260D01*
X236116297Y-64440297D01*
X235448220Y-63771053D01*
X234574889Y-63408414D01*
X233629260Y-63407588D01*
X232755297Y-63768703D01*
X232086053Y-64436780D01*
X231736957Y-65277497D01*
X231594814Y-65218474D01*
X230509946Y-65217528D01*
X229507297Y-65631814D01*
X228739510Y-66398262D01*
X228323474Y-67400186D01*
X228322528Y-68485054D01*
X223889310Y-68485054D01*
X223752171Y-68153154D01*
X223224624Y-67624684D01*
X222534996Y-67338326D01*
X221788280Y-67337675D01*
X221098154Y-67622829D01*
X220569684Y-68150376D01*
X220390140Y-68582768D01*
X220335000Y-68527628D01*
X220285457Y-68407725D01*
X219884386Y-68005953D01*
X219360093Y-67788248D01*
X218792397Y-67787752D01*
X218267725Y-68004543D01*
X217865953Y-68405614D01*
X217648248Y-68929907D01*
X217647752Y-69497603D01*
X217864543Y-70022275D01*
X218265614Y-70424047D01*
X218387135Y-70474507D01*
X218679753Y-70767125D01*
X218500953Y-70945614D01*
X218283248Y-71469907D01*
X218282899Y-71869729D01*
X213339628Y-76813000D01*
X213322248Y-76813000D01*
X212584817Y-76959684D01*
X211959653Y-77377405D01*
X211541932Y-78002569D01*
X211395248Y-78740000D01*
X211541932Y-79477431D01*
X211897783Y-80010000D01*
X211541932Y-80542569D01*
X211395248Y-81280000D01*
X211541932Y-82017431D01*
X211897783Y-82550000D01*
X211541932Y-83082569D01*
X211395248Y-83820000D01*
X211541932Y-84557431D01*
X211897783Y-85090000D01*
X211541932Y-85622569D01*
X211395248Y-86360000D01*
X211541932Y-87097431D01*
X211826288Y-87523000D01*
X208280000Y-87523000D01*
X207753045Y-87627818D01*
X207371227Y-87882941D01*
X207202217Y-87630000D01*
X207558068Y-87097431D01*
X207704752Y-86360000D01*
X207558068Y-85622569D01*
X207202217Y-85090000D01*
X207558068Y-84557431D01*
X207704752Y-83820000D01*
X207558068Y-83082569D01*
X207202217Y-82550000D01*
X207558068Y-82017431D01*
X207704752Y-81280000D01*
X207558068Y-80542569D01*
X207390418Y-80291663D01*
X207598548Y-79987056D01*
X207689079Y-79540000D01*
X207689079Y-77940000D01*
X207610494Y-77522359D01*
X207363669Y-77138781D01*
X206987056Y-76881452D01*
X206540000Y-76790921D01*
X204940000Y-76790921D01*
X204522359Y-76869506D01*
X204138781Y-77116331D01*
X203881452Y-77492944D01*
X203790921Y-77940000D01*
X203790921Y-79540000D01*
X203869506Y-79957641D01*
X204086964Y-80295581D01*
X203921932Y-80542569D01*
X203775248Y-81280000D01*
X203921932Y-82017431D01*
X204277783Y-82550000D01*
X203921932Y-83082569D01*
X203775248Y-83820000D01*
X203921932Y-84557431D01*
X204277783Y-85090000D01*
X203921932Y-85622569D01*
X203775248Y-86360000D01*
X203921932Y-87097431D01*
X204277783Y-87630000D01*
X203921932Y-88162569D01*
X203796532Y-88793000D01*
X203200000Y-88793000D01*
X202673045Y-88897818D01*
X202549000Y-88980702D01*
X202549000Y-88620330D01*
X202405208Y-87897441D01*
X202226510Y-87630000D01*
X202405208Y-87362559D01*
X202549000Y-86639670D01*
X202549000Y-86080330D01*
X202405208Y-85357441D01*
X202226510Y-85090000D01*
X202405208Y-84822559D01*
X202549000Y-84099670D01*
X202549000Y-83540330D01*
X202405208Y-82817441D01*
X202226510Y-82550000D01*
X202405208Y-82282559D01*
X202549000Y-81559670D01*
X202549000Y-81000330D01*
X202405208Y-80277441D01*
X202226510Y-80010000D01*
X202405208Y-79742559D01*
X202549000Y-79019670D01*
X202549000Y-78460330D01*
X202405208Y-77737441D01*
X201995725Y-77124605D01*
X201382889Y-76715122D01*
X200660000Y-76571330D01*
X199937111Y-76715122D01*
X199324275Y-77124605D01*
X198914792Y-77737441D01*
X198771000Y-78460330D01*
X198771000Y-79019670D01*
X198914792Y-79742559D01*
X199093490Y-80010000D01*
X198914792Y-80277441D01*
X198771000Y-81000330D01*
X198771000Y-81559670D01*
X198914792Y-82282559D01*
X199093490Y-82550000D01*
X198914792Y-82817441D01*
X198771000Y-83540330D01*
X198771000Y-84099670D01*
X198914792Y-84822559D01*
X199093490Y-85090000D01*
X198914792Y-85357441D01*
X198771000Y-86080330D01*
X198771000Y-86639670D01*
X198914792Y-87362559D01*
X199093490Y-87630000D01*
X198914792Y-87897441D01*
X198771000Y-88620330D01*
X198771000Y-89179670D01*
X198914792Y-89902559D01*
X199324275Y-90515395D01*
X199937111Y-90924878D01*
X200404734Y-91017894D01*
X189225848Y-102196780D01*
X189170457Y-102062725D01*
X188769386Y-101660953D01*
X188647865Y-101610493D01*
X186680000Y-99642628D01*
X186630457Y-99522725D01*
X186450210Y-99342162D01*
X188530372Y-97262000D01*
X189230000Y-97262000D01*
X189756955Y-97157182D01*
X190203686Y-96858686D01*
X191822372Y-95240000D01*
X191942275Y-95190457D01*
X192344047Y-94789386D01*
X192561752Y-94265093D01*
X192562248Y-93697397D01*
X192345457Y-93172725D01*
X191944386Y-92770953D01*
X191420093Y-92553248D01*
X190852397Y-92552752D01*
X190327725Y-92769543D01*
X189925953Y-93170614D01*
X189875493Y-93292135D01*
X189785671Y-93381957D01*
X189705208Y-92977441D01*
X189526510Y-92710000D01*
X189705208Y-92442559D01*
X189849000Y-91719670D01*
X189849000Y-91160330D01*
X189705208Y-90437441D01*
X189526510Y-90170000D01*
X189705208Y-89902559D01*
X189849000Y-89179670D01*
X189849000Y-88620330D01*
X189705208Y-87897441D01*
X189526510Y-87630000D01*
X189705208Y-87362559D01*
X189849000Y-86639670D01*
X189849000Y-86080330D01*
X189705208Y-85357441D01*
X189526510Y-85090000D01*
X189705208Y-84822559D01*
X189849000Y-84099670D01*
X189849000Y-83540330D01*
X189705208Y-82817441D01*
X189526510Y-82550000D01*
X189705208Y-82282559D01*
X189849000Y-81559670D01*
X189849000Y-81000330D01*
X189705208Y-80277441D01*
X189526510Y-80010000D01*
X189705208Y-79742559D01*
X189849000Y-79019670D01*
X189849000Y-78460330D01*
X189705208Y-77737441D01*
X189526510Y-77470000D01*
X189705208Y-77202559D01*
X189849000Y-76479670D01*
X189849000Y-75920330D01*
X189705208Y-75197441D01*
X189295725Y-74584605D01*
X188682889Y-74175122D01*
X187960000Y-74031330D01*
X187237111Y-74175122D01*
X186624275Y-74584605D01*
X186214792Y-75197441D01*
X186071000Y-75920330D01*
X186071000Y-76479670D01*
X186214792Y-77202559D01*
X186393490Y-77470000D01*
X186214792Y-77737441D01*
X186071000Y-78460330D01*
X186071000Y-79019670D01*
X186214792Y-79742559D01*
X186393490Y-80010000D01*
X186214792Y-80277441D01*
X186071000Y-81000330D01*
X186071000Y-81559670D01*
X186214792Y-82282559D01*
X186393490Y-82550000D01*
X186214792Y-82817441D01*
X186071000Y-83540330D01*
X186071000Y-84099670D01*
X186214792Y-84822559D01*
X186393490Y-85090000D01*
X186214792Y-85357441D01*
X186071000Y-86080330D01*
X186071000Y-86639670D01*
X186214792Y-87362559D01*
X186393490Y-87630000D01*
X186214792Y-87897441D01*
X186071000Y-88620330D01*
X186071000Y-89179670D01*
X186214792Y-89902559D01*
X186393490Y-90170000D01*
X186214792Y-90437441D01*
X186071000Y-91160330D01*
X186071000Y-91719670D01*
X186214792Y-92442559D01*
X186393490Y-92710000D01*
X186214792Y-92977441D01*
X186071000Y-93700330D01*
X186071000Y-94259670D01*
X186214792Y-94982559D01*
X186495283Y-95402345D01*
X180922628Y-100975000D01*
X180802725Y-101024543D01*
X180400953Y-101425614D01*
X180183248Y-101949907D01*
X180182752Y-102517603D01*
X180263461Y-102712932D01*
X180057397Y-102712752D01*
X179532725Y-102929543D01*
X179130953Y-103330614D01*
X178913248Y-103854907D01*
X178912752Y-104422603D01*
X179129543Y-104947275D01*
X179530614Y-105349047D01*
X179652135Y-105399507D01*
X182255000Y-108002372D01*
X182304543Y-108122275D01*
X182705614Y-108524047D01*
X182841964Y-108580664D01*
X178382628Y-113040000D01*
X178262725Y-113089543D01*
X177860953Y-113490614D01*
X177643248Y-114014907D01*
X177642752Y-114582603D01*
X164378466Y-114582603D01*
X167019750Y-109740250D01*
X172612545Y-109740250D01*
X173011639Y-110706132D01*
X173749981Y-111445764D01*
X174715165Y-111846543D01*
X175760250Y-111847455D01*
X176726132Y-111448361D01*
X177465764Y-110710019D01*
X177866543Y-109744835D01*
X177867455Y-108699750D01*
X177468361Y-107733868D01*
X176730019Y-106994236D01*
X175764835Y-106593457D01*
X174719750Y-106592545D01*
X173753868Y-106991639D01*
X173014236Y-107729981D01*
X172613457Y-108695165D01*
X172612545Y-109740250D01*
X167019750Y-109740250D01*
X170753862Y-102894380D01*
X170775987Y-102823608D01*
X170817182Y-102761955D01*
X170855528Y-102569175D01*
X170914176Y-102381576D01*
X170907534Y-102307726D01*
X170922000Y-102235000D01*
X170922000Y-96042095D01*
X171097603Y-96042248D01*
X171622275Y-95825457D01*
X172024047Y-95424386D01*
X172074507Y-95302865D01*
X180889670Y-86487702D01*
X181014758Y-87116565D01*
X181357824Y-87630000D01*
X181014758Y-88143435D01*
X180864268Y-88900000D01*
X181014758Y-89656565D01*
X181357824Y-90170000D01*
X181014758Y-90683435D01*
X180864268Y-91440000D01*
X181014758Y-92196565D01*
X181357824Y-92710000D01*
X181014758Y-93223435D01*
X180864268Y-93980000D01*
X181014758Y-94736565D01*
X181443318Y-95377950D01*
X182084703Y-95806510D01*
X182841268Y-95957000D01*
X182918732Y-95957000D01*
X183675297Y-95806510D01*
X184316682Y-95377950D01*
X184745242Y-94736565D01*
X184895732Y-93980000D01*
X184745242Y-93223435D01*
X184402176Y-92710000D01*
X184745242Y-92196565D01*
X184895732Y-91440000D01*
X184745242Y-90683435D01*
X184402176Y-90170000D01*
X184745242Y-89656565D01*
X184895732Y-88900000D01*
X184745242Y-88143435D01*
X184402176Y-87630000D01*
X184745242Y-87116565D01*
X184895732Y-86360000D01*
X184745242Y-85603435D01*
X184402176Y-85090000D01*
X184745242Y-84576565D01*
X184895732Y-83820000D01*
X184745242Y-83063435D01*
X184402176Y-82550000D01*
X184745242Y-82036565D01*
X184895732Y-81280000D01*
X184745242Y-80523435D01*
X184402176Y-80010000D01*
X184745242Y-79496565D01*
X184895732Y-78740000D01*
X184745242Y-77983435D01*
X184402176Y-77470000D01*
X184745242Y-76956565D01*
X184895732Y-76200000D01*
X184745242Y-75443435D01*
X184402176Y-74930000D01*
X184745242Y-74416565D01*
X184895732Y-73660000D01*
X184745242Y-72903435D01*
X184402176Y-72390000D01*
X184745242Y-71876565D01*
X184895732Y-71120000D01*
X184840103Y-70840330D01*
X186071000Y-70840330D01*
X186071000Y-71399670D01*
X186214792Y-72122559D01*
X186624275Y-72735395D01*
X187237111Y-73144878D01*
X187960000Y-73288670D01*
X188682889Y-73144878D01*
X189295725Y-72735395D01*
X189705208Y-72122559D01*
X189849000Y-71399670D01*
X189849000Y-70840330D01*
X189705208Y-70117441D01*
X189295725Y-69504605D01*
X188682889Y-69095122D01*
X187960000Y-68951330D01*
X187237111Y-69095122D01*
X186624275Y-69504605D01*
X186214792Y-70117441D01*
X186071000Y-70840330D01*
X184840103Y-70840330D01*
X184745242Y-70363435D01*
X184316682Y-69722050D01*
X184239576Y-69670529D01*
X184461036Y-69391243D01*
X184571579Y-69124323D01*
X184400943Y-68853000D01*
X183153000Y-68853000D01*
X183153000Y-68873000D01*
X182607000Y-68873000D01*
X182607000Y-68853000D01*
X182587000Y-68853000D01*
X182587000Y-68307000D01*
X182607000Y-68307000D01*
X182607000Y-68287000D01*
X183153000Y-68287000D01*
X183153000Y-68307000D01*
X184400943Y-68307000D01*
X184571579Y-68035677D01*
X184461036Y-67768757D01*
X184455824Y-67762184D01*
X184531219Y-67713669D01*
X184788548Y-67337056D01*
X184879079Y-66890000D01*
X184879079Y-65760330D01*
X186071000Y-65760330D01*
X186071000Y-66319670D01*
X186214792Y-67042559D01*
X186624275Y-67655395D01*
X187237111Y-68064878D01*
X187960000Y-68208670D01*
X188682889Y-68064878D01*
X189295725Y-67655395D01*
X189705208Y-67042559D01*
X189722106Y-66957603D01*
X191612752Y-66957603D01*
X191829543Y-67482275D01*
X192230614Y-67884047D01*
X192352135Y-67934507D01*
X196860000Y-72442372D01*
X196909543Y-72562275D01*
X197310614Y-72964047D01*
X197834907Y-73181752D01*
X198402603Y-73182248D01*
X198927275Y-72965457D01*
X199329047Y-72564386D01*
X199546752Y-72040093D01*
X199547248Y-71472397D01*
X199330457Y-70947725D01*
X198929386Y-70545953D01*
X198807865Y-70495493D01*
X196727372Y-68415000D01*
X199980921Y-68415000D01*
X199980921Y-70015000D01*
X200059506Y-70432641D01*
X200306331Y-70816219D01*
X200682944Y-71073548D01*
X201130000Y-71164079D01*
X202730000Y-71164079D01*
X203147641Y-71085494D01*
X203531219Y-70838669D01*
X203613892Y-70717673D01*
X203628384Y-70782784D01*
X204289368Y-70970209D01*
X204971763Y-70890420D01*
X205231616Y-70782784D01*
X205300813Y-70471894D01*
X204430000Y-69601080D01*
X204415858Y-69615223D01*
X204029778Y-69229143D01*
X204043920Y-69215000D01*
X204816080Y-69215000D01*
X205686894Y-70085813D01*
X205997784Y-70016616D01*
X206185209Y-69355632D01*
X206105420Y-68673237D01*
X205997784Y-68413384D01*
X205686894Y-68344187D01*
X204816080Y-69215000D01*
X204043920Y-69215000D01*
X204029778Y-69200858D01*
X204415858Y-68814778D01*
X204430000Y-68828920D01*
X205300813Y-67958106D01*
X205231616Y-67647216D01*
X204570632Y-67459791D01*
X203888237Y-67539580D01*
X203628384Y-67647216D01*
X203614712Y-67708644D01*
X203553669Y-67613781D01*
X203177056Y-67356452D01*
X202730000Y-67265921D01*
X201130000Y-67265921D01*
X200712359Y-67344506D01*
X200328781Y-67591331D01*
X200071452Y-67967944D01*
X199980921Y-68415000D01*
X196727372Y-68415000D01*
X194300000Y-65987628D01*
X194250457Y-65867725D01*
X193849386Y-65465953D01*
X193325093Y-65248248D01*
X192757397Y-65247752D01*
X192232725Y-65464543D01*
X191830953Y-65865614D01*
X191613248Y-66389907D01*
X191612752Y-66957603D01*
X189722106Y-66957603D01*
X189849000Y-66319670D01*
X189849000Y-65760330D01*
X189705208Y-65037441D01*
X189295725Y-64424605D01*
X188682889Y-64015122D01*
X187960000Y-63871330D01*
X187237111Y-64015122D01*
X186624275Y-64424605D01*
X186214792Y-65037441D01*
X186071000Y-65760330D01*
X184879079Y-65760330D01*
X184879079Y-65190000D01*
X184800494Y-64772359D01*
X184553669Y-64388781D01*
X184177056Y-64131452D01*
X183730000Y-64040921D01*
X183016451Y-64040921D01*
X184837372Y-62220000D01*
X184957275Y-62170457D01*
X185359047Y-61769386D01*
X185576752Y-61245093D01*
X185577248Y-60677397D01*
X185360457Y-60152725D01*
X184959386Y-59750953D01*
X184435093Y-59533248D01*
X183867397Y-59532752D01*
X183342725Y-59749543D01*
X182940953Y-60150614D01*
X182890493Y-60272135D01*
X180001314Y-63161314D01*
X179702818Y-63608045D01*
X179598000Y-64135000D01*
X179598000Y-72170185D01*
X179244386Y-71815953D01*
X179122865Y-71765493D01*
X170518686Y-63161314D01*
X170071955Y-62862818D01*
X169545000Y-62758000D01*
X165735000Y-62758000D01*
X165208045Y-62862818D01*
X164761314Y-63161314D01*
X164462818Y-63608045D01*
X164358000Y-64135000D01*
X164358000Y-67374628D01*
X162507628Y-69225000D01*
X162387725Y-69274543D01*
X161985953Y-69675614D01*
X161929336Y-69811964D01*
X158105000Y-65987628D01*
X158055457Y-65867725D01*
X157654386Y-65465953D01*
X157130093Y-65248248D01*
X156562397Y-65247752D01*
X156037725Y-65464543D01*
X155635953Y-65865614D01*
X155418248Y-66389907D01*
X155418173Y-66475801D01*
X152103686Y-63161314D01*
X151656955Y-62862818D01*
X151130000Y-62758000D01*
X142875000Y-62758000D01*
X142348045Y-62862818D01*
X141901314Y-63161314D01*
X141602818Y-63608045D01*
X141529243Y-63977933D01*
X141322397Y-63977752D01*
X140797725Y-64194543D01*
X140395953Y-64595614D01*
X140345493Y-64717135D01*
X131087462Y-73975166D01*
X131060943Y-73933000D01*
X129813000Y-73933000D01*
X129813000Y-73953000D01*
X129267000Y-73953000D01*
X129267000Y-73933000D01*
X128019057Y-73933000D01*
X127848421Y-74204323D01*
X127958964Y-74471243D01*
X128180424Y-74750529D01*
X128103318Y-74802050D01*
X127674758Y-75443435D01*
X127524268Y-76200000D01*
X127674758Y-76956565D01*
X128017824Y-77470000D01*
X127674758Y-77983435D01*
X127524268Y-78740000D01*
X127674758Y-79496565D01*
X128017824Y-80010000D01*
X127674758Y-80523435D01*
X127524268Y-81280000D01*
X127674758Y-82036565D01*
X128017824Y-82550000D01*
X127674758Y-83063435D01*
X127524268Y-83820000D01*
X127674758Y-84576565D01*
X128017824Y-85090000D01*
X127674758Y-85603435D01*
X127524268Y-86360000D01*
X127674758Y-87116565D01*
X128017824Y-87630000D01*
X127674758Y-88143435D01*
X127524268Y-88900000D01*
X127674758Y-89656565D01*
X128017824Y-90170000D01*
X127674758Y-90683435D01*
X127524268Y-91440000D01*
X127674758Y-92196565D01*
X128017824Y-92710000D01*
X127674758Y-93223435D01*
X127549670Y-93852298D01*
X127107000Y-93409628D01*
X127107000Y-92075000D01*
X127002182Y-91548045D01*
X126703686Y-91101314D01*
X124049360Y-88446988D01*
X124460000Y-88528670D01*
X125182889Y-88384878D01*
X125795725Y-87975395D01*
X126205208Y-87362559D01*
X126349000Y-86639670D01*
X126349000Y-86080330D01*
X126205208Y-85357441D01*
X125795725Y-84744605D01*
X125182889Y-84335122D01*
X124460000Y-84191330D01*
X123737111Y-84335122D01*
X123124275Y-84744605D01*
X122714792Y-85357441D01*
X122571000Y-86080330D01*
X122571000Y-86639670D01*
X122652682Y-87050310D01*
X119418220Y-83815848D01*
X119552275Y-83760457D01*
X119954047Y-83359386D01*
X120171752Y-82835093D01*
X120172248Y-82267397D01*
X120122000Y-82145788D01*
X120122000Y-78040372D01*
X126498049Y-71664323D01*
X127848421Y-71664323D01*
X127958964Y-71931243D01*
X128322736Y-72390000D01*
X127958964Y-72848757D01*
X127848421Y-73115677D01*
X128019057Y-73387000D01*
X129267000Y-73387000D01*
X129267000Y-71393000D01*
X129813000Y-71393000D01*
X129813000Y-73387000D01*
X131060943Y-73387000D01*
X131231579Y-73115677D01*
X131121036Y-72848757D01*
X130757264Y-72390000D01*
X131121036Y-71931243D01*
X131231579Y-71664323D01*
X131060943Y-71393000D01*
X129813000Y-71393000D01*
X129267000Y-71393000D01*
X128019057Y-71393000D01*
X127848421Y-71664323D01*
X126498049Y-71664323D01*
X126703686Y-71458686D01*
X127002182Y-71011955D01*
X127107000Y-70485000D01*
X127107000Y-66610372D01*
X127540921Y-66176451D01*
X127540921Y-66890000D01*
X127619506Y-67307641D01*
X127815688Y-67612518D01*
X127674758Y-67823435D01*
X127524268Y-68580000D01*
X127674758Y-69336565D01*
X128103318Y-69977950D01*
X128180424Y-70029471D01*
X127958964Y-70308757D01*
X127848421Y-70575677D01*
X128019057Y-70847000D01*
X129267000Y-70847000D01*
X129267000Y-70827000D01*
X129813000Y-70827000D01*
X129813000Y-70847000D01*
X131060943Y-70847000D01*
X131231579Y-70575677D01*
X131121036Y-70308757D01*
X130899576Y-70029471D01*
X130976682Y-69977950D01*
X131405242Y-69336565D01*
X131555732Y-68580000D01*
X131405242Y-67823435D01*
X131262344Y-67609574D01*
X131448548Y-67337056D01*
X131539079Y-66890000D01*
X131539079Y-65190000D01*
X131460494Y-64772359D01*
X131213669Y-64388781D01*
X130837056Y-64131452D01*
X130390000Y-64040921D01*
X129676451Y-64040921D01*
X130227372Y-63490000D01*
X130347275Y-63440457D01*
X130749047Y-63039386D01*
X130966752Y-62515093D01*
X130967248Y-61947397D01*
X130750457Y-61422725D01*
X130570650Y-61242603D01*
X155417752Y-61242603D01*
X155634543Y-61767275D01*
X156035614Y-62169047D01*
X156157135Y-62219507D01*
X159395000Y-65457372D01*
X159444543Y-65577275D01*
X159845614Y-65979047D01*
X160369907Y-66196752D01*
X160937603Y-66197248D01*
X161462275Y-65980457D01*
X161864047Y-65579386D01*
X162081752Y-65055093D01*
X162082248Y-64487397D01*
X161865457Y-63962725D01*
X161464386Y-63560953D01*
X161342865Y-63510493D01*
X158105000Y-60272628D01*
X158055457Y-60152725D01*
X157654386Y-59750953D01*
X157130093Y-59533248D01*
X156562397Y-59532752D01*
X156037725Y-59749543D01*
X155635953Y-60150614D01*
X155418248Y-60674907D01*
X155417752Y-61242603D01*
X130570650Y-61242603D01*
X130349386Y-61020953D01*
X129825093Y-60803248D01*
X129257397Y-60802752D01*
X128732725Y-61019543D01*
X128330953Y-61420614D01*
X128280493Y-61542135D01*
X125557320Y-64265308D01*
X125182889Y-64015122D01*
X124460000Y-63871330D01*
X123737111Y-64015122D01*
X123124275Y-64424605D01*
X122714792Y-65037441D01*
X122571000Y-65760330D01*
X122571000Y-66319670D01*
X122714792Y-67042559D01*
X122893490Y-67310000D01*
X122714792Y-67577441D01*
X122571000Y-68300330D01*
X122571000Y-68859670D01*
X122714792Y-69582559D01*
X123124275Y-70195395D01*
X123692535Y-70575093D01*
X118217000Y-76050628D01*
X118217000Y-64573103D01*
X118692977Y-64573103D01*
X118730361Y-64858607D01*
X119299729Y-65003795D01*
X119881316Y-64920044D01*
X120029639Y-64858607D01*
X120067023Y-64573103D01*
X119380000Y-63886080D01*
X118692977Y-64573103D01*
X118217000Y-64573103D01*
X118217000Y-64494970D01*
X118260862Y-64451184D01*
X118415752Y-64078168D01*
X118993920Y-63500000D01*
X119766080Y-63500000D01*
X120453103Y-64187023D01*
X120738607Y-64149639D01*
X120883795Y-63580271D01*
X120800044Y-62998684D01*
X120738607Y-62850361D01*
X120453103Y-62812977D01*
X119766080Y-63500000D01*
X118993920Y-63500000D01*
X118415530Y-62921610D01*
X118262520Y-62551297D01*
X118138337Y-62426897D01*
X118692977Y-62426897D01*
X119380000Y-63113920D01*
X120067023Y-62426897D01*
X120029639Y-62141393D01*
X119460271Y-61996205D01*
X118878684Y-62079956D01*
X118730361Y-62141393D01*
X118692977Y-62426897D01*
X118138337Y-62426897D01*
X117791184Y-62079138D01*
X117175039Y-61823292D01*
X116507888Y-61822710D01*
X115891297Y-62077480D01*
X115569853Y-62398364D01*
X115251184Y-62079138D01*
X114635039Y-61823292D01*
X113967888Y-61822710D01*
X113351297Y-62077480D01*
X113190852Y-62237646D01*
X113133669Y-62148781D01*
X112757056Y-61891452D01*
X112310000Y-61800921D01*
X111210000Y-61800921D01*
X110792359Y-61879506D01*
X110408781Y-62126331D01*
X110151452Y-62502944D01*
X110060921Y-62950000D01*
X110060921Y-63251707D01*
X101816856Y-71495773D01*
X101640238Y-71319155D01*
X101946021Y-71256272D01*
X102125012Y-70613580D01*
X102044431Y-69951313D01*
X101946021Y-69713728D01*
X101640236Y-69650845D01*
X100806080Y-70485000D01*
X100820223Y-70499142D01*
X100434142Y-70885223D01*
X100420000Y-70871080D01*
X100405858Y-70885223D01*
X100019777Y-70499142D01*
X100033920Y-70485000D01*
X100019778Y-70470858D01*
X100405858Y-70084777D01*
X100420000Y-70098920D01*
X101254155Y-69264764D01*
X101191272Y-68958979D01*
X100548580Y-68779988D01*
X99886313Y-68860569D01*
X99648728Y-68958979D01*
X99585845Y-69264762D01*
X99573978Y-69252895D01*
X99504431Y-68681313D01*
X99406021Y-68443728D01*
X99100236Y-68380845D01*
X98266080Y-69215000D01*
X98280223Y-69229143D01*
X97894142Y-69615223D01*
X97880000Y-69601080D01*
X97351093Y-70129987D01*
X97346313Y-70130569D01*
X97108728Y-70228979D01*
X97071611Y-70409470D01*
X97045845Y-70435236D01*
X97056079Y-70485000D01*
X97045845Y-70534764D01*
X97071611Y-70560530D01*
X97108728Y-70741021D01*
X97307445Y-70796364D01*
X97880000Y-71368920D01*
X97894143Y-71354778D01*
X98280223Y-71740858D01*
X98266080Y-71755000D01*
X98280223Y-71769142D01*
X97894142Y-72155223D01*
X97880000Y-72141080D01*
X97865858Y-72155223D01*
X97479777Y-71769142D01*
X97493920Y-71755000D01*
X96659764Y-70920845D01*
X96353979Y-70983728D01*
X96174988Y-71626420D01*
X96255569Y-72288687D01*
X96353979Y-72526272D01*
X96659762Y-72589155D01*
X96479668Y-72769249D01*
X96615524Y-72905105D01*
X96289684Y-73230376D01*
X96003326Y-73920004D01*
X96002675Y-74666720D01*
X96287829Y-75356846D01*
X96495520Y-75564900D01*
X96289684Y-75770376D01*
X96003326Y-76460004D01*
X96002675Y-77206720D01*
X96287829Y-77896846D01*
X96815376Y-78425316D01*
X97505004Y-78711674D01*
X98251720Y-78712325D01*
X98583398Y-78575278D01*
X98827829Y-79166846D01*
X99343854Y-79683774D01*
X96181314Y-82846314D01*
X95882818Y-83293045D01*
X95778000Y-83820000D01*
X95778000Y-97221417D01*
X95493725Y-97338877D01*
X94796326Y-98035060D01*
X94672663Y-98332874D01*
X94551123Y-98038725D01*
X93854940Y-97341326D01*
X92944867Y-96963431D01*
X91959456Y-96962571D01*
X91048725Y-97338877D01*
X90351326Y-98035060D01*
X89973431Y-98945133D01*
X89972571Y-99930544D01*
X82482000Y-99930544D01*
X82482000Y-82005740D01*
X86102588Y-82005740D01*
X86463703Y-82879703D01*
X87131780Y-83548947D01*
X88005111Y-83911586D01*
X88950740Y-83912412D01*
X89824703Y-83551297D01*
X90493947Y-82883220D01*
X90843043Y-82042503D01*
X90985186Y-82101526D01*
X92070054Y-82102472D01*
X93072703Y-81688186D01*
X93840490Y-80921738D01*
X94256526Y-79919814D01*
X94257472Y-78834946D01*
X93843186Y-77832297D01*
X93076738Y-77064510D01*
X92074814Y-76648474D01*
X90989946Y-76647528D01*
X89987297Y-77061814D01*
X89219510Y-77828262D01*
X88803474Y-78830186D01*
X88803188Y-79158281D01*
X88009260Y-79157588D01*
X87135297Y-79518703D01*
X86466053Y-80186780D01*
X86103414Y-81060111D01*
X86102588Y-82005740D01*
X82482000Y-82005740D01*
X82482000Y-66255740D01*
X86102588Y-66255740D01*
X86463703Y-67129703D01*
X87131780Y-67798947D01*
X88005111Y-68161586D01*
X88802809Y-68162283D01*
X88802528Y-68485054D01*
X89216814Y-69487703D01*
X89983262Y-70255490D01*
X90985186Y-70671526D01*
X92070054Y-70672472D01*
X93072703Y-70258186D01*
X93840490Y-69491738D01*
X94008793Y-69086420D01*
X96174988Y-69086420D01*
X96255569Y-69748687D01*
X96353979Y-69986272D01*
X96659764Y-70049155D01*
X97493920Y-69215000D01*
X96659764Y-68380845D01*
X96353979Y-68443728D01*
X96174988Y-69086420D01*
X94008793Y-69086420D01*
X94256526Y-68489814D01*
X94256957Y-67994764D01*
X97045845Y-67994764D01*
X97880000Y-68828920D01*
X98714155Y-67994764D01*
X98651272Y-67688979D01*
X98008580Y-67509988D01*
X97346313Y-67590569D01*
X97108728Y-67688979D01*
X97045845Y-67994764D01*
X94256957Y-67994764D01*
X94257472Y-67404946D01*
X93843186Y-66402297D01*
X93076738Y-65634510D01*
X92074814Y-65218474D01*
X90989946Y-65217528D01*
X90842599Y-65278410D01*
X90496297Y-64440297D01*
X89828220Y-63771053D01*
X88954889Y-63408414D01*
X88009260Y-63407588D01*
X87135297Y-63768703D01*
X86466053Y-64436780D01*
X86103414Y-65310111D01*
X86102588Y-66255740D01*
X82482000Y-66255740D01*
X82482000Y-59925464D01*
X82832115Y-60772807D01*
X84001040Y-61943773D01*
X85529094Y-62578277D01*
X87183647Y-62579721D01*
X88712807Y-61947885D01*
X89883773Y-60778960D01*
X90518277Y-59250906D01*
X90519721Y-57596353D01*
X89887885Y-56067193D01*
X88718960Y-54896227D01*
X87865887Y-54542000D01*
X234714536Y-54542000D01*
X233867193Y-54892115D01*
G36*
X147971000Y-65760330D02*
X147971000Y-66319670D01*
X148114792Y-67042559D01*
X148524275Y-67655395D01*
X149137111Y-68064878D01*
X149860000Y-68208670D01*
X150582889Y-68064878D01*
X151195725Y-67655395D01*
X151605208Y-67042559D01*
X151685671Y-66638043D01*
X164761314Y-79713686D01*
X165208045Y-80012182D01*
X165735000Y-80117000D01*
X166046329Y-80117000D01*
X165774758Y-80523435D01*
X165624268Y-81280000D01*
X165774758Y-82036565D01*
X166117824Y-82550000D01*
X165774758Y-83063435D01*
X165624268Y-83820000D01*
X165774758Y-84576565D01*
X166117824Y-85090000D01*
X165774758Y-85603435D01*
X165624268Y-86360000D01*
X165774758Y-87116565D01*
X166117824Y-87630000D01*
X165774758Y-88143435D01*
X165624268Y-88900000D01*
X165774758Y-89656565D01*
X166117824Y-90170000D01*
X165774758Y-90683435D01*
X165624268Y-91440000D01*
X165774758Y-92196565D01*
X166117824Y-92710000D01*
X165774758Y-93223435D01*
X165624268Y-93980000D01*
X165774758Y-94736565D01*
X166203318Y-95377950D01*
X166844703Y-95806510D01*
X167601268Y-95957000D01*
X167678732Y-95957000D01*
X168168000Y-95859679D01*
X168168000Y-101883874D01*
X164184487Y-109186981D01*
X164126369Y-108670167D01*
X164009518Y-108388063D01*
X163693510Y-108312570D01*
X162786080Y-109220000D01*
X162800223Y-109234143D01*
X162414143Y-109620223D01*
X162400000Y-109606080D01*
X161492570Y-110513510D01*
X161568063Y-110829518D01*
X162247326Y-111025369D01*
X162949833Y-110946369D01*
X163231937Y-110829518D01*
X163307429Y-110513513D01*
X163406750Y-110612833D01*
X161107568Y-114828000D01*
X153819372Y-114828000D01*
X157450327Y-111197045D01*
X157791524Y-111197343D01*
X158518418Y-110896997D01*
X159075042Y-110341343D01*
X159376656Y-109614975D01*
X159377134Y-109067326D01*
X160594631Y-109067326D01*
X160673631Y-109769833D01*
X160790482Y-110051937D01*
X161106490Y-110127430D01*
X162013920Y-109220000D01*
X161106490Y-108312570D01*
X160790482Y-108388063D01*
X160594631Y-109067326D01*
X159377134Y-109067326D01*
X159377343Y-108828476D01*
X159076997Y-108101582D01*
X158902211Y-107926490D01*
X161492570Y-107926490D01*
X162400000Y-108833920D01*
X163307430Y-107926490D01*
X163231937Y-107610482D01*
X162552674Y-107414631D01*
X161850167Y-107493631D01*
X161568063Y-107610482D01*
X161492570Y-107926490D01*
X158902211Y-107926490D01*
X158521343Y-107544958D01*
X157794975Y-107243344D01*
X157008476Y-107242657D01*
X156281582Y-107543003D01*
X155724958Y-108098657D01*
X155423344Y-108825025D01*
X155422903Y-109329725D01*
X151829628Y-112923000D01*
X148994909Y-112923000D01*
X148875093Y-112873248D01*
X148307397Y-112872752D01*
X147782725Y-113089543D01*
X147380953Y-113490614D01*
X147163248Y-114014907D01*
X147162752Y-114582603D01*
X147264148Y-114828000D01*
X124732989Y-114828000D01*
X123723090Y-112471569D01*
X123809000Y-112039670D01*
X123809000Y-111480330D01*
X123665208Y-110757441D01*
X123255725Y-110144605D01*
X122642889Y-109735122D01*
X122021522Y-109611524D01*
X150422657Y-109611524D01*
X150723003Y-110338418D01*
X151278657Y-110895042D01*
X152005025Y-111196656D01*
X152791524Y-111197343D01*
X153518418Y-110896997D01*
X154075042Y-110341343D01*
X154376656Y-109614975D01*
X154377343Y-108828476D01*
X154076997Y-108101582D01*
X153521343Y-107544958D01*
X152794975Y-107243344D01*
X152008476Y-107242657D01*
X151281582Y-107543003D01*
X150724958Y-108098657D01*
X150423344Y-108825025D01*
X150422657Y-109611524D01*
X122021522Y-109611524D01*
X121920000Y-109591330D01*
X121197111Y-109735122D01*
X120757000Y-110029194D01*
X120757000Y-105134970D01*
X120800862Y-105091184D01*
X121056708Y-104475039D01*
X121057290Y-103807888D01*
X120802520Y-103191297D01*
X120331184Y-102719138D01*
X119715039Y-102463292D01*
X119047888Y-102462710D01*
X118431297Y-102717480D01*
X118109853Y-103038364D01*
X117791184Y-102719138D01*
X117175039Y-102463292D01*
X116507888Y-102462710D01*
X115891297Y-102717480D01*
X115569853Y-103038364D01*
X115251184Y-102719138D01*
X114635039Y-102463292D01*
X113967888Y-102462710D01*
X113351297Y-102717480D01*
X113190852Y-102877646D01*
X113133669Y-102788781D01*
X112757056Y-102531452D01*
X112310000Y-102440921D01*
X111210000Y-102440921D01*
X110792359Y-102519506D01*
X110597000Y-102645216D01*
X110597000Y-98360372D01*
X116543686Y-92413686D01*
X116842182Y-91966955D01*
X116947000Y-91440000D01*
X116947000Y-86327428D01*
X117012275Y-86300457D01*
X117414047Y-85899386D01*
X117470664Y-85763036D01*
X123692535Y-91984907D01*
X123124275Y-92364605D01*
X122714792Y-92977441D01*
X122571000Y-93700330D01*
X122571000Y-94259670D01*
X122714792Y-94982559D01*
X123124275Y-95595395D01*
X123737111Y-96004878D01*
X124460000Y-96148670D01*
X125182889Y-96004878D01*
X125557320Y-95754692D01*
X126661314Y-96858686D01*
X127108045Y-97157182D01*
X127635000Y-97262000D01*
X131445000Y-97262000D01*
X131971955Y-97157182D01*
X132418686Y-96858686D01*
X132717182Y-96411955D01*
X132822000Y-95885000D01*
X132822000Y-86295372D01*
X133243000Y-85874372D01*
X133243000Y-87630000D01*
X133347818Y-88156955D01*
X133646314Y-88603686D01*
X146060000Y-101017372D01*
X146109543Y-101137275D01*
X146510614Y-101539047D01*
X147034907Y-101756752D01*
X147602603Y-101757248D01*
X148127275Y-101540457D01*
X148529047Y-101139386D01*
X148746752Y-100615093D01*
X148747248Y-100047397D01*
X148530457Y-99522725D01*
X148129386Y-99120953D01*
X148007865Y-99070493D01*
X144881823Y-95944451D01*
X145575297Y-95806510D01*
X146216682Y-95377950D01*
X146645242Y-94736565D01*
X146770330Y-94107702D01*
X155585000Y-102922372D01*
X155634543Y-103042275D01*
X156035614Y-103444047D01*
X156559907Y-103661752D01*
X157127603Y-103662248D01*
X157652275Y-103445457D01*
X158054047Y-103044386D01*
X158271752Y-102520093D01*
X158272248Y-101952397D01*
X158055457Y-101427725D01*
X157654386Y-101025953D01*
X157532865Y-100975493D01*
X150184975Y-93627603D01*
X153512752Y-93627603D01*
X153729543Y-94152275D01*
X154130614Y-94554047D01*
X154654907Y-94771752D01*
X155222603Y-94772248D01*
X155747275Y-94555457D01*
X156149047Y-94154386D01*
X156199507Y-94032865D01*
X158167372Y-92065000D01*
X158287275Y-92015457D01*
X158689047Y-91614386D01*
X158906752Y-91090093D01*
X158907248Y-90522397D01*
X158690457Y-89997725D01*
X158289386Y-89595953D01*
X157765093Y-89378248D01*
X157197397Y-89377752D01*
X156672725Y-89594543D01*
X156270953Y-89995614D01*
X156220493Y-90117135D01*
X154252628Y-92085000D01*
X154132725Y-92134543D01*
X153730953Y-92535614D01*
X153513248Y-93059907D01*
X153512752Y-93627603D01*
X150184975Y-93627603D01*
X147658686Y-91101314D01*
X147211955Y-90802818D01*
X146685000Y-90698000D01*
X146648139Y-90698000D01*
X146645242Y-90683435D01*
X146302176Y-90170000D01*
X146645242Y-89656565D01*
X146795732Y-88900000D01*
X146740103Y-88620330D01*
X147971000Y-88620330D01*
X147971000Y-89179670D01*
X148114792Y-89902559D01*
X148524275Y-90515395D01*
X149137111Y-90924878D01*
X149860000Y-91068670D01*
X150582889Y-90924878D01*
X151195725Y-90515395D01*
X151605208Y-89902559D01*
X151749000Y-89179670D01*
X151749000Y-88620330D01*
X160671000Y-88620330D01*
X160671000Y-89179670D01*
X160814792Y-89902559D01*
X160993490Y-90170000D01*
X160814792Y-90437441D01*
X160671000Y-91160330D01*
X160671000Y-91719670D01*
X160814792Y-92442559D01*
X160993490Y-92710000D01*
X160814792Y-92977441D01*
X160671000Y-93700330D01*
X160671000Y-94259670D01*
X160814792Y-94982559D01*
X161224275Y-95595395D01*
X161837111Y-96004878D01*
X162560000Y-96148670D01*
X163282889Y-96004878D01*
X163895725Y-95595395D01*
X164305208Y-94982559D01*
X164449000Y-94259670D01*
X164449000Y-93700330D01*
X164305208Y-92977441D01*
X164126510Y-92710000D01*
X164305208Y-92442559D01*
X164449000Y-91719670D01*
X164449000Y-91160330D01*
X164305208Y-90437441D01*
X164126510Y-90170000D01*
X164305208Y-89902559D01*
X164449000Y-89179670D01*
X164449000Y-88620330D01*
X164305208Y-87897441D01*
X163895725Y-87284605D01*
X163282889Y-86875122D01*
X162560000Y-86731330D01*
X161837111Y-86875122D01*
X161224275Y-87284605D01*
X160814792Y-87897441D01*
X160671000Y-88620330D01*
X151749000Y-88620330D01*
X151605208Y-87897441D01*
X151195725Y-87284605D01*
X150582889Y-86875122D01*
X149860000Y-86731330D01*
X149137111Y-86875122D01*
X148524275Y-87284605D01*
X148114792Y-87897441D01*
X147971000Y-88620330D01*
X146740103Y-88620330D01*
X146645242Y-88143435D01*
X146302176Y-87630000D01*
X146645242Y-87116565D01*
X146795732Y-86360000D01*
X146645242Y-85603435D01*
X146302176Y-85090000D01*
X146645242Y-84576565D01*
X146795732Y-83820000D01*
X146645242Y-83063435D01*
X146302176Y-82550000D01*
X146645242Y-82036565D01*
X146795732Y-81280000D01*
X146645242Y-80523435D01*
X146302176Y-80010000D01*
X146645242Y-79496565D01*
X146795732Y-78740000D01*
X146645242Y-77983435D01*
X146302176Y-77470000D01*
X146645242Y-76956565D01*
X146795732Y-76200000D01*
X146740103Y-75920330D01*
X147971000Y-75920330D01*
X147971000Y-76479670D01*
X148114792Y-77202559D01*
X148293490Y-77470000D01*
X148114792Y-77737441D01*
X147971000Y-78460330D01*
X147971000Y-79019670D01*
X148114792Y-79742559D01*
X148293490Y-80010000D01*
X148114792Y-80277441D01*
X147971000Y-81000330D01*
X147971000Y-81559670D01*
X148114792Y-82282559D01*
X148293490Y-82550000D01*
X148114792Y-82817441D01*
X147971000Y-83540330D01*
X147971000Y-84099670D01*
X148114792Y-84822559D01*
X148524275Y-85435395D01*
X149137111Y-85844878D01*
X149860000Y-85988670D01*
X150582889Y-85844878D01*
X151195725Y-85435395D01*
X151605208Y-84822559D01*
X151749000Y-84099670D01*
X151749000Y-83540330D01*
X151605208Y-82817441D01*
X151426510Y-82550000D01*
X151605208Y-82282559D01*
X151749000Y-81559670D01*
X151749000Y-81000330D01*
X160671000Y-81000330D01*
X160671000Y-81559670D01*
X160814792Y-82282559D01*
X160993490Y-82550000D01*
X160814792Y-82817441D01*
X160671000Y-83540330D01*
X160671000Y-84099670D01*
X160814792Y-84822559D01*
X161224275Y-85435395D01*
X161837111Y-85844878D01*
X162560000Y-85988670D01*
X163282889Y-85844878D01*
X163895725Y-85435395D01*
X164305208Y-84822559D01*
X164449000Y-84099670D01*
X164449000Y-83540330D01*
X164305208Y-82817441D01*
X164126510Y-82550000D01*
X164305208Y-82282559D01*
X164449000Y-81559670D01*
X164449000Y-81000330D01*
X164305208Y-80277441D01*
X163895725Y-79664605D01*
X163282889Y-79255122D01*
X162560000Y-79111330D01*
X161837111Y-79255122D01*
X161224275Y-79664605D01*
X160814792Y-80277441D01*
X160671000Y-81000330D01*
X151749000Y-81000330D01*
X151605208Y-80277441D01*
X151426510Y-80010000D01*
X151605208Y-79742559D01*
X151749000Y-79019670D01*
X151749000Y-78460330D01*
X151605208Y-77737441D01*
X151426510Y-77470000D01*
X151605208Y-77202559D01*
X151749000Y-76479670D01*
X151749000Y-75920330D01*
X151605208Y-75197441D01*
X151195725Y-74584605D01*
X150582889Y-74175122D01*
X149860000Y-74031330D01*
X149137111Y-74175122D01*
X148524275Y-74584605D01*
X148114792Y-75197441D01*
X147971000Y-75920330D01*
X146740103Y-75920330D01*
X146645242Y-75443435D01*
X146302176Y-74930000D01*
X146645242Y-74416565D01*
X146795732Y-73660000D01*
X146645242Y-72903435D01*
X146302176Y-72390000D01*
X146645242Y-71876565D01*
X146795732Y-71120000D01*
X146740103Y-70840330D01*
X147971000Y-70840330D01*
X147971000Y-71399670D01*
X148114792Y-72122559D01*
X148524275Y-72735395D01*
X149137111Y-73144878D01*
X149860000Y-73288670D01*
X150582889Y-73144878D01*
X151195725Y-72735395D01*
X151605208Y-72122559D01*
X151749000Y-71399670D01*
X151749000Y-70840330D01*
X151605208Y-70117441D01*
X151195725Y-69504605D01*
X150582889Y-69095122D01*
X149860000Y-68951330D01*
X149137111Y-69095122D01*
X148524275Y-69504605D01*
X148114792Y-70117441D01*
X147971000Y-70840330D01*
X146740103Y-70840330D01*
X146645242Y-70363435D01*
X146216682Y-69722050D01*
X146139576Y-69670529D01*
X146361036Y-69391243D01*
X146471579Y-69124323D01*
X146300943Y-68853000D01*
X145053000Y-68853000D01*
X145053000Y-68873000D01*
X144507000Y-68873000D01*
X144507000Y-68853000D01*
X143259057Y-68853000D01*
X143088421Y-69124323D01*
X143198964Y-69391243D01*
X143420424Y-69670529D01*
X143343318Y-69722050D01*
X142914758Y-70363435D01*
X142764268Y-71120000D01*
X142914758Y-71876565D01*
X143224301Y-72339829D01*
X142983045Y-72387818D01*
X142536314Y-72686314D01*
X131530330Y-83692298D01*
X131405242Y-83063435D01*
X131062176Y-82550000D01*
X131405242Y-82036565D01*
X131555732Y-81280000D01*
X131405242Y-80523435D01*
X131062176Y-80010000D01*
X131405242Y-79496565D01*
X131408139Y-79482000D01*
X131445000Y-79482000D01*
X131971955Y-79377182D01*
X132418686Y-79078686D01*
X133688686Y-77808686D01*
X133987182Y-77361955D01*
X134092000Y-76835000D01*
X134092000Y-76770372D01*
X143144841Y-67717531D01*
X143206290Y-67759518D01*
X143198964Y-67768757D01*
X143088421Y-68035677D01*
X143259057Y-68307000D01*
X144507000Y-68307000D01*
X144507000Y-68287000D01*
X145053000Y-68287000D01*
X145053000Y-68307000D01*
X146300943Y-68307000D01*
X146471579Y-68035677D01*
X146361036Y-67768757D01*
X146355824Y-67762184D01*
X146431219Y-67713669D01*
X146688548Y-67337056D01*
X146779079Y-66890000D01*
X146779079Y-65512000D01*
X148020396Y-65512000D01*
X147971000Y-65760330D01*
X147971000Y-65760330D01*
G37*
X147971000Y-65760330D02*
X147971000Y-66319670D01*
X148114792Y-67042559D01*
X148524275Y-67655395D01*
X149137111Y-68064878D01*
X149860000Y-68208670D01*
X150582889Y-68064878D01*
X151195725Y-67655395D01*
X151605208Y-67042559D01*
X151685671Y-66638043D01*
X164761314Y-79713686D01*
X165208045Y-80012182D01*
X165735000Y-80117000D01*
X166046329Y-80117000D01*
X165774758Y-80523435D01*
X165624268Y-81280000D01*
X165774758Y-82036565D01*
X166117824Y-82550000D01*
X165774758Y-83063435D01*
X165624268Y-83820000D01*
X165774758Y-84576565D01*
X166117824Y-85090000D01*
X165774758Y-85603435D01*
X165624268Y-86360000D01*
X165774758Y-87116565D01*
X166117824Y-87630000D01*
X165774758Y-88143435D01*
X165624268Y-88900000D01*
X165774758Y-89656565D01*
X166117824Y-90170000D01*
X165774758Y-90683435D01*
X165624268Y-91440000D01*
X165774758Y-92196565D01*
X166117824Y-92710000D01*
X165774758Y-93223435D01*
X165624268Y-93980000D01*
X165774758Y-94736565D01*
X166203318Y-95377950D01*
X166844703Y-95806510D01*
X167601268Y-95957000D01*
X167678732Y-95957000D01*
X168168000Y-95859679D01*
X168168000Y-101883874D01*
X164184487Y-109186981D01*
X164126369Y-108670167D01*
X164009518Y-108388063D01*
X163693510Y-108312570D01*
X162786080Y-109220000D01*
X162800223Y-109234143D01*
X162414143Y-109620223D01*
X162400000Y-109606080D01*
X161492570Y-110513510D01*
X161568063Y-110829518D01*
X162247326Y-111025369D01*
X162949833Y-110946369D01*
X163231937Y-110829518D01*
X163307429Y-110513513D01*
X163406750Y-110612833D01*
X161107568Y-114828000D01*
X153819372Y-114828000D01*
X157450327Y-111197045D01*
X157791524Y-111197343D01*
X158518418Y-110896997D01*
X159075042Y-110341343D01*
X159376656Y-109614975D01*
X159377134Y-109067326D01*
X160594631Y-109067326D01*
X160673631Y-109769833D01*
X160790482Y-110051937D01*
X161106490Y-110127430D01*
X162013920Y-109220000D01*
X161106490Y-108312570D01*
X160790482Y-108388063D01*
X160594631Y-109067326D01*
X159377134Y-109067326D01*
X159377343Y-108828476D01*
X159076997Y-108101582D01*
X158902211Y-107926490D01*
X161492570Y-107926490D01*
X162400000Y-108833920D01*
X163307430Y-107926490D01*
X163231937Y-107610482D01*
X162552674Y-107414631D01*
X161850167Y-107493631D01*
X161568063Y-107610482D01*
X161492570Y-107926490D01*
X158902211Y-107926490D01*
X158521343Y-107544958D01*
X157794975Y-107243344D01*
X157008476Y-107242657D01*
X156281582Y-107543003D01*
X155724958Y-108098657D01*
X155423344Y-108825025D01*
X155422903Y-109329725D01*
X151829628Y-112923000D01*
X148994909Y-112923000D01*
X148875093Y-112873248D01*
X148307397Y-112872752D01*
X147782725Y-113089543D01*
X147380953Y-113490614D01*
X147163248Y-114014907D01*
X147162752Y-114582603D01*
X147264148Y-114828000D01*
X124732989Y-114828000D01*
X123723090Y-112471569D01*
X123809000Y-112039670D01*
X123809000Y-111480330D01*
X123665208Y-110757441D01*
X123255725Y-110144605D01*
X122642889Y-109735122D01*
X122021522Y-109611524D01*
X150422657Y-109611524D01*
X150723003Y-110338418D01*
X151278657Y-110895042D01*
X152005025Y-111196656D01*
X152791524Y-111197343D01*
X153518418Y-110896997D01*
X154075042Y-110341343D01*
X154376656Y-109614975D01*
X154377343Y-108828476D01*
X154076997Y-108101582D01*
X153521343Y-107544958D01*
X152794975Y-107243344D01*
X152008476Y-107242657D01*
X151281582Y-107543003D01*
X150724958Y-108098657D01*
X150423344Y-108825025D01*
X150422657Y-109611524D01*
X122021522Y-109611524D01*
X121920000Y-109591330D01*
X121197111Y-109735122D01*
X120757000Y-110029194D01*
X120757000Y-105134970D01*
X120800862Y-105091184D01*
X121056708Y-104475039D01*
X121057290Y-103807888D01*
X120802520Y-103191297D01*
X120331184Y-102719138D01*
X119715039Y-102463292D01*
X119047888Y-102462710D01*
X118431297Y-102717480D01*
X118109853Y-103038364D01*
X117791184Y-102719138D01*
X117175039Y-102463292D01*
X116507888Y-102462710D01*
X115891297Y-102717480D01*
X115569853Y-103038364D01*
X115251184Y-102719138D01*
X114635039Y-102463292D01*
X113967888Y-102462710D01*
X113351297Y-102717480D01*
X113190852Y-102877646D01*
X113133669Y-102788781D01*
X112757056Y-102531452D01*
X112310000Y-102440921D01*
X111210000Y-102440921D01*
X110792359Y-102519506D01*
X110597000Y-102645216D01*
X110597000Y-98360372D01*
X116543686Y-92413686D01*
X116842182Y-91966955D01*
X116947000Y-91440000D01*
X116947000Y-86327428D01*
X117012275Y-86300457D01*
X117414047Y-85899386D01*
X117470664Y-85763036D01*
X123692535Y-91984907D01*
X123124275Y-92364605D01*
X122714792Y-92977441D01*
X122571000Y-93700330D01*
X122571000Y-94259670D01*
X122714792Y-94982559D01*
X123124275Y-95595395D01*
X123737111Y-96004878D01*
X124460000Y-96148670D01*
X125182889Y-96004878D01*
X125557320Y-95754692D01*
X126661314Y-96858686D01*
X127108045Y-97157182D01*
X127635000Y-97262000D01*
X131445000Y-97262000D01*
X131971955Y-97157182D01*
X132418686Y-96858686D01*
X132717182Y-96411955D01*
X132822000Y-95885000D01*
X132822000Y-86295372D01*
X133243000Y-85874372D01*
X133243000Y-87630000D01*
X133347818Y-88156955D01*
X133646314Y-88603686D01*
X146060000Y-101017372D01*
X146109543Y-101137275D01*
X146510614Y-101539047D01*
X147034907Y-101756752D01*
X147602603Y-101757248D01*
X148127275Y-101540457D01*
X148529047Y-101139386D01*
X148746752Y-100615093D01*
X148747248Y-100047397D01*
X148530457Y-99522725D01*
X148129386Y-99120953D01*
X148007865Y-99070493D01*
X144881823Y-95944451D01*
X145575297Y-95806510D01*
X146216682Y-95377950D01*
X146645242Y-94736565D01*
X146770330Y-94107702D01*
X155585000Y-102922372D01*
X155634543Y-103042275D01*
X156035614Y-103444047D01*
X156559907Y-103661752D01*
X157127603Y-103662248D01*
X157652275Y-103445457D01*
X158054047Y-103044386D01*
X158271752Y-102520093D01*
X158272248Y-101952397D01*
X158055457Y-101427725D01*
X157654386Y-101025953D01*
X157532865Y-100975493D01*
X150184975Y-93627603D01*
X153512752Y-93627603D01*
X153729543Y-94152275D01*
X154130614Y-94554047D01*
X154654907Y-94771752D01*
X155222603Y-94772248D01*
X155747275Y-94555457D01*
X156149047Y-94154386D01*
X156199507Y-94032865D01*
X158167372Y-92065000D01*
X158287275Y-92015457D01*
X158689047Y-91614386D01*
X158906752Y-91090093D01*
X158907248Y-90522397D01*
X158690457Y-89997725D01*
X158289386Y-89595953D01*
X157765093Y-89378248D01*
X157197397Y-89377752D01*
X156672725Y-89594543D01*
X156270953Y-89995614D01*
X156220493Y-90117135D01*
X154252628Y-92085000D01*
X154132725Y-92134543D01*
X153730953Y-92535614D01*
X153513248Y-93059907D01*
X153512752Y-93627603D01*
X150184975Y-93627603D01*
X147658686Y-91101314D01*
X147211955Y-90802818D01*
X146685000Y-90698000D01*
X146648139Y-90698000D01*
X146645242Y-90683435D01*
X146302176Y-90170000D01*
X146645242Y-89656565D01*
X146795732Y-88900000D01*
X146740103Y-88620330D01*
X147971000Y-88620330D01*
X147971000Y-89179670D01*
X148114792Y-89902559D01*
X148524275Y-90515395D01*
X149137111Y-90924878D01*
X149860000Y-91068670D01*
X150582889Y-90924878D01*
X151195725Y-90515395D01*
X151605208Y-89902559D01*
X151749000Y-89179670D01*
X151749000Y-88620330D01*
X160671000Y-88620330D01*
X160671000Y-89179670D01*
X160814792Y-89902559D01*
X160993490Y-90170000D01*
X160814792Y-90437441D01*
X160671000Y-91160330D01*
X160671000Y-91719670D01*
X160814792Y-92442559D01*
X160993490Y-92710000D01*
X160814792Y-92977441D01*
X160671000Y-93700330D01*
X160671000Y-94259670D01*
X160814792Y-94982559D01*
X161224275Y-95595395D01*
X161837111Y-96004878D01*
X162560000Y-96148670D01*
X163282889Y-96004878D01*
X163895725Y-95595395D01*
X164305208Y-94982559D01*
X164449000Y-94259670D01*
X164449000Y-93700330D01*
X164305208Y-92977441D01*
X164126510Y-92710000D01*
X164305208Y-92442559D01*
X164449000Y-91719670D01*
X164449000Y-91160330D01*
X164305208Y-90437441D01*
X164126510Y-90170000D01*
X164305208Y-89902559D01*
X164449000Y-89179670D01*
X164449000Y-88620330D01*
X164305208Y-87897441D01*
X163895725Y-87284605D01*
X163282889Y-86875122D01*
X162560000Y-86731330D01*
X161837111Y-86875122D01*
X161224275Y-87284605D01*
X160814792Y-87897441D01*
X160671000Y-88620330D01*
X151749000Y-88620330D01*
X151605208Y-87897441D01*
X151195725Y-87284605D01*
X150582889Y-86875122D01*
X149860000Y-86731330D01*
X149137111Y-86875122D01*
X148524275Y-87284605D01*
X148114792Y-87897441D01*
X147971000Y-88620330D01*
X146740103Y-88620330D01*
X146645242Y-88143435D01*
X146302176Y-87630000D01*
X146645242Y-87116565D01*
X146795732Y-86360000D01*
X146645242Y-85603435D01*
X146302176Y-85090000D01*
X146645242Y-84576565D01*
X146795732Y-83820000D01*
X146645242Y-83063435D01*
X146302176Y-82550000D01*
X146645242Y-82036565D01*
X146795732Y-81280000D01*
X146645242Y-80523435D01*
X146302176Y-80010000D01*
X146645242Y-79496565D01*
X146795732Y-78740000D01*
X146645242Y-77983435D01*
X146302176Y-77470000D01*
X146645242Y-76956565D01*
X146795732Y-76200000D01*
X146740103Y-75920330D01*
X147971000Y-75920330D01*
X147971000Y-76479670D01*
X148114792Y-77202559D01*
X148293490Y-77470000D01*
X148114792Y-77737441D01*
X147971000Y-78460330D01*
X147971000Y-79019670D01*
X148114792Y-79742559D01*
X148293490Y-80010000D01*
X148114792Y-80277441D01*
X147971000Y-81000330D01*
X147971000Y-81559670D01*
X148114792Y-82282559D01*
X148293490Y-82550000D01*
X148114792Y-82817441D01*
X147971000Y-83540330D01*
X147971000Y-84099670D01*
X148114792Y-84822559D01*
X148524275Y-85435395D01*
X149137111Y-85844878D01*
X149860000Y-85988670D01*
X150582889Y-85844878D01*
X151195725Y-85435395D01*
X151605208Y-84822559D01*
X151749000Y-84099670D01*
X151749000Y-83540330D01*
X151605208Y-82817441D01*
X151426510Y-82550000D01*
X151605208Y-82282559D01*
X151749000Y-81559670D01*
X151749000Y-81000330D01*
X160671000Y-81000330D01*
X160671000Y-81559670D01*
X160814792Y-82282559D01*
X160993490Y-82550000D01*
X160814792Y-82817441D01*
X160671000Y-83540330D01*
X160671000Y-84099670D01*
X160814792Y-84822559D01*
X161224275Y-85435395D01*
X161837111Y-85844878D01*
X162560000Y-85988670D01*
X163282889Y-85844878D01*
X163895725Y-85435395D01*
X164305208Y-84822559D01*
X164449000Y-84099670D01*
X164449000Y-83540330D01*
X164305208Y-82817441D01*
X164126510Y-82550000D01*
X164305208Y-82282559D01*
X164449000Y-81559670D01*
X164449000Y-81000330D01*
X164305208Y-80277441D01*
X163895725Y-79664605D01*
X163282889Y-79255122D01*
X162560000Y-79111330D01*
X161837111Y-79255122D01*
X161224275Y-79664605D01*
X160814792Y-80277441D01*
X160671000Y-81000330D01*
X151749000Y-81000330D01*
X151605208Y-80277441D01*
X151426510Y-80010000D01*
X151605208Y-79742559D01*
X151749000Y-79019670D01*
X151749000Y-78460330D01*
X151605208Y-77737441D01*
X151426510Y-77470000D01*
X151605208Y-77202559D01*
X151749000Y-76479670D01*
X151749000Y-75920330D01*
X151605208Y-75197441D01*
X151195725Y-74584605D01*
X150582889Y-74175122D01*
X149860000Y-74031330D01*
X149137111Y-74175122D01*
X148524275Y-74584605D01*
X148114792Y-75197441D01*
X147971000Y-75920330D01*
X146740103Y-75920330D01*
X146645242Y-75443435D01*
X146302176Y-74930000D01*
X146645242Y-74416565D01*
X146795732Y-73660000D01*
X146645242Y-72903435D01*
X146302176Y-72390000D01*
X146645242Y-71876565D01*
X146795732Y-71120000D01*
X146740103Y-70840330D01*
X147971000Y-70840330D01*
X147971000Y-71399670D01*
X148114792Y-72122559D01*
X148524275Y-72735395D01*
X149137111Y-73144878D01*
X149860000Y-73288670D01*
X150582889Y-73144878D01*
X151195725Y-72735395D01*
X151605208Y-72122559D01*
X151749000Y-71399670D01*
X151749000Y-70840330D01*
X151605208Y-70117441D01*
X151195725Y-69504605D01*
X150582889Y-69095122D01*
X149860000Y-68951330D01*
X149137111Y-69095122D01*
X148524275Y-69504605D01*
X148114792Y-70117441D01*
X147971000Y-70840330D01*
X146740103Y-70840330D01*
X146645242Y-70363435D01*
X146216682Y-69722050D01*
X146139576Y-69670529D01*
X146361036Y-69391243D01*
X146471579Y-69124323D01*
X146300943Y-68853000D01*
X145053000Y-68853000D01*
X145053000Y-68873000D01*
X144507000Y-68873000D01*
X144507000Y-68853000D01*
X143259057Y-68853000D01*
X143088421Y-69124323D01*
X143198964Y-69391243D01*
X143420424Y-69670529D01*
X143343318Y-69722050D01*
X142914758Y-70363435D01*
X142764268Y-71120000D01*
X142914758Y-71876565D01*
X143224301Y-72339829D01*
X142983045Y-72387818D01*
X142536314Y-72686314D01*
X131530330Y-83692298D01*
X131405242Y-83063435D01*
X131062176Y-82550000D01*
X131405242Y-82036565D01*
X131555732Y-81280000D01*
X131405242Y-80523435D01*
X131062176Y-80010000D01*
X131405242Y-79496565D01*
X131408139Y-79482000D01*
X131445000Y-79482000D01*
X131971955Y-79377182D01*
X132418686Y-79078686D01*
X133688686Y-77808686D01*
X133987182Y-77361955D01*
X134092000Y-76835000D01*
X134092000Y-76770372D01*
X143144841Y-67717531D01*
X143206290Y-67759518D01*
X143198964Y-67768757D01*
X143088421Y-68035677D01*
X143259057Y-68307000D01*
X144507000Y-68307000D01*
X144507000Y-68287000D01*
X145053000Y-68287000D01*
X145053000Y-68307000D01*
X146300943Y-68307000D01*
X146471579Y-68035677D01*
X146361036Y-67768757D01*
X146355824Y-67762184D01*
X146431219Y-67713669D01*
X146688548Y-67337056D01*
X146779079Y-66890000D01*
X146779079Y-65512000D01*
X148020396Y-65512000D01*
X147971000Y-65760330D01*
G36*
X166203318Y-69977950D02*
X166280424Y-70029471D01*
X166058964Y-70308757D01*
X165948421Y-70575677D01*
X166119057Y-70847000D01*
X167367000Y-70847000D01*
X167367000Y-70827000D01*
X167913000Y-70827000D01*
X167913000Y-70847000D01*
X167933000Y-70847000D01*
X167933000Y-71393000D01*
X167913000Y-71393000D01*
X167913000Y-73387000D01*
X167933000Y-73387000D01*
X167933000Y-73933000D01*
X167913000Y-73933000D01*
X167913000Y-73953000D01*
X167367000Y-73953000D01*
X167367000Y-73933000D01*
X166119057Y-73933000D01*
X166092538Y-73975166D01*
X163868220Y-71750848D01*
X164002275Y-71695457D01*
X164033463Y-71664323D01*
X165948421Y-71664323D01*
X166058964Y-71931243D01*
X166422736Y-72390000D01*
X166058964Y-72848757D01*
X165948421Y-73115677D01*
X166119057Y-73387000D01*
X167367000Y-73387000D01*
X167367000Y-71393000D01*
X166119057Y-71393000D01*
X165948421Y-71664323D01*
X164033463Y-71664323D01*
X164404047Y-71294386D01*
X164454507Y-71172865D01*
X165981458Y-69645914D01*
X166203318Y-69977950D01*
X166203318Y-69977950D01*
G37*
X166203318Y-69977950D02*
X166280424Y-70029471D01*
X166058964Y-70308757D01*
X165948421Y-70575677D01*
X166119057Y-70847000D01*
X167367000Y-70847000D01*
X167367000Y-70827000D01*
X167913000Y-70827000D01*
X167913000Y-70847000D01*
X167933000Y-70847000D01*
X167933000Y-71393000D01*
X167913000Y-71393000D01*
X167913000Y-73387000D01*
X167933000Y-73387000D01*
X167933000Y-73933000D01*
X167913000Y-73933000D01*
X167913000Y-73953000D01*
X167367000Y-73953000D01*
X167367000Y-73933000D01*
X166119057Y-73933000D01*
X166092538Y-73975166D01*
X163868220Y-71750848D01*
X164002275Y-71695457D01*
X164033463Y-71664323D01*
X165948421Y-71664323D01*
X166058964Y-71931243D01*
X166422736Y-72390000D01*
X166058964Y-72848757D01*
X165948421Y-73115677D01*
X166119057Y-73387000D01*
X167367000Y-73387000D01*
X167367000Y-71393000D01*
X166119057Y-71393000D01*
X165948421Y-71664323D01*
X164033463Y-71664323D01*
X164404047Y-71294386D01*
X164454507Y-71172865D01*
X165981458Y-69645914D01*
X166203318Y-69977950D01*
M02*
