G04 #@! TF.FileFunction,Legend,Top*
%FSLAX46Y46*%
G04 Gerber Fmt 4.6, Leading zero omitted, Abs format (unit mm)*
G04 Created by KiCad (PCBNEW 4.0.6) date 10/01/17 20:02:49*
%MOMM*%
%LPD*%
G01*
G04 APERTURE LIST*
%ADD10C,0.100000*%
%ADD11C,0.300000*%
%ADD12C,0.254000*%
%ADD13C,0.120000*%
%ADD14C,0.200000*%
%ADD15C,0.150000*%
%ADD16C,0.500000*%
G04 APERTURE END LIST*
D10*
D11*
X175938571Y-90101428D02*
X174438571Y-90101428D01*
X174438571Y-89530000D01*
X174510000Y-89387142D01*
X174581429Y-89315714D01*
X174724286Y-89244285D01*
X174938571Y-89244285D01*
X175081429Y-89315714D01*
X175152857Y-89387142D01*
X175224286Y-89530000D01*
X175224286Y-90101428D01*
X175938571Y-88601428D02*
X174938571Y-88601428D01*
X175224286Y-88601428D02*
X175081429Y-88530000D01*
X175010000Y-88458571D01*
X174938571Y-88315714D01*
X174938571Y-88172857D01*
X175938571Y-87458571D02*
X175867143Y-87601429D01*
X175795714Y-87672857D01*
X175652857Y-87744286D01*
X175224286Y-87744286D01*
X175081429Y-87672857D01*
X175010000Y-87601429D01*
X174938571Y-87458571D01*
X174938571Y-87244286D01*
X175010000Y-87101429D01*
X175081429Y-87030000D01*
X175224286Y-86958571D01*
X175652857Y-86958571D01*
X175795714Y-87030000D01*
X175867143Y-87101429D01*
X175938571Y-87244286D01*
X175938571Y-87458571D01*
X175938571Y-85172857D02*
X174438571Y-85172857D01*
X175510000Y-84672857D01*
X174438571Y-84172857D01*
X175938571Y-84172857D01*
X175938571Y-83458571D02*
X174938571Y-83458571D01*
X174438571Y-83458571D02*
X174510000Y-83530000D01*
X174581429Y-83458571D01*
X174510000Y-83387143D01*
X174438571Y-83458571D01*
X174581429Y-83458571D01*
X175867143Y-82101428D02*
X175938571Y-82244285D01*
X175938571Y-82529999D01*
X175867143Y-82672857D01*
X175795714Y-82744285D01*
X175652857Y-82815714D01*
X175224286Y-82815714D01*
X175081429Y-82744285D01*
X175010000Y-82672857D01*
X174938571Y-82529999D01*
X174938571Y-82244285D01*
X175010000Y-82101428D01*
X175938571Y-81458571D02*
X174938571Y-81458571D01*
X175224286Y-81458571D02*
X175081429Y-81387143D01*
X175010000Y-81315714D01*
X174938571Y-81172857D01*
X174938571Y-81030000D01*
X175938571Y-80315714D02*
X175867143Y-80458572D01*
X175795714Y-80530000D01*
X175652857Y-80601429D01*
X175224286Y-80601429D01*
X175081429Y-80530000D01*
X175010000Y-80458572D01*
X174938571Y-80315714D01*
X174938571Y-80101429D01*
X175010000Y-79958572D01*
X175081429Y-79887143D01*
X175224286Y-79815714D01*
X175652857Y-79815714D01*
X175795714Y-79887143D01*
X175867143Y-79958572D01*
X175938571Y-80101429D01*
X175938571Y-80315714D01*
X174581429Y-78101429D02*
X174510000Y-78030000D01*
X174438571Y-77887143D01*
X174438571Y-77530000D01*
X174510000Y-77387143D01*
X174581429Y-77315714D01*
X174724286Y-77244286D01*
X174867143Y-77244286D01*
X175081429Y-77315714D01*
X175938571Y-78172857D01*
X175938571Y-77244286D01*
X175367143Y-75458572D02*
X175367143Y-74315715D01*
X174938571Y-73601429D02*
X175367143Y-72458572D01*
X175795714Y-73601429D01*
X137838571Y-90101428D02*
X136338571Y-90101428D01*
X136338571Y-89530000D01*
X136410000Y-89387142D01*
X136481429Y-89315714D01*
X136624286Y-89244285D01*
X136838571Y-89244285D01*
X136981429Y-89315714D01*
X137052857Y-89387142D01*
X137124286Y-89530000D01*
X137124286Y-90101428D01*
X137838571Y-88601428D02*
X136838571Y-88601428D01*
X137124286Y-88601428D02*
X136981429Y-88530000D01*
X136910000Y-88458571D01*
X136838571Y-88315714D01*
X136838571Y-88172857D01*
X137838571Y-87458571D02*
X137767143Y-87601429D01*
X137695714Y-87672857D01*
X137552857Y-87744286D01*
X137124286Y-87744286D01*
X136981429Y-87672857D01*
X136910000Y-87601429D01*
X136838571Y-87458571D01*
X136838571Y-87244286D01*
X136910000Y-87101429D01*
X136981429Y-87030000D01*
X137124286Y-86958571D01*
X137552857Y-86958571D01*
X137695714Y-87030000D01*
X137767143Y-87101429D01*
X137838571Y-87244286D01*
X137838571Y-87458571D01*
X137838571Y-85172857D02*
X136338571Y-85172857D01*
X137410000Y-84672857D01*
X136338571Y-84172857D01*
X137838571Y-84172857D01*
X137838571Y-83458571D02*
X136838571Y-83458571D01*
X136338571Y-83458571D02*
X136410000Y-83530000D01*
X136481429Y-83458571D01*
X136410000Y-83387143D01*
X136338571Y-83458571D01*
X136481429Y-83458571D01*
X137767143Y-82101428D02*
X137838571Y-82244285D01*
X137838571Y-82529999D01*
X137767143Y-82672857D01*
X137695714Y-82744285D01*
X137552857Y-82815714D01*
X137124286Y-82815714D01*
X136981429Y-82744285D01*
X136910000Y-82672857D01*
X136838571Y-82529999D01*
X136838571Y-82244285D01*
X136910000Y-82101428D01*
X137838571Y-81458571D02*
X136838571Y-81458571D01*
X137124286Y-81458571D02*
X136981429Y-81387143D01*
X136910000Y-81315714D01*
X136838571Y-81172857D01*
X136838571Y-81030000D01*
X137838571Y-80315714D02*
X137767143Y-80458572D01*
X137695714Y-80530000D01*
X137552857Y-80601429D01*
X137124286Y-80601429D01*
X136981429Y-80530000D01*
X136910000Y-80458572D01*
X136838571Y-80315714D01*
X136838571Y-80101429D01*
X136910000Y-79958572D01*
X136981429Y-79887143D01*
X137124286Y-79815714D01*
X137552857Y-79815714D01*
X137695714Y-79887143D01*
X137767143Y-79958572D01*
X137838571Y-80101429D01*
X137838571Y-80315714D01*
X137838571Y-77244286D02*
X137838571Y-78101429D01*
X137838571Y-77672857D02*
X136338571Y-77672857D01*
X136552857Y-77815714D01*
X136695714Y-77958572D01*
X136767143Y-78101429D01*
X137267143Y-75458572D02*
X137267143Y-74315715D01*
X136838571Y-73601429D02*
X137267143Y-72458572D01*
X137695714Y-73601429D01*
X163915716Y-118783571D02*
X163915716Y-117283571D01*
X164415716Y-118355000D01*
X164915716Y-117283571D01*
X164915716Y-118783571D01*
X165844288Y-118783571D02*
X165701430Y-118712143D01*
X165630002Y-118640714D01*
X165558573Y-118497857D01*
X165558573Y-118069286D01*
X165630002Y-117926429D01*
X165701430Y-117855000D01*
X165844288Y-117783571D01*
X166058573Y-117783571D01*
X166201430Y-117855000D01*
X166272859Y-117926429D01*
X166344288Y-118069286D01*
X166344288Y-118497857D01*
X166272859Y-118640714D01*
X166201430Y-118712143D01*
X166058573Y-118783571D01*
X165844288Y-118783571D01*
X167630002Y-118783571D02*
X167630002Y-117283571D01*
X167630002Y-118712143D02*
X167487145Y-118783571D01*
X167201431Y-118783571D01*
X167058573Y-118712143D01*
X166987145Y-118640714D01*
X166915716Y-118497857D01*
X166915716Y-118069286D01*
X166987145Y-117926429D01*
X167058573Y-117855000D01*
X167201431Y-117783571D01*
X167487145Y-117783571D01*
X167630002Y-117855000D01*
X168987145Y-117783571D02*
X168987145Y-118783571D01*
X168344288Y-117783571D02*
X168344288Y-118569286D01*
X168415716Y-118712143D01*
X168558574Y-118783571D01*
X168772859Y-118783571D01*
X168915716Y-118712143D01*
X168987145Y-118640714D01*
X169915717Y-118783571D02*
X169772859Y-118712143D01*
X169701431Y-118569286D01*
X169701431Y-117283571D01*
X171058573Y-118712143D02*
X170915716Y-118783571D01*
X170630002Y-118783571D01*
X170487145Y-118712143D01*
X170415716Y-118569286D01*
X170415716Y-117997857D01*
X170487145Y-117855000D01*
X170630002Y-117783571D01*
X170915716Y-117783571D01*
X171058573Y-117855000D01*
X171130002Y-117997857D01*
X171130002Y-118140714D01*
X170415716Y-118283571D01*
X172772859Y-117283571D02*
X173130002Y-118783571D01*
X173415716Y-117712143D01*
X173701430Y-118783571D01*
X174058573Y-117283571D01*
X174558573Y-118712143D02*
X174772859Y-118783571D01*
X175130002Y-118783571D01*
X175272859Y-118712143D01*
X175344288Y-118640714D01*
X175415716Y-118497857D01*
X175415716Y-118355000D01*
X175344288Y-118212143D01*
X175272859Y-118140714D01*
X175130002Y-118069286D01*
X174844288Y-117997857D01*
X174701430Y-117926429D01*
X174630002Y-117855000D01*
X174558573Y-117712143D01*
X174558573Y-117569286D01*
X174630002Y-117426429D01*
X174701430Y-117355000D01*
X174844288Y-117283571D01*
X175201430Y-117283571D01*
X175415716Y-117355000D01*
X175987144Y-117426429D02*
X176058573Y-117355000D01*
X176201430Y-117283571D01*
X176558573Y-117283571D01*
X176701430Y-117355000D01*
X176772859Y-117426429D01*
X176844287Y-117569286D01*
X176844287Y-117712143D01*
X176772859Y-117926429D01*
X175915716Y-118783571D01*
X176844287Y-118783571D01*
X177701430Y-117926429D02*
X177558572Y-117855000D01*
X177487144Y-117783571D01*
X177415715Y-117640714D01*
X177415715Y-117569286D01*
X177487144Y-117426429D01*
X177558572Y-117355000D01*
X177701430Y-117283571D01*
X177987144Y-117283571D01*
X178130001Y-117355000D01*
X178201430Y-117426429D01*
X178272858Y-117569286D01*
X178272858Y-117640714D01*
X178201430Y-117783571D01*
X178130001Y-117855000D01*
X177987144Y-117926429D01*
X177701430Y-117926429D01*
X177558572Y-117997857D01*
X177487144Y-118069286D01*
X177415715Y-118212143D01*
X177415715Y-118497857D01*
X177487144Y-118640714D01*
X177558572Y-118712143D01*
X177701430Y-118783571D01*
X177987144Y-118783571D01*
X178130001Y-118712143D01*
X178201430Y-118640714D01*
X178272858Y-118497857D01*
X178272858Y-118212143D01*
X178201430Y-118069286D01*
X178130001Y-117997857D01*
X177987144Y-117926429D01*
X180058572Y-118783571D02*
X180058572Y-117283571D01*
X180058572Y-117997857D02*
X180915715Y-117997857D01*
X180915715Y-118783571D02*
X180915715Y-117283571D01*
X182487144Y-118640714D02*
X182415715Y-118712143D01*
X182201429Y-118783571D01*
X182058572Y-118783571D01*
X181844287Y-118712143D01*
X181701429Y-118569286D01*
X181630001Y-118426429D01*
X181558572Y-118140714D01*
X181558572Y-117926429D01*
X181630001Y-117640714D01*
X181701429Y-117497857D01*
X181844287Y-117355000D01*
X182058572Y-117283571D01*
X182201429Y-117283571D01*
X182415715Y-117355000D01*
X182487144Y-117426429D01*
X183130001Y-118212143D02*
X184272858Y-118212143D01*
X184915715Y-118712143D02*
X185130001Y-118783571D01*
X185487144Y-118783571D01*
X185630001Y-118712143D01*
X185701430Y-118640714D01*
X185772858Y-118497857D01*
X185772858Y-118355000D01*
X185701430Y-118212143D01*
X185630001Y-118140714D01*
X185487144Y-118069286D01*
X185201430Y-117997857D01*
X185058572Y-117926429D01*
X184987144Y-117855000D01*
X184915715Y-117712143D01*
X184915715Y-117569286D01*
X184987144Y-117426429D01*
X185058572Y-117355000D01*
X185201430Y-117283571D01*
X185558572Y-117283571D01*
X185772858Y-117355000D01*
X187272858Y-118783571D02*
X186772858Y-118069286D01*
X186415715Y-118783571D02*
X186415715Y-117283571D01*
X186987143Y-117283571D01*
X187130001Y-117355000D01*
X187201429Y-117426429D01*
X187272858Y-117569286D01*
X187272858Y-117783571D01*
X187201429Y-117926429D01*
X187130001Y-117997857D01*
X186987143Y-118069286D01*
X186415715Y-118069286D01*
X188201429Y-117283571D02*
X188344286Y-117283571D01*
X188487143Y-117355000D01*
X188558572Y-117426429D01*
X188630001Y-117569286D01*
X188701429Y-117855000D01*
X188701429Y-118212143D01*
X188630001Y-118497857D01*
X188558572Y-118640714D01*
X188487143Y-118712143D01*
X188344286Y-118783571D01*
X188201429Y-118783571D01*
X188058572Y-118712143D01*
X187987143Y-118640714D01*
X187915715Y-118497857D01*
X187844286Y-118212143D01*
X187844286Y-117855000D01*
X187915715Y-117569286D01*
X187987143Y-117426429D01*
X188058572Y-117355000D01*
X188201429Y-117283571D01*
X189987143Y-117783571D02*
X189987143Y-118783571D01*
X189630000Y-117212143D02*
X189272857Y-118283571D01*
X190201429Y-118283571D01*
X191915714Y-118783571D02*
X191915714Y-117283571D01*
X192272857Y-117283571D01*
X192487142Y-117355000D01*
X192630000Y-117497857D01*
X192701428Y-117640714D01*
X192772857Y-117926429D01*
X192772857Y-118140714D01*
X192701428Y-118426429D01*
X192630000Y-118569286D01*
X192487142Y-118712143D01*
X192272857Y-118783571D01*
X191915714Y-118783571D01*
X193415714Y-118783571D02*
X193415714Y-117283571D01*
X193915714Y-118355000D01*
X194415714Y-117283571D01*
X194415714Y-118783571D01*
X194987143Y-117283571D02*
X195987143Y-118783571D01*
X195987143Y-117283571D02*
X194987143Y-118783571D01*
X197487142Y-117283571D02*
X197987142Y-118783571D01*
X198487142Y-117283571D01*
X198987142Y-118640714D02*
X199058570Y-118712143D01*
X198987142Y-118783571D01*
X198915713Y-118712143D01*
X198987142Y-118640714D01*
X198987142Y-118783571D01*
X199987142Y-117283571D02*
X200129999Y-117283571D01*
X200272856Y-117355000D01*
X200344285Y-117426429D01*
X200415714Y-117569286D01*
X200487142Y-117855000D01*
X200487142Y-118212143D01*
X200415714Y-118497857D01*
X200344285Y-118640714D01*
X200272856Y-118712143D01*
X200129999Y-118783571D01*
X199987142Y-118783571D01*
X199844285Y-118712143D01*
X199772856Y-118640714D01*
X199701428Y-118497857D01*
X199629999Y-118212143D01*
X199629999Y-117855000D01*
X199701428Y-117569286D01*
X199772856Y-117426429D01*
X199844285Y-117355000D01*
X199987142Y-117283571D01*
X201415713Y-117283571D02*
X201558570Y-117283571D01*
X201701427Y-117355000D01*
X201772856Y-117426429D01*
X201844285Y-117569286D01*
X201915713Y-117855000D01*
X201915713Y-118212143D01*
X201844285Y-118497857D01*
X201772856Y-118640714D01*
X201701427Y-118712143D01*
X201558570Y-118783571D01*
X201415713Y-118783571D01*
X201272856Y-118712143D01*
X201201427Y-118640714D01*
X201129999Y-118497857D01*
X201058570Y-118212143D01*
X201058570Y-117855000D01*
X201129999Y-117569286D01*
X201201427Y-117426429D01*
X201272856Y-117355000D01*
X201415713Y-117283571D01*
X175987143Y-121333571D02*
X175987143Y-119833571D01*
X176487143Y-120905000D01*
X176987143Y-119833571D01*
X176987143Y-121333571D01*
X178344286Y-121333571D02*
X178344286Y-120547857D01*
X178272857Y-120405000D01*
X178130000Y-120333571D01*
X177844286Y-120333571D01*
X177701429Y-120405000D01*
X178344286Y-121262143D02*
X178201429Y-121333571D01*
X177844286Y-121333571D01*
X177701429Y-121262143D01*
X177630000Y-121119286D01*
X177630000Y-120976429D01*
X177701429Y-120833571D01*
X177844286Y-120762143D01*
X178201429Y-120762143D01*
X178344286Y-120690714D01*
X179701429Y-121333571D02*
X179701429Y-119833571D01*
X179701429Y-121262143D02*
X179558572Y-121333571D01*
X179272858Y-121333571D01*
X179130000Y-121262143D01*
X179058572Y-121190714D01*
X178987143Y-121047857D01*
X178987143Y-120619286D01*
X179058572Y-120476429D01*
X179130000Y-120405000D01*
X179272858Y-120333571D01*
X179558572Y-120333571D01*
X179701429Y-120405000D01*
X180987143Y-121262143D02*
X180844286Y-121333571D01*
X180558572Y-121333571D01*
X180415715Y-121262143D01*
X180344286Y-121119286D01*
X180344286Y-120547857D01*
X180415715Y-120405000D01*
X180558572Y-120333571D01*
X180844286Y-120333571D01*
X180987143Y-120405000D01*
X181058572Y-120547857D01*
X181058572Y-120690714D01*
X180344286Y-120833571D01*
X183344286Y-120547857D02*
X183558572Y-120619286D01*
X183630000Y-120690714D01*
X183701429Y-120833571D01*
X183701429Y-121047857D01*
X183630000Y-121190714D01*
X183558572Y-121262143D01*
X183415714Y-121333571D01*
X182844286Y-121333571D01*
X182844286Y-119833571D01*
X183344286Y-119833571D01*
X183487143Y-119905000D01*
X183558572Y-119976429D01*
X183630000Y-120119286D01*
X183630000Y-120262143D01*
X183558572Y-120405000D01*
X183487143Y-120476429D01*
X183344286Y-120547857D01*
X182844286Y-120547857D01*
X184201429Y-120333571D02*
X184558572Y-121333571D01*
X184915714Y-120333571D02*
X184558572Y-121333571D01*
X184415714Y-121690714D01*
X184344286Y-121762143D01*
X184201429Y-121833571D01*
X187487143Y-121333571D02*
X186987143Y-120619286D01*
X186630000Y-121333571D02*
X186630000Y-119833571D01*
X187201428Y-119833571D01*
X187344286Y-119905000D01*
X187415714Y-119976429D01*
X187487143Y-120119286D01*
X187487143Y-120333571D01*
X187415714Y-120476429D01*
X187344286Y-120547857D01*
X187201428Y-120619286D01*
X186630000Y-120619286D01*
X188130000Y-121333571D02*
X188130000Y-120333571D01*
X188130000Y-119833571D02*
X188058571Y-119905000D01*
X188130000Y-119976429D01*
X188201428Y-119905000D01*
X188130000Y-119833571D01*
X188130000Y-119976429D01*
X188844286Y-121333571D02*
X188844286Y-120333571D01*
X188844286Y-120619286D02*
X188915714Y-120476429D01*
X188987143Y-120405000D01*
X189130000Y-120333571D01*
X189272857Y-120333571D01*
X189772857Y-121333571D02*
X189772857Y-120333571D01*
X189772857Y-119833571D02*
X189701428Y-119905000D01*
X189772857Y-119976429D01*
X189844285Y-119905000D01*
X189772857Y-119833571D01*
X189772857Y-119976429D01*
D12*
X175240000Y-105920000D02*
X198140000Y-105920000D01*
X175240000Y-112520000D02*
X198140000Y-112520000D01*
X175240000Y-105920000D02*
X175240000Y-107368000D01*
X175240000Y-112520000D02*
X175240000Y-111057000D01*
X198140000Y-112520000D02*
X198140000Y-111057000D01*
X198140000Y-105920000D02*
X198140000Y-107368000D01*
D13*
X88646000Y-58420000D02*
G75*
G03X88646000Y-58420000I-2286000J0D01*
G01*
X88646000Y-121920000D02*
G75*
G03X88646000Y-121920000I-2286000J0D01*
G01*
X238506000Y-121920000D02*
G75*
G03X238506000Y-121920000I-2286000J0D01*
G01*
D12*
X105280000Y-65660000D02*
X105280000Y-81660000D01*
X105280000Y-81660000D02*
X90211000Y-81660000D01*
X105280000Y-65660000D02*
X90211000Y-65660000D01*
X81280000Y-65660000D02*
X81280000Y-81660000D01*
X81280000Y-81660000D02*
X86616000Y-81660000D01*
X81280000Y-65660000D02*
X86616000Y-65660000D01*
X97998270Y-82827000D02*
G75*
G03X97998270Y-82827000I-178270J0D01*
G01*
D13*
X208550000Y-77350000D02*
X206780000Y-77350000D01*
X206780000Y-77350000D02*
X206780000Y-97910000D01*
X206780000Y-97910000D02*
X212320000Y-97910000D01*
X212320000Y-97910000D02*
X212320000Y-77350000D01*
X212320000Y-77350000D02*
X210550000Y-77350000D01*
X204350000Y-77350000D02*
X204350000Y-97910000D01*
X204350000Y-97910000D02*
X214750000Y-97910000D01*
X214750000Y-97910000D02*
X214750000Y-77350000D01*
X214750000Y-77350000D02*
X204350000Y-77350000D01*
X210550000Y-77350000D02*
G75*
G02X208550000Y-77350000I-1000000J0D01*
G01*
D14*
X111760000Y-64770000D02*
X120650000Y-64770000D01*
X120650000Y-64770000D02*
X120650000Y-62230000D01*
X120650000Y-62230000D02*
X110490000Y-62230000D01*
X110490000Y-62230000D02*
X110490000Y-63500000D01*
X111760000Y-105410000D02*
X120650000Y-105410000D01*
X120650000Y-105410000D02*
X120650000Y-102870000D01*
X120650000Y-102870000D02*
X110490000Y-102870000D01*
X110490000Y-102870000D02*
X110490000Y-104140000D01*
D12*
X217300000Y-81660000D02*
X217300000Y-65660000D01*
X217300000Y-65660000D02*
X232369000Y-65660000D01*
X217300000Y-81660000D02*
X232369000Y-81660000D01*
X241300000Y-81660000D02*
X241300000Y-65660000D01*
X241300000Y-65660000D02*
X235964000Y-65660000D01*
X241300000Y-81660000D02*
X235964000Y-81660000D01*
X224938270Y-64493000D02*
G75*
G03X224938270Y-64493000I-178270J0D01*
G01*
D13*
X128210000Y-95310000D02*
X130870000Y-95310000D01*
X128210000Y-67310000D02*
X128210000Y-95310000D01*
X130870000Y-67310000D02*
X130870000Y-95310000D01*
X128210000Y-67310000D02*
X130870000Y-67310000D01*
X128210000Y-66040000D02*
X128210000Y-64710000D01*
X128210000Y-64710000D02*
X129540000Y-64710000D01*
X166310000Y-95310000D02*
X168970000Y-95310000D01*
X166310000Y-67310000D02*
X166310000Y-95310000D01*
X168970000Y-67310000D02*
X168970000Y-95310000D01*
X166310000Y-67310000D02*
X168970000Y-67310000D01*
X166310000Y-66040000D02*
X166310000Y-64710000D01*
X166310000Y-64710000D02*
X167640000Y-64710000D01*
X143450000Y-95310000D02*
X146110000Y-95310000D01*
X143450000Y-67310000D02*
X143450000Y-95310000D01*
X146110000Y-67310000D02*
X146110000Y-95310000D01*
X143450000Y-67310000D02*
X146110000Y-67310000D01*
X143450000Y-66040000D02*
X143450000Y-64710000D01*
X143450000Y-64710000D02*
X144780000Y-64710000D01*
X181550000Y-95310000D02*
X184210000Y-95310000D01*
X181550000Y-67310000D02*
X181550000Y-95310000D01*
X184210000Y-67310000D02*
X184210000Y-95310000D01*
X181550000Y-67310000D02*
X184210000Y-67310000D01*
X181550000Y-66040000D02*
X181550000Y-64710000D01*
X181550000Y-64710000D02*
X182880000Y-64710000D01*
D12*
X226910000Y-85270000D02*
X237910000Y-85270000D01*
X237910000Y-95070000D02*
X226910000Y-95070000D01*
X237910000Y-85270000D02*
X237910000Y-88870000D01*
X237910000Y-95070000D02*
X237910000Y-91470000D01*
X226910000Y-85270000D02*
X226910000Y-86170000D01*
X226910000Y-95070000D02*
X226910000Y-94170000D01*
X226910000Y-89020000D02*
X226910000Y-91320000D01*
D13*
X206197820Y-68035864D02*
G75*
G03X200162518Y-68035000I-3017820J-1179136D01*
G01*
X206197820Y-70394136D02*
G75*
G02X200162518Y-70395000I-3017820J1179136D01*
G01*
X206197820Y-70394136D02*
G75*
G03X206197482Y-68035000I-3017820J1179136D01*
G01*
X203180000Y-66015000D02*
X203180000Y-72415000D01*
X203220000Y-66015000D02*
X203220000Y-72415000D01*
X203260000Y-66015000D02*
X203260000Y-72415000D01*
X203300000Y-66017000D02*
X203300000Y-72413000D01*
X203340000Y-66018000D02*
X203340000Y-72412000D01*
X203380000Y-66021000D02*
X203380000Y-72409000D01*
X203420000Y-66023000D02*
X203420000Y-72407000D01*
X203460000Y-66027000D02*
X203460000Y-68235000D01*
X203460000Y-70195000D02*
X203460000Y-72403000D01*
X203500000Y-66030000D02*
X203500000Y-68235000D01*
X203500000Y-70195000D02*
X203500000Y-72400000D01*
X203540000Y-66035000D02*
X203540000Y-68235000D01*
X203540000Y-70195000D02*
X203540000Y-72395000D01*
X203580000Y-66039000D02*
X203580000Y-68235000D01*
X203580000Y-70195000D02*
X203580000Y-72391000D01*
X203620000Y-66045000D02*
X203620000Y-68235000D01*
X203620000Y-70195000D02*
X203620000Y-72385000D01*
X203660000Y-66050000D02*
X203660000Y-68235000D01*
X203660000Y-70195000D02*
X203660000Y-72380000D01*
X203700000Y-66057000D02*
X203700000Y-68235000D01*
X203700000Y-70195000D02*
X203700000Y-72373000D01*
X203740000Y-66063000D02*
X203740000Y-68235000D01*
X203740000Y-70195000D02*
X203740000Y-72367000D01*
X203780000Y-66071000D02*
X203780000Y-68235000D01*
X203780000Y-70195000D02*
X203780000Y-72359000D01*
X203820000Y-66078000D02*
X203820000Y-68235000D01*
X203820000Y-70195000D02*
X203820000Y-72352000D01*
X203860000Y-66087000D02*
X203860000Y-68235000D01*
X203860000Y-70195000D02*
X203860000Y-72343000D01*
X203901000Y-66096000D02*
X203901000Y-68235000D01*
X203901000Y-70195000D02*
X203901000Y-72334000D01*
X203941000Y-66105000D02*
X203941000Y-68235000D01*
X203941000Y-70195000D02*
X203941000Y-72325000D01*
X203981000Y-66115000D02*
X203981000Y-68235000D01*
X203981000Y-70195000D02*
X203981000Y-72315000D01*
X204021000Y-66125000D02*
X204021000Y-68235000D01*
X204021000Y-70195000D02*
X204021000Y-72305000D01*
X204061000Y-66136000D02*
X204061000Y-68235000D01*
X204061000Y-70195000D02*
X204061000Y-72294000D01*
X204101000Y-66148000D02*
X204101000Y-68235000D01*
X204101000Y-70195000D02*
X204101000Y-72282000D01*
X204141000Y-66160000D02*
X204141000Y-68235000D01*
X204141000Y-70195000D02*
X204141000Y-72270000D01*
X204181000Y-66173000D02*
X204181000Y-68235000D01*
X204181000Y-70195000D02*
X204181000Y-72257000D01*
X204221000Y-66186000D02*
X204221000Y-68235000D01*
X204221000Y-70195000D02*
X204221000Y-72244000D01*
X204261000Y-66200000D02*
X204261000Y-68235000D01*
X204261000Y-70195000D02*
X204261000Y-72230000D01*
X204301000Y-66214000D02*
X204301000Y-68235000D01*
X204301000Y-70195000D02*
X204301000Y-72216000D01*
X204341000Y-66229000D02*
X204341000Y-68235000D01*
X204341000Y-70195000D02*
X204341000Y-72201000D01*
X204381000Y-66245000D02*
X204381000Y-68235000D01*
X204381000Y-70195000D02*
X204381000Y-72185000D01*
X204421000Y-66261000D02*
X204421000Y-68235000D01*
X204421000Y-70195000D02*
X204421000Y-72169000D01*
X204461000Y-66278000D02*
X204461000Y-68235000D01*
X204461000Y-70195000D02*
X204461000Y-72152000D01*
X204501000Y-66296000D02*
X204501000Y-68235000D01*
X204501000Y-70195000D02*
X204501000Y-72134000D01*
X204541000Y-66314000D02*
X204541000Y-68235000D01*
X204541000Y-70195000D02*
X204541000Y-72116000D01*
X204581000Y-66333000D02*
X204581000Y-68235000D01*
X204581000Y-70195000D02*
X204581000Y-72097000D01*
X204621000Y-66352000D02*
X204621000Y-68235000D01*
X204621000Y-70195000D02*
X204621000Y-72078000D01*
X204661000Y-66372000D02*
X204661000Y-68235000D01*
X204661000Y-70195000D02*
X204661000Y-72058000D01*
X204701000Y-66393000D02*
X204701000Y-68235000D01*
X204701000Y-70195000D02*
X204701000Y-72037000D01*
X204741000Y-66415000D02*
X204741000Y-68235000D01*
X204741000Y-70195000D02*
X204741000Y-72015000D01*
X204781000Y-66437000D02*
X204781000Y-68235000D01*
X204781000Y-70195000D02*
X204781000Y-71993000D01*
X204821000Y-66460000D02*
X204821000Y-68235000D01*
X204821000Y-70195000D02*
X204821000Y-71970000D01*
X204861000Y-66484000D02*
X204861000Y-68235000D01*
X204861000Y-70195000D02*
X204861000Y-71946000D01*
X204901000Y-66509000D02*
X204901000Y-68235000D01*
X204901000Y-70195000D02*
X204901000Y-71921000D01*
X204941000Y-66534000D02*
X204941000Y-68235000D01*
X204941000Y-70195000D02*
X204941000Y-71896000D01*
X204981000Y-66561000D02*
X204981000Y-68235000D01*
X204981000Y-70195000D02*
X204981000Y-71869000D01*
X205021000Y-66588000D02*
X205021000Y-68235000D01*
X205021000Y-70195000D02*
X205021000Y-71842000D01*
X205061000Y-66616000D02*
X205061000Y-68235000D01*
X205061000Y-70195000D02*
X205061000Y-71814000D01*
X205101000Y-66645000D02*
X205101000Y-68235000D01*
X205101000Y-70195000D02*
X205101000Y-71785000D01*
X205141000Y-66675000D02*
X205141000Y-68235000D01*
X205141000Y-70195000D02*
X205141000Y-71755000D01*
X205181000Y-66705000D02*
X205181000Y-68235000D01*
X205181000Y-70195000D02*
X205181000Y-71725000D01*
X205221000Y-66737000D02*
X205221000Y-68235000D01*
X205221000Y-70195000D02*
X205221000Y-71693000D01*
X205261000Y-66770000D02*
X205261000Y-68235000D01*
X205261000Y-70195000D02*
X205261000Y-71660000D01*
X205301000Y-66804000D02*
X205301000Y-68235000D01*
X205301000Y-70195000D02*
X205301000Y-71626000D01*
X205341000Y-66840000D02*
X205341000Y-68235000D01*
X205341000Y-70195000D02*
X205341000Y-71590000D01*
X205381000Y-66876000D02*
X205381000Y-68235000D01*
X205381000Y-70195000D02*
X205381000Y-71554000D01*
X205421000Y-66914000D02*
X205421000Y-71516000D01*
X205461000Y-66953000D02*
X205461000Y-71477000D01*
X205501000Y-66993000D02*
X205501000Y-71437000D01*
X205541000Y-67035000D02*
X205541000Y-71395000D01*
X205581000Y-67078000D02*
X205581000Y-71352000D01*
X205621000Y-67123000D02*
X205621000Y-71307000D01*
X205661000Y-67170000D02*
X205661000Y-71260000D01*
X205701000Y-67218000D02*
X205701000Y-71212000D01*
X205741000Y-67269000D02*
X205741000Y-71161000D01*
X205781000Y-67321000D02*
X205781000Y-71109000D01*
X205821000Y-67376000D02*
X205821000Y-71054000D01*
X205861000Y-67434000D02*
X205861000Y-70996000D01*
X205901000Y-67494000D02*
X205901000Y-70936000D01*
X205941000Y-67557000D02*
X205941000Y-70873000D01*
X205981000Y-67624000D02*
X205981000Y-70806000D01*
X206021000Y-67695000D02*
X206021000Y-70735000D01*
X206061000Y-67770000D02*
X206061000Y-70660000D01*
X206101000Y-67851000D02*
X206101000Y-70579000D01*
X206141000Y-67937000D02*
X206141000Y-70493000D01*
X206181000Y-68031000D02*
X206181000Y-70399000D01*
X206221000Y-68134000D02*
X206221000Y-70296000D01*
X206261000Y-68249000D02*
X206261000Y-70181000D01*
X206301000Y-68381000D02*
X206301000Y-70049000D01*
X206341000Y-68539000D02*
X206341000Y-69891000D01*
X206381000Y-68747000D02*
X206381000Y-69683000D01*
X199730000Y-69215000D02*
X200930000Y-69215000D01*
X200330000Y-68565000D02*
X200330000Y-69865000D01*
D12*
X217300000Y-114680000D02*
X217300000Y-98680000D01*
X217300000Y-98680000D02*
X232369000Y-98680000D01*
X217300000Y-114680000D02*
X232369000Y-114680000D01*
X241300000Y-114680000D02*
X241300000Y-98680000D01*
X241300000Y-98680000D02*
X235964000Y-98680000D01*
X241300000Y-114680000D02*
X235964000Y-114680000D01*
X224938270Y-97513000D02*
G75*
G03X224938270Y-97513000I-178270J0D01*
G01*
D14*
X81384000Y-115750000D02*
X81384000Y-90750000D01*
X81384000Y-90750000D02*
X103584000Y-90750000D01*
X103584000Y-90750000D02*
X103584000Y-115750000D01*
X103584000Y-115750000D02*
X81384000Y-115750000D01*
D12*
X89997930Y-118353000D02*
G75*
G03X89997930Y-118353000I-333930J0D01*
G01*
D13*
X238506000Y-58420000D02*
G75*
G03X238506000Y-58420000I-2286000J0D01*
G01*
D15*
X136906000Y-104648000D02*
X138176000Y-101854000D01*
X138176000Y-101854000D02*
X139446000Y-104648000D01*
X133350000Y-104648000D02*
X134620000Y-101854000D01*
X134620000Y-101854000D02*
X135890000Y-104648000D01*
X129540000Y-104648000D02*
X130810000Y-101854000D01*
X130810000Y-101854000D02*
X132080000Y-104648000D01*
X128524000Y-105410000D02*
X127254000Y-103886000D01*
X128524000Y-108966000D02*
X128524000Y-105410000D01*
X128524000Y-108966000D02*
X128524000Y-105410000D01*
X128524000Y-105410000D02*
X127254000Y-103886000D01*
X127000000Y-110744000D02*
X128524000Y-108966000D01*
X126492000Y-109220000D02*
X127000000Y-110744000D01*
X126238000Y-107950000D02*
X126492000Y-109220000D01*
X126238000Y-107188000D02*
X126238000Y-107950000D01*
X126746000Y-105156000D02*
X126238000Y-107188000D01*
X127254000Y-103886000D02*
X126746000Y-105156000D01*
X141986000Y-103886000D02*
X142494000Y-105156000D01*
X142494000Y-105156000D02*
X143002000Y-107188000D01*
X143002000Y-107188000D02*
X143002000Y-107950000D01*
X143002000Y-107950000D02*
X142748000Y-109220000D01*
X142748000Y-109220000D02*
X142240000Y-110744000D01*
X142240000Y-110744000D02*
X140716000Y-108966000D01*
X140716000Y-105410000D02*
X141986000Y-103886000D01*
X140716000Y-108966000D02*
X140716000Y-105410000D01*
X140716000Y-108966000D02*
X140716000Y-105410000D01*
X140716000Y-105410000D02*
X141986000Y-103886000D01*
X128016000Y-110998000D02*
X128016000Y-112776000D01*
X128016000Y-112776000D02*
X130048000Y-114808000D01*
X130048000Y-114808000D02*
X130048000Y-110998000D01*
X138938000Y-110998000D02*
X138938000Y-114808000D01*
X138938000Y-114808000D02*
X140970000Y-113284000D01*
X140970000Y-113284000D02*
X140970000Y-110998000D01*
X129032000Y-109474000D02*
X128016000Y-110998000D01*
X130048000Y-110998000D02*
X129032000Y-109474000D01*
X139954000Y-109474000D02*
X140970000Y-110998000D01*
X138938000Y-110998000D02*
X139954000Y-109474000D01*
X143506371Y-107696000D02*
G75*
G03X143506371Y-107696000I-8886371J0D01*
G01*
X132080000Y-108204000D02*
X130810000Y-109728000D01*
X132080000Y-104648000D02*
X132080000Y-108204000D01*
X129540000Y-108204000D02*
X129540000Y-104648000D01*
X130810000Y-109728000D02*
X129540000Y-108204000D01*
X130810000Y-109728000D02*
X129540000Y-108204000D01*
X129540000Y-108204000D02*
X129540000Y-104648000D01*
X132080000Y-104648000D02*
X132080000Y-108204000D01*
X132080000Y-108204000D02*
X130810000Y-109728000D01*
X139446000Y-108204000D02*
X138176000Y-109728000D01*
X139446000Y-104648000D02*
X139446000Y-108204000D01*
X136906000Y-108204000D02*
X136906000Y-104648000D01*
X138176000Y-109728000D02*
X136906000Y-108204000D01*
X138176000Y-109728000D02*
X136906000Y-108204000D01*
X136906000Y-108204000D02*
X136906000Y-104648000D01*
X139446000Y-104648000D02*
X139446000Y-108204000D01*
X139446000Y-108204000D02*
X138176000Y-109728000D01*
X135890000Y-108204000D02*
X134620000Y-109728000D01*
X135890000Y-104648000D02*
X135890000Y-108204000D01*
X133350000Y-108204000D02*
X133350000Y-104648000D01*
X134620000Y-109728000D02*
X133350000Y-108204000D01*
X135382000Y-115570000D02*
X135382000Y-110998000D01*
X135382000Y-110998000D02*
X136398000Y-109474000D01*
X136398000Y-109474000D02*
X137414000Y-110998000D01*
X137414000Y-110998000D02*
X137414000Y-115316000D01*
X137414000Y-115316000D02*
X135382000Y-115570000D01*
X134620000Y-109728000D02*
X133350000Y-108204000D01*
X133350000Y-108204000D02*
X133350000Y-104648000D01*
X135890000Y-104648000D02*
X135890000Y-108204000D01*
X135890000Y-108204000D02*
X134620000Y-109728000D01*
X133604000Y-115570000D02*
X133604000Y-110998000D01*
X133604000Y-110998000D02*
X132588000Y-109474000D01*
X132588000Y-109474000D02*
X131572000Y-110998000D01*
X131572000Y-110998000D02*
X131572000Y-115316000D01*
X131572000Y-115316000D02*
X133604000Y-115570000D01*
D14*
X149300000Y-105120000D02*
X164900000Y-105120000D01*
X164900000Y-105120000D02*
X164900000Y-113320000D01*
X164900000Y-113320000D02*
X149300000Y-113320000D01*
X149300000Y-113320000D02*
X149300000Y-105120000D01*
D12*
X182396191Y-102779286D02*
X181972858Y-102779286D01*
X181972858Y-103444524D02*
X181972858Y-102174524D01*
X182577620Y-102174524D01*
X183605715Y-102597857D02*
X183605715Y-103444524D01*
X183061429Y-102597857D02*
X183061429Y-103263095D01*
X183121905Y-103384048D01*
X183242858Y-103444524D01*
X183424286Y-103444524D01*
X183545238Y-103384048D01*
X183605715Y-103323571D01*
X184150001Y-103384048D02*
X184270953Y-103444524D01*
X184512858Y-103444524D01*
X184633810Y-103384048D01*
X184694286Y-103263095D01*
X184694286Y-103202619D01*
X184633810Y-103081667D01*
X184512858Y-103021190D01*
X184331429Y-103021190D01*
X184210477Y-102960714D01*
X184150001Y-102839762D01*
X184150001Y-102779286D01*
X184210477Y-102658333D01*
X184331429Y-102597857D01*
X184512858Y-102597857D01*
X184633810Y-102658333D01*
X185238572Y-103444524D02*
X185238572Y-102597857D01*
X185238572Y-102174524D02*
X185178096Y-102235000D01*
X185238572Y-102295476D01*
X185299048Y-102235000D01*
X185238572Y-102174524D01*
X185238572Y-102295476D01*
X185843334Y-103444524D02*
X185843334Y-102174524D01*
X185843334Y-102658333D02*
X185964286Y-102597857D01*
X186206191Y-102597857D01*
X186327143Y-102658333D01*
X186387620Y-102718810D01*
X186448096Y-102839762D01*
X186448096Y-103202619D01*
X186387620Y-103323571D01*
X186327143Y-103384048D01*
X186206191Y-103444524D01*
X185964286Y-103444524D01*
X185843334Y-103384048D01*
X187173811Y-103444524D02*
X187052858Y-103384048D01*
X186992382Y-103263095D01*
X186992382Y-102174524D01*
X188141429Y-103384048D02*
X188020477Y-103444524D01*
X187778572Y-103444524D01*
X187657620Y-103384048D01*
X187597144Y-103263095D01*
X187597144Y-102779286D01*
X187657620Y-102658333D01*
X187778572Y-102597857D01*
X188020477Y-102597857D01*
X188141429Y-102658333D01*
X188201906Y-102779286D01*
X188201906Y-102900238D01*
X187597144Y-103021190D01*
X190318572Y-102174524D02*
X189713810Y-102174524D01*
X189653334Y-102779286D01*
X189713810Y-102718810D01*
X189834762Y-102658333D01*
X190137143Y-102658333D01*
X190258096Y-102718810D01*
X190318572Y-102779286D01*
X190379048Y-102900238D01*
X190379048Y-103202619D01*
X190318572Y-103323571D01*
X190258096Y-103384048D01*
X190137143Y-103444524D01*
X189834762Y-103444524D01*
X189713810Y-103384048D01*
X189653334Y-103323571D01*
X190862858Y-103081667D02*
X191467620Y-103081667D01*
X190741905Y-103444524D02*
X191165239Y-102174524D01*
X191588572Y-103444524D01*
D15*
X85788572Y-55300571D02*
X85455238Y-55300571D01*
X85455238Y-55824381D02*
X85455238Y-54824381D01*
X85931429Y-54824381D01*
X86312381Y-55824381D02*
X86312381Y-54824381D01*
X86693333Y-54824381D02*
X87360000Y-55824381D01*
X87360000Y-54824381D02*
X86693333Y-55824381D01*
X85788572Y-118800571D02*
X85455238Y-118800571D01*
X85455238Y-119324381D02*
X85455238Y-118324381D01*
X85931429Y-118324381D01*
X86312381Y-119324381D02*
X86312381Y-118324381D01*
X86693333Y-118324381D02*
X87360000Y-119324381D01*
X87360000Y-118324381D02*
X86693333Y-119324381D01*
X235648572Y-118800571D02*
X235315238Y-118800571D01*
X235315238Y-119324381D02*
X235315238Y-118324381D01*
X235791429Y-118324381D01*
X236172381Y-119324381D02*
X236172381Y-118324381D01*
X236553333Y-118324381D02*
X237220000Y-119324381D01*
X237220000Y-118324381D02*
X236553333Y-119324381D01*
D12*
X107254524Y-77984048D02*
X106649762Y-78407381D01*
X107254524Y-78709762D02*
X105984524Y-78709762D01*
X105984524Y-78225953D01*
X106045000Y-78105000D01*
X106105476Y-78044524D01*
X106226429Y-77984048D01*
X106407857Y-77984048D01*
X106528810Y-78044524D01*
X106589286Y-78105000D01*
X106649762Y-78225953D01*
X106649762Y-78709762D01*
X105984524Y-77076905D02*
X106891667Y-77076905D01*
X107073095Y-77137381D01*
X107194048Y-77258333D01*
X107254524Y-77439762D01*
X107254524Y-77560714D01*
X106407857Y-75927857D02*
X107254524Y-75927857D01*
X105924048Y-76230238D02*
X106831190Y-76532619D01*
X106831190Y-75746429D01*
X105984524Y-74657857D02*
X105984524Y-75262619D01*
X106589286Y-75323095D01*
X106528810Y-75262619D01*
X106468333Y-75141667D01*
X106468333Y-74839286D01*
X106528810Y-74718333D01*
X106589286Y-74657857D01*
X106710238Y-74597381D01*
X107012619Y-74597381D01*
X107133571Y-74657857D01*
X107194048Y-74718333D01*
X107254524Y-74839286D01*
X107254524Y-75141667D01*
X107194048Y-75262619D01*
X107133571Y-75323095D01*
X107375476Y-74355476D02*
X107375476Y-73387857D01*
X105984524Y-73206428D02*
X107254524Y-72904047D01*
X106347381Y-72662143D01*
X107254524Y-72420238D01*
X105984524Y-72117857D01*
X107194048Y-71694523D02*
X107254524Y-71513095D01*
X107254524Y-71210714D01*
X107194048Y-71089761D01*
X107133571Y-71029285D01*
X107012619Y-70968809D01*
X106891667Y-70968809D01*
X106770714Y-71029285D01*
X106710238Y-71089761D01*
X106649762Y-71210714D01*
X106589286Y-71452618D01*
X106528810Y-71573571D01*
X106468333Y-71634047D01*
X106347381Y-71694523D01*
X106226429Y-71694523D01*
X106105476Y-71634047D01*
X106045000Y-71573571D01*
X105984524Y-71452618D01*
X105984524Y-71150238D01*
X106045000Y-70968809D01*
X106105476Y-70484999D02*
X106045000Y-70424523D01*
X105984524Y-70303571D01*
X105984524Y-70001190D01*
X106045000Y-69880237D01*
X106105476Y-69819761D01*
X106226429Y-69759285D01*
X106347381Y-69759285D01*
X106528810Y-69819761D01*
X107254524Y-70545475D01*
X107254524Y-69759285D01*
X106528810Y-69033570D02*
X106468333Y-69154523D01*
X106407857Y-69214999D01*
X106286905Y-69275475D01*
X106226429Y-69275475D01*
X106105476Y-69214999D01*
X106045000Y-69154523D01*
X105984524Y-69033570D01*
X105984524Y-68791666D01*
X106045000Y-68670713D01*
X106105476Y-68610237D01*
X106226429Y-68549761D01*
X106286905Y-68549761D01*
X106407857Y-68610237D01*
X106468333Y-68670713D01*
X106528810Y-68791666D01*
X106528810Y-69033570D01*
X106589286Y-69154523D01*
X106649762Y-69214999D01*
X106770714Y-69275475D01*
X107012619Y-69275475D01*
X107133571Y-69214999D01*
X107194048Y-69154523D01*
X107254524Y-69033570D01*
X107254524Y-68791666D01*
X107194048Y-68670713D01*
X107133571Y-68610237D01*
X107012619Y-68549761D01*
X106770714Y-68549761D01*
X106649762Y-68610237D01*
X106589286Y-68670713D01*
X106528810Y-68791666D01*
D15*
X207716667Y-76707143D02*
X207669048Y-76754762D01*
X207526191Y-76802381D01*
X207430953Y-76802381D01*
X207288095Y-76754762D01*
X207192857Y-76659524D01*
X207145238Y-76564286D01*
X207097619Y-76373810D01*
X207097619Y-76230952D01*
X207145238Y-76040476D01*
X207192857Y-75945238D01*
X207288095Y-75850000D01*
X207430953Y-75802381D01*
X207526191Y-75802381D01*
X207669048Y-75850000D01*
X207716667Y-75897619D01*
X208145238Y-76802381D02*
X208145238Y-75802381D01*
X209050000Y-76135714D02*
X209050000Y-76802381D01*
X208811904Y-75754762D02*
X208573809Y-76469048D01*
X209192857Y-76469048D01*
X209764285Y-75802381D02*
X209859524Y-75802381D01*
X209954762Y-75850000D01*
X210002381Y-75897619D01*
X210050000Y-75992857D01*
X210097619Y-76183333D01*
X210097619Y-76421429D01*
X210050000Y-76611905D01*
X210002381Y-76707143D01*
X209954762Y-76754762D01*
X209859524Y-76802381D01*
X209764285Y-76802381D01*
X209669047Y-76754762D01*
X209621428Y-76707143D01*
X209573809Y-76611905D01*
X209526190Y-76421429D01*
X209526190Y-76183333D01*
X209573809Y-75992857D01*
X209621428Y-75897619D01*
X209669047Y-75850000D01*
X209764285Y-75802381D01*
X211002381Y-75802381D02*
X210526190Y-75802381D01*
X210478571Y-76278571D01*
X210526190Y-76230952D01*
X210621428Y-76183333D01*
X210859524Y-76183333D01*
X210954762Y-76230952D01*
X211002381Y-76278571D01*
X211050000Y-76373810D01*
X211050000Y-76611905D01*
X211002381Y-76707143D01*
X210954762Y-76754762D01*
X210859524Y-76802381D01*
X210621428Y-76802381D01*
X210526190Y-76754762D01*
X210478571Y-76707143D01*
X211383333Y-75802381D02*
X212002381Y-75802381D01*
X211669047Y-76183333D01*
X211811905Y-76183333D01*
X211907143Y-76230952D01*
X211954762Y-76278571D01*
X212002381Y-76373810D01*
X212002381Y-76611905D01*
X211954762Y-76707143D01*
X211907143Y-76754762D01*
X211811905Y-76802381D01*
X211526190Y-76802381D01*
X211430952Y-76754762D01*
X211383333Y-76707143D01*
D12*
X110792381Y-61534524D02*
X110792381Y-60264524D01*
X111215714Y-61171667D01*
X111639048Y-60264524D01*
X111639048Y-61534524D01*
X112485715Y-60264524D02*
X112727619Y-60264524D01*
X112848572Y-60325000D01*
X112969524Y-60445952D01*
X113030000Y-60687857D01*
X113030000Y-61111190D01*
X112969524Y-61353095D01*
X112848572Y-61474048D01*
X112727619Y-61534524D01*
X112485715Y-61534524D01*
X112364762Y-61474048D01*
X112243810Y-61353095D01*
X112183334Y-61111190D01*
X112183334Y-60687857D01*
X112243810Y-60445952D01*
X112364762Y-60325000D01*
X112485715Y-60264524D01*
X113574286Y-61534524D02*
X113574286Y-60264524D01*
X113876667Y-60264524D01*
X114058095Y-60325000D01*
X114179048Y-60445952D01*
X114239524Y-60566905D01*
X114300000Y-60808810D01*
X114300000Y-60990238D01*
X114239524Y-61232143D01*
X114179048Y-61353095D01*
X114058095Y-61474048D01*
X113876667Y-61534524D01*
X113574286Y-61534524D01*
X114541905Y-61655476D02*
X115509524Y-61655476D01*
X115811905Y-61534524D02*
X115811905Y-60264524D01*
X116114286Y-60264524D01*
X116295714Y-60325000D01*
X116416667Y-60445952D01*
X116477143Y-60566905D01*
X116537619Y-60808810D01*
X116537619Y-60990238D01*
X116477143Y-61232143D01*
X116416667Y-61353095D01*
X116295714Y-61474048D01*
X116114286Y-61534524D01*
X115811905Y-61534524D01*
X117081905Y-61534524D02*
X117081905Y-60264524D01*
X117505238Y-61171667D01*
X117928572Y-60264524D01*
X117928572Y-61534524D01*
X118412382Y-60264524D02*
X119259048Y-61534524D01*
X119259048Y-60264524D02*
X118412382Y-61534524D01*
X120408096Y-61534524D02*
X119682382Y-61534524D01*
X120045239Y-61534524D02*
X120045239Y-60264524D01*
X119924287Y-60445952D01*
X119803334Y-60566905D01*
X119682382Y-60627381D01*
X110792381Y-108524524D02*
X110792381Y-107254524D01*
X111215714Y-108161667D01*
X111639048Y-107254524D01*
X111639048Y-108524524D01*
X112485715Y-107254524D02*
X112727619Y-107254524D01*
X112848572Y-107315000D01*
X112969524Y-107435952D01*
X113030000Y-107677857D01*
X113030000Y-108101190D01*
X112969524Y-108343095D01*
X112848572Y-108464048D01*
X112727619Y-108524524D01*
X112485715Y-108524524D01*
X112364762Y-108464048D01*
X112243810Y-108343095D01*
X112183334Y-108101190D01*
X112183334Y-107677857D01*
X112243810Y-107435952D01*
X112364762Y-107315000D01*
X112485715Y-107254524D01*
X113574286Y-108524524D02*
X113574286Y-107254524D01*
X113876667Y-107254524D01*
X114058095Y-107315000D01*
X114179048Y-107435952D01*
X114239524Y-107556905D01*
X114300000Y-107798810D01*
X114300000Y-107980238D01*
X114239524Y-108222143D01*
X114179048Y-108343095D01*
X114058095Y-108464048D01*
X113876667Y-108524524D01*
X113574286Y-108524524D01*
X114541905Y-108645476D02*
X115509524Y-108645476D01*
X115811905Y-108524524D02*
X115811905Y-107254524D01*
X116114286Y-107254524D01*
X116295714Y-107315000D01*
X116416667Y-107435952D01*
X116477143Y-107556905D01*
X116537619Y-107798810D01*
X116537619Y-107980238D01*
X116477143Y-108222143D01*
X116416667Y-108343095D01*
X116295714Y-108464048D01*
X116114286Y-108524524D01*
X115811905Y-108524524D01*
X117081905Y-108524524D02*
X117081905Y-107254524D01*
X117505238Y-108161667D01*
X117928572Y-107254524D01*
X117928572Y-108524524D01*
X118412382Y-107254524D02*
X119259048Y-108524524D01*
X119259048Y-107254524D02*
X118412382Y-108524524D01*
X119682382Y-107375476D02*
X119742858Y-107315000D01*
X119863810Y-107254524D01*
X120166191Y-107254524D01*
X120287144Y-107315000D01*
X120347620Y-107375476D01*
X120408096Y-107496429D01*
X120408096Y-107617381D01*
X120347620Y-107798810D01*
X119621906Y-108524524D01*
X120408096Y-108524524D01*
X216474524Y-77681666D02*
X215869762Y-78104999D01*
X216474524Y-78407380D02*
X215204524Y-78407380D01*
X215204524Y-77923571D01*
X215265000Y-77802618D01*
X215325476Y-77742142D01*
X215446429Y-77681666D01*
X215627857Y-77681666D01*
X215748810Y-77742142D01*
X215809286Y-77802618D01*
X215869762Y-77923571D01*
X215869762Y-78407380D01*
X215204524Y-76774523D02*
X216111667Y-76774523D01*
X216293095Y-76834999D01*
X216414048Y-76955951D01*
X216474524Y-77137380D01*
X216474524Y-77258332D01*
X215627857Y-75625475D02*
X216474524Y-75625475D01*
X215144048Y-75927856D02*
X216051190Y-76230237D01*
X216051190Y-75444047D01*
X215204524Y-74355475D02*
X215204524Y-74960237D01*
X215809286Y-75020713D01*
X215748810Y-74960237D01*
X215688333Y-74839285D01*
X215688333Y-74536904D01*
X215748810Y-74415951D01*
X215809286Y-74355475D01*
X215930238Y-74294999D01*
X216232619Y-74294999D01*
X216353571Y-74355475D01*
X216414048Y-74415951D01*
X216474524Y-74536904D01*
X216474524Y-74839285D01*
X216414048Y-74960237D01*
X216353571Y-75020713D01*
X216595476Y-74053094D02*
X216595476Y-73085475D01*
X216111667Y-72843570D02*
X216111667Y-72238808D01*
X216474524Y-72964523D02*
X215204524Y-72541189D01*
X216474524Y-72117856D01*
X215809286Y-71271190D02*
X215809286Y-71694523D01*
X216474524Y-71694523D02*
X215204524Y-71694523D01*
X215204524Y-71089761D01*
X215809286Y-70182619D02*
X215809286Y-70605952D01*
X216474524Y-70605952D02*
X215204524Y-70605952D01*
X215204524Y-70001190D01*
X216474524Y-68852143D02*
X216474524Y-69577857D01*
X216474524Y-69215000D02*
X215204524Y-69215000D01*
X215385952Y-69335952D01*
X215506905Y-69456905D01*
X215567381Y-69577857D01*
D15*
X127897143Y-63495714D02*
X127897143Y-64162381D01*
X127468571Y-63495714D02*
X127468571Y-64019524D01*
X127516190Y-64114762D01*
X127611428Y-64162381D01*
X127754286Y-64162381D01*
X127849524Y-64114762D01*
X127897143Y-64067143D01*
X127611428Y-63114762D02*
X127754286Y-63257619D01*
X128135238Y-64257619D02*
X128897143Y-64257619D01*
X129659048Y-64162381D02*
X129087619Y-64162381D01*
X129373333Y-64162381D02*
X129373333Y-63162381D01*
X129278095Y-63305238D01*
X129182857Y-63400476D01*
X129087619Y-63448095D01*
X130801905Y-63114762D02*
X129944762Y-64400476D01*
X131659048Y-64162381D02*
X131087619Y-64162381D01*
X131373333Y-64162381D02*
X131373333Y-63162381D01*
X131278095Y-63305238D01*
X131182857Y-63400476D01*
X131087619Y-63448095D01*
X165997143Y-63495714D02*
X165997143Y-64162381D01*
X165568571Y-63495714D02*
X165568571Y-64019524D01*
X165616190Y-64114762D01*
X165711428Y-64162381D01*
X165854286Y-64162381D01*
X165949524Y-64114762D01*
X165997143Y-64067143D01*
X165711428Y-63114762D02*
X165854286Y-63257619D01*
X166235238Y-64257619D02*
X166997143Y-64257619D01*
X167759048Y-64162381D02*
X167187619Y-64162381D01*
X167473333Y-64162381D02*
X167473333Y-63162381D01*
X167378095Y-63305238D01*
X167282857Y-63400476D01*
X167187619Y-63448095D01*
X168901905Y-63114762D02*
X168044762Y-64400476D01*
X169187619Y-63257619D02*
X169235238Y-63210000D01*
X169330476Y-63162381D01*
X169568572Y-63162381D01*
X169663810Y-63210000D01*
X169711429Y-63257619D01*
X169759048Y-63352857D01*
X169759048Y-63448095D01*
X169711429Y-63590952D01*
X169140000Y-64162381D01*
X169759048Y-64162381D01*
X143137143Y-63495714D02*
X143137143Y-64162381D01*
X142708571Y-63495714D02*
X142708571Y-64019524D01*
X142756190Y-64114762D01*
X142851428Y-64162381D01*
X142994286Y-64162381D01*
X143089524Y-64114762D01*
X143137143Y-64067143D01*
X142851428Y-63114762D02*
X142994286Y-63257619D01*
X143375238Y-64257619D02*
X144137143Y-64257619D01*
X144327619Y-63257619D02*
X144375238Y-63210000D01*
X144470476Y-63162381D01*
X144708572Y-63162381D01*
X144803810Y-63210000D01*
X144851429Y-63257619D01*
X144899048Y-63352857D01*
X144899048Y-63448095D01*
X144851429Y-63590952D01*
X144280000Y-64162381D01*
X144899048Y-64162381D01*
X146041905Y-63114762D02*
X145184762Y-64400476D01*
X146899048Y-64162381D02*
X146327619Y-64162381D01*
X146613333Y-64162381D02*
X146613333Y-63162381D01*
X146518095Y-63305238D01*
X146422857Y-63400476D01*
X146327619Y-63448095D01*
X181237143Y-63495714D02*
X181237143Y-64162381D01*
X180808571Y-63495714D02*
X180808571Y-64019524D01*
X180856190Y-64114762D01*
X180951428Y-64162381D01*
X181094286Y-64162381D01*
X181189524Y-64114762D01*
X181237143Y-64067143D01*
X180951428Y-63114762D02*
X181094286Y-63257619D01*
X181475238Y-64257619D02*
X182237143Y-64257619D01*
X182427619Y-63257619D02*
X182475238Y-63210000D01*
X182570476Y-63162381D01*
X182808572Y-63162381D01*
X182903810Y-63210000D01*
X182951429Y-63257619D01*
X182999048Y-63352857D01*
X182999048Y-63448095D01*
X182951429Y-63590952D01*
X182380000Y-64162381D01*
X182999048Y-64162381D01*
X184141905Y-63114762D02*
X183284762Y-64400476D01*
X184427619Y-63257619D02*
X184475238Y-63210000D01*
X184570476Y-63162381D01*
X184808572Y-63162381D01*
X184903810Y-63210000D01*
X184951429Y-63257619D01*
X184999048Y-63352857D01*
X184999048Y-63448095D01*
X184951429Y-63590952D01*
X184380000Y-64162381D01*
X184999048Y-64162381D01*
X152098571Y-83986667D02*
X152574762Y-83986667D01*
X152003333Y-84272381D02*
X152336666Y-83272381D01*
X152670000Y-84272381D01*
X153193809Y-83272381D02*
X153289048Y-83272381D01*
X153384286Y-83320000D01*
X153431905Y-83367619D01*
X153479524Y-83462857D01*
X153527143Y-83653333D01*
X153527143Y-83891429D01*
X153479524Y-84081905D01*
X153431905Y-84177143D01*
X153384286Y-84224762D01*
X153289048Y-84272381D01*
X153193809Y-84272381D01*
X153098571Y-84224762D01*
X153050952Y-84177143D01*
X153003333Y-84081905D01*
X152955714Y-83891429D01*
X152955714Y-83653333D01*
X153003333Y-83462857D01*
X153050952Y-83367619D01*
X153098571Y-83320000D01*
X153193809Y-83272381D01*
X153717619Y-84367619D02*
X154479524Y-84367619D01*
X155241429Y-84272381D02*
X154670000Y-84272381D01*
X154955714Y-84272381D02*
X154955714Y-83272381D01*
X154860476Y-83415238D01*
X154765238Y-83510476D01*
X154670000Y-83558095D01*
X152098571Y-81446667D02*
X152574762Y-81446667D01*
X152003333Y-81732381D02*
X152336666Y-80732381D01*
X152670000Y-81732381D01*
X153527143Y-81732381D02*
X152955714Y-81732381D01*
X153241428Y-81732381D02*
X153241428Y-80732381D01*
X153146190Y-80875238D01*
X153050952Y-80970476D01*
X152955714Y-81018095D01*
X153717619Y-81827619D02*
X154479524Y-81827619D01*
X155241429Y-81732381D02*
X154670000Y-81732381D01*
X154955714Y-81732381D02*
X154955714Y-80732381D01*
X154860476Y-80875238D01*
X154765238Y-80970476D01*
X154670000Y-81018095D01*
X152098571Y-78906667D02*
X152574762Y-78906667D01*
X152003333Y-79192381D02*
X152336666Y-78192381D01*
X152670000Y-79192381D01*
X152955714Y-78287619D02*
X153003333Y-78240000D01*
X153098571Y-78192381D01*
X153336667Y-78192381D01*
X153431905Y-78240000D01*
X153479524Y-78287619D01*
X153527143Y-78382857D01*
X153527143Y-78478095D01*
X153479524Y-78620952D01*
X152908095Y-79192381D01*
X153527143Y-79192381D01*
X153717619Y-79287619D02*
X154479524Y-79287619D01*
X155241429Y-79192381D02*
X154670000Y-79192381D01*
X154955714Y-79192381D02*
X154955714Y-78192381D01*
X154860476Y-78335238D01*
X154765238Y-78430476D01*
X154670000Y-78478095D01*
X152098571Y-76366667D02*
X152574762Y-76366667D01*
X152003333Y-76652381D02*
X152336666Y-75652381D01*
X152670000Y-76652381D01*
X152908095Y-75652381D02*
X153527143Y-75652381D01*
X153193809Y-76033333D01*
X153336667Y-76033333D01*
X153431905Y-76080952D01*
X153479524Y-76128571D01*
X153527143Y-76223810D01*
X153527143Y-76461905D01*
X153479524Y-76557143D01*
X153431905Y-76604762D01*
X153336667Y-76652381D01*
X153050952Y-76652381D01*
X152955714Y-76604762D01*
X152908095Y-76557143D01*
X153717619Y-76747619D02*
X154479524Y-76747619D01*
X155241429Y-76652381D02*
X154670000Y-76652381D01*
X154955714Y-76652381D02*
X154955714Y-75652381D01*
X154860476Y-75795238D01*
X154765238Y-75890476D01*
X154670000Y-75938095D01*
X119078571Y-86526667D02*
X119554762Y-86526667D01*
X118983333Y-86812381D02*
X119316666Y-85812381D01*
X119650000Y-86812381D01*
X119888095Y-85812381D02*
X120554762Y-85812381D01*
X120126190Y-86812381D01*
X120697619Y-86907619D02*
X121459524Y-86907619D01*
X122221429Y-86812381D02*
X121650000Y-86812381D01*
X121935714Y-86812381D02*
X121935714Y-85812381D01*
X121840476Y-85955238D01*
X121745238Y-86050476D01*
X121650000Y-86098095D01*
X119078571Y-94146667D02*
X119554762Y-94146667D01*
X118983333Y-94432381D02*
X119316666Y-93432381D01*
X119650000Y-94432381D01*
X120030952Y-94432381D02*
X120221428Y-94432381D01*
X120316667Y-94384762D01*
X120364286Y-94337143D01*
X120459524Y-94194286D01*
X120507143Y-94003810D01*
X120507143Y-93622857D01*
X120459524Y-93527619D01*
X120411905Y-93480000D01*
X120316667Y-93432381D01*
X120126190Y-93432381D01*
X120030952Y-93480000D01*
X119983333Y-93527619D01*
X119935714Y-93622857D01*
X119935714Y-93860952D01*
X119983333Y-93956190D01*
X120030952Y-94003810D01*
X120126190Y-94051429D01*
X120316667Y-94051429D01*
X120411905Y-94003810D01*
X120459524Y-93956190D01*
X120507143Y-93860952D01*
X120697619Y-94527619D02*
X121459524Y-94527619D01*
X122221429Y-94432381D02*
X121650000Y-94432381D01*
X121935714Y-94432381D02*
X121935714Y-93432381D01*
X121840476Y-93575238D01*
X121745238Y-93670476D01*
X121650000Y-93718095D01*
X151241429Y-89352381D02*
X151241429Y-88352381D01*
X151574763Y-89066667D01*
X151908096Y-88352381D01*
X151908096Y-89352381D01*
X152384286Y-89352381D02*
X152384286Y-88352381D01*
X152812857Y-89304762D02*
X152955714Y-89352381D01*
X153193810Y-89352381D01*
X153289048Y-89304762D01*
X153336667Y-89257143D01*
X153384286Y-89161905D01*
X153384286Y-89066667D01*
X153336667Y-88971429D01*
X153289048Y-88923810D01*
X153193810Y-88876190D01*
X153003333Y-88828571D01*
X152908095Y-88780952D01*
X152860476Y-88733333D01*
X152812857Y-88638095D01*
X152812857Y-88542857D01*
X152860476Y-88447619D01*
X152908095Y-88400000D01*
X153003333Y-88352381D01*
X153241429Y-88352381D01*
X153384286Y-88400000D01*
X154003333Y-88352381D02*
X154193810Y-88352381D01*
X154289048Y-88400000D01*
X154384286Y-88495238D01*
X154431905Y-88685714D01*
X154431905Y-89019048D01*
X154384286Y-89209524D01*
X154289048Y-89304762D01*
X154193810Y-89352381D01*
X154003333Y-89352381D01*
X153908095Y-89304762D01*
X153812857Y-89209524D01*
X153765238Y-89019048D01*
X153765238Y-88685714D01*
X153812857Y-88495238D01*
X153908095Y-88400000D01*
X154003333Y-88352381D01*
X154622381Y-89447619D02*
X155384286Y-89447619D01*
X156146191Y-89352381D02*
X155574762Y-89352381D01*
X155860476Y-89352381D02*
X155860476Y-88352381D01*
X155765238Y-88495238D01*
X155670000Y-88590476D01*
X155574762Y-88638095D01*
D12*
X225364524Y-90381667D02*
X224759762Y-90805000D01*
X225364524Y-91107381D02*
X224094524Y-91107381D01*
X224094524Y-90623572D01*
X224155000Y-90502619D01*
X224215476Y-90442143D01*
X224336429Y-90381667D01*
X224517857Y-90381667D01*
X224638810Y-90442143D01*
X224699286Y-90502619D01*
X224759762Y-90623572D01*
X224759762Y-91107381D01*
X225364524Y-89172143D02*
X225364524Y-89897857D01*
X225364524Y-89535000D02*
X224094524Y-89535000D01*
X224275952Y-89655952D01*
X224396905Y-89776905D01*
X224457381Y-89897857D01*
D15*
X152122381Y-66492381D02*
X151789047Y-66016190D01*
X151550952Y-66492381D02*
X151550952Y-65492381D01*
X151931905Y-65492381D01*
X152027143Y-65540000D01*
X152074762Y-65587619D01*
X152122381Y-65682857D01*
X152122381Y-65825714D01*
X152074762Y-65920952D01*
X152027143Y-65968571D01*
X151931905Y-66016190D01*
X151550952Y-66016190D01*
X152503333Y-66206667D02*
X152979524Y-66206667D01*
X152408095Y-66492381D02*
X152741428Y-65492381D01*
X153074762Y-66492381D01*
X153312857Y-65492381D02*
X153550952Y-66492381D01*
X153741429Y-65778095D01*
X153931905Y-66492381D01*
X154170000Y-65492381D01*
X154312857Y-66587619D02*
X155074762Y-66587619D01*
X155836667Y-66492381D02*
X155265238Y-66492381D01*
X155550952Y-66492381D02*
X155550952Y-65492381D01*
X155455714Y-65635238D01*
X155360476Y-65730476D01*
X155265238Y-65778095D01*
X152265238Y-71572381D02*
X151931904Y-71096190D01*
X151693809Y-71572381D02*
X151693809Y-70572381D01*
X152074762Y-70572381D01*
X152170000Y-70620000D01*
X152217619Y-70667619D01*
X152265238Y-70762857D01*
X152265238Y-70905714D01*
X152217619Y-71000952D01*
X152170000Y-71048571D01*
X152074762Y-71096190D01*
X151693809Y-71096190D01*
X152646190Y-71524762D02*
X152789047Y-71572381D01*
X153027143Y-71572381D01*
X153122381Y-71524762D01*
X153170000Y-71477143D01*
X153217619Y-71381905D01*
X153217619Y-71286667D01*
X153170000Y-71191429D01*
X153122381Y-71143810D01*
X153027143Y-71096190D01*
X152836666Y-71048571D01*
X152741428Y-71000952D01*
X152693809Y-70953333D01*
X152646190Y-70858095D01*
X152646190Y-70762857D01*
X152693809Y-70667619D01*
X152741428Y-70620000D01*
X152836666Y-70572381D01*
X153074762Y-70572381D01*
X153217619Y-70620000D01*
X153503333Y-70572381D02*
X154074762Y-70572381D01*
X153789047Y-71572381D02*
X153789047Y-70572381D01*
X154170000Y-71667619D02*
X154931905Y-71667619D01*
X155693810Y-71572381D02*
X155122381Y-71572381D01*
X155408095Y-71572381D02*
X155408095Y-70572381D01*
X155312857Y-70715238D01*
X155217619Y-70810476D01*
X155122381Y-70858095D01*
X119626191Y-69032381D02*
X119292857Y-68556190D01*
X119054762Y-69032381D02*
X119054762Y-68032381D01*
X119435715Y-68032381D01*
X119530953Y-68080000D01*
X119578572Y-68127619D01*
X119626191Y-68222857D01*
X119626191Y-68365714D01*
X119578572Y-68460952D01*
X119530953Y-68508571D01*
X119435715Y-68556190D01*
X119054762Y-68556190D01*
X119959524Y-68032381D02*
X120626191Y-69032381D01*
X120626191Y-68032381D02*
X119959524Y-69032381D01*
X120769048Y-69127619D02*
X121530953Y-69127619D01*
X122292858Y-69032381D02*
X121721429Y-69032381D01*
X122007143Y-69032381D02*
X122007143Y-68032381D01*
X121911905Y-68175238D01*
X121816667Y-68270476D01*
X121721429Y-68318095D01*
X119030952Y-65492381D02*
X119602381Y-65492381D01*
X119316666Y-66492381D02*
X119316666Y-65492381D01*
X119840476Y-65492381D02*
X120507143Y-66492381D01*
X120507143Y-65492381D02*
X119840476Y-66492381D01*
X120650000Y-66587619D02*
X121411905Y-66587619D01*
X122173810Y-66492381D02*
X121602381Y-66492381D01*
X121888095Y-66492381D02*
X121888095Y-65492381D01*
X121792857Y-65635238D01*
X121697619Y-65730476D01*
X121602381Y-65778095D01*
X190198571Y-83986667D02*
X190674762Y-83986667D01*
X190103333Y-84272381D02*
X190436666Y-83272381D01*
X190770000Y-84272381D01*
X191293809Y-83272381D02*
X191389048Y-83272381D01*
X191484286Y-83320000D01*
X191531905Y-83367619D01*
X191579524Y-83462857D01*
X191627143Y-83653333D01*
X191627143Y-83891429D01*
X191579524Y-84081905D01*
X191531905Y-84177143D01*
X191484286Y-84224762D01*
X191389048Y-84272381D01*
X191293809Y-84272381D01*
X191198571Y-84224762D01*
X191150952Y-84177143D01*
X191103333Y-84081905D01*
X191055714Y-83891429D01*
X191055714Y-83653333D01*
X191103333Y-83462857D01*
X191150952Y-83367619D01*
X191198571Y-83320000D01*
X191293809Y-83272381D01*
X191817619Y-84367619D02*
X192579524Y-84367619D01*
X192770000Y-83367619D02*
X192817619Y-83320000D01*
X192912857Y-83272381D01*
X193150953Y-83272381D01*
X193246191Y-83320000D01*
X193293810Y-83367619D01*
X193341429Y-83462857D01*
X193341429Y-83558095D01*
X193293810Y-83700952D01*
X192722381Y-84272381D01*
X193341429Y-84272381D01*
X190198571Y-81446667D02*
X190674762Y-81446667D01*
X190103333Y-81732381D02*
X190436666Y-80732381D01*
X190770000Y-81732381D01*
X191627143Y-81732381D02*
X191055714Y-81732381D01*
X191341428Y-81732381D02*
X191341428Y-80732381D01*
X191246190Y-80875238D01*
X191150952Y-80970476D01*
X191055714Y-81018095D01*
X191817619Y-81827619D02*
X192579524Y-81827619D01*
X192770000Y-80827619D02*
X192817619Y-80780000D01*
X192912857Y-80732381D01*
X193150953Y-80732381D01*
X193246191Y-80780000D01*
X193293810Y-80827619D01*
X193341429Y-80922857D01*
X193341429Y-81018095D01*
X193293810Y-81160952D01*
X192722381Y-81732381D01*
X193341429Y-81732381D01*
X190198571Y-78906667D02*
X190674762Y-78906667D01*
X190103333Y-79192381D02*
X190436666Y-78192381D01*
X190770000Y-79192381D01*
X191055714Y-78287619D02*
X191103333Y-78240000D01*
X191198571Y-78192381D01*
X191436667Y-78192381D01*
X191531905Y-78240000D01*
X191579524Y-78287619D01*
X191627143Y-78382857D01*
X191627143Y-78478095D01*
X191579524Y-78620952D01*
X191008095Y-79192381D01*
X191627143Y-79192381D01*
X191817619Y-79287619D02*
X192579524Y-79287619D01*
X192770000Y-78287619D02*
X192817619Y-78240000D01*
X192912857Y-78192381D01*
X193150953Y-78192381D01*
X193246191Y-78240000D01*
X193293810Y-78287619D01*
X193341429Y-78382857D01*
X193341429Y-78478095D01*
X193293810Y-78620952D01*
X192722381Y-79192381D01*
X193341429Y-79192381D01*
X190198571Y-76366667D02*
X190674762Y-76366667D01*
X190103333Y-76652381D02*
X190436666Y-75652381D01*
X190770000Y-76652381D01*
X191008095Y-75652381D02*
X191627143Y-75652381D01*
X191293809Y-76033333D01*
X191436667Y-76033333D01*
X191531905Y-76080952D01*
X191579524Y-76128571D01*
X191627143Y-76223810D01*
X191627143Y-76461905D01*
X191579524Y-76557143D01*
X191531905Y-76604762D01*
X191436667Y-76652381D01*
X191150952Y-76652381D01*
X191055714Y-76604762D01*
X191008095Y-76557143D01*
X191817619Y-76747619D02*
X192579524Y-76747619D01*
X192770000Y-75747619D02*
X192817619Y-75700000D01*
X192912857Y-75652381D01*
X193150953Y-75652381D01*
X193246191Y-75700000D01*
X193293810Y-75747619D01*
X193341429Y-75842857D01*
X193341429Y-75938095D01*
X193293810Y-76080952D01*
X192722381Y-76652381D01*
X193341429Y-76652381D01*
X157178571Y-81446667D02*
X157654762Y-81446667D01*
X157083333Y-81732381D02*
X157416666Y-80732381D01*
X157750000Y-81732381D01*
X158511905Y-80732381D02*
X158321428Y-80732381D01*
X158226190Y-80780000D01*
X158178571Y-80827619D01*
X158083333Y-80970476D01*
X158035714Y-81160952D01*
X158035714Y-81541905D01*
X158083333Y-81637143D01*
X158130952Y-81684762D01*
X158226190Y-81732381D01*
X158416667Y-81732381D01*
X158511905Y-81684762D01*
X158559524Y-81637143D01*
X158607143Y-81541905D01*
X158607143Y-81303810D01*
X158559524Y-81208571D01*
X158511905Y-81160952D01*
X158416667Y-81113333D01*
X158226190Y-81113333D01*
X158130952Y-81160952D01*
X158083333Y-81208571D01*
X158035714Y-81303810D01*
X158797619Y-81827619D02*
X159559524Y-81827619D01*
X159750000Y-80827619D02*
X159797619Y-80780000D01*
X159892857Y-80732381D01*
X160130953Y-80732381D01*
X160226191Y-80780000D01*
X160273810Y-80827619D01*
X160321429Y-80922857D01*
X160321429Y-81018095D01*
X160273810Y-81160952D01*
X159702381Y-81732381D01*
X160321429Y-81732381D01*
X157178571Y-91606667D02*
X157654762Y-91606667D01*
X157083333Y-91892381D02*
X157416666Y-90892381D01*
X157750000Y-91892381D01*
X158226190Y-91320952D02*
X158130952Y-91273333D01*
X158083333Y-91225714D01*
X158035714Y-91130476D01*
X158035714Y-91082857D01*
X158083333Y-90987619D01*
X158130952Y-90940000D01*
X158226190Y-90892381D01*
X158416667Y-90892381D01*
X158511905Y-90940000D01*
X158559524Y-90987619D01*
X158607143Y-91082857D01*
X158607143Y-91130476D01*
X158559524Y-91225714D01*
X158511905Y-91273333D01*
X158416667Y-91320952D01*
X158226190Y-91320952D01*
X158130952Y-91368571D01*
X158083333Y-91416190D01*
X158035714Y-91511429D01*
X158035714Y-91701905D01*
X158083333Y-91797143D01*
X158130952Y-91844762D01*
X158226190Y-91892381D01*
X158416667Y-91892381D01*
X158511905Y-91844762D01*
X158559524Y-91797143D01*
X158607143Y-91701905D01*
X158607143Y-91511429D01*
X158559524Y-91416190D01*
X158511905Y-91368571D01*
X158416667Y-91320952D01*
X158797619Y-91987619D02*
X159559524Y-91987619D01*
X159750000Y-90987619D02*
X159797619Y-90940000D01*
X159892857Y-90892381D01*
X160130953Y-90892381D01*
X160226191Y-90940000D01*
X160273810Y-90987619D01*
X160321429Y-91082857D01*
X160321429Y-91178095D01*
X160273810Y-91320952D01*
X159702381Y-91892381D01*
X160321429Y-91892381D01*
X157178571Y-94146667D02*
X157654762Y-94146667D01*
X157083333Y-94432381D02*
X157416666Y-93432381D01*
X157750000Y-94432381D01*
X158130952Y-94432381D02*
X158321428Y-94432381D01*
X158416667Y-94384762D01*
X158464286Y-94337143D01*
X158559524Y-94194286D01*
X158607143Y-94003810D01*
X158607143Y-93622857D01*
X158559524Y-93527619D01*
X158511905Y-93480000D01*
X158416667Y-93432381D01*
X158226190Y-93432381D01*
X158130952Y-93480000D01*
X158083333Y-93527619D01*
X158035714Y-93622857D01*
X158035714Y-93860952D01*
X158083333Y-93956190D01*
X158130952Y-94003810D01*
X158226190Y-94051429D01*
X158416667Y-94051429D01*
X158511905Y-94003810D01*
X158559524Y-93956190D01*
X158607143Y-93860952D01*
X158797619Y-94527619D02*
X159559524Y-94527619D01*
X159750000Y-93527619D02*
X159797619Y-93480000D01*
X159892857Y-93432381D01*
X160130953Y-93432381D01*
X160226191Y-93480000D01*
X160273810Y-93527619D01*
X160321429Y-93622857D01*
X160321429Y-93718095D01*
X160273810Y-93860952D01*
X159702381Y-94432381D01*
X160321429Y-94432381D01*
X189722381Y-94146667D02*
X190198572Y-94146667D01*
X189627143Y-94432381D02*
X189960476Y-93432381D01*
X190293810Y-94432381D01*
X191150953Y-94432381D02*
X190579524Y-94432381D01*
X190865238Y-94432381D02*
X190865238Y-93432381D01*
X190770000Y-93575238D01*
X190674762Y-93670476D01*
X190579524Y-93718095D01*
X191770000Y-93432381D02*
X191865239Y-93432381D01*
X191960477Y-93480000D01*
X192008096Y-93527619D01*
X192055715Y-93622857D01*
X192103334Y-93813333D01*
X192103334Y-94051429D01*
X192055715Y-94241905D01*
X192008096Y-94337143D01*
X191960477Y-94384762D01*
X191865239Y-94432381D01*
X191770000Y-94432381D01*
X191674762Y-94384762D01*
X191627143Y-94337143D01*
X191579524Y-94241905D01*
X191531905Y-94051429D01*
X191531905Y-93813333D01*
X191579524Y-93622857D01*
X191627143Y-93527619D01*
X191674762Y-93480000D01*
X191770000Y-93432381D01*
X192293810Y-94527619D02*
X193055715Y-94527619D01*
X193246191Y-93527619D02*
X193293810Y-93480000D01*
X193389048Y-93432381D01*
X193627144Y-93432381D01*
X193722382Y-93480000D01*
X193770001Y-93527619D01*
X193817620Y-93622857D01*
X193817620Y-93718095D01*
X193770001Y-93860952D01*
X193198572Y-94432381D01*
X193817620Y-94432381D01*
X220575239Y-88828571D02*
X220718096Y-88876190D01*
X220765715Y-88923810D01*
X220813334Y-89019048D01*
X220813334Y-89161905D01*
X220765715Y-89257143D01*
X220718096Y-89304762D01*
X220622858Y-89352381D01*
X220241905Y-89352381D01*
X220241905Y-88352381D01*
X220575239Y-88352381D01*
X220670477Y-88400000D01*
X220718096Y-88447619D01*
X220765715Y-88542857D01*
X220765715Y-88638095D01*
X220718096Y-88733333D01*
X220670477Y-88780952D01*
X220575239Y-88828571D01*
X220241905Y-88828571D01*
X221765715Y-89352381D02*
X221194286Y-89352381D01*
X221480000Y-89352381D02*
X221480000Y-88352381D01*
X221384762Y-88495238D01*
X221289524Y-88590476D01*
X221194286Y-88638095D01*
X197239048Y-81208571D02*
X197381905Y-81256190D01*
X197429524Y-81303810D01*
X197477143Y-81399048D01*
X197477143Y-81541905D01*
X197429524Y-81637143D01*
X197381905Y-81684762D01*
X197286667Y-81732381D01*
X196905714Y-81732381D01*
X196905714Y-80732381D01*
X197239048Y-80732381D01*
X197334286Y-80780000D01*
X197381905Y-80827619D01*
X197429524Y-80922857D01*
X197429524Y-81018095D01*
X197381905Y-81113333D01*
X197334286Y-81160952D01*
X197239048Y-81208571D01*
X196905714Y-81208571D01*
X197810476Y-80732381D02*
X198477143Y-81732381D01*
X198477143Y-80732381D02*
X197810476Y-81732381D01*
X199381905Y-81732381D02*
X198810476Y-81732381D01*
X199096190Y-81732381D02*
X199096190Y-80732381D01*
X199000952Y-80875238D01*
X198905714Y-80970476D01*
X198810476Y-81018095D01*
X197286667Y-78668571D02*
X197429524Y-78716190D01*
X197477143Y-78763810D01*
X197524762Y-78859048D01*
X197524762Y-79001905D01*
X197477143Y-79097143D01*
X197429524Y-79144762D01*
X197334286Y-79192381D01*
X196953333Y-79192381D01*
X196953333Y-78192381D01*
X197286667Y-78192381D01*
X197381905Y-78240000D01*
X197429524Y-78287619D01*
X197477143Y-78382857D01*
X197477143Y-78478095D01*
X197429524Y-78573333D01*
X197381905Y-78620952D01*
X197286667Y-78668571D01*
X196953333Y-78668571D01*
X198143809Y-78716190D02*
X198143809Y-79192381D01*
X197810476Y-78192381D02*
X198143809Y-78716190D01*
X198477143Y-78192381D01*
X199334286Y-79192381D02*
X198762857Y-79192381D01*
X199048571Y-79192381D02*
X199048571Y-78192381D01*
X198953333Y-78335238D01*
X198858095Y-78430476D01*
X198762857Y-78478095D01*
X202560953Y-65112143D02*
X202513334Y-65159762D01*
X202370477Y-65207381D01*
X202275239Y-65207381D01*
X202132381Y-65159762D01*
X202037143Y-65064524D01*
X201989524Y-64969286D01*
X201941905Y-64778810D01*
X201941905Y-64635952D01*
X201989524Y-64445476D01*
X202037143Y-64350238D01*
X202132381Y-64255000D01*
X202275239Y-64207381D01*
X202370477Y-64207381D01*
X202513334Y-64255000D01*
X202560953Y-64302619D01*
X203132381Y-65207381D02*
X203037143Y-65159762D01*
X202989524Y-65112143D01*
X202941905Y-65016905D01*
X202941905Y-64731190D01*
X202989524Y-64635952D01*
X203037143Y-64588333D01*
X203132381Y-64540714D01*
X203275239Y-64540714D01*
X203370477Y-64588333D01*
X203418096Y-64635952D01*
X203465715Y-64731190D01*
X203465715Y-65016905D01*
X203418096Y-65112143D01*
X203370477Y-65159762D01*
X203275239Y-65207381D01*
X203132381Y-65207381D01*
X204418096Y-65207381D02*
X203846667Y-65207381D01*
X204132381Y-65207381D02*
X204132381Y-64207381D01*
X204037143Y-64350238D01*
X203941905Y-64445476D01*
X203846667Y-64493095D01*
X197477143Y-89257143D02*
X197429524Y-89304762D01*
X197286667Y-89352381D01*
X197191429Y-89352381D01*
X197048571Y-89304762D01*
X196953333Y-89209524D01*
X196905714Y-89114286D01*
X196858095Y-88923810D01*
X196858095Y-88780952D01*
X196905714Y-88590476D01*
X196953333Y-88495238D01*
X197048571Y-88400000D01*
X197191429Y-88352381D01*
X197286667Y-88352381D01*
X197429524Y-88400000D01*
X197477143Y-88447619D01*
X197810476Y-88352381D02*
X198477143Y-89352381D01*
X198477143Y-88352381D02*
X197810476Y-89352381D01*
X199381905Y-89352381D02*
X198810476Y-89352381D01*
X199096190Y-89352381D02*
X199096190Y-88352381D01*
X199000952Y-88495238D01*
X198905714Y-88590476D01*
X198810476Y-88638095D01*
X197524762Y-84177143D02*
X197477143Y-84224762D01*
X197334286Y-84272381D01*
X197239048Y-84272381D01*
X197096190Y-84224762D01*
X197000952Y-84129524D01*
X196953333Y-84034286D01*
X196905714Y-83843810D01*
X196905714Y-83700952D01*
X196953333Y-83510476D01*
X197000952Y-83415238D01*
X197096190Y-83320000D01*
X197239048Y-83272381D01*
X197334286Y-83272381D01*
X197477143Y-83320000D01*
X197524762Y-83367619D01*
X198143809Y-83796190D02*
X198143809Y-84272381D01*
X197810476Y-83272381D02*
X198143809Y-83796190D01*
X198477143Y-83272381D01*
X199334286Y-84272381D02*
X198762857Y-84272381D01*
X199048571Y-84272381D02*
X199048571Y-83272381D01*
X198953333Y-83415238D01*
X198858095Y-83510476D01*
X198762857Y-83558095D01*
X189341429Y-89352381D02*
X189341429Y-88352381D01*
X189674763Y-89066667D01*
X190008096Y-88352381D01*
X190008096Y-89352381D01*
X190484286Y-89352381D02*
X190484286Y-88352381D01*
X190912857Y-89304762D02*
X191055714Y-89352381D01*
X191293810Y-89352381D01*
X191389048Y-89304762D01*
X191436667Y-89257143D01*
X191484286Y-89161905D01*
X191484286Y-89066667D01*
X191436667Y-88971429D01*
X191389048Y-88923810D01*
X191293810Y-88876190D01*
X191103333Y-88828571D01*
X191008095Y-88780952D01*
X190960476Y-88733333D01*
X190912857Y-88638095D01*
X190912857Y-88542857D01*
X190960476Y-88447619D01*
X191008095Y-88400000D01*
X191103333Y-88352381D01*
X191341429Y-88352381D01*
X191484286Y-88400000D01*
X192103333Y-88352381D02*
X192293810Y-88352381D01*
X192389048Y-88400000D01*
X192484286Y-88495238D01*
X192531905Y-88685714D01*
X192531905Y-89019048D01*
X192484286Y-89209524D01*
X192389048Y-89304762D01*
X192293810Y-89352381D01*
X192103333Y-89352381D01*
X192008095Y-89304762D01*
X191912857Y-89209524D01*
X191865238Y-89019048D01*
X191865238Y-88685714D01*
X191912857Y-88495238D01*
X192008095Y-88400000D01*
X192103333Y-88352381D01*
X192722381Y-89447619D02*
X193484286Y-89447619D01*
X193674762Y-88447619D02*
X193722381Y-88400000D01*
X193817619Y-88352381D01*
X194055715Y-88352381D01*
X194150953Y-88400000D01*
X194198572Y-88447619D01*
X194246191Y-88542857D01*
X194246191Y-88638095D01*
X194198572Y-88780952D01*
X193627143Y-89352381D01*
X194246191Y-89352381D01*
X189341429Y-91892381D02*
X189341429Y-90892381D01*
X189674763Y-91606667D01*
X190008096Y-90892381D01*
X190008096Y-91892381D01*
X190674762Y-90892381D02*
X190865239Y-90892381D01*
X190960477Y-90940000D01*
X191055715Y-91035238D01*
X191103334Y-91225714D01*
X191103334Y-91559048D01*
X191055715Y-91749524D01*
X190960477Y-91844762D01*
X190865239Y-91892381D01*
X190674762Y-91892381D01*
X190579524Y-91844762D01*
X190484286Y-91749524D01*
X190436667Y-91559048D01*
X190436667Y-91225714D01*
X190484286Y-91035238D01*
X190579524Y-90940000D01*
X190674762Y-90892381D01*
X191484286Y-91844762D02*
X191627143Y-91892381D01*
X191865239Y-91892381D01*
X191960477Y-91844762D01*
X192008096Y-91797143D01*
X192055715Y-91701905D01*
X192055715Y-91606667D01*
X192008096Y-91511429D01*
X191960477Y-91463810D01*
X191865239Y-91416190D01*
X191674762Y-91368571D01*
X191579524Y-91320952D01*
X191531905Y-91273333D01*
X191484286Y-91178095D01*
X191484286Y-91082857D01*
X191531905Y-90987619D01*
X191579524Y-90940000D01*
X191674762Y-90892381D01*
X191912858Y-90892381D01*
X192055715Y-90940000D01*
X192484286Y-91892381D02*
X192484286Y-90892381D01*
X192722381Y-91987619D02*
X193484286Y-91987619D01*
X193674762Y-90987619D02*
X193722381Y-90940000D01*
X193817619Y-90892381D01*
X194055715Y-90892381D01*
X194150953Y-90940000D01*
X194198572Y-90987619D01*
X194246191Y-91082857D01*
X194246191Y-91178095D01*
X194198572Y-91320952D01*
X193627143Y-91892381D01*
X194246191Y-91892381D01*
X157154762Y-84272381D02*
X157154762Y-83272381D01*
X157535715Y-83272381D01*
X157630953Y-83320000D01*
X157678572Y-83367619D01*
X157726191Y-83462857D01*
X157726191Y-83605714D01*
X157678572Y-83700952D01*
X157630953Y-83748571D01*
X157535715Y-83796190D01*
X157154762Y-83796190D01*
X158630953Y-83272381D02*
X158154762Y-83272381D01*
X158107143Y-83748571D01*
X158154762Y-83700952D01*
X158250000Y-83653333D01*
X158488096Y-83653333D01*
X158583334Y-83700952D01*
X158630953Y-83748571D01*
X158678572Y-83843810D01*
X158678572Y-84081905D01*
X158630953Y-84177143D01*
X158583334Y-84224762D01*
X158488096Y-84272381D01*
X158250000Y-84272381D01*
X158154762Y-84224762D01*
X158107143Y-84177143D01*
X158869048Y-84367619D02*
X159630953Y-84367619D01*
X159821429Y-83367619D02*
X159869048Y-83320000D01*
X159964286Y-83272381D01*
X160202382Y-83272381D01*
X160297620Y-83320000D01*
X160345239Y-83367619D01*
X160392858Y-83462857D01*
X160392858Y-83558095D01*
X160345239Y-83700952D01*
X159773810Y-84272381D01*
X160392858Y-84272381D01*
X157154762Y-89352381D02*
X157154762Y-88352381D01*
X157535715Y-88352381D01*
X157630953Y-88400000D01*
X157678572Y-88447619D01*
X157726191Y-88542857D01*
X157726191Y-88685714D01*
X157678572Y-88780952D01*
X157630953Y-88828571D01*
X157535715Y-88876190D01*
X157154762Y-88876190D01*
X158059524Y-88352381D02*
X158726191Y-88352381D01*
X158297619Y-89352381D01*
X158869048Y-89447619D02*
X159630953Y-89447619D01*
X159821429Y-88447619D02*
X159869048Y-88400000D01*
X159964286Y-88352381D01*
X160202382Y-88352381D01*
X160297620Y-88400000D01*
X160345239Y-88447619D01*
X160392858Y-88542857D01*
X160392858Y-88638095D01*
X160345239Y-88780952D01*
X159773810Y-89352381D01*
X160392858Y-89352381D01*
X190222381Y-66492381D02*
X189889047Y-66016190D01*
X189650952Y-66492381D02*
X189650952Y-65492381D01*
X190031905Y-65492381D01*
X190127143Y-65540000D01*
X190174762Y-65587619D01*
X190222381Y-65682857D01*
X190222381Y-65825714D01*
X190174762Y-65920952D01*
X190127143Y-65968571D01*
X190031905Y-66016190D01*
X189650952Y-66016190D01*
X190603333Y-66206667D02*
X191079524Y-66206667D01*
X190508095Y-66492381D02*
X190841428Y-65492381D01*
X191174762Y-66492381D01*
X191412857Y-65492381D02*
X191650952Y-66492381D01*
X191841429Y-65778095D01*
X192031905Y-66492381D01*
X192270000Y-65492381D01*
X192412857Y-66587619D02*
X193174762Y-66587619D01*
X193365238Y-65587619D02*
X193412857Y-65540000D01*
X193508095Y-65492381D01*
X193746191Y-65492381D01*
X193841429Y-65540000D01*
X193889048Y-65587619D01*
X193936667Y-65682857D01*
X193936667Y-65778095D01*
X193889048Y-65920952D01*
X193317619Y-66492381D01*
X193936667Y-66492381D01*
D12*
X216474524Y-112395000D02*
X215869762Y-112818333D01*
X216474524Y-113120714D02*
X215204524Y-113120714D01*
X215204524Y-112636905D01*
X215265000Y-112515952D01*
X215325476Y-112455476D01*
X215446429Y-112395000D01*
X215627857Y-112395000D01*
X215748810Y-112455476D01*
X215809286Y-112515952D01*
X215869762Y-112636905D01*
X215869762Y-113120714D01*
X215204524Y-111487857D02*
X216111667Y-111487857D01*
X216293095Y-111548333D01*
X216414048Y-111669285D01*
X216474524Y-111850714D01*
X216474524Y-111971666D01*
X215627857Y-110338809D02*
X216474524Y-110338809D01*
X215144048Y-110641190D02*
X216051190Y-110943571D01*
X216051190Y-110157381D01*
X215204524Y-109068809D02*
X215204524Y-109673571D01*
X215809286Y-109734047D01*
X215748810Y-109673571D01*
X215688333Y-109552619D01*
X215688333Y-109250238D01*
X215748810Y-109129285D01*
X215809286Y-109068809D01*
X215930238Y-109008333D01*
X216232619Y-109008333D01*
X216353571Y-109068809D01*
X216414048Y-109129285D01*
X216474524Y-109250238D01*
X216474524Y-109552619D01*
X216414048Y-109673571D01*
X216353571Y-109734047D01*
X216595476Y-108766428D02*
X216595476Y-107798809D01*
X216474524Y-107496428D02*
X215204524Y-107496428D01*
X215809286Y-107496428D02*
X215809286Y-106770714D01*
X216474524Y-106770714D02*
X215204524Y-106770714D01*
X216353571Y-105440238D02*
X216414048Y-105500714D01*
X216474524Y-105682143D01*
X216474524Y-105803095D01*
X216414048Y-105984523D01*
X216293095Y-106105476D01*
X216172143Y-106165952D01*
X215930238Y-106226428D01*
X215748810Y-106226428D01*
X215506905Y-106165952D01*
X215385952Y-106105476D01*
X215265000Y-105984523D01*
X215204524Y-105803095D01*
X215204524Y-105682143D01*
X215265000Y-105500714D01*
X215325476Y-105440238D01*
X215990714Y-104895952D02*
X215990714Y-103928333D01*
X216414048Y-103384047D02*
X216474524Y-103202619D01*
X216474524Y-102900238D01*
X216414048Y-102779285D01*
X216353571Y-102718809D01*
X216232619Y-102658333D01*
X216111667Y-102658333D01*
X215990714Y-102718809D01*
X215930238Y-102779285D01*
X215869762Y-102900238D01*
X215809286Y-103142142D01*
X215748810Y-103263095D01*
X215688333Y-103323571D01*
X215567381Y-103384047D01*
X215446429Y-103384047D01*
X215325476Y-103323571D01*
X215265000Y-103263095D01*
X215204524Y-103142142D01*
X215204524Y-102839762D01*
X215265000Y-102658333D01*
X216474524Y-101388333D02*
X215869762Y-101811666D01*
X216474524Y-102114047D02*
X215204524Y-102114047D01*
X215204524Y-101630238D01*
X215265000Y-101509285D01*
X215325476Y-101448809D01*
X215446429Y-101388333D01*
X215627857Y-101388333D01*
X215748810Y-101448809D01*
X215809286Y-101509285D01*
X215869762Y-101630238D01*
X215869762Y-102114047D01*
X215627857Y-100299761D02*
X216474524Y-100299761D01*
X215144048Y-100602142D02*
X216051190Y-100904523D01*
X216051190Y-100118333D01*
D15*
X190365238Y-71572381D02*
X190031904Y-71096190D01*
X189793809Y-71572381D02*
X189793809Y-70572381D01*
X190174762Y-70572381D01*
X190270000Y-70620000D01*
X190317619Y-70667619D01*
X190365238Y-70762857D01*
X190365238Y-70905714D01*
X190317619Y-71000952D01*
X190270000Y-71048571D01*
X190174762Y-71096190D01*
X189793809Y-71096190D01*
X190746190Y-71524762D02*
X190889047Y-71572381D01*
X191127143Y-71572381D01*
X191222381Y-71524762D01*
X191270000Y-71477143D01*
X191317619Y-71381905D01*
X191317619Y-71286667D01*
X191270000Y-71191429D01*
X191222381Y-71143810D01*
X191127143Y-71096190D01*
X190936666Y-71048571D01*
X190841428Y-71000952D01*
X190793809Y-70953333D01*
X190746190Y-70858095D01*
X190746190Y-70762857D01*
X190793809Y-70667619D01*
X190841428Y-70620000D01*
X190936666Y-70572381D01*
X191174762Y-70572381D01*
X191317619Y-70620000D01*
X191603333Y-70572381D02*
X192174762Y-70572381D01*
X191889047Y-71572381D02*
X191889047Y-70572381D01*
X192270000Y-71667619D02*
X193031905Y-71667619D01*
X193222381Y-70667619D02*
X193270000Y-70620000D01*
X193365238Y-70572381D01*
X193603334Y-70572381D01*
X193698572Y-70620000D01*
X193746191Y-70667619D01*
X193793810Y-70762857D01*
X193793810Y-70858095D01*
X193746191Y-71000952D01*
X193174762Y-71572381D01*
X193793810Y-71572381D01*
X189222381Y-86764762D02*
X189365238Y-86812381D01*
X189603334Y-86812381D01*
X189698572Y-86764762D01*
X189746191Y-86717143D01*
X189793810Y-86621905D01*
X189793810Y-86526667D01*
X189746191Y-86431429D01*
X189698572Y-86383810D01*
X189603334Y-86336190D01*
X189412857Y-86288571D01*
X189317619Y-86240952D01*
X189270000Y-86193333D01*
X189222381Y-86098095D01*
X189222381Y-86002857D01*
X189270000Y-85907619D01*
X189317619Y-85860000D01*
X189412857Y-85812381D01*
X189650953Y-85812381D01*
X189793810Y-85860000D01*
X190793810Y-86717143D02*
X190746191Y-86764762D01*
X190603334Y-86812381D01*
X190508096Y-86812381D01*
X190365238Y-86764762D01*
X190270000Y-86669524D01*
X190222381Y-86574286D01*
X190174762Y-86383810D01*
X190174762Y-86240952D01*
X190222381Y-86050476D01*
X190270000Y-85955238D01*
X190365238Y-85860000D01*
X190508096Y-85812381D01*
X190603334Y-85812381D01*
X190746191Y-85860000D01*
X190793810Y-85907619D01*
X191698572Y-86812381D02*
X191222381Y-86812381D01*
X191222381Y-85812381D01*
X192031905Y-86812381D02*
X192031905Y-85812381D01*
X192603334Y-86812381D02*
X192174762Y-86240952D01*
X192603334Y-85812381D02*
X192031905Y-86383810D01*
X192793810Y-86907619D02*
X193555715Y-86907619D01*
X193746191Y-85907619D02*
X193793810Y-85860000D01*
X193889048Y-85812381D01*
X194127144Y-85812381D01*
X194222382Y-85860000D01*
X194270001Y-85907619D01*
X194317620Y-86002857D01*
X194317620Y-86098095D01*
X194270001Y-86240952D01*
X193698572Y-86812381D01*
X194317620Y-86812381D01*
X197953334Y-86717143D02*
X197905715Y-86764762D01*
X197762858Y-86812381D01*
X197667620Y-86812381D01*
X197524762Y-86764762D01*
X197429524Y-86669524D01*
X197381905Y-86574286D01*
X197334286Y-86383810D01*
X197334286Y-86240952D01*
X197381905Y-86050476D01*
X197429524Y-85955238D01*
X197524762Y-85860000D01*
X197667620Y-85812381D01*
X197762858Y-85812381D01*
X197905715Y-85860000D01*
X197953334Y-85907619D01*
X198905715Y-86812381D02*
X198334286Y-86812381D01*
X198620000Y-86812381D02*
X198620000Y-85812381D01*
X198524762Y-85955238D01*
X198429524Y-86050476D01*
X198334286Y-86098095D01*
D12*
X105984524Y-105168095D02*
X104714524Y-105168095D01*
X104714524Y-104865714D01*
X104775000Y-104684286D01*
X104895952Y-104563333D01*
X105016905Y-104502857D01*
X105258810Y-104442381D01*
X105440238Y-104442381D01*
X105682143Y-104502857D01*
X105803095Y-104563333D01*
X105924048Y-104684286D01*
X105984524Y-104865714D01*
X105984524Y-105168095D01*
X105984524Y-103898095D02*
X104714524Y-103898095D01*
X105621667Y-103474762D01*
X104714524Y-103051428D01*
X105984524Y-103051428D01*
X104714524Y-102567618D02*
X105984524Y-101720952D01*
X104714524Y-101720952D02*
X105984524Y-102567618D01*
D15*
X235648572Y-55300571D02*
X235315238Y-55300571D01*
X235315238Y-55824381D02*
X235315238Y-54824381D01*
X235791429Y-54824381D01*
X236172381Y-55824381D02*
X236172381Y-54824381D01*
X236553333Y-54824381D02*
X237220000Y-55824381D01*
X237220000Y-54824381D02*
X236553333Y-55824381D01*
D16*
X114977142Y-119578571D02*
X114977142Y-124578571D01*
X114977142Y-119816667D02*
X115453333Y-119578571D01*
X116405714Y-119578571D01*
X116881904Y-119816667D01*
X117119999Y-120054762D01*
X117358095Y-120530952D01*
X117358095Y-121959524D01*
X117119999Y-122435714D01*
X116881904Y-122673810D01*
X116405714Y-122911905D01*
X115453333Y-122911905D01*
X114977142Y-122673810D01*
X123310476Y-122911905D02*
X123310476Y-119578571D01*
X123310476Y-117911905D02*
X123072381Y-118150000D01*
X123310476Y-118388095D01*
X123548571Y-118150000D01*
X123310476Y-117911905D01*
X123310476Y-118388095D01*
X128786666Y-119578571D02*
X130691428Y-119578571D01*
X129500952Y-117911905D02*
X129500952Y-122197619D01*
X129739047Y-122673810D01*
X130215238Y-122911905D01*
X130691428Y-122911905D01*
X138310476Y-122911905D02*
X138310476Y-120292857D01*
X138072381Y-119816667D01*
X137596191Y-119578571D01*
X136643810Y-119578571D01*
X136167619Y-119816667D01*
X138310476Y-122673810D02*
X137834286Y-122911905D01*
X136643810Y-122911905D01*
X136167619Y-122673810D01*
X135929524Y-122197619D01*
X135929524Y-121721429D01*
X136167619Y-121245238D01*
X136643810Y-121007143D01*
X137834286Y-121007143D01*
X138310476Y-120769048D01*
X144024763Y-119578571D02*
X145215239Y-122911905D01*
X146405715Y-119578571D02*
X145215239Y-122911905D01*
X144739048Y-124102381D01*
X144500953Y-124340476D01*
X144024763Y-124578571D01*
X154262858Y-122911905D02*
X154262858Y-120292857D01*
X154024763Y-119816667D01*
X153548573Y-119578571D01*
X152596192Y-119578571D01*
X152120001Y-119816667D01*
X154262858Y-122673810D02*
X153786668Y-122911905D01*
X152596192Y-122911905D01*
X152120001Y-122673810D01*
X151881906Y-122197619D01*
X151881906Y-121721429D01*
X152120001Y-121245238D01*
X152596192Y-121007143D01*
X153786668Y-121007143D01*
X154262858Y-120769048D01*
D15*
X109053334Y-114752381D02*
X108720000Y-114276190D01*
X108481905Y-114752381D02*
X108481905Y-113752381D01*
X108862858Y-113752381D01*
X108958096Y-113800000D01*
X109005715Y-113847619D01*
X109053334Y-113942857D01*
X109053334Y-114085714D01*
X109005715Y-114180952D01*
X108958096Y-114228571D01*
X108862858Y-114276190D01*
X108481905Y-114276190D01*
X109386667Y-113752381D02*
X110053334Y-114752381D01*
X110053334Y-113752381D02*
X109386667Y-114752381D01*
X111593334Y-114752381D02*
X111260000Y-114276190D01*
X111021905Y-114752381D02*
X111021905Y-113752381D01*
X111402858Y-113752381D01*
X111498096Y-113800000D01*
X111545715Y-113847619D01*
X111593334Y-113942857D01*
X111593334Y-114085714D01*
X111545715Y-114180952D01*
X111498096Y-114228571D01*
X111402858Y-114276190D01*
X111021905Y-114276190D01*
X111926667Y-113752381D02*
X112593334Y-114752381D01*
X112593334Y-113752381D02*
X111926667Y-114752381D01*
X121158095Y-113752381D02*
X121729524Y-113752381D01*
X121443809Y-114752381D02*
X121443809Y-113752381D01*
X121967619Y-113752381D02*
X122634286Y-114752381D01*
X122634286Y-113752381D02*
X121967619Y-114752381D01*
X118618095Y-113752381D02*
X119189524Y-113752381D01*
X118903809Y-114752381D02*
X118903809Y-113752381D01*
X119427619Y-113752381D02*
X120094286Y-114752381D01*
X120094286Y-113752381D02*
X119427619Y-114752381D01*
D12*
X150071667Y-114874524D02*
X150495001Y-116144524D01*
X150918334Y-114874524D01*
X152067381Y-116023571D02*
X152006905Y-116084048D01*
X151825476Y-116144524D01*
X151704524Y-116144524D01*
X151523096Y-116084048D01*
X151402143Y-115963095D01*
X151341667Y-115842143D01*
X151281191Y-115600238D01*
X151281191Y-115418810D01*
X151341667Y-115176905D01*
X151402143Y-115055952D01*
X151523096Y-114935000D01*
X151704524Y-114874524D01*
X151825476Y-114874524D01*
X152006905Y-114935000D01*
X152067381Y-114995476D01*
X153337381Y-116023571D02*
X153276905Y-116084048D01*
X153095476Y-116144524D01*
X152974524Y-116144524D01*
X152793096Y-116084048D01*
X152672143Y-115963095D01*
X152611667Y-115842143D01*
X152551191Y-115600238D01*
X152551191Y-115418810D01*
X152611667Y-115176905D01*
X152672143Y-115055952D01*
X152793096Y-114935000D01*
X152974524Y-114874524D01*
X153095476Y-114874524D01*
X153276905Y-114935000D01*
X153337381Y-114995476D01*
X153579286Y-116265476D02*
X154546905Y-116265476D01*
X154849286Y-116144524D02*
X154849286Y-114874524D01*
X155151667Y-114874524D01*
X155333095Y-114935000D01*
X155454048Y-115055952D01*
X155514524Y-115176905D01*
X155575000Y-115418810D01*
X155575000Y-115600238D01*
X155514524Y-115842143D01*
X155454048Y-115963095D01*
X155333095Y-116084048D01*
X155151667Y-116144524D01*
X154849286Y-116144524D01*
X156058810Y-115781667D02*
X156663572Y-115781667D01*
X155937857Y-116144524D02*
X156361191Y-114874524D01*
X156784524Y-116144524D01*
X157026428Y-114874524D02*
X157752143Y-114874524D01*
X157389286Y-116144524D02*
X157389286Y-114874524D01*
X158115000Y-115781667D02*
X158719762Y-115781667D01*
X157994047Y-116144524D02*
X158417381Y-114874524D01*
X158840714Y-116144524D01*
X158961666Y-116265476D02*
X159929285Y-116265476D01*
X160896904Y-114935000D02*
X160775952Y-114874524D01*
X160594523Y-114874524D01*
X160413095Y-114935000D01*
X160292142Y-115055952D01*
X160231666Y-115176905D01*
X160171190Y-115418810D01*
X160171190Y-115600238D01*
X160231666Y-115842143D01*
X160292142Y-115963095D01*
X160413095Y-116084048D01*
X160594523Y-116144524D01*
X160715475Y-116144524D01*
X160896904Y-116084048D01*
X160957380Y-116023571D01*
X160957380Y-115600238D01*
X160715475Y-115600238D01*
X161501666Y-116144524D02*
X161501666Y-114874524D01*
X162227380Y-116144524D01*
X162227380Y-114874524D01*
X162832142Y-116144524D02*
X162832142Y-114874524D01*
X163134523Y-114874524D01*
X163315951Y-114935000D01*
X163436904Y-115055952D01*
X163497380Y-115176905D01*
X163557856Y-115418810D01*
X163557856Y-115600238D01*
X163497380Y-115842143D01*
X163436904Y-115963095D01*
X163315951Y-116084048D01*
X163134523Y-116144524D01*
X162832142Y-116144524D01*
X164767380Y-116144524D02*
X164041666Y-116144524D01*
X164404523Y-116144524D02*
X164404523Y-114874524D01*
X164283571Y-115055952D01*
X164162618Y-115176905D01*
X164041666Y-115237381D01*
M02*
