M48
;DRILL file {KiCad 4.0.6} date 10/01/17 20:02:29
;FORMAT={-:-/ absolute / inch / decimal}
FMAT,2
INCH,TZ
T1C0.016
T2C0.028
T3C0.030
T4C0.031
T5C0.039
T6C0.047
T7C0.055
T8C0.063
T9C0.071
T10C0.079
T11C0.120
T12C0.126
T13C0.157
%
G90
G05
M72
T1
X3.9535Y-3.075
X4.175Y-4.8
X4.325Y-2.675
X4.5Y-3.275
X4.575Y-3.35
X4.6Y-3.175
X4.675Y-3.25
X5.1Y-2.45
X5.3Y-3.35
X5.575Y-2.575
X5.8Y-3.95
X5.85Y-4.5
X6.1Y-3.675
X6.175Y-2.4
X6.175Y-2.625
X6.175Y-4.025
X6.2Y-3.575
X6.325Y-2.55
X6.425Y-2.775
X6.725Y-3.725
X7.025Y-2.875
X7.05Y-4.5
X7.1Y-4.1
X7.15Y-4.025
X7.225Y-4.225
X7.25Y-2.4
X7.3Y-3.95
X7.4Y-4.05
X7.525Y-3.7
X7.6Y-2.625
X7.8Y-2.825
X8.5Y-4.175
X8.525Y-3.275
X8.625Y-2.725
X8.65Y-2.825
T2
X4.4Y-2.5
X4.4Y-4.1
X4.5Y-2.5
X4.5Y-4.1
X4.6Y-2.5
X4.6Y-4.1
X4.7Y-2.5
X4.7Y-4.1
T3
X4.3Y-4.4
X4.4Y-4.4
X4.7Y-4.4
X4.8Y-4.4
X4.9Y-2.6
X4.9Y-2.7
X4.9Y-3.4
X4.9Y-3.7
X5.9Y-2.6
X5.9Y-2.8
X5.9Y-3.
X5.9Y-3.1
X5.9Y-3.2
X5.9Y-3.3
X5.9Y-3.5
X6.4Y-3.2
X6.4Y-3.3
X6.4Y-3.5
X6.4Y-3.6
X6.4Y-3.7
X7.4Y-2.6
X7.4Y-2.8
X7.4Y-3.
X7.4Y-3.1
X7.4Y-3.2
X7.4Y-3.3
X7.4Y-3.4
X7.4Y-3.5
X7.4Y-3.6
X7.4Y-3.7
X7.9Y-3.1
X7.9Y-3.2
X7.9Y-3.3
X7.9Y-3.4
X7.9Y-3.5
X8.6Y-3.5
T4
X7.95Y-2.725
X8.0484Y-2.725
X8.1Y-3.1
X8.1Y-3.2
X8.1Y-3.3
X8.1Y-3.4
X8.1Y-3.5
X8.1Y-3.6
X8.1Y-3.7
X8.1Y-3.8
X8.4Y-3.1
X8.4Y-3.2
X8.4Y-3.3
X8.4Y-3.4
X8.4Y-3.5
X8.4Y-3.6
X8.4Y-3.7
X8.4Y-3.8
T5
X3.8535Y-2.725
X3.8535Y-2.825
X3.8535Y-2.925
X3.8535Y-3.025
X3.9535Y-2.775
X3.9535Y-2.875
X3.9535Y-2.975
X3.9535Y-3.075
X5.1Y-2.6
X5.1Y-2.7
X5.1Y-2.8
X5.1Y-2.9
X5.1Y-3.
X5.1Y-3.1
X5.1Y-3.2
X5.1Y-3.3
X5.1Y-3.4
X5.1Y-3.5
X5.1Y-3.6
X5.1Y-3.7
X5.7Y-2.6
X5.7Y-2.7
X5.7Y-2.8
X5.7Y-2.9
X5.7Y-3.
X5.7Y-3.1
X5.7Y-3.2
X5.7Y-3.3
X5.7Y-3.4
X5.7Y-3.5
X5.7Y-3.6
X5.7Y-3.7
X6.6Y-2.6
X6.6Y-2.7
X6.6Y-2.8
X6.6Y-2.9
X6.6Y-3.
X6.6Y-3.1
X6.6Y-3.2
X6.6Y-3.3
X6.6Y-3.4
X6.6Y-3.5
X6.6Y-3.6
X6.6Y-3.7
X7.2Y-2.6
X7.2Y-2.7
X7.2Y-2.8
X7.2Y-2.9
X7.2Y-3.
X7.2Y-3.1
X7.2Y-3.2
X7.2Y-3.3
X7.2Y-3.4
X7.2Y-3.5
X7.2Y-3.6
X7.2Y-3.7
X8.7465Y-2.725
X8.7465Y-2.825
X8.7465Y-2.925
X8.7465Y-3.025
X8.7465Y-4.025
X8.7465Y-4.125
X8.7465Y-4.225
X8.7465Y-4.325
X8.8465Y-2.775
X8.8465Y-2.875
X8.8465Y-2.975
X8.8465Y-3.075
X8.8465Y-4.075
X8.8465Y-4.175
X8.8465Y-4.275
X8.8465Y-4.375
T6
X6.Y-4.3
X6.1969Y-4.3
X6.3937Y-4.3
T7
X3.5646Y-4.3898
X3.965Y-4.065
X8.9531Y-3.4516
X8.9531Y-3.6484
X9.3469Y-3.55
T8
X3.4835Y-2.59
X3.4835Y-3.21
X9.2165Y-2.59
X9.2165Y-3.21
X9.2165Y-3.89
X9.2165Y-4.51
T9
X3.4398Y-4.215
X3.6398Y-3.915
X3.7898Y-4.215
X3.8148Y-3.915
T10
X6.8992Y-4.3
X7.8008Y-4.3
T11
X3.4Y-2.3
X3.4Y-4.8
X9.3Y-2.3
X9.3Y-4.8
T12
X3.6035Y-2.675
X3.6035Y-3.125
X9.0965Y-2.675
X9.0965Y-3.125
X9.0965Y-3.975
X9.0965Y-4.425
T13
X9.15Y-3.55
T0
M30
