  0
SECTION
  2
HEADER
  9
$ACADVER
  1
AC1024
  9
$ACADMAINTVER
 70
     6
  9
$DWGCODEPAGE
  3
UNDEFINED
  9
$INSBASE
 10
0.0
 20
0.0
 30
0.0
  9
$EXTMIN
 10
1.000000000000000E+20
 20
1.000000000000000E+20
 30
1.000000000000000E+20
  9
$EXTMAX
 10
-1.000000000000000E+20
 20
-1.000000000000000E+20
 30
-1.000000000000000E+20
  9
$LIMMIN
 10
0.0
 20
0.0
  9
$LIMMAX
 10
12.0
 20
9.0
  9
$ORTHOMODE
 70
     0
  9
$REGENMODE
 70
     1
  9
$FILLMODE
 70
     1
  9
$QTEXTMODE
 70
     0
  9
$MIRRTEXT
 70
     1
  9
$LTSCALE
 40
1.0
  9
$ATTMODE
 70
     1
  9
$TEXTSIZE
 40
0.2
  9
$TRACEWID
 40
0.05
  9
$TEXTSTYLE
  7
Standard
  9
$CLAYER
  8
0
  9
$CELTYPE
  6
ByLayer
  9
$CECOLOR
 62
   256
  9
$CELTSCALE
 40
1.0
  9
$DISPSILH
 70
     0
  9
$DIMSCALE
 40
1.0
  9
$DIMASZ
 40
0.18
  9
$DIMEXO
 40
0.0625
  9
$DIMDLI
 40
0.38
  9
$DIMRND
 40
0.0
  9
$DIMDLE
 40
0.0
  9
$DIMEXE
 40
0.18
  9
$DIMTP
 40
0.0
  9
$DIMTM
 40
0.0
  9
$DIMTXT
 40
0.18
  9
$DIMCEN
 40
0.09
  9
$DIMTSZ
 40
0.0
  9
$DIMTOL
 70
     0
  9
$DIMLIM
 70
     0
  9
$DIMTIH
 70
     1
  9
$DIMTOH
 70
     1
  9
$DIMSE1
 70
     0
  9
$DIMSE2
 70
     0
  9
$DIMTAD
 70
     0
  9
$DIMZIN
 70
     0
  9
$DIMBLK
  1

  9
$DIMASO
 70
     1
  9
$DIMSHO
 70
     1
  9
$DIMPOST
  1

  9
$DIMAPOST
  1

  9
$DIMALT
 70
     0
  9
$DIMALTD
 70
     2
  9
$DIMALTF
 40
25.4
  9
$DIMLFAC
 40
1.0
  9
$DIMTOFL
 70
     0
  9
$DIMTVP
 40
0.0
  9
$DIMTIX
 70
     0
  9
$DIMSOXD
 70
     0
  9
$DIMSAH
 70
     0
  9
$DIMBLK1
  1

  9
$DIMBLK2
  1

  9
$DIMSTYLE
  2
Standard
  9
$DIMCLRD
 70
     0
  9
$DIMCLRE
 70
     0
  9
$DIMCLRT
 70
     0
  9
$DIMTFAC
 40
1.0
  9
$DIMGAP
 40
0.09
  9
$DIMJUST
 70
     0
  9
$DIMSD1
 70
     0
  9
$DIMSD2
 70
     0
  9
$DIMTOLJ
 70
     1
  9
$DIMTZIN
 70
     0
  9
$DIMALTZ
 70
     0
  9
$DIMALTTZ
 70
     0
  9
$DIMUPT
 70
     0
  9
$DIMDEC
 70
     4
  9
$DIMTDEC
 70
     4
  9
$DIMALTU
 70
     2
  9
$DIMALTTD
 70
     2
  9
$DIMTXSTY
  7
Standard
  9
$DIMAUNIT
 70
     0
  9
$DIMADEC
 70
     0
  9
$DIMALTRND
 40
0.0
  9
$DIMAZIN
 70
     0
  9
$DIMDSEP
 70
    46
  9
$DIMATFIT
 70
     3
  9
$DIMFRAC
 70
     0
  9
$DIMLDRBLK
  1

  9
$DIMLUNIT
 70
     2
  9
$DIMLWD
 70
    -2
  9
$DIMLWE
 70
    -2
  9
$DIMTMOVE
 70
     0
  9
$DIMFXL
 40
1.0
  9
$DIMFXLON
 70
     0
  9
$DIMJOGANG
 40
0.7853981633974483
  9
$DIMTFILL
 70
     0
  9
$DIMTFILLCLR
 70
     0
  9
$DIMARCSYM
 70
     0
  9
$DIMLTYPE
  6

  9
$DIMLTEX1
  6

  9
$DIMLTEX2
  6

  9
$DIMTXTDIRECTION
 70
     0
  9
$LUNITS
 70
     2
  9
$LUPREC
 70
     4
  9
$SKETCHINC
 40
0.1
  9
$FILLETRAD
 40
0.5
  9
$AUNITS
 70
     0
  9
$AUPREC
 70
     0
  9
$MENU
  1
.
  9
$ELEVATION
 40
0.0
  9
$PELEVATION
 40
0.0
  9
$THICKNESS
 40
0.0
  9
$LIMCHECK
 70
     0
  9
$CHAMFERA
 40
0.5
  9
$CHAMFERB
 40
0.5
  9
$CHAMFERC
 40
1.0
  9
$CHAMFERD
 40
0.0
  9
$SKPOLY
 70
     0
  9
$TDCREATE
 40
2458015.706990729
  9
$TDUCREATE
 40
2458015.665324074
  9
$TDUPDATE
 40
2458015.706990729
  9
$TDUUPDATE
 40
2458015.665324074
  9
$TDINDWG
 40
0.0000000116
  9
$TDUSRTIMER
 40
0.0000000116
  9
$USRTIMER
 70
     1
  9
$ANGBASE
 50
0.0
  9
$ANGDIR
 70
     0
  9
$PDMODE
 70
     0
  9
$PDSIZE
 40
0.0
  9
$PLINEWID
 40
0.0
  9
$SPLFRAME
 70
     0
  9
$SPLINETYPE
 70
     6
  9
$SPLINESEGS
 70
     8
  9
$HANDSEED
  5
A6
  9
$SURFTAB1
 70
     6
  9
$SURFTAB2
 70
     6
  9
$SURFTYPE
 70
     6
  9
$SURFU
 70
     6
  9
$SURFV
 70
     6
  9
$UCSBASE
  2

  9
$UCSNAME
  2

  9
$UCSORG
 10
0.0
 20
0.0
 30
0.0
  9
$UCSXDIR
 10
1.0
 20
0.0
 30
0.0
  9
$UCSYDIR
 10
0.0
 20
1.0
 30
0.0
  9
$UCSORTHOREF
  2

  9
$UCSORTHOVIEW
 70
     0
  9
$UCSORGTOP
 10
0.0
 20
0.0
 30
0.0
  9
$UCSORGBOTTOM
 10
0.0
 20
0.0
 30
0.0
  9
$UCSORGLEFT
 10
0.0
 20
0.0
 30
0.0
  9
$UCSORGRIGHT
 10
0.0
 20
0.0
 30
0.0
  9
$UCSORGFRONT
 10
0.0
 20
0.0
 30
0.0
  9
$UCSORGBACK
 10
0.0
 20
0.0
 30
0.0
  9
$PUCSBASE
  2

  9
$PUCSNAME
  2

  9
$PUCSORG
 10
0.0
 20
0.0
 30
0.0
  9
$PUCSXDIR
 10
1.0
 20
0.0
 30
0.0
  9
$PUCSYDIR
 10
0.0
 20
1.0
 30
0.0
  9
$PUCSORTHOREF
  2

  9
$PUCSORTHOVIEW
 70
     0
  9
$PUCSORGTOP
 10
0.0
 20
0.0
 30
0.0
  9
$PUCSORGBOTTOM
 10
0.0
 20
0.0
 30
0.0
  9
$PUCSORGLEFT
 10
0.0
 20
0.0
 30
0.0
  9
$PUCSORGRIGHT
 10
0.0
 20
0.0
 30
0.0
  9
$PUCSORGFRONT
 10
0.0
 20
0.0
 30
0.0
  9
$PUCSORGBACK
 10
0.0
 20
0.0
 30
0.0
  9
$USERI1
 70
     0
  9
$USERI2
 70
     0
  9
$USERI3
 70
     0
  9
$USERI4
 70
     0
  9
$USERI5
 70
     0
  9
$USERR1
 40
0.0
  9
$USERR2
 40
0.0
  9
$USERR3
 40
0.0
  9
$USERR4
 40
0.0
  9
$USERR5
 40
0.0
  9
$WORLDVIEW
 70
     1
  9
$SHADEDGE
 70
     3
  9
$SHADEDIF
 70
    70
  9
$TILEMODE
 70
     1
  9
$MAXACTVP
 70
    64
  9
$PINSBASE
 10
0.0
 20
0.0
 30
0.0
  9
$PLIMCHECK
 70
     0
  9
$PEXTMIN
 10
1.000000000000000E+20
 20
1.000000000000000E+20
 30
1.000000000000000E+20
  9
$PEXTMAX
 10
-1.000000000000000E+20
 20
-1.000000000000000E+20
 30
-1.000000000000000E+20
  9
$PLIMMIN
 10
0.0
 20
0.0
  9
$PLIMMAX
 10
12.0
 20
9.0
  9
$UNITMODE
 70
     0
  9
$VISRETAIN
 70
     1
  9
$PLINEGEN
 70
     0
  9
$PSLTSCALE
 70
     1
  9
$TREEDEPTH
 70
  3020
  9
$CMLSTYLE
  2
Standard
  9
$CMLJUST
 70
     0
  9
$CMLSCALE
 40
1.0
  9
$PROXYGRAPHICS
 70
     1
  9
$MEASUREMENT
 70
     0
  9
$CELWEIGHT
370
    -1
  9
$ENDCAPS
280
     0
  9
$JOINSTYLE
280
     0
  9
$LWDISPLAY
290
     1
  9
$INSUNITS
 70
     1
  9
$HYPERLINKBASE
  1

  9
$STYLESHEET
  1

  9
$XEDIT
290
     1
  9
$CEPSNTYPE
380
     0
  9
$PSTYLEMODE
290
     1
  9
$FINGERPRINTGUID
  2
{98C53F30-E73F-B8DD-6E49-3F6605D6EE29}
  9
$VERSIONGUID
  2
{FAEB1C32-E019-11D5-929B-00C0DF256EC4}
  9
$EXTNAMES
290
     1
  9
$PSVPSCALE
 40
0.0
  9
$OLESTARTUP
290
     0
  9
$SORTENTS
280
   127
  9
$INDEXCTL
280
     0
  9
$HIDETEXT
280
     1
  9
$XCLIPFRAME
280
     2
  9
$HALOGAP
280
     0
  9
$OBSCOLOR
 70
   257
  9
$OBSLTYPE
280
     0
  9
$INTERSECTIONDISPLAY
280
     0
  9
$INTERSECTIONCOLOR
 70
   257
  9
$DIMASSOC
280
     2
  9
$PROJECTNAME
  1

  9
$CAMERADISPLAY
290
     0
  9
$LENSLENGTH
 40
50.0
  9
$CAMERAHEIGHT
 40
0.0
  9
$STEPSPERSEC
 40
2.0
  9
$STEPSIZE
 40
6.0
  9
$3DDWFPREC
 40
2.0
  9
$PSOLWIDTH
 40
0.25
  9
$PSOLHEIGHT
 40
4.0
  9
$LOFTANG1
 40
1.570796326794897
  9
$LOFTANG2
 40
1.570796326794897
  9
$LOFTMAG1
 40
0.0
  9
$LOFTMAG2
 40
0.0
  9
$LOFTPARAM
 70
     7
  9
$LOFTNORMALS
280
     1
  9
$LATITUDE
 40
37.795
  9
$LONGITUDE
 40
-122.394
  9
$NORTHDIRECTION
 40
0.0
  9
$TIMEZONE
 70
 -8000
  9
$LIGHTGLYPHDISPLAY
280
     1
  9
$TILEMODELIGHTSYNCH
280
     1
  9
$CMATERIAL
347
3C
  9
$SOLIDHIST
280
     1
  9
$SHOWHIST
280
     1
  9
$DWFFRAME
280
     2
  9
$DGNFRAME
280
     2
  9
$REALWORLDSCALE
290
     1
  9
$INTERFERECOLOR
 62
   256
  9
$CSHADOW
280
     0
  9
$SHADOWPLANELOCATION
 40
0.0
  0
ENDSEC
  0
SECTION
  2
CLASSES
  0
CLASS
  1
ACDBDICTIONARYWDFLT
  2
AcDbDictionaryWithDefault
  3
ObjectDBX Classes
 90
        0
 91
        4
280
     0
281
     0
  0
CLASS
  1
VISUALSTYLE
  2
AcDbVisualStyle
  3
ObjectDBX Classes
 90
     4095
 91
        4
280
     0
281
     0
  0
CLASS
  1
MATERIAL
  2
AcDbMaterial
  3
ObjectDBX Classes
 90
     1153
 91
        4
280
     0
281
     0
  0
CLASS
  1
SUN
  2
AcDbSun
  3
SCENEOE
 90
     1024
 91
        4
280
     0
281
     0
  0
ENDSEC
  0
SECTION
  2
TABLES
  0
TABLE
  2
VPORT
  5
8
330
0
100
AcDbSymbolTable
 70
     1
  0
VPORT
  5
29
330
8
100
AcDbSymbolTableRecord
100
AcDbViewportTableRecord
  2
*Active
 70
     0
 10
0.0
 20
0.0
 11
1.0
 21
1.0
 12
0.0
 22
0.0
 13
0.0
 23
0.0
 14
0.5
 24
0.5
 15
0.5
 25
0.5
 16
0.0
 26
0.0
 36
1.0
 17
14.84999673225613
 27
10.49999637101166
 37
0.0
 40
20.99999274202333
 41
1.414285891874584
 42
50.0
 43
0.0
 44
0.0
 50
0.0
 51
0.0
 71
     0
 72
   100
 73
     1
 74
     3
 75
     0
 76
     0
 77
     0
 78
     0
281
     0
 65
     1
110
0.0
120
0.0
130
0.0
111
1.0
121
0.0
131
0.0
112
0.0
122
1.0
132
0.0
 79
     0
146
0.0
 60
     3
 61
     5
292
     1
282
     1
141
0.0
142
0.0
 63
   250
361
3F
  0
ENDTAB
  0
TABLE
  2
LTYPE
  5
5
330
0
100
AcDbSymbolTable
 70
     1
  0
LTYPE
  5
14
330
5
100
AcDbSymbolTableRecord
100
AcDbLinetypeTableRecord
  2
ByBlock
 70
     0
  3

 72
    65
 73
     0
 40
0.0
  0
LTYPE
  5
15
330
5
100
AcDbSymbolTableRecord
100
AcDbLinetypeTableRecord
  2
ByLayer
 70
     0
  3

 72
    65
 73
     0
 40
0.0
  0
LTYPE
  5
16
330
5
100
AcDbSymbolTableRecord
100
AcDbLinetypeTableRecord
  2
Continuous
 70
     0
  3
Solid line
 72
    65
 73
     0
 40
0.0
  0
ENDTAB
  0
TABLE
  2
LAYER
  5
2
330
0
100
AcDbSymbolTable
 70
     2
  0
LAYER
  5
10
330
2
100
AcDbSymbolTableRecord
100
AcDbLayerTableRecord
  2
0
 70
     0
 62
     7
  6
Continuous
370
    -3
390
F
347
3E
  0
LAYER
  5
40
330
2
100
AcDbSymbolTableRecord
100
AcDbLayerTableRecord
  2
Calque 1
 70
     0
 62
     7
  6
Continuous
370
    -3
390
F
347
3E
  0
ENDTAB
  0
TABLE
  2
STYLE
  5
3
330
0
100
AcDbSymbolTable
 70
     1
  0
STYLE
  5
11
330
3
100
AcDbSymbolTableRecord
100
AcDbTextStyleTableRecord
  2
Standard
 70
     0
 40
0.0
 41
1.0
 50
0.0
 71
     0
 42
0.2
  3
txt
  4

  0
ENDTAB
  0
TABLE
  2
VIEW
  5
6
330
0
100
AcDbSymbolTable
 70
     0
  0
ENDTAB
  0
TABLE
  2
UCS
  5
7
330
0
100
AcDbSymbolTable
 70
     0
  0
ENDTAB
  0
TABLE
  2
APPID
  5
9
330
0
100
AcDbSymbolTable
 70
     1
  0
APPID
  5
12
330
9
100
AcDbSymbolTableRecord
100
AcDbRegAppTableRecord
  2
ACAD
 70
     0
  0
ENDTAB
  0
TABLE
  2
DIMSTYLE
  5
A
330
0
100
AcDbSymbolTable
 70
     1
100
AcDbDimStyleTable
  0
DIMSTYLE
105
27
330
A
100
AcDbSymbolTableRecord
100
AcDbDimStyleTableRecord
  2
Standard
 70
     0
178
     0
340
11
  0
ENDTAB
  0
TABLE
  2
BLOCK_RECORD
  5
1
330
0
100
AcDbSymbolTable
 70
    16
  0
BLOCK_RECORD
  5
1F
330
1
100
AcDbSymbolTableRecord
100
AcDbBlockTableRecord
  2
*Model_Space
340
22
 70
     0
280
     1
281
     0
  0
BLOCK_RECORD
  5
1B
330
1
100
AcDbSymbolTableRecord
100
AcDbBlockTableRecord
  2
*Paper_Space
340
1E
 70
     0
280
     1
281
     0
  0
BLOCK_RECORD
  5
23
330
1
100
AcDbSymbolTableRecord
100
AcDbBlockTableRecord
  2
*Paper_Space0
340
26
 70
     0
280
     1
281
     0
  0
BLOCK_RECORD
  5
41
330
1
100
AcDbSymbolTableRecord
100
AcDbBlockTableRecord
  2
block 2
340
0
102
{BLKREFS
331
42
102
}
 70
     0
280
     1
281
     0
  0
BLOCK_RECORD
  5
45
330
1
100
AcDbSymbolTableRecord
100
AcDbBlockTableRecord
  2
block 3
340
0
102
{BLKREFS
331
46
102
}
 70
     0
280
     1
281
     0
  0
BLOCK_RECORD
  5
49
330
1
100
AcDbSymbolTableRecord
100
AcDbBlockTableRecord
  2
block 4
340
0
102
{BLKREFS
331
4A
102
}
 70
     0
280
     1
281
     0
  0
BLOCK_RECORD
  5
50
330
1
100
AcDbSymbolTableRecord
100
AcDbBlockTableRecord
  2
block 5
340
0
102
{BLKREFS
331
51
102
}
 70
     0
280
     1
281
     0
  0
BLOCK_RECORD
  5
54
330
1
100
AcDbSymbolTableRecord
100
AcDbBlockTableRecord
  2
block 6
340
0
102
{BLKREFS
331
55
102
}
 70
     0
280
     1
281
     0
  0
BLOCK_RECORD
  5
5A
330
1
100
AcDbSymbolTableRecord
100
AcDbBlockTableRecord
  2
block 7
340
0
102
{BLKREFS
331
5B
102
}
 70
     0
280
     1
281
     0
  0
BLOCK_RECORD
  5
60
330
1
100
AcDbSymbolTableRecord
100
AcDbBlockTableRecord
  2
block 8
340
0
102
{BLKREFS
331
61
102
}
 70
     0
280
     1
281
     0
  0
BLOCK_RECORD
  5
66
330
1
100
AcDbSymbolTableRecord
100
AcDbBlockTableRecord
  2
block 9
340
0
102
{BLKREFS
331
67
102
}
 70
     0
280
     1
281
     0
  0
BLOCK_RECORD
  5
6C
330
1
100
AcDbSymbolTableRecord
100
AcDbBlockTableRecord
  2
block 10
340
0
102
{BLKREFS
331
6D
102
}
 70
     0
280
     1
281
     0
  0
BLOCK_RECORD
  5
72
330
1
100
AcDbSymbolTableRecord
100
AcDbBlockTableRecord
  2
block 11
340
0
102
{BLKREFS
331
73
102
}
 70
     0
280
     1
281
     0
  0
BLOCK_RECORD
  5
78
330
1
100
AcDbSymbolTableRecord
100
AcDbBlockTableRecord
  2
block 12
340
0
102
{BLKREFS
331
79
102
}
 70
     0
280
     1
281
     0
  0
BLOCK_RECORD
  5
7E
330
1
100
AcDbSymbolTableRecord
100
AcDbBlockTableRecord
  2
block 13
340
0
102
{BLKREFS
331
7F
102
}
 70
     0
280
     1
281
     0
  0
BLOCK_RECORD
  5
84
330
1
100
AcDbSymbolTableRecord
100
AcDbBlockTableRecord
  2
block 14
340
0
102
{BLKREFS
331
85
102
}
 70
     0
280
     1
281
     0
  0
BLOCK_RECORD
  5
8A
330
1
100
AcDbSymbolTableRecord
100
AcDbBlockTableRecord
  2
block 15
340
0
102
{BLKREFS
331
8B
102
}
 70
     0
280
     1
281
     0
  0
BLOCK_RECORD
  5
90
330
1
100
AcDbSymbolTableRecord
100
AcDbBlockTableRecord
  2
block 16
340
0
102
{BLKREFS
331
91
102
}
 70
     0
280
     1
281
     0
  0
ENDTAB
  0
ENDSEC
  0
SECTION
  2
BLOCKS
  0
BLOCK
  5
20
330
1F
100
AcDbEntity
  8
0
100
AcDbBlockBegin
  2
*Model_Space
 70
     0
 10
0.0
 20
0.0
 30
0.0
  3
*Model_Space
  1

  0
ENDBLK
  5
21
330
1F
100
AcDbEntity
  8
0
100
AcDbBlockEnd
  0
BLOCK
  5
1C
330
1B
100
AcDbEntity
 67
     1
  8
0
100
AcDbBlockBegin
  2
*Paper_Space
 70
     0
 10
0.0
 20
0.0
 30
0.0
  3
*Paper_Space
  1

  0
ENDBLK
  5
1D
330
1B
100
AcDbEntity
 67
     1
  8
0
100
AcDbBlockEnd
  0
BLOCK
  5
24
330
23
100
AcDbEntity
  8
0
100
AcDbBlockBegin
  2
*Paper_Space0
 70
     0
 10
0.0
 20
0.0
 30
0.0
  3
*Paper_Space0
  1

  0
ENDBLK
  5
25
330
23
100
AcDbEntity
  8
0
100
AcDbBlockEnd
  0
BLOCK
  5
43
330
41
100
AcDbEntity
  8
0
100
AcDbBlockBegin
  2
block 2
 70
     0
 10
0.0
 20
0.0
 30
0.0
  3
block 2
  1

  0
INSERT
  5
46
330
41
100
AcDbEntity
  8
Calque 1
100
AcDbBlockReference
  2
block 3
 10
0.0
 20
0.0
 30
0.0
  0
ENDBLK
  5
44
330
41
100
AcDbEntity
  8
0
100
AcDbBlockEnd
  0
BLOCK
  5
47
330
45
100
AcDbEntity
  8
0
100
AcDbBlockBegin
  2
block 3
 70
     0
 10
0.0
 20
0.0
 30
0.0
  3
block 3
  1

  0
INSERT
  5
4A
330
45
100
AcDbEntity
  8
Calque 1
100
AcDbBlockReference
  2
block 4
 10
0.0
 20
0.0
 30
0.0
  0
INSERT
  5
91
330
45
100
AcDbEntity
  8
Calque 1
100
AcDbBlockReference
  2
block 16
 10
0.0
 20
0.0
 30
0.0
  0
ENDBLK
  5
48
330
45
100
AcDbEntity
  8
0
100
AcDbBlockEnd
  0
BLOCK
  5
4B
330
49
100
AcDbEntity
  8
0
100
AcDbBlockBegin
  2
block 4
 70
     0
 10
0.0
 20
0.0
 30
0.0
  3
block 4
  1

  0
SPLINE
  5
4D
330
49
100
AcDbEntity
  8
Calque 1
370
     0
100
AcDbSpline
210
0.0
220
0.0
230
1.0
 70
    11
 71
     3
 72
    17
 73
    13
 74
     0
 42
0.0000000001
 43
0.0000000001
 12
1.0
 22
0.0
 32
0.0
 13
1.0
 23
0.0
 33
0.0
 40
0.0
 40
0.0
 40
0.0
 40
0.0
 40
1.0
 40
1.0
 40
1.0
 40
2.0
 40
2.0
 40
2.0
 40
3.0
 40
3.0
 40
3.0
 40
4.0
 40
4.0
 40
4.0
 40
4.0
 10
12.63659139983592
 20
12.79560277457888
 30
0.0
 10
12.63659139983592
 20
11.69130925728541
 30
0.0
 10
13.53507404358038
 20
10.7928971690947
 30
0.0
 10
14.63902151541633
 20
10.7928971690947
 30
0.0
 10
15.74336409835332
 20
10.7928971690947
 30
0.0
 10
16.64132815877768
 20
11.69130925728541
 30
0.0
 10
16.64132815877768
 20
12.79560277457888
 30
0.0
 10
16.64132815877768
 20
13.89968397872285
 30
0.0
 10
15.74336409835332
 20
14.79809606691356
 30
0.0
 10
14.63902151541633
 20
14.79809606691356
 30
0.0
 10
13.53507404358038
 20
14.79809606691356
 30
0.0
 10
12.63659139983592
 20
13.89968397872285
 30
0.0
 10
12.63659139983592
 20
12.79560277457888
 30
0.0
  0
SPLINE
  5
4E
330
49
100
AcDbEntity
  8
Calque 1
370
     0
100
AcDbSpline
210
0.0
220
0.0
230
1.0
 70
    11
 71
     3
 72
    17
 73
    13
 74
     0
 42
0.0000000001
 43
0.0000000001
 12
1.0
 22
0.0
 32
0.0
 13
1.0
 23
0.0
 33
0.0
 40
0.0
 40
0.0
 40
0.0
 40
0.0
 40
1.0
 40
1.0
 40
1.0
 40
2.0
 40
2.0
 40
2.0
 40
3.0
 40
3.0
 40
3.0
 40
4.0
 40
4.0
 40
4.0
 40
4.0
 10
12.73388045290942
 20
12.79560277457888
 30
0.0
 10
12.73388045290942
 20
13.84607939675708
 30
0.0
 10
13.58847401444026
 20
14.70077173606318
 30
0.0
 10
14.63902151541633
 20
14.70077173606318
 30
0.0
 10
15.68944554417334
 20
14.70077173606318
 30
0.0
 10
16.54434602236301
 20
13.84607939675708
 30
0.0
 10
16.54434602236301
 20
12.79560277457888
 30
0.0
 10
16.54434602236301
 20
11.74501967258181
 30
0.0
 10
15.68944554417334
 20
10.8903590832749
 30
0.0
 10
14.63902151541633
 20
10.8903590832749
 30
0.0
 10
13.58847401444026
 20
10.8903590832749
 30
0.0
 10
12.73388045290942
 20
11.74501967258181
 30
0.0
 10
12.73388045290942
 20
12.79560277457888
 30
0.0
  0
HATCH
  5
4F
330
49
100
AcDbEntity
  8
Calque 1
 62
   179
420
  1842203
100
AcDbHatch
 10
0.0
 20
0.0
 30
0.0
210
0.0
220
0.0
230
1.0
  2
SOLID
 70
     1
 71
     0
 91
        2
 92
        1
 93
        1
 72
     4
 94
        3
 73
     0
 74
     1
 95
       17
 96
       13
 40
0.0
 40
0.0
 40
0.0
 40
0.0
 40
1.0
 40
1.0
 40
1.0
 40
2.0
 40
2.0
 40
2.0
 40
3.0
 40
3.0
 40
3.0
 40
4.0
 40
4.0
 40
4.0
 40
4.0
 10
12.63659139983592
 20
12.79560277457888
 10
12.63659139983592
 20
11.69130925728541
 10
13.53507404358038
 20
10.7928971690947
 10
14.63902151541633
 20
10.7928971690947
 10
15.74336409835332
 20
10.7928971690947
 10
16.64132815877768
 20
11.69130925728541
 10
16.64132815877768
 20
12.79560277457888
 10
16.64132815877768
 20
13.89968397872285
 10
15.74336409835332
 20
14.79809606691356
 10
14.63902151541633
 20
14.79809606691356
 10
13.53507404358038
 20
14.79809606691356
 10
12.63659139983592
 20
13.89968397872285
 10
12.63659139983592
 20
12.79560277457888
 97
        0
 97
        0
 92
        1
 93
        1
 72
     4
 94
        3
 73
     0
 74
     1
 95
       17
 96
       13
 40
0.0
 40
0.0
 40
0.0
 40
0.0
 40
1.0
 40
1.0
 40
1.0
 40
2.0
 40
2.0
 40
2.0
 40
3.0
 40
3.0
 40
3.0
 40
4.0
 40
4.0
 40
4.0
 40
4.0
 10
12.73388045290942
 20
12.79560277457888
 10
12.73388045290942
 20
13.84607939675708
 10
13.58847401444026
 20
14.70077173606318
 10
14.63902151541633
 20
14.70077173606318
 10
15.68944554417334
 20
14.70077173606318
 10
16.54434602236301
 20
13.84607939675708
 10
16.54434602236301
 20
12.79560277457888
 10
16.54434602236301
 20
11.74501967258181
 10
15.68944554417334
 20
10.8903590832749
 10
14.63902151541633
 20
10.8903590832749
 10
13.58847401444026
 20
10.8903590832749
 10
12.73388045290942
 20
11.74501967258181
 10
12.73388045290942
 20
12.79560277457888
 97
        0
 97
        0
 75
     2
 76
     1
 98
        0
  0
INSERT
  5
51
330
49
100
AcDbEntity
  8
Calque 1
100
AcDbBlockReference
  2
block 5
 10
0.0
 20
0.0
 30
0.0
  0
ENDBLK
  5
4C
330
49
100
AcDbEntity
  8
0
100
AcDbBlockEnd
  0
BLOCK
  5
52
330
50
100
AcDbEntity
  8
0
100
AcDbBlockBegin
  2
block 5
 70
     0
 10
0.0
 20
0.0
 30
0.0
  3
block 5
  1

  0
INSERT
  5
55
330
50
100
AcDbEntity
  8
Calque 1
100
AcDbBlockReference
  2
block 6
 10
0.0
 20
0.0
 30
0.0
  0
INSERT
  5
5B
330
50
100
AcDbEntity
  8
Calque 1
100
AcDbBlockReference
  2
block 7
 10
0.0
 20
0.0
 30
0.0
  0
INSERT
  5
61
330
50
100
AcDbEntity
  8
Calque 1
100
AcDbBlockReference
  2
block 8
 10
0.0
 20
0.0
 30
0.0
  0
INSERT
  5
67
330
50
100
AcDbEntity
  8
Calque 1
100
AcDbBlockReference
  2
block 9
 10
0.0
 20
0.0
 30
0.0
  0
INSERT
  5
6D
330
50
100
AcDbEntity
  8
Calque 1
100
AcDbBlockReference
  2
block 10
 10
0.0
 20
0.0
 30
0.0
  0
INSERT
  5
73
330
50
100
AcDbEntity
  8
Calque 1
100
AcDbBlockReference
  2
block 11
 10
0.0
 20
0.0
 30
0.0
  0
INSERT
  5
79
330
50
100
AcDbEntity
  8
Calque 1
100
AcDbBlockReference
  2
block 12
 10
0.0
 20
0.0
 30
0.0
  0
INSERT
  5
7F
330
50
100
AcDbEntity
  8
Calque 1
100
AcDbBlockReference
  2
block 13
 10
0.0
 20
0.0
 30
0.0
  0
INSERT
  5
85
330
50
100
AcDbEntity
  8
Calque 1
100
AcDbBlockReference
  2
block 14
 10
0.0
 20
0.0
 30
0.0
  0
INSERT
  5
8B
330
50
100
AcDbEntity
  8
Calque 1
100
AcDbBlockReference
  2
block 15
 10
0.0
 20
0.0
 30
0.0
  0
ENDBLK
  5
53
330
50
100
AcDbEntity
  8
0
100
AcDbBlockEnd
  0
BLOCK
  5
56
330
54
100
AcDbEntity
  8
0
100
AcDbBlockBegin
  2
block 6
 70
     0
 10
0.0
 20
0.0
 30
0.0
  3
block 6
  1

  0
SPLINE
  5
58
330
54
100
AcDbEntity
  8
Calque 1
370
     0
100
AcDbSpline
210
0.0
220
0.0
230
1.0
 70
    11
 71
     3
 72
    14
 73
    10
 74
     0
 42
0.0000000001
 43
0.0000000001
 12
1.0
 22
0.0
 32
0.0
 13
1.0
 23
0.0
 33
0.0
 40
0.0
 40
0.0
 40
0.0
 40
0.0
 40
1.0
 40
1.0
 40
1.0
 40
2.0
 40
2.0
 40
2.0
 40
3.0
 40
3.0
 40
3.0
 40
3.0
 10
15.83782740149891
 20
12.78616211824227
 30
0.0
 10
15.83782740149891
 20
12.78723103488167
 30
0.0
 10
15.83744640150863
 20
12.78850456262695
 30
0.0
 10
15.83744640150863
 20
12.78974281259536
 30
0.0
 10
15.83744640150863
 20
12.78840225707401
 30
0.0
 10
15.83744640150863
 20
12.78723103488167
 30
0.0
 10
15.83744640150863
 20
12.78588695158262
 30
0.0
 10
15.83744640150863
 20
12.78609156268852
 30
0.0
 10
15.83744640150863
 20
12.78616211824227
 30
0.0
 10
15.83782740149891
 20
12.78616211824227
 30
0.0
  0
HATCH
  5
59
330
54
100
AcDbEntity
  8
Calque 1
 62
   179
420
  1842203
100
AcDbHatch
 10
0.0
 20
0.0
 30
0.0
210
0.0
220
0.0
230
1.0
  2
SOLID
 70
     1
 71
     0
 91
        1
 92
        1
 93
        1
 72
     4
 94
        3
 73
     0
 74
     1
 95
       14
 96
       10
 40
0.0
 40
0.0
 40
0.0
 40
0.0
 40
1.0
 40
1.0
 40
1.0
 40
2.0
 40
2.0
 40
2.0
 40
3.0
 40
3.0
 40
3.0
 40
3.0
 10
15.83782740149891
 20
12.78616211824227
 10
15.83782740149891
 20
12.78723103488167
 10
15.83744640150863
 20
12.78850456262695
 10
15.83744640150863
 20
12.78974281259536
 10
15.83744640150863
 20
12.78840225707401
 10
15.83744640150863
 20
12.78723103488167
 10
15.83744640150863
 20
12.78588695158262
 10
15.83744640150863
 20
12.78609156268852
 10
15.83744640150863
 20
12.78616211824227
 10
15.83782740149891
 20
12.78616211824227
 97
        0
 97
        0
 75
     2
 76
     1
 98
        0
  0
ENDBLK
  5
57
330
54
100
AcDbEntity
  8
0
100
AcDbBlockEnd
  0
BLOCK
  5
5C
330
5A
100
AcDbEntity
  8
0
100
AcDbBlockBegin
  2
block 7
 70
     0
 10
0.0
 20
0.0
 30
0.0
  3
block 7
  1

  0
SPLINE
  5
5E
330
5A
100
AcDbEntity
  8
Calque 1
370
     0
100
AcDbSpline
210
0.0
220
0.0
230
1.0
 70
    11
 71
     3
 72
    23
 73
    19
 74
     0
 42
0.0000000001
 43
0.0000000001
 12
1.0
 22
0.0
 32
0.0
 13
1.0
 23
0.0
 33
0.0
 40
0.0
 40
0.0
 40
0.0
 40
0.0
 40
1.0
 40
1.0
 40
1.0
 40
2.0
 40
2.0
 40
2.0
 40
3.0
 40
3.0
 40
3.0
 40
4.0
 40
4.0
 40
4.0
 40
5.0
 40
5.0
 40
5.0
 40
6.0
 40
6.0
 40
6.0
 40
6.0
 10
14.60866888523673
 20
14.22318119269197
 30
0.0
 10
14.83335620490289
 20
13.81031831433609
 30
0.0
 10
14.96032797944135
 20
13.3385838819266
 30
0.0
 10
14.9695958295909
 20
12.84865669998124
 30
0.0
 10
14.9695958295909
 20
12.84848416345454
 30
0.0
 10
14.9695958295909
 20
12.83180803374441
 30
0.0
 10
14.9695958295909
 20
12.83180803374441
 30
0.0
 10
14.9695958295909
 20
12.83180803374441
 30
0.0
 10
14.96900984033096
 20
12.80996756207939
 30
0.0
 10
14.96900984033096
 20
12.79890797902821
 30
0.0
 10
14.79270562260664
 20
12.49473945901042
 30
0.0
 10
14.67243662567495
 20
12.15777671760705
 30
0.0
 10
14.61042534947922
 20
11.80451564328616
 30
0.0
 10
14.5482059343999
 20
12.15873980091581
 30
0.0
 10
14.42763002080938
 20
12.49666915340563
 30
0.0
 10
14.25086013643027
 20
12.8013530523552
 30
0.0
 10
14.25261696971878
 20
13.30757824382873
 30
0.0
 10
14.37684766099384
 20
13.79633067580406
 30
0.0
 10
14.60866888523673
 20
14.22318119269197
 30
0.0
  0
HATCH
  5
5F
330
5A
100
AcDbEntity
  8
Calque 1
 62
   179
420
  1842203
100
AcDbHatch
 10
0.0
 20
0.0
 30
0.0
210
0.0
220
0.0
230
1.0
  2
SOLID
 70
     1
 71
     0
 91
        1
 92
        1
 93
        1
 72
     4
 94
        3
 73
     0
 74
     1
 95
       23
 96
       19
 40
0.0
 40
0.0
 40
0.0
 40
0.0
 40
1.0
 40
1.0
 40
1.0
 40
2.0
 40
2.0
 40
2.0
 40
3.0
 40
3.0
 40
3.0
 40
4.0
 40
4.0
 40
4.0
 40
5.0
 40
5.0
 40
5.0
 40
6.0
 40
6.0
 40
6.0
 40
6.0
 10
14.60866888523673
 20
14.22318119269197
 10
14.83335620490289
 20
13.81031831433609
 10
14.96032797944135
 20
13.3385838819266
 10
14.9695958295909
 20
12.84865669998124
 10
14.9695958295909
 20
12.84848416345454
 10
14.9695958295909
 20
12.83180803374441
 10
14.9695958295909
 20
12.83180803374441
 10
14.9695958295909
 20
12.83180803374441
 10
14.96900984033096
 20
12.80996756207939
 10
14.96900984033096
 20
12.79890797902821
 10
14.79270562260664
 20
12.49473945901042
 10
14.67243662567495
 20
12.15777671760705
 10
14.61042534947922
 20
11.80451564328616
 10
14.5482059343999
 20
12.15873980091581
 10
14.42763002080938
 20
12.49666915340563
 10
14.25086013643027
 20
12.8013530523552
 10
14.25261696971878
 20
13.30757824382873
 10
14.37684766099384
 20
13.79633067580406
 10
14.60866888523673
 20
14.22318119269197
 97
        0
 97
        0
 75
     2
 76
     1
 98
        0
  0
ENDBLK
  5
5D
330
5A
100
AcDbEntity
  8
0
100
AcDbBlockEnd
  0
BLOCK
  5
62
330
60
100
AcDbEntity
  8
0
100
AcDbBlockBegin
  2
block 8
 70
     0
 10
0.0
 20
0.0
 30
0.0
  3
block 8
  1

  0
SPLINE
  5
64
330
60
100
AcDbEntity
  8
Calque 1
370
     0
100
AcDbSpline
210
0.0
220
0.0
230
1.0
 70
    11
 71
     3
 72
    23
 73
    19
 74
     0
 42
0.0000000001
 43
0.0000000001
 12
1.0
 22
0.0
 32
0.0
 13
1.0
 23
0.0
 33
0.0
 40
0.0
 40
0.0
 40
0.0
 40
0.0
 40
1.0
 40
1.0
 40
1.0
 40
2.0
 40
2.0
 40
2.0
 40
3.0
 40
3.0
 40
3.0
 40
4.0
 40
4.0
 40
4.0
 40
5.0
 40
5.0
 40
5.0
 40
6.0
 40
6.0
 40
6.0
 40
6.0
 10
15.06850375445933
 20
12.82939888568153
 30
0.0
 10
15.06850375445933
 20
12.82939888568153
 30
0.0
 10
15.06888122667192
 20
12.84862142220436
 30
0.0
 10
15.06888122667192
 20
12.84862142220436
 30
0.0
 10
15.07797583755101
 20
13.3385838819266
 30
0.0
 10
15.20489469542415
 20
13.81031831433609
 30
0.0
 10
15.42958277392037
 20
14.22311063713822
 30
0.0
 10
15.66202412820625
 20
13.79515945361172
 30
0.0
 10
15.78625481948131
 20
13.30520052166717
 30
0.0
 10
15.78759890278035
 20
12.79794489571944
 30
0.0
 10
15.61179562948769
 20
12.4940515423613
 30
0.0
 10
15.49180179921565
 20
12.15729341206383
 30
0.0
 10
15.42979052301991
 20
11.80424047662651
 30
0.0
 10
15.3675711079406
 20
12.16022146754468
 30
0.0
 10
15.2460638610405
 20
12.49966776444024
 30
0.0
 10
15.06791814336316
 20
12.80548728441591
 30
0.0
 10
15.06791814336316
 20
12.81699489523344
 30
0.0
 10
15.06850375445933
 20
12.82939888568153
 30
0.0
 10
15.06850375445933
 20
12.82939888568153
 30
0.0
  0
HATCH
  5
65
330
60
100
AcDbEntity
  8
Calque 1
 62
   179
420
  1842203
100
AcDbHatch
 10
0.0
 20
0.0
 30
0.0
210
0.0
220
0.0
230
1.0
  2
SOLID
 70
     1
 71
     0
 91
        1
 92
        1
 93
        1
 72
     4
 94
        3
 73
     0
 74
     1
 95
       23
 96
       19
 40
0.0
 40
0.0
 40
0.0
 40
0.0
 40
1.0
 40
1.0
 40
1.0
 40
2.0
 40
2.0
 40
2.0
 40
3.0
 40
3.0
 40
3.0
 40
4.0
 40
4.0
 40
4.0
 40
5.0
 40
5.0
 40
5.0
 40
6.0
 40
6.0
 40
6.0
 40
6.0
 10
15.06850375445933
 20
12.82939888568153
 10
15.06850375445933
 20
12.82939888568153
 10
15.06888122667192
 20
12.84862142220436
 10
15.06888122667192
 20
12.84862142220436
 10
15.07797583755101
 20
13.3385838819266
 10
15.20489469542415
 20
13.81031831433609
 10
15.42958277392037
 20
14.22311063713822
 10
15.66202412820625
 20
13.79515945361172
 10
15.78625481948131
 20
13.30520052166717
 10
15.78759890278035
 20
12.79794489571944
 10
15.61179562948769
 20
12.4940515423613
 10
15.49180179921565
 20
12.15729341206383
 10
15.42979052301991
 20
11.80424047662651
 10
15.3675711079406
 20
12.16022146754468
 10
15.2460638610405
 20
12.49966776444024
 10
15.06791814336316
 20
12.80548728441591
 10
15.06791814336316
 20
12.81699489523344
 10
15.06850375445933
 20
12.82939888568153
 10
15.06850375445933
 20
12.82939888568153
 97
        0
 97
        0
 75
     2
 76
     1
 98
        0
  0
ENDBLK
  5
63
330
60
100
AcDbEntity
  8
0
100
AcDbBlockEnd
  0
BLOCK
  5
68
330
66
100
AcDbEntity
  8
0
100
AcDbBlockBegin
  2
block 9
 70
     0
 10
0.0
 20
0.0
 30
0.0
  3
block 9
  1

  0
SPLINE
  5
6A
330
66
100
AcDbEntity
  8
Calque 1
370
     0
100
AcDbSpline
210
0.0
220
0.0
230
1.0
 70
    11
 71
     3
 72
    17
 73
    13
 74
     0
 42
0.0000000001
 43
0.0000000001
 12
1.0
 22
0.0
 32
0.0
 13
1.0
 23
0.0
 33
0.0
 40
0.0
 40
0.0
 40
0.0
 40
0.0
 40
1.0
 40
1.0
 40
1.0
 40
2.0
 40
2.0
 40
2.0
 40
3.0
 40
3.0
 40
3.0
 40
4.0
 40
4.0
 40
4.0
 40
4.0
 10
16.07912033978746
 20
13.85234860764802
 30
0.0
 10
16.31211241717667
 20
13.54163571007964
 30
0.0
 10
16.44078810833833
 20
13.16212444198401
 30
0.0
 10
16.44078810833833
 20
12.77203721902923
 30
0.0
 10
16.44078810833833
 20
12.4743100984205
 30
0.0
 10
16.36372027697116
 20
12.18516638357495
 30
0.0
 10
16.22385094720619
 20
11.92454475133507
 30
0.0
 10
16.15622344893151
 20
12.23777260445508
 30
0.0
 10
16.04494675732597
 20
12.53370376357191
 30
0.0
 10
15.88805590021748
 20
12.80431638568782
 30
0.0
 10
15.88939998351652
 20
13.16849913626582
 30
0.0
 10
15.95509778739599
 20
13.51993282174444
 30
0.0
 10
16.07912033978746
 20
13.85234860764802
 30
0.0
  0
HATCH
  5
6B
330
66
100
AcDbEntity
  8
Calque 1
 62
   179
420
  1842203
100
AcDbHatch
 10
0.0
 20
0.0
 30
0.0
210
0.0
220
0.0
230
1.0
  2
SOLID
 70
     1
 71
     0
 91
        1
 92
        1
 93
        1
 72
     4
 94
        3
 73
     0
 74
     1
 95
       17
 96
       13
 40
0.0
 40
0.0
 40
0.0
 40
0.0
 40
1.0
 40
1.0
 40
1.0
 40
2.0
 40
2.0
 40
2.0
 40
3.0
 40
3.0
 40
3.0
 40
4.0
 40
4.0
 40
4.0
 40
4.0
 10
16.07912033978746
 20
13.85234860764802
 10
16.31211241717667
 20
13.54163571007964
 10
16.44078810833833
 20
13.16212444198401
 10
16.44078810833833
 20
12.77203721902923
 10
16.44078810833833
 20
12.4743100984205
 10
16.36372027697116
 20
12.18516638357495
 10
16.22385094720619
 20
11.92454475133507
 10
16.15622344893151
 20
12.23777260445508
 10
16.04494675732597
 20
12.53370376357191
 10
15.88805590021748
 20
12.80431638568782
 10
15.88939998351652
 20
13.16849913626582
 10
15.95509778739599
 20
13.51993282174444
 10
16.07912033978746
 20
13.85234860764802
 97
        0
 97
        0
 75
     2
 76
     1
 98
        0
  0
ENDBLK
  5
69
330
66
100
AcDbEntity
  8
0
100
AcDbBlockEnd
  0
BLOCK
  5
6E
330
6C
100
AcDbEntity
  8
0
100
AcDbBlockBegin
  2
block 10
 70
     0
 10
0.0
 20
0.0
 30
0.0
  3
block 10
  1

  0
SPLINE
  5
70
330
6C
100
AcDbEntity
  8
Calque 1
370
     0
100
AcDbSpline
210
0.0
220
0.0
230
1.0
 70
    11
 71
     3
 72
    17
 73
    13
 74
     0
 42
0.0000000001
 43
0.0000000001
 12
1.0
 22
0.0
 32
0.0
 13
1.0
 23
0.0
 33
0.0
 40
0.0
 40
0.0
 40
0.0
 40
0.0
 40
1.0
 40
1.0
 40
1.0
 40
2.0
 40
2.0
 40
2.0
 40
3.0
 40
3.0
 40
3.0
 40
4.0
 40
4.0
 40
4.0
 40
4.0
 10
13.79104253705008
 20
14.22627858150184
 30
0.0
 10
14.02434505887581
 20
13.7985708146358
 30
0.0
 10
14.14895675014115
 20
13.30881649379714
 30
0.0
 10
14.15078061120573
 20
12.8013530523552
 30
0.0
 10
13.9740142546043
 20
12.49666915340563
 30
0.0
 10
13.8532619521294
 20
12.15873980091581
 30
0.0
 10
13.79104253705008
 20
11.80451564328616
 30
0.0
 10
13.72882664974845
 20
12.15873980091581
 30
0.0
 10
13.60828248615712
 20
12.49666915340563
 30
0.0
 10
13.43151260177801
 20
12.8013530523552
 30
0.0
 10
13.43333999062028
 20
13.30867891046731
 30
0.0
 10
13.55805398743856
 20
13.7985708146358
 30
0.0
 10
13.79104253705008
 20
14.22627858150184
 30
0.0
  0
HATCH
  5
71
330
6C
100
AcDbEntity
  8
Calque 1
 62
   179
420
  1842203
100
AcDbHatch
 10
0.0
 20
0.0
 30
0.0
210
0.0
220
0.0
230
1.0
  2
SOLID
 70
     1
 71
     0
 91
        1
 92
        1
 93
        1
 72
     4
 94
        3
 73
     0
 74
     1
 95
       17
 96
       13
 40
0.0
 40
0.0
 40
0.0
 40
0.0
 40
1.0
 40
1.0
 40
1.0
 40
2.0
 40
2.0
 40
2.0
 40
3.0
 40
3.0
 40
3.0
 40
4.0
 40
4.0
 40
4.0
 40
4.0
 10
13.79104253705008
 20
14.22627858150184
 10
14.02434505887581
 20
13.7985708146358
 10
14.14895675014115
 20
13.30881649379714
 10
14.15078061120573
 20
12.8013530523552
 10
13.9740142546043
 20
12.49666915340563
 10
13.8532619521294
 20
12.15873980091581
 10
13.79104253705008
 20
11.80451564328616
 10
13.72882664974845
 20
12.15873980091581
 10
13.60828248615712
 20
12.49666915340563
 10
13.43151260177801
 20
12.8013530523552
 10
13.43333999062028
 20
13.30867891046731
 10
13.55805398743856
 20
13.7985708146358
 10
13.79104253705008
 20
14.22627858150184
 97
        0
 97
        0
 75
     2
 76
     1
 98
        0
  0
ENDBLK
  5
6F
330
6C
100
AcDbEntity
  8
0
100
AcDbBlockEnd
  0
BLOCK
  5
74
330
72
100
AcDbEntity
  8
0
100
AcDbBlockBegin
  2
block 11
 70
     0
 10
0.0
 20
0.0
 30
0.0
  3
block 11
  1

  0
SPLINE
  5
76
330
72
100
AcDbEntity
  8
Calque 1
370
     0
100
AcDbSpline
210
0.0
220
0.0
230
1.0
 70
    11
 71
     3
 72
    20
 73
    16
 74
     0
 42
0.0000000001
 43
0.0000000001
 12
1.0
 22
0.0
 32
0.0
 13
1.0
 23
0.0
 33
0.0
 40
0.0
 40
0.0
 40
0.0
 40
0.0
 40
1.0
 40
1.0
 40
1.0
 40
2.0
 40
2.0
 40
2.0
 40
3.0
 40
3.0
 40
3.0
 40
4.0
 40
4.0
 40
4.0
 40
5.0
 40
5.0
 40
5.0
 40
5.0
 10
12.83713145027527
 20
12.77203721902923
 30
0.0
 10
12.83713145027527
 20
12.77203721902923
 30
0.0
 10
12.83713145027527
 20
12.77203721902923
 30
0.0
 10
12.83713145027527
 20
12.77203721902923
 30
0.0
 10
12.83713145027527
 20
13.14217838693732
 30
0.0
 10
12.9521616973406
 20
13.49178468357367
 30
0.0
 10
13.16141888644645
 20
13.79333559254714
 30
0.0
 10
13.27145380030589
 20
13.47724671172235
 30
0.0
 10
13.33015954880818
 20
13.14441852576905
 30
0.0
 10
13.33133110777827
 20
12.8008729512003
 30
0.0
 10
13.1881876635413
 20
12.55423895749246
 30
0.0
 10
13.08328213843989
 20
12.2855881032352
 30
0.0
 10
13.01420825131322
 20
12.00178221922176
 30
0.0
 10
12.9002116431104
 20
12.24211177101104
 30
0.0
 10
12.83713145027527
 20
12.50476540319908
 30
0.0
 10
12.83713145027527
 20
12.77203721902923
 30
0.0
  0
HATCH
  5
77
330
72
100
AcDbEntity
  8
Calque 1
 62
   179
420
  1842203
100
AcDbHatch
 10
0.0
 20
0.0
 30
0.0
210
0.0
220
0.0
230
1.0
  2
SOLID
 70
     1
 71
     0
 91
        1
 92
        1
 93
        1
 72
     4
 94
        3
 73
     0
 74
     1
 95
       20
 96
       16
 40
0.0
 40
0.0
 40
0.0
 40
0.0
 40
1.0
 40
1.0
 40
1.0
 40
2.0
 40
2.0
 40
2.0
 40
3.0
 40
3.0
 40
3.0
 40
4.0
 40
4.0
 40
4.0
 40
5.0
 40
5.0
 40
5.0
 40
5.0
 10
12.83713145027527
 20
12.77203721902923
 10
12.83713145027527
 20
12.77203721902923
 10
12.83713145027527
 20
12.77203721902923
 10
12.83713145027527
 20
12.77203721902923
 10
12.83713145027527
 20
13.14217838693732
 10
12.9521616973406
 20
13.49178468357367
 10
13.16141888644645
 20
13.79333559254714
 10
13.27145380030589
 20
13.47724671172235
 10
13.33015954880818
 20
13.14441852576905
 10
13.33133110777827
 20
12.8008729512003
 10
13.1881876635413
 20
12.55423895749246
 10
13.08328213843989
 20
12.2855881032352
 10
13.01420825131322
 20
12.00178221922176
 10
12.9002116431104
 20
12.24211177101104
 10
12.83713145027527
 20
12.50476540319908
 10
12.83713145027527
 20
12.77203721902923
 97
        0
 97
        0
 75
     2
 76
     1
 98
        0
  0
ENDBLK
  5
75
330
72
100
AcDbEntity
  8
0
100
AcDbBlockEnd
  0
BLOCK
  5
7A
330
78
100
AcDbEntity
  8
0
100
AcDbBlockBegin
  2
block 12
 70
     0
 10
0.0
 20
0.0
 30
0.0
  3
block 12
  1

  0
SPLINE
  5
7C
330
78
100
AcDbEntity
  8
Calque 1
370
     0
100
AcDbSpline
210
0.0
220
0.0
230
1.0
 70
    11
 71
     3
 72
    17
 73
    13
 74
     0
 42
0.0000000001
 43
0.0000000001
 12
1.0
 22
0.0
 32
0.0
 13
1.0
 23
0.0
 33
0.0
 40
0.0
 40
0.0
 40
0.0
 40
0.0
 40
1.0
 40
1.0
 40
1.0
 40
2.0
 40
2.0
 40
2.0
 40
3.0
 40
3.0
 40
3.0
 40
4.0
 40
4.0
 40
4.0
 40
4.0
 10
13.38194026970937
 20
12.68480553749476
 30
0.0
 10
13.61651666326252
 20
12.25396157626428
 30
0.0
 10
13.74139999656466
 20
11.76007269997555
 30
0.0
 10
13.74139999656466
 20
11.24882362968527
 30
0.0
 10
13.74139999656466
 20
11.24882362968527
 30
0.0
 10
13.74112448276804
 20
11.22873646353107
 30
0.0
 10
13.74081403833152
 20
11.21474882499903
 30
0.0
 10
13.46899523971063
 20
11.3718478209911
 30
0.0
 10
13.24237785660324
 20
11.59346987089261
 30
0.0
 10
13.08356083287722
 20
11.86525339173661
 30
0.0
 10
13.1424711924854
 20
12.15688066207436
 30
0.0
 10
13.24389480100898
 20
12.43145465506939
 30
0.0
 10
13.38194026970937
 20
12.68480553749476
 30
0.0
  0
HATCH
  5
7D
330
78
100
AcDbEntity
  8
Calque 1
 62
   179
420
  1842203
100
AcDbHatch
 10
0.0
 20
0.0
 30
0.0
210
0.0
220
0.0
230
1.0
  2
SOLID
 70
     1
 71
     0
 91
        1
 92
        1
 93
        1
 72
     4
 94
        3
 73
     0
 74
     1
 95
       17
 96
       13
 40
0.0
 40
0.0
 40
0.0
 40
0.0
 40
1.0
 40
1.0
 40
1.0
 40
2.0
 40
2.0
 40
2.0
 40
3.0
 40
3.0
 40
3.0
 40
4.0
 40
4.0
 40
4.0
 40
4.0
 10
13.38194026970937
 20
12.68480553749476
 10
13.61651666326252
 20
12.25396157626428
 10
13.74139999656466
 20
11.76007269997555
 10
13.74139999656466
 20
11.24882362968527
 10
13.74139999656466
 20
11.24882362968527
 10
13.74112448276804
 20
11.22873646353107
 10
13.74081403833152
 20
11.21474882499903
 10
13.46899523971063
 20
11.3718478209911
 10
13.24237785660324
 20
11.59346987089261
 10
13.08356083287722
 20
11.86525339173661
 10
13.1424711924854
 20
12.15688066207436
 10
13.24389480100898
 20
12.43145465506939
 10
13.38194026970937
 20
12.68480553749476
 97
        0
 97
        0
 75
     2
 76
     1
 98
        0
  0
ENDBLK
  5
7B
330
78
100
AcDbEntity
  8
0
100
AcDbBlockEnd
  0
BLOCK
  5
80
330
7E
100
AcDbEntity
  8
0
100
AcDbBlockBegin
  2
block 13
 70
     0
 10
0.0
 20
0.0
 30
0.0
  3
block 13
  1

  0
SPLINE
  5
82
330
7E
100
AcDbEntity
  8
Calque 1
370
     0
100
AcDbSpline
210
0.0
220
0.0
230
1.0
 70
    11
 71
     3
 72
    20
 73
    16
 74
     0
 42
0.0000000001
 43
0.0000000001
 12
1.0
 22
0.0
 32
0.0
 13
1.0
 23
0.0
 33
0.0
 40
0.0
 40
0.0
 40
0.0
 40
0.0
 40
1.0
 40
1.0
 40
1.0
 40
2.0
 40
2.0
 40
2.0
 40
3.0
 40
3.0
 40
3.0
 40
4.0
 40
4.0
 40
4.0
 40
5.0
 40
5.0
 40
5.0
 40
5.0
 10
13.84072070244935
 20
11.24882362968527
 30
0.0
 10
13.84072070244935
 20
11.76028083885913
 30
0.0
 10
13.96591800481086
 20
12.25458277471412
 30
0.0
 10
14.20083977659528
 20
12.68552873192075
 30
0.0
 10
14.43575802060202
 20
12.25458277471412
 30
0.0
 10
14.56074718407995
 20
11.76038314441207
 30
0.0
 10
14.56074718407995
 20
11.24882362968527
 30
0.0
 10
14.56074718407995
 20
11.15818090977553
 30
0.0
 10
14.55468293423466
 20
11.0662681898982
 30
0.0
 10
14.54665723999497
 20
10.97507513666917
 30
0.0
 10
14.29974807962748
 20
10.98744352524252
 30
0.0
 10
14.06306947455454
 20
11.04821302369216
 30
0.0
 10
13.84254809129162
 20
11.15732013201971
 30
0.0
 10
13.84196248019545
 20
11.19163482558872
 30
0.0
 10
13.84072070244935
 20
11.24882362968527
 30
0.0
 10
13.84072070244935
 20
11.24882362968527
 30
0.0
  0
HATCH
  5
83
330
7E
100
AcDbEntity
  8
Calque 1
 62
   179
420
  1842203
100
AcDbHatch
 10
0.0
 20
0.0
 30
0.0
210
0.0
220
0.0
230
1.0
  2
SOLID
 70
     1
 71
     0
 91
        1
 92
        1
 93
        1
 72
     4
 94
        3
 73
     0
 74
     1
 95
       20
 96
       16
 40
0.0
 40
0.0
 40
0.0
 40
0.0
 40
1.0
 40
1.0
 40
1.0
 40
2.0
 40
2.0
 40
2.0
 40
3.0
 40
3.0
 40
3.0
 40
4.0
 40
4.0
 40
4.0
 40
5.0
 40
5.0
 40
5.0
 40
5.0
 10
13.84072070244935
 20
11.24882362968527
 10
13.84072070244935
 20
11.76028083885913
 10
13.96591800481086
 20
12.25458277471412
 10
14.20083977659528
 20
12.68552873192075
 10
14.43575802060202
 20
12.25458277471412
 10
14.56074718407995
 20
11.76038314441207
 10
14.56074718407995
 20
11.24882362968527
 10
14.56074718407995
 20
11.15818090977553
 10
14.55468293423466
 20
11.0662681898982
 10
14.54665723999497
 20
10.97507513666917
 10
14.29974807962748
 20
10.98744352524252
 10
14.06306947455454
 20
11.04821302369216
 10
13.84254809129162
 20
11.15732013201971
 10
13.84196248019545
 20
11.19163482558872
 10
13.84072070244935
 20
11.24882362968527
 10
13.84072070244935
 20
11.24882362968527
 97
        0
 97
        0
 75
     2
 76
     1
 98
        0
  0
ENDBLK
  5
81
330
7E
100
AcDbEntity
  8
0
100
AcDbBlockEnd
  0
BLOCK
  5
86
330
84
100
AcDbEntity
  8
0
100
AcDbBlockBegin
  2
block 14
 70
     0
 10
0.0
 20
0.0
 30
0.0
  3
block 14
  1

  0
SPLINE
  5
88
330
84
100
AcDbEntity
  8
Calque 1
370
     0
100
AcDbSpline
210
0.0
220
0.0
230
1.0
 70
    11
 71
     3
 72
    26
 73
    22
 74
     0
 42
0.0000000001
 43
0.0000000001
 12
1.0
 22
0.0
 32
0.0
 13
1.0
 23
0.0
 33
0.0
 40
0.0
 40
0.0
 40
0.0
 40
0.0
 40
1.0
 40
1.0
 40
1.0
 40
2.0
 40
2.0
 40
2.0
 40
3.0
 40
3.0
 40
3.0
 40
4.0
 40
4.0
 40
4.0
 40
5.0
 40
5.0
 40
5.0
 40
6.0
 40
6.0
 40
6.0
 40
7.0
 40
7.0
 40
7.0
 40
7.0
 10
14.66006860744608
 20
11.24882362968527
 30
0.0
 10
14.66006860744608
 20
11.24882362968527
 30
0.0
 10
14.66006860744608
 20
11.24882362968527
 30
0.0
 10
14.66006860744608
 20
11.24882362968527
 30
0.0
 10
14.66006860744608
 20
11.76028083885913
 30
0.0
 10
14.78526553946312
 20
12.25454749693635
 30
0.0
 10
15.02040956124187
 20
12.68552873192075
 30
0.0
 10
15.25453758304654
 20
12.25565138177673
 30
0.0
 10
15.37973135763036
 20
11.76265856102069
 30
0.0
 10
15.38031696872653
 20
11.25226674070854
 30
0.0
 10
15.38031696872653
 20
11.25226674070854
 30
0.0
 10
15.38031696872653
 20
11.25226674070854
 30
0.0
 10
15.38031696872653
 20
11.25199157404889
 30
0.0
 10
15.38031696872653
 20
11.24840735191811
 30
0.0
 10
15.37821832948877
 20
11.17333977049991
 30
0.0
 10
15.37704671880996
 20
11.12951771606235
 30
0.0
 10
15.15504366891818
 20
11.02947346861469
 30
0.0
 10
14.91898595271829
 20
10.97672966440474
 30
0.0
 10
14.67436632007017
 20
10.97197422008162
 30
0.0
 10
14.66623479249984
 20
11.06461366216263
 30
0.0
 10
14.66006860744608
 20
11.15732013201971
 30
0.0
 10
14.66006860744608
 20
11.24882362968527
 30
0.0
  0
HATCH
  5
89
330
84
100
AcDbEntity
  8
Calque 1
 62
   179
420
  1842203
100
AcDbHatch
 10
0.0
 20
0.0
 30
0.0
210
0.0
220
0.0
230
1.0
  2
SOLID
 70
     1
 71
     0
 91
        1
 92
        1
 93
        1
 72
     4
 94
        3
 73
     0
 74
     1
 95
       26
 96
       22
 40
0.0
 40
0.0
 40
0.0
 40
0.0
 40
1.0
 40
1.0
 40
1.0
 40
2.0
 40
2.0
 40
2.0
 40
3.0
 40
3.0
 40
3.0
 40
4.0
 40
4.0
 40
4.0
 40
5.0
 40
5.0
 40
5.0
 40
6.0
 40
6.0
 40
6.0
 40
7.0
 40
7.0
 40
7.0
 40
7.0
 10
14.66006860744608
 20
11.24882362968527
 10
14.66006860744608
 20
11.24882362968527
 10
14.66006860744608
 20
11.24882362968527
 10
14.66006860744608
 20
11.24882362968527
 10
14.66006860744608
 20
11.76028083885913
 10
14.78526553946312
 20
12.25454749693635
 10
15.02040956124187
 20
12.68552873192075
 10
15.25453758304654
 20
12.25565138177673
 10
15.37973135763036
 20
11.76265856102069
 10
15.38031696872653
 20
11.25226674070854
 10
15.38031696872653
 20
11.25226674070854
 10
15.38031696872653
 20
11.25226674070854
 10
15.38031696872653
 20
11.25199157404889
 10
15.38031696872653
 20
11.24840735191811
 10
15.37821832948877
 20
11.17333977049991
 10
15.37704671880996
 20
11.12951771606235
 10
15.15504366891818
 20
11.02947346861469
 10
14.91898595271829
 20
10.97672966440474
 10
14.67436632007017
 20
10.97197422008162
 10
14.66623479249984
 20
11.06461366216263
 10
14.66006860744608
 20
11.15732013201971
 10
14.66006860744608
 20
11.24882362968527
 97
        0
 97
        0
 75
     2
 76
     1
 98
        0
  0
ENDBLK
  5
87
330
84
100
AcDbEntity
  8
0
100
AcDbBlockEnd
  0
BLOCK
  5
8C
330
8A
100
AcDbEntity
  8
0
100
AcDbBlockBegin
  2
block 15
 70
     0
 10
0.0
 20
0.0
 30
0.0
  3
block 15
  1

  0
SPLINE
  5
8E
330
8A
100
AcDbEntity
  8
Calque 1
370
     0
100
AcDbSpline
210
0.0
220
0.0
230
1.0
 70
    11
 71
     3
 72
    17
 73
    13
 74
     0
 42
0.0000000001
 43
0.0000000001
 12
1.0
 22
0.0
 32
0.0
 13
1.0
 23
0.0
 33
0.0
 40
0.0
 40
0.0
 40
0.0
 40
0.0
 40
1.0
 40
1.0
 40
1.0
 40
2.0
 40
2.0
 40
2.0
 40
3.0
 40
3.0
 40
3.0
 40
4.0
 40
4.0
 40
4.0
 40
4.0
 10
15.47943341064231
 20
11.24882362968527
 30
0.0
 10
15.48022716062206
 20
11.76203767214764
 30
0.0
 10
15.60500818521641
 20
12.25482588179779
 30
0.0
 10
15.83917148479796
 20
12.68435750972841
 30
0.0
 10
15.98851642543229
 20
12.41002693339384
 30
0.0
 10
16.09438503384247
 20
12.11171452433775
 30
0.0
 10
16.15060722685257
 20
11.79438739354455
 30
0.0
 10
15.98290020335335
 20
11.53524742793354
 30
0.0
 10
15.75204243146525
 20
11.3270274054679
 30
0.0
 10
15.48119024393082
 20
11.18319285358187
 30
0.0
 10
15.48022716062206
 20
11.21575071386236
 30
0.0
 10
15.47943341064231
 20
11.24882362968527
 30
0.0
 10
15.47943341064231
 20
11.24882362968527
 30
0.0
  0
HATCH
  5
8F
330
8A
100
AcDbEntity
  8
Calque 1
 62
   179
420
  1842203
100
AcDbHatch
 10
0.0
 20
0.0
 30
0.0
210
0.0
220
0.0
230
1.0
  2
SOLID
 70
     1
 71
     0
 91
        1
 92
        1
 93
        1
 72
     4
 94
        3
 73
     0
 74
     1
 95
       17
 96
       13
 40
0.0
 40
0.0
 40
0.0
 40
0.0
 40
1.0
 40
1.0
 40
1.0
 40
2.0
 40
2.0
 40
2.0
 40
3.0
 40
3.0
 40
3.0
 40
4.0
 40
4.0
 40
4.0
 40
4.0
 10
15.47943341064231
 20
11.24882362968527
 10
15.48022716062206
 20
11.76203767214764
 10
15.60500818521641
 20
12.25482588179779
 10
15.83917148479796
 20
12.68435750972841
 10
15.98851642543229
 20
12.41002693339384
 10
16.09438503384247
 20
12.11171452433775
 10
16.15060722685257
 20
11.79438739354455
 10
15.98290020335335
 20
11.53524742793354
 10
15.75204243146525
 20
11.3270274054679
 10
15.48119024393082
 20
11.18319285358187
 10
15.48022716062206
 20
11.21575071386236
 10
15.47943341064231
 20
11.24882362968527
 10
15.47943341064231
 20
11.24882362968527
 97
        0
 97
        0
 75
     2
 76
     1
 98
        0
  0
ENDBLK
  5
8D
330
8A
100
AcDbEntity
  8
0
100
AcDbBlockEnd
  0
BLOCK
  5
92
330
90
100
AcDbEntity
  8
0
100
AcDbBlockBegin
  2
block 16
 70
     0
 10
0.0
 20
0.0
 30
0.0
  3
block 16
  1

  0
SPLINE
  5
94
330
90
100
AcDbEntity
  8
Calque 1
370
     0
100
AcDbSpline
210
0.0
220
0.0
230
1.0
 70
    11
 71
     3
 72
    41
 73
    37
 74
     0
 42
0.0000000001
 43
0.0000000001
 12
1.0
 22
0.0
 32
0.0
 13
1.0
 23
0.0
 33
0.0
 40
0.0
 40
0.0
 40
0.0
 40
0.0
 40
1.0
 40
1.0
 40
1.0
 40
2.0
 40
2.0
 40
2.0
 40
3.0
 40
3.0
 40
3.0
 40
4.0
 40
4.0
 40
4.0
 40
5.0
 40
5.0
 40
5.0
 40
6.0
 40
6.0
 40
6.0
 40
7.0
 40
7.0
 40
7.0
 40
8.0
 40
8.0
 40
8.0
 40
9.0
 40
9.0
 40
9.0
 40
10.0
 40
10.0
 40
10.0
 40
11.0
 40
11.0
 40
11.0
 40
12.0
 40
12.0
 40
12.0
 40
12.0
 10
11.09997638611391
 20
9.28777081860478
 30
0.0
 10
11.09997638611391
 20
9.32725017870869
 30
0.0
 10
11.11949177187368
 20
9.34695634487261
 30
0.0
 10
11.15890410420153
 20
9.34695634487261
 30
0.0
 10
11.15890410420153
 20
9.34695634487261
 30
0.0
 10
11.45304668003066
 20
9.34695634487261
 30
0.0
 10
11.45304668003066
 20
9.34695634487261
 30
0.0
 10
11.51901965056977
 20
9.34695634487261
 30
0.0
 10
11.57467739914982
 20
9.32397992879212
 30
0.0
 10
11.62006578688076
 20
9.278401041066045
 30
0.0
 10
11.66576461904821
 20
9.232716320009338
 30
0.0
 10
11.68826125736317
 20
9.176977432542467
 30
0.0
 10
11.68826125736317
 20
9.110761045342898
 30
0.0
 10
11.68826125736317
 20
9.110761045342898
 30
0.0
 10
11.68826125736317
 20
8.756949637702713
 30
0.0
 10
11.68826125736317
 20
8.756949637702713
 30
0.0
 10
11.68826125736317
 20
8.691424694929948
 30
0.0
 10
11.66576461904821
 20
8.635615251909321
 30
0.0
 10
11.62046089798179
 20
8.589828225299668
 30
0.0
 10
11.57505487136241
 20
8.543836587584124
 30
0.0
 10
11.51941828944849
 20
8.521029720091938
 30
0.0
 10
11.45353027491441
 20
8.521029720091938
 30
0.0
 10
11.45353027491441
 20
8.521029720091938
 30
0.0
 10
11.21869640823165
 20
8.521029720091938
 30
0.0
 10
11.21869640823165
 20
8.521029720091938
 30
0.0
 10
11.21869640823165
 20
8.521029720091938
 30
0.0
 10
11.21869640823165
 20
8.225648886832465
 30
0.0
 10
11.21869640823165
 20
8.225648886832465
 30
0.0
 10
11.21869640823165
 20
8.186303374483334
 30
0.0
 10
11.1988844087371
 20
8.166597208319413
 30
0.0
 10
11.15928510419181
 20
8.166597208319413
 30
0.0
 10
11.11987305277558
 20
8.166597208319413
 30
0.0
 10
11.09997638611391
 20
8.186303374483334
 30
0.0
 10
11.09997638611391
 20
8.225648886832465
 30
0.0
 10
11.09997638611391
 20
8.225648886832465
 30
0.0
 10
11.09997638611391
 20
9.28777081860478
 30
0.0
 10
11.09997638611391
 20
9.28777081860478
 30
0.0
  0
SPLINE
  5
95
330
90
100
AcDbEntity
  8
Calque 1
370
     0
100
AcDbSpline
210
0.0
220
0.0
230
1.0
 70
    11
 71
     3
 72
    29
 73
    25
 74
     0
 42
0.0000000001
 43
0.0000000001
 12
1.0
 22
0.0
 32
0.0
 13
1.0
 23
0.0
 33
0.0
 40
0.0
 40
0.0
 40
0.0
 40
0.0
 40
1.0
 40
1.0
 40
1.0
 40
2.0
 40
2.0
 40
2.0
 40
3.0
 40
3.0
 40
3.0
 40
4.0
 40
4.0
 40
4.0
 40
5.0
 40
5.0
 40
5.0
 40
6.0
 40
6.0
 40
6.0
 40
7.0
 40
7.0
 40
7.0
 40
8.0
 40
8.0
 40
8.0
 40
8.0
 10
11.21869640823165
 20
9.228169014569794
 30
0.0
 10
11.21869640823165
 20
9.228169014569794
 30
0.0
 10
11.21869640823165
 20
8.639749807359395
 30
0.0
 10
11.21869640823165
 20
8.639749807359395
 30
0.0
 10
11.21869640823165
 20
8.639749807359395
 30
0.0
 10
11.45265156892963
 20
8.639749807359395
 30
0.0
 10
11.45265156892963
 20
8.639749807359395
 30
0.0
 10
11.48520590143243
 20
8.639749807359395
 30
0.0
 10
11.5128354562831
 20
8.65097872373959
 30
0.0
 10
11.53564253903457
 20
8.674060973150711
 30
0.0
 10
11.55843198289761
 20
8.696868055902188
 30
0.0
 10
11.56974909372
 20
8.724772777412502
 30
0.0
 10
11.56974909372
 20
8.757157776586292
 30
0.0
 10
11.56974909372
 20
8.757157776586292
 30
0.0
 10
11.56974909372
 20
9.110415553277937
 30
0.0
 10
11.56974909372
 20
9.110415553277937
 30
0.0
 10
11.56974909372
 20
9.143731655612859
 30
0.0
 10
11.55843198289761
 20
9.171636377123173
 30
0.0
 10
11.5361258445778
 20
9.194341386590317
 30
0.0
 10
11.51361156737441
 20
9.216869542635845
 30
0.0
 10
11.4857915125286
 20
9.228169014569794
 30
0.0
 10
11.45265156892963
 20
9.228169014569794
 30
0.0
 10
11.45265156892963
 20
9.228169014569794
 30
0.0
 10
11.21869640823165
 20
9.228169014569794
 30
0.0
 10
11.21869640823165
 20
9.228169014569794
 30
0.0
  0
HATCH
  5
96
330
90
100
AcDbEntity
  8
Calque 1
 62
   179
420
  1842203
100
AcDbHatch
 10
0.0
 20
0.0
 30
0.0
210
0.0
220
0.0
230
1.0
  2
SOLID
 70
     1
 71
     0
 91
        2
 92
        1
 93
        1
 72
     4
 94
        3
 73
     0
 74
     1
 95
       41
 96
       37
 40
0.0
 40
0.0
 40
0.0
 40
0.0
 40
1.0
 40
1.0
 40
1.0
 40
2.0
 40
2.0
 40
2.0
 40
3.0
 40
3.0
 40
3.0
 40
4.0
 40
4.0
 40
4.0
 40
5.0
 40
5.0
 40
5.0
 40
6.0
 40
6.0
 40
6.0
 40
7.0
 40
7.0
 40
7.0
 40
8.0
 40
8.0
 40
8.0
 40
9.0
 40
9.0
 40
9.0
 40
10.0
 40
10.0
 40
10.0
 40
11.0
 40
11.0
 40
11.0
 40
12.0
 40
12.0
 40
12.0
 40
12.0
 10
11.09997638611391
 20
9.28777081860478
 10
11.09997638611391
 20
9.32725017870869
 10
11.11949177187368
 20
9.34695634487261
 10
11.15890410420153
 20
9.34695634487261
 10
11.15890410420153
 20
9.34695634487261
 10
11.45304668003066
 20
9.34695634487261
 10
11.45304668003066
 20
9.34695634487261
 10
11.51901965056977
 20
9.34695634487261
 10
11.57467739914982
 20
9.32397992879212
 10
11.62006578688076
 20
9.278401041066045
 10
11.66576461904821
 20
9.232716320009338
 10
11.68826125736317
 20
9.176977432542467
 10
11.68826125736317
 20
9.110761045342898
 10
11.68826125736317
 20
9.110761045342898
 10
11.68826125736317
 20
8.756949637702713
 10
11.68826125736317
 20
8.756949637702713
 10
11.68826125736317
 20
8.691424694929948
 10
11.66576461904821
 20
8.635615251909321
 10
11.62046089798179
 20
8.589828225299668
 10
11.57505487136241
 20
8.543836587584124
 10
11.51941828944849
 20
8.521029720091938
 10
11.45353027491441
 20
8.521029720091938
 10
11.45353027491441
 20
8.521029720091938
 10
11.21869640823165
 20
8.521029720091938
 10
11.21869640823165
 20
8.521029720091938
 10
11.21869640823165
 20
8.521029720091938
 10
11.21869640823165
 20
8.225648886832465
 10
11.21869640823165
 20
8.225648886832465
 10
11.21869640823165
 20
8.186303374483334
 10
11.1988844087371
 20
8.166597208319413
 10
11.15928510419181
 20
8.166597208319413
 10
11.11987305277558
 20
8.166597208319413
 10
11.09997638611391
 20
8.186303374483334
 10
11.09997638611391
 20
8.225648886832465
 10
11.09997638611391
 20
8.225648886832465
 10
11.09997638611391
 20
9.28777081860478
 10
11.09997638611391
 20
9.28777081860478
 97
        0
 97
        0
 92
        1
 93
        1
 72
     4
 94
        3
 73
     0
 74
     1
 95
       29
 96
       25
 40
0.0
 40
0.0
 40
0.0
 40
0.0
 40
1.0
 40
1.0
 40
1.0
 40
2.0
 40
2.0
 40
2.0
 40
3.0
 40
3.0
 40
3.0
 40
4.0
 40
4.0
 40
4.0
 40
5.0
 40
5.0
 40
5.0
 40
6.0
 40
6.0
 40
6.0
 40
7.0
 40
7.0
 40
7.0
 40
8.0
 40
8.0
 40
8.0
 40
8.0
 10
11.21869640823165
 20
9.228169014569794
 10
11.21869640823165
 20
9.228169014569794
 10
11.21869640823165
 20
8.639749807359395
 10
11.21869640823165
 20
8.639749807359395
 10
11.21869640823165
 20
8.639749807359395
 10
11.45265156892963
 20
8.639749807359395
 10
11.45265156892963
 20
8.639749807359395
 10
11.48520590143243
 20
8.639749807359395
 10
11.5128354562831
 20
8.65097872373959
 10
11.53564253903457
 20
8.674060973150711
 10
11.55843198289761
 20
8.696868055902188
 10
11.56974909372
 20
8.724772777412502
 10
11.56974909372
 20
8.757157776586292
 10
11.56974909372
 20
8.757157776586292
 10
11.56974909372
 20
9.110415553277937
 10
11.56974909372
 20
9.110415553277937
 10
11.56974909372
 20
9.143731655612859
 10
11.55843198289761
 20
9.171636377123173
 10
11.5361258445778
 20
9.194341386590317
 10
11.51361156737441
 20
9.216869542635845
 10
11.4857915125286
 20
9.228169014569794
 10
11.45265156892963
 20
9.228169014569794
 10
11.45265156892963
 20
9.228169014569794
 10
11.21869640823165
 20
9.228169014569794
 10
11.21869640823165
 20
9.228169014569794
 97
        0
 97
        0
 75
     2
 76
     1
 98
        0
  0
SPLINE
  5
97
330
90
100
AcDbEntity
  8
Calque 1
370
     0
100
AcDbSpline
210
0.0
220
0.0
230
1.0
 70
    11
 71
     3
 72
    23
 73
    19
 74
     0
 42
0.0000000001
 43
0.0000000001
 12
1.0
 22
0.0
 32
0.0
 13
1.0
 23
0.0
 33
0.0
 40
0.0
 40
0.0
 40
0.0
 40
0.0
 40
1.0
 40
1.0
 40
1.0
 40
2.0
 40
2.0
 40
2.0
 40
3.0
 40
3.0
 40
3.0
 40
4.0
 40
4.0
 40
4.0
 40
5.0
 40
5.0
 40
5.0
 40
6.0
 40
6.0
 40
6.0
 40
6.0
 10
12.63166694128653
 20
9.581602949997388
 30
0.0
 10
12.63166694128653
 20
9.581602949997388
 30
0.0
 10
12.63166694128653
 20
9.640615615158515
 30
0.0
 10
12.63166694128653
 20
9.640615615158515
 30
0.0
 10
12.63166694128653
 20
9.679960919710288
 30
0.0
 10
12.6513727883477
 20
9.69945894699063
 30
0.0
 10
12.69095798178224
 20
9.69945894699063
 30
0.0
 10
12.73047261966303
 20
9.69945894699063
 30
0.0
 10
12.75028109137989
 20
9.679960919710288
 30
0.0
 10
12.75028109137989
 20
9.640615615158515
 30
0.0
 10
12.75028109137989
 20
9.640615615158515
 30
0.0
 10
12.75028109137989
 20
9.581602949997388
 30
0.0
 10
12.75028109137989
 20
9.581602949997388
 30
0.0
 10
12.75028109137989
 20
9.542190617669545
 30
0.0
 10
12.73047261966303
 20
9.522484451505626
 30
0.0
 10
12.69095798178224
 20
9.522484451505626
 30
0.0
 10
12.6513727883477
 20
9.522484451505626
 30
0.0
 10
12.63166694128653
 20
9.542190617669545
 30
0.0
 10
12.63166694128653
 20
9.581602949997388
 30
0.0
  0
SPLINE
  5
98
330
90
100
AcDbEntity
  8
Calque 1
370
     0
100
AcDbSpline
210
0.0
220
0.0
230
1.0
 70
    11
 71
     3
 72
    23
 73
    19
 74
     0
 42
0.0000000001
 43
0.0000000001
 12
1.0
 22
0.0
 32
0.0
 13
1.0
 23
0.0
 33
0.0
 40
0.0
 40
0.0
 40
0.0
 40
0.0
 40
1.0
 40
1.0
 40
1.0
 40
2.0
 40
2.0
 40
2.0
 40
3.0
 40
3.0
 40
3.0
 40
4.0
 40
4.0
 40
4.0
 40
5.0
 40
5.0
 40
5.0
 40
6.0
 40
6.0
 40
6.0
 40
6.0
 10
12.63166694128653
 20
9.287460374168257
 30
0.0
 10
12.63166694128653
 20
9.326872706496097
 30
0.0
 10
12.6513727883477
 20
9.346406011553317
 30
0.0
 10
12.69095798178224
 20
9.346406011553317
 30
0.0
 10
12.73047261966303
 20
9.346406011553317
 30
0.0
 10
12.75028109137989
 20
9.326872706496097
 30
0.0
 10
12.75028109137989
 20
9.287460374168257
 30
0.0
 10
12.75028109137989
 20
9.287460374168257
 30
0.0
 10
12.75028109137989
 20
8.579873053410612
 30
0.0
 10
12.75028109137989
 20
8.579873053410612
 30
0.0
 10
12.75028109137989
 20
8.540460504336922
 30
0.0
 10
12.73047261966303
 20
8.521029720091938
 30
0.0
 10
12.69095798178224
 20
8.521029720091938
 30
0.0
 10
12.6513727883477
 20
8.521029720091938
 30
0.0
 10
12.63166694128653
 20
8.540460504336922
 30
0.0
 10
12.63166694128653
 20
8.579873053410612
 30
0.0
 10
12.63166694128653
 20
8.579873053410612
 30
0.0
 10
12.63166694128653
 20
9.287460374168257
 30
0.0
 10
12.63166694128653
 20
9.287460374168257
 30
0.0
  0
HATCH
  5
99
330
90
100
AcDbEntity
  8
Calque 1
 62
   179
420
  1842203
100
AcDbHatch
 10
0.0
 20
0.0
 30
0.0
210
0.0
220
0.0
230
1.0
  2
SOLID
 70
     1
 71
     0
 91
        2
 92
        1
 93
        1
 72
     4
 94
        3
 73
     0
 74
     1
 95
       23
 96
       19
 40
0.0
 40
0.0
 40
0.0
 40
0.0
 40
1.0
 40
1.0
 40
1.0
 40
2.0
 40
2.0
 40
2.0
 40
3.0
 40
3.0
 40
3.0
 40
4.0
 40
4.0
 40
4.0
 40
5.0
 40
5.0
 40
5.0
 40
6.0
 40
6.0
 40
6.0
 40
6.0
 10
12.63166694128653
 20
9.581602949997388
 10
12.63166694128653
 20
9.581602949997388
 10
12.63166694128653
 20
9.640615615158515
 10
12.63166694128653
 20
9.640615615158515
 10
12.63166694128653
 20
9.679960919710288
 10
12.6513727883477
 20
9.69945894699063
 10
12.69095798178224
 20
9.69945894699063
 10
12.73047261966303
 20
9.69945894699063
 10
12.75028109137989
 20
9.679960919710288
 10
12.75028109137989
 20
9.640615615158515
 10
12.75028109137989
 20
9.640615615158515
 10
12.75028109137989
 20
9.581602949997388
 10
12.75028109137989
 20
9.581602949997388
 10
12.75028109137989
 20
9.542190617669545
 10
12.73047261966303
 20
9.522484451505626
 10
12.69095798178224
 20
9.522484451505626
 10
12.6513727883477
 20
9.522484451505626
 10
12.63166694128653
 20
9.542190617669545
 10
12.63166694128653
 20
9.581602949997388
 97
        0
 97
        0
 92
        1
 93
        1
 72
     4
 94
        3
 73
     0
 74
     1
 95
       23
 96
       19
 40
0.0
 40
0.0
 40
0.0
 40
0.0
 40
1.0
 40
1.0
 40
1.0
 40
2.0
 40
2.0
 40
2.0
 40
3.0
 40
3.0
 40
3.0
 40
4.0
 40
4.0
 40
4.0
 40
5.0
 40
5.0
 40
5.0
 40
6.0
 40
6.0
 40
6.0
 40
6.0
 10
12.63166694128653
 20
9.287460374168257
 10
12.63166694128653
 20
9.326872706496097
 10
12.6513727883477
 20
9.346406011553317
 10
12.69095798178224
 20
9.346406011553317
 10
12.73047261966303
 20
9.346406011553317
 10
12.75028109137989
 20
9.326872706496097
 10
12.75028109137989
 20
9.287460374168257
 10
12.75028109137989
 20
9.287460374168257
 10
12.75028109137989
 20
8.579873053410612
 10
12.75028109137989
 20
8.579873053410612
 10
12.75028109137989
 20
8.540460504336922
 10
12.73047261966303
 20
8.521029720091938
 10
12.69095798178224
 20
8.521029720091938
 10
12.6513727883477
 20
8.521029720091938
 10
12.63166694128653
 20
8.540460504336922
 10
12.63166694128653
 20
8.579873053410612
 10
12.63166694128653
 20
8.579873053410612
 10
12.63166694128653
 20
9.287460374168257
 10
12.63166694128653
 20
9.287460374168257
 97
        0
 97
        0
 75
     2
 76
     1
 98
        0
  0
SPLINE
  5
9A
330
90
100
AcDbEntity
  8
Calque 1
370
     0
100
AcDbSpline
210
0.0
220
0.0
230
1.0
 70
    11
 71
     3
 72
    53
 73
    49
 74
     0
 42
0.0000000001
 43
0.0000000001
 12
1.0
 22
0.0
 32
0.0
 13
1.0
 23
0.0
 33
0.0
 40
0.0
 40
0.0
 40
0.0
 40
0.0
 40
1.0
 40
1.0
 40
1.0
 40
2.0
 40
2.0
 40
2.0
 40
3.0
 40
3.0
 40
3.0
 40
4.0
 40
4.0
 40
4.0
 40
5.0
 40
5.0
 40
5.0
 40
6.0
 40
6.0
 40
6.0
 40
7.0
 40
7.0
 40
7.0
 40
8.0
 40
8.0
 40
8.0
 40
9.0
 40
9.0
 40
9.0
 40
10.0
 40
10.0
 40
10.0
 40
11.0
 40
11.0
 40
11.0
 40
12.0
 40
12.0
 40
12.0
 40
13.0
 40
13.0
 40
13.0
 40
14.0
 40
14.0
 40
14.0
 40
15.0
 40
15.0
 40
15.0
 40
16.0
 40
16.0
 40
16.0
 40
16.0
 10
13.87141942388838
 20
9.228169014569794
 30
0.0
 10
13.87141942388838
 20
9.228169014569794
 30
0.0
 10
13.81267839760921
 20
9.228169014569794
 30
0.0
 10
13.81267839760921
 20
9.228169014569794
 30
0.0
 10
13.77326606528137
 20
9.228169014569794
 30
0.0
 10
13.75355989911745
 20
9.24794573628747
 30
0.0
 10
13.75355989911745
 20
9.287460374168257
 30
0.0
 10
13.75355989911745
 20
9.326872706496097
 30
0.0
 10
13.77326606528137
 20
9.34695634487261
 30
0.0
 10
13.81267839760921
 20
9.34695634487261
 30
0.0
 10
13.81267839760921
 20
9.34695634487261
 30
0.0
 10
13.87141942388838
 20
9.34695634487261
 30
0.0
 10
13.87141942388838
 20
9.34695634487261
 30
0.0
 10
13.87141942388838
 20
9.34695634487261
 30
0.0
 10
13.87141942388838
 20
9.640756726266027
 30
0.0
 10
13.87141942388838
 20
9.640756726266027
 30
0.0
 10
13.87141942388838
 20
9.679960919710288
 30
0.0
 10
13.89133055208274
 20
9.69945894699063
 30
0.0
 10
13.93084483903898
 20
9.69945894699063
 30
0.0
 10
13.97053233802647
 20
9.69945894699063
 30
0.0
 10
13.99023850419039
 20
9.679960919710288
 30
0.0
 10
13.99023850419039
 20
9.640756726266027
 30
0.0
 10
13.99023850419039
 20
9.640756726266027
 30
0.0
 10
13.99023850419039
 20
9.34695634487261
 30
0.0
 10
13.99023850419039
 20
9.34695634487261
 30
0.0
 10
13.99023850419039
 20
9.34695634487261
 30
0.0
 10
14.16721299967539
 20
9.34695634487261
 30
0.0
 10
14.16721299967539
 20
9.34695634487261
 30
0.0
 10
14.20642072089734
 20
9.34695634487261
 30
0.0
 10
14.22612688706126
 20
9.326872706496097
 30
0.0
 10
14.22612688706126
 20
9.287460374168257
 30
0.0
 10
14.22612688706126
 20
9.24794573628747
 30
0.0
 10
14.20642072089734
 20
9.228169014569794
 30
0.0
 10
14.16721299967539
 20
9.228169014569794
 30
0.0
 10
14.16721299967539
 20
9.228169014569794
 30
0.0
 10
13.99023850419039
 20
9.228169014569794
 30
0.0
 10
13.99023850419039
 20
9.228169014569794
 30
0.0
 10
13.99023850419039
 20
9.228169014569794
 30
0.0
 10
13.99023850419039
 20
8.579873053410612
 30
0.0
 10
13.99023850419039
 20
8.579873053410612
 30
0.0
 10
13.99023850419039
 20
8.540460504336922
 30
0.0
 10
13.97053233802647
 20
8.521029720091938
 30
0.0
 10
13.93084483903898
 20
8.521029720091938
 30
0.0
 10
13.89133055208274
 20
8.521029720091938
 30
0.0
 10
13.87141942388838
 20
8.540460504336922
 30
0.0
 10
13.87141942388838
 20
8.579873053410612
 30
0.0
 10
13.87141942388838
 20
8.579873053410612
 30
0.0
 10
13.87141942388838
 20
9.228169014569794
 30
0.0
 10
13.87141942388838
 20
9.228169014569794
 30
0.0
  0
HATCH
  5
9B
330
90
100
AcDbEntity
  8
Calque 1
 62
   179
420
  1842203
100
AcDbHatch
 10
0.0
 20
0.0
 30
0.0
210
0.0
220
0.0
230
1.0
  2
SOLID
 70
     1
 71
     0
 91
        1
 92
        1
 93
        1
 72
     4
 94
        3
 73
     0
 74
     1
 95
       53
 96
       49
 40
0.0
 40
0.0
 40
0.0
 40
0.0
 40
1.0
 40
1.0
 40
1.0
 40
2.0
 40
2.0
 40
2.0
 40
3.0
 40
3.0
 40
3.0
 40
4.0
 40
4.0
 40
4.0
 40
5.0
 40
5.0
 40
5.0
 40
6.0
 40
6.0
 40
6.0
 40
7.0
 40
7.0
 40
7.0
 40
8.0
 40
8.0
 40
8.0
 40
9.0
 40
9.0
 40
9.0
 40
10.0
 40
10.0
 40
10.0
 40
11.0
 40
11.0
 40
11.0
 40
12.0
 40
12.0
 40
12.0
 40
13.0
 40
13.0
 40
13.0
 40
14.0
 40
14.0
 40
14.0
 40
15.0
 40
15.0
 40
15.0
 40
16.0
 40
16.0
 40
16.0
 40
16.0
 10
13.87141942388838
 20
9.228169014569794
 10
13.87141942388838
 20
9.228169014569794
 10
13.81267839760921
 20
9.228169014569794
 10
13.81267839760921
 20
9.228169014569794
 10
13.77326606528137
 20
9.228169014569794
 10
13.75355989911745
 20
9.24794573628747
 10
13.75355989911745
 20
9.287460374168257
 10
13.75355989911745
 20
9.326872706496097
 10
13.77326606528137
 20
9.34695634487261
 10
13.81267839760921
 20
9.34695634487261
 10
13.81267839760921
 20
9.34695634487261
 10
13.87141942388838
 20
9.34695634487261
 10
13.87141942388838
 20
9.34695634487261
 10
13.87141942388838
 20
9.34695634487261
 10
13.87141942388838
 20
9.640756726266027
 10
13.87141942388838
 20
9.640756726266027
 10
13.87141942388838
 20
9.679960919710288
 10
13.89133055208274
 20
9.69945894699063
 10
13.93084483903898
 20
9.69945894699063
 10
13.97053233802647
 20
9.69945894699063
 10
13.99023850419039
 20
9.679960919710288
 10
13.99023850419039
 20
9.640756726266027
 10
13.99023850419039
 20
9.640756726266027
 10
13.99023850419039
 20
9.34695634487261
 10
13.99023850419039
 20
9.34695634487261
 10
13.99023850419039
 20
9.34695634487261
 10
14.16721299967539
 20
9.34695634487261
 10
14.16721299967539
 20
9.34695634487261
 10
14.20642072089734
 20
9.34695634487261
 10
14.22612688706126
 20
9.326872706496097
 10
14.22612688706126
 20
9.287460374168257
 10
14.22612688706126
 20
9.24794573628747
 10
14.20642072089734
 20
9.228169014569794
 10
14.16721299967539
 20
9.228169014569794
 10
14.16721299967539
 20
9.228169014569794
 10
13.99023850419039
 20
9.228169014569794
 10
13.99023850419039
 20
9.228169014569794
 10
13.99023850419039
 20
9.228169014569794
 10
13.99023850419039
 20
8.579873053410612
 10
13.99023850419039
 20
8.579873053410612
 10
13.99023850419039
 20
8.540460504336922
 10
13.97053233802647
 20
8.521029720091938
 10
13.93084483903898
 20
8.521029720091938
 10
13.89133055208274
 20
8.521029720091938
 10
13.87141942388838
 20
8.540460504336922
 10
13.87141942388838
 20
8.579873053410612
 10
13.87141942388838
 20
8.579873053410612
 10
13.87141942388838
 20
9.228169014569794
 10
13.87141942388838
 20
9.228169014569794
 97
        0
 97
        0
 75
     2
 76
     1
 98
        0
  0
SPLINE
  5
9C
330
90
100
AcDbEntity
  8
Calque 1
370
     0
100
AcDbSpline
210
0.0
220
0.0
230
1.0
 70
    11
 71
     3
 72
    56
 73
    52
 74
     0
 42
0.0000000001
 43
0.0000000001
 12
1.0
 22
0.0
 32
0.0
 13
1.0
 23
0.0
 33
0.0
 40
0.0
 40
0.0
 40
0.0
 40
0.0
 40
1.0
 40
1.0
 40
1.0
 40
2.0
 40
2.0
 40
2.0
 40
3.0
 40
3.0
 40
3.0
 40
4.0
 40
4.0
 40
4.0
 40
5.0
 40
5.0
 40
5.0
 40
6.0
 40
6.0
 40
6.0
 40
7.0
 40
7.0
 40
7.0
 40
8.0
 40
8.0
 40
8.0
 40
9.0
 40
9.0
 40
9.0
 40
10.0
 40
10.0
 40
10.0
 40
11.0
 40
11.0
 40
11.0
 40
12.0
 40
12.0
 40
12.0
 40
13.0
 40
13.0
 40
13.0
 40
14.0
 40
14.0
 40
14.0
 40
15.0
 40
15.0
 40
15.0
 40
16.0
 40
16.0
 40
16.0
 40
17.0
 40
17.0
 40
17.0
 40
17.0
 10
15.22838969482474
 20
8.521029720091938
 30
0.0
 10
15.16220858540205
 20
8.521029720091938
 30
0.0
 10
15.10636386460455
 20
8.543766032030367
 30
0.0
 10
15.06078497687847
 20
8.589344919756442
 30
0.0
 10
15.01548125581205
 20
8.634923807482517
 30
0.0
 10
14.99257186750762
 20
8.690666222727076
 30
0.0
 10
14.99257186750762
 20
8.756536887713242
 30
0.0
 10
14.99257186750762
 20
8.79963574772481
 30
0.0
 10
15.00290825613281
 20
8.839217413381665
 30
0.0
 10
15.02399416291068
 20
8.875253886670087
 30
0.0
 10
15.06860606001228
 20
8.953425688245746
 30
0.0
 10
15.13671686383018
 20
8.992457020583307
 30
0.0
 10
15.22838969482474
 20
8.992457020583307
 30
0.0
 10
15.22838969482474
 20
8.992457020583307
 30
0.0
 10
15.46417224436498
 20
8.992457020583307
 30
0.0
 10
15.46417224436498
 20
8.992457020583307
 30
0.0
 10
15.46417224436498
 20
8.992457020583307
 30
0.0
 10
15.46417224436498
 20
9.110210712023605
 30
0.0
 10
15.46417224436498
 20
9.110210712023605
 30
0.0
 10
15.46417224436498
 20
9.143629350059914
 30
0.0
 10
15.45277046687809
 20
9.171636377123173
 30
0.0
 10
15.43027382856314
 20
9.194341386590317
 30
0.0
 10
15.40777719024819
 20
9.216869542635845
 30
0.0
 10
15.37956202430135
 20
9.228169014569794
 30
0.0
 10
15.34641855292469
 20
9.228169014569794
 30
0.0
 10
15.34641855292469
 20
9.228169014569794
 30
0.0
 10
15.11042786450087
 20
9.228169014569794
 30
0.0
 10
15.11042786450087
 20
9.228169014569794
 30
0.0
 10
15.07122367105661
 20
9.228169014569794
 30
0.0
 10
15.05158806044644
 20
9.24794573628747
 30
0.0
 10
15.05158806044644
 20
9.287460374168257
 30
0.0
 10
15.05158806044644
 20
9.326872706496097
 30
0.0
 10
15.07122367105661
 20
9.34695634487261
 30
0.0
 10
15.11042786450087
 20
9.34695634487261
 30
0.0
 10
15.11042786450087
 20
9.34695634487261
 30
0.0
 10
15.34641855292469
 20
9.34695634487261
 30
0.0
 10
15.34641855292469
 20
9.34695634487261
 30
0.0
 10
15.41249382901674
 20
9.34695634487261
 30
0.0
 10
15.46840910536801
 20
9.32397992879212
 30
0.0
 10
15.5141255764239
 20
9.278401041066045
 30
0.0
 10
15.5600149085865
 20
9.232716320009338
 30
0.0
 10
15.58288901911405
 20
9.176977432542467
 30
0.0
 10
15.58288901911405
 20
9.110761045342898
 30
0.0
 10
15.58288901911405
 20
9.110761045342898
 30
0.0
 10
15.58288901911405
 20
8.579873053410612
 30
0.0
 10
15.58288901911405
 20
8.579873053410612
 30
0.0
 10
15.58288901911405
 20
8.540460504336922
 30
0.0
 10
15.56328868628076
 20
8.521029720091938
 30
0.0
 10
15.52360118729327
 20
8.521029720091938
 30
0.0
 10
15.52360118729327
 20
8.521029720091938
 30
0.0
 10
15.22838969482474
 20
8.521029720091938
 30
0.0
 10
15.22838969482474
 20
8.521029720091938
 30
0.0
  0
SPLINE
  5
9D
330
90
100
AcDbEntity
  8
Calque 1
370
     0
100
AcDbSpline
210
0.0
220
0.0
230
1.0
 70
    11
 71
     3
 72
    26
 73
    22
 74
     0
 42
0.0000000001
 43
0.0000000001
 12
1.0
 22
0.0
 32
0.0
 13
1.0
 23
0.0
 33
0.0
 40
0.0
 40
0.0
 40
0.0
 40
0.0
 40
1.0
 40
1.0
 40
1.0
 40
2.0
 40
2.0
 40
2.0
 40
3.0
 40
3.0
 40
3.0
 40
4.0
 40
4.0
 40
4.0
 40
5.0
 40
5.0
 40
5.0
 40
6.0
 40
6.0
 40
6.0
 40
7.0
 40
7.0
 40
7.0
 40
7.0
 10
15.46417224436498
 20
8.873807497781522
 30
0.0
 10
15.46417224436498
 20
8.873807497781522
 30
0.0
 10
15.22838969482474
 20
8.873807497781522
 30
0.0
 10
15.22838969482474
 20
8.873807497781522
 30
0.0
 10
15.19552491788542
 20
8.873807497781522
 30
0.0
 10
15.16772250192805
 20
8.862334940569665
 30
0.0
 10
15.14491541917657
 20
8.839425552265244
 30
0.0
 10
15.12204130864903
 20
8.816826608397346
 30
0.0
 10
15.11042786450087
 20
8.78919705354668
 30
0.0
 10
15.11042786450087
 20
8.756536887713242
 30
0.0
 10
15.11042786450087
 20
8.724875082965447
 30
0.0
 10
15.12204130864903
 20
8.697245528114781
 30
0.0
 10
15.14529289138916
 20
8.67426911203429
 30
0.0
 10
15.16868558523681
 20
8.65097872373959
 30
0.0
 10
15.19621283453453
 20
8.639749807359395
 30
0.0
 10
15.22838969482474
 20
8.639749807359395
 30
0.0
 10
15.22838969482474
 20
8.639749807359395
 30
0.0
 10
15.46417224436498
 20
8.639749807359395
 30
0.0
 10
15.46417224436498
 20
8.639749807359395
 30
0.0
 10
15.46417224436498
 20
8.639749807359395
 30
0.0
 10
15.46417224436498
 20
8.873807497781522
 30
0.0
 10
15.46417224436498
 20
8.873807497781522
 30
0.0
  0
HATCH
  5
9E
330
90
100
AcDbEntity
  8
Calque 1
 62
   179
420
  1842203
100
AcDbHatch
 10
0.0
 20
0.0
 30
0.0
210
0.0
220
0.0
230
1.0
  2
SOLID
 70
     1
 71
     0
 91
        2
 92
        1
 93
        1
 72
     4
 94
        3
 73
     0
 74
     1
 95
       56
 96
       52
 40
0.0
 40
0.0
 40
0.0
 40
0.0
 40
1.0
 40
1.0
 40
1.0
 40
2.0
 40
2.0
 40
2.0
 40
3.0
 40
3.0
 40
3.0
 40
4.0
 40
4.0
 40
4.0
 40
5.0
 40
5.0
 40
5.0
 40
6.0
 40
6.0
 40
6.0
 40
7.0
 40
7.0
 40
7.0
 40
8.0
 40
8.0
 40
8.0
 40
9.0
 40
9.0
 40
9.0
 40
10.0
 40
10.0
 40
10.0
 40
11.0
 40
11.0
 40
11.0
 40
12.0
 40
12.0
 40
12.0
 40
13.0
 40
13.0
 40
13.0
 40
14.0
 40
14.0
 40
14.0
 40
15.0
 40
15.0
 40
15.0
 40
16.0
 40
16.0
 40
16.0
 40
17.0
 40
17.0
 40
17.0
 40
17.0
 10
15.22838969482474
 20
8.521029720091938
 10
15.16220858540205
 20
8.521029720091938
 10
15.10636386460455
 20
8.543766032030367
 10
15.06078497687847
 20
8.589344919756442
 10
15.01548125581205
 20
8.634923807482517
 10
14.99257186750762
 20
8.690666222727076
 10
14.99257186750762
 20
8.756536887713242
 10
14.99257186750762
 20
8.79963574772481
 10
15.00290825613281
 20
8.839217413381665
 10
15.02399416291068
 20
8.875253886670087
 10
15.06860606001228
 20
8.953425688245746
 10
15.13671686383018
 20
8.992457020583307
 10
15.22838969482474
 20
8.992457020583307
 10
15.22838969482474
 20
8.992457020583307
 10
15.46417224436498
 20
8.992457020583307
 10
15.46417224436498
 20
8.992457020583307
 10
15.46417224436498
 20
8.992457020583307
 10
15.46417224436498
 20
9.110210712023605
 10
15.46417224436498
 20
9.110210712023605
 10
15.46417224436498
 20
9.143629350059914
 10
15.45277046687809
 20
9.171636377123173
 10
15.43027382856314
 20
9.194341386590317
 10
15.40777719024819
 20
9.216869542635845
 10
15.37956202430135
 20
9.228169014569794
 10
15.34641855292469
 20
9.228169014569794
 10
15.34641855292469
 20
9.228169014569794
 10
15.11042786450087
 20
9.228169014569794
 10
15.11042786450087
 20
9.228169014569794
 10
15.07122367105661
 20
9.228169014569794
 10
15.05158806044644
 20
9.24794573628747
 10
15.05158806044644
 20
9.287460374168257
 10
15.05158806044644
 20
9.326872706496097
 10
15.07122367105661
 20
9.34695634487261
 10
15.11042786450087
 20
9.34695634487261
 10
15.11042786450087
 20
9.34695634487261
 10
15.34641855292469
 20
9.34695634487261
 10
15.34641855292469
 20
9.34695634487261
 10
15.41249382901674
 20
9.34695634487261
 10
15.46840910536801
 20
9.32397992879212
 10
15.5141255764239
 20
9.278401041066045
 10
15.5600149085865
 20
9.232716320009338
 10
15.58288901911405
 20
9.176977432542467
 10
15.58288901911405
 20
9.110761045342898
 10
15.58288901911405
 20
9.110761045342898
 10
15.58288901911405
 20
8.579873053410612
 10
15.58288901911405
 20
8.579873053410612
 10
15.58288901911405
 20
8.540460504336922
 10
15.56328868628076
 20
8.521029720091938
 10
15.52360118729327
 20
8.521029720091938
 10
15.52360118729327
 20
8.521029720091938
 10
15.22838969482474
 20
8.521029720091938
 10
15.22838969482474
 20
8.521029720091938
 97
        0
 97
        0
 92
        1
 93
        1
 72
     4
 94
        3
 73
     0
 74
     1
 95
       26
 96
       22
 40
0.0
 40
0.0
 40
0.0
 40
0.0
 40
1.0
 40
1.0
 40
1.0
 40
2.0
 40
2.0
 40
2.0
 40
3.0
 40
3.0
 40
3.0
 40
4.0
 40
4.0
 40
4.0
 40
5.0
 40
5.0
 40
5.0
 40
6.0
 40
6.0
 40
6.0
 40
7.0
 40
7.0
 40
7.0
 40
7.0
 10
15.46417224436498
 20
8.873807497781522
 10
15.46417224436498
 20
8.873807497781522
 10
15.22838969482474
 20
8.873807497781522
 10
15.22838969482474
 20
8.873807497781522
 10
15.19552491788542
 20
8.873807497781522
 10
15.16772250192805
 20
8.862334940569665
 10
15.14491541917657
 20
8.839425552265244
 10
15.12204130864903
 20
8.816826608397346
 10
15.11042786450087
 20
8.78919705354668
 10
15.11042786450087
 20
8.756536887713242
 10
15.11042786450087
 20
8.724875082965447
 10
15.12204130864903
 20
8.697245528114781
 10
15.14529289138916
 20
8.67426911203429
 10
15.16868558523681
 20
8.65097872373959
 10
15.19621283453453
 20
8.639749807359395
 10
15.22838969482474
 20
8.639749807359395
 10
15.22838969482474
 20
8.639749807359395
 10
15.46417224436498
 20
8.639749807359395
 10
15.46417224436498
 20
8.639749807359395
 10
15.46417224436498
 20
8.639749807359395
 10
15.46417224436498
 20
8.873807497781522
 10
15.46417224436498
 20
8.873807497781522
 97
        0
 97
        0
 75
     2
 76
     1
 98
        0
  0
SPLINE
  5
9F
330
90
100
AcDbEntity
  8
Calque 1
370
     0
100
AcDbSpline
210
0.0
220
0.0
230
1.0
 70
    11
 71
     3
 72
    53
 73
    49
 74
     0
 42
0.0000000001
 43
0.0000000001
 12
1.0
 22
0.0
 32
0.0
 13
1.0
 23
0.0
 33
0.0
 40
0.0
 40
0.0
 40
0.0
 40
0.0
 40
1.0
 40
1.0
 40
1.0
 40
2.0
 40
2.0
 40
2.0
 40
3.0
 40
3.0
 40
3.0
 40
4.0
 40
4.0
 40
4.0
 40
5.0
 40
5.0
 40
5.0
 40
6.0
 40
6.0
 40
6.0
 40
7.0
 40
7.0
 40
7.0
 40
8.0
 40
8.0
 40
8.0
 40
9.0
 40
9.0
 40
9.0
 40
10.0
 40
10.0
 40
10.0
 40
11.0
 40
11.0
 40
11.0
 40
12.0
 40
12.0
 40
12.0
 40
13.0
 40
13.0
 40
13.0
 40
14.0
 40
14.0
 40
14.0
 40
15.0
 40
15.0
 40
15.0
 40
16.0
 40
16.0
 40
16.0
 40
16.0
 10
16.42456033097455
 20
8.28455903864329
 30
0.0
 10
16.42456033097455
 20
8.28455903864329
 30
0.0
 10
16.52291830068745
 20
8.579770531111818
 30
0.0
 10
16.52291830068745
 20
8.579770531111818
 30
0.0
 10
16.52291830068745
 20
8.579770531111818
 30
0.0
 10
16.29443825096091
 20
9.269027735749622
 30
0.0
 10
16.29443825096091
 20
9.269027735749622
 30
0.0
 10
16.29192647324722
 20
9.275988041127606
 30
0.0
 10
16.29068469550112
 20
9.282465275457161
 30
0.0
 10
16.29068469550112
 20
9.28777081860478
 30
0.0
 10
16.29068469550112
 20
9.32725017870869
 30
0.0
 10
16.31049316721798
 20
9.34695634487261
 30
0.0
 10
16.3495950551093
 20
9.34695634487261
 30
0.0
 10
16.37819122104642
 20
9.34695634487261
 30
0.0
 10
16.39703660945452
 20
9.333247400777909
 30
0.0
 10
16.40592308145003
 20
9.306408068129304
 30
0.0
 10
16.40592308145003
 20
9.306408068129304
 30
0.0
 10
16.58551518797936
 20
8.76749063743379
 30
0.0
 10
16.58551518797936
 20
8.76749063743379
 30
0.0
 10
16.58551518797936
 20
8.76749063743379
 30
0.0
 10
16.76500498895576
 20
9.306408068129304
 30
0.0
 10
16.76500498895576
 20
9.306408068129304
 30
0.0
 10
16.77368684984537
 20
9.333247400777909
 30
0.0
 10
16.79222221802416
 20
9.34695634487261
 30
0.0
 10
16.82123070974354
 20
9.34695634487261
 30
0.0
 10
16.86064304207138
 20
9.34695634487261
 30
0.0
 10
16.88041666244656
 20
9.32725017870869
 30
0.0
 10
16.88041666244656
 20
9.28777081860478
 30
0.0
 10
16.88041666244656
 20
9.282465275457161
 30
0.0
 10
16.8792802915959
 20
9.275988041127606
 30
0.0
 10
16.87676498610452
 20
9.269027735749622
 30
0.0
 10
16.87676498610452
 20
9.269027735749622
 30
0.0
 10
16.52388491177391
 20
8.20670098507406
 30
0.0
 10
16.52388491177391
 20
8.20670098507406
 30
0.0
 10
16.51468446756418
 20
8.180034720177213
 30
0.0
 10
16.49604721803966
 20
8.166597208319413
 30
0.0
 10
16.46783205209282
 20
8.166597208319413
 30
0.0
 10
16.46783205209282
 20
8.166597208319413
 30
0.0
 10
16.34873427735348
 20
8.166597208319413
 30
0.0
 10
16.34873427735348
 20
8.166597208319413
 30
0.0
 10
16.30942777835628
 20
8.166597208319413
 30
0.0
 10
16.28972161219236
 20
8.186303374483334
 30
0.0
 10
16.28972161219236
 20
8.225648886832465
 30
0.0
 10
16.28972161219236
 20
8.257134094898515
 30
0.0
 10
16.30615400066202
 20
8.276254649966264
 30
0.0
 10
16.33898349982447
 20
8.28290472015147
 30
0.0
 10
16.34411994413787
 20
8.28417803865301
 30
0.0
 10
16.37278313785106
 20
8.28455903864329
 30
0.0
 10
16.42456033097455
 20
8.28455903864329
 30
0.0
  0
HATCH
  5
A0
330
90
100
AcDbEntity
  8
Calque 1
 62
   179
420
  1842203
100
AcDbHatch
 10
0.0
 20
0.0
 30
0.0
210
0.0
220
0.0
230
1.0
  2
SOLID
 70
     1
 71
     0
 91
        1
 92
        1
 93
        1
 72
     4
 94
        3
 73
     0
 74
     1
 95
       53
 96
       49
 40
0.0
 40
0.0
 40
0.0
 40
0.0
 40
1.0
 40
1.0
 40
1.0
 40
2.0
 40
2.0
 40
2.0
 40
3.0
 40
3.0
 40
3.0
 40
4.0
 40
4.0
 40
4.0
 40
5.0
 40
5.0
 40
5.0
 40
6.0
 40
6.0
 40
6.0
 40
7.0
 40
7.0
 40
7.0
 40
8.0
 40
8.0
 40
8.0
 40
9.0
 40
9.0
 40
9.0
 40
10.0
 40
10.0
 40
10.0
 40
11.0
 40
11.0
 40
11.0
 40
12.0
 40
12.0
 40
12.0
 40
13.0
 40
13.0
 40
13.0
 40
14.0
 40
14.0
 40
14.0
 40
15.0
 40
15.0
 40
15.0
 40
16.0
 40
16.0
 40
16.0
 40
16.0
 10
16.42456033097455
 20
8.28455903864329
 10
16.42456033097455
 20
8.28455903864329
 10
16.52291830068745
 20
8.579770531111818
 10
16.52291830068745
 20
8.579770531111818
 10
16.52291830068745
 20
8.579770531111818
 10
16.29443825096091
 20
9.269027735749622
 10
16.29443825096091
 20
9.269027735749622
 10
16.29192647324722
 20
9.275988041127606
 10
16.29068469550112
 20
9.282465275457161
 10
16.29068469550112
 20
9.28777081860478
 10
16.29068469550112
 20
9.32725017870869
 10
16.31049316721798
 20
9.34695634487261
 10
16.3495950551093
 20
9.34695634487261
 10
16.37819122104642
 20
9.34695634487261
 10
16.39703660945452
 20
9.333247400777909
 10
16.40592308145003
 20
9.306408068129304
 10
16.40592308145003
 20
9.306408068129304
 10
16.58551518797936
 20
8.76749063743379
 10
16.58551518797936
 20
8.76749063743379
 10
16.58551518797936
 20
8.76749063743379
 10
16.76500498895576
 20
9.306408068129304
 10
16.76500498895576
 20
9.306408068129304
 10
16.77368684984537
 20
9.333247400777909
 10
16.79222221802416
 20
9.34695634487261
 10
16.82123070974354
 20
9.34695634487261
 10
16.86064304207138
 20
9.34695634487261
 10
16.88041666244656
 20
9.32725017870869
 10
16.88041666244656
 20
9.28777081860478
 10
16.88041666244656
 20
9.282465275457161
 10
16.8792802915959
 20
9.275988041127606
 10
16.87676498610452
 20
9.269027735749622
 10
16.87676498610452
 20
9.269027735749622
 10
16.52388491177391
 20
8.20670098507406
 10
16.52388491177391
 20
8.20670098507406
 10
16.51468446756418
 20
8.180034720177213
 10
16.49604721803966
 20
8.166597208319413
 10
16.46783205209282
 20
8.166597208319413
 10
16.46783205209282
 20
8.166597208319413
 10
16.34873427735348
 20
8.166597208319413
 10
16.34873427735348
 20
8.166597208319413
 10
16.30942777835628
 20
8.166597208319413
 10
16.28972161219236
 20
8.186303374483334
 10
16.28972161219236
 20
8.225648886832465
 10
16.28972161219236
 20
8.257134094898515
 10
16.30615400066202
 20
8.276254649966264
 10
16.33898349982447
 20
8.28290472015147
 10
16.34411994413787
 20
8.28417803865301
 10
16.37278313785106
 20
8.28455903864329
 10
16.42456033097455
 20
8.28455903864329
 97
        0
 97
        0
 75
     2
 76
     1
 98
        0
  0
SPLINE
  5
A1
330
90
100
AcDbEntity
  8
Calque 1
370
     0
100
AcDbSpline
210
0.0
220
0.0
230
1.0
 70
    11
 71
     3
 72
    56
 73
    52
 74
     0
 42
0.0000000001
 43
0.0000000001
 12
1.0
 22
0.0
 32
0.0
 13
1.0
 23
0.0
 33
0.0
 40
0.0
 40
0.0
 40
0.0
 40
0.0
 40
1.0
 40
1.0
 40
1.0
 40
2.0
 40
2.0
 40
2.0
 40
3.0
 40
3.0
 40
3.0
 40
4.0
 40
4.0
 40
4.0
 40
5.0
 40
5.0
 40
5.0
 40
6.0
 40
6.0
 40
6.0
 40
7.0
 40
7.0
 40
7.0
 40
8.0
 40
8.0
 40
8.0
 40
9.0
 40
9.0
 40
9.0
 40
10.0
 40
10.0
 40
10.0
 40
11.0
 40
11.0
 40
11.0
 40
12.0
 40
12.0
 40
12.0
 40
13.0
 40
13.0
 40
13.0
 40
14.0
 40
14.0
 40
14.0
 40
15.0
 40
15.0
 40
15.0
 40
16.0
 40
16.0
 40
16.0
 40
17.0
 40
17.0
 40
17.0
 40
17.0
 10
17.82371929527903
 20
8.521029720091938
 30
0.0
 10
17.75746763030259
 20
8.521029720091938
 30
0.0
 10
17.70183104838866
 20
8.543766032030367
 30
0.0
 10
17.65621688288571
 20
8.589344919756442
 30
0.0
 10
17.61043338405375
 20
8.634923807482517
 30
0.0
 10
17.58762630130227
 20
8.690666222727076
 30
0.0
 10
17.58762630130227
 20
8.756536887713242
 30
0.0
 10
17.58762630130227
 20
8.79963574772481
 30
0.0
 10
17.59844246769299
 20
8.839217413381665
 30
0.0
 10
17.61911524494337
 20
8.875253886670087
 30
0.0
 10
17.66355466047629
 20
8.953425688245746
 30
0.0
 10
17.73194063095384
 20
8.992457020583307
 30
0.0
 10
17.82371929527903
 20
8.992457020583307
 30
0.0
 10
17.82371929527903
 20
8.992457020583307
 30
0.0
 10
18.05960415037222
 20
8.992457020583307
 30
0.0
 10
18.05960415037222
 20
8.992457020583307
 30
0.0
 10
18.05960415037222
 20
8.992457020583307
 30
0.0
 10
18.05960415037222
 20
9.110210712023605
 30
0.0
 10
18.05960415037222
 20
9.110210712023605
 30
0.0
 10
18.05960415037222
 20
9.143629350059914
 30
0.0
 10
18.04840698399122
 20
9.171636377123173
 30
0.0
 10
18.02563517901662
 20
9.194341386590317
 30
0.0
 10
18.00282809626514
 20
9.216869542635845
 30
0.0
 10
17.97461293031831
 20
9.228169014569794
 30
0.0
 10
17.94157529227228
 20
9.228169014569794
 30
0.0
 10
17.94157529227228
 20
9.228169014569794
 30
0.0
 10
17.70585977050811
 20
9.228169014569794
 30
0.0
 10
17.70585977050811
 20
9.228169014569794
 30
0.0
 10
17.66627810485125
 20
9.228169014569794
 30
0.0
 10
17.64674479979403
 20
9.24794573628747
 30
0.0
 10
17.64674479979403
 20
9.287460374168257
 30
0.0
 10
17.64674479979403
 20
9.326872706496097
 30
0.0
 10
17.66627810485125
 20
9.34695634487261
 30
0.0
 10
17.70585977050811
 20
9.34695634487261
 30
0.0
 10
17.70585977050811
 20
9.34695634487261
 30
0.0
 10
17.94157529227228
 20
9.34695634487261
 30
0.0
 10
17.94157529227228
 20
9.34695634487261
 30
0.0
 10
18.00765056836434
 20
9.34695634487261
 30
0.0
 10
18.06349528916184
 20
9.32397992879212
 30
0.0
 10
18.10928277325048
 20
9.278401041066045
 30
0.0
 10
18.15544681459374
 20
9.232716320009338
 30
0.0
 10
18.17804575846164
 20
9.176977432542467
 30
0.0
 10
18.17804575846164
 20
9.110761045342898
 30
0.0
 10
18.17804575846164
 20
9.110761045342898
 30
0.0
 10
18.17804575846164
 20
8.579873053410612
 30
0.0
 10
18.17804575846164
 20
8.579873053410612
 30
0.0
 10
18.17804575846164
 20
8.540460504336922
 30
0.0
 10
18.15833959229771
 20
8.521029720091938
 30
0.0
 10
18.11872264886398
 20
8.521029720091938
 30
0.0
 10
18.11872264886398
 20
8.521029720091938
 30
0.0
 10
17.82371929527903
 20
8.521029720091938
 30
0.0
 10
17.82371929527903
 20
8.521029720091938
 30
0.0
  0
SPLINE
  5
A2
330
90
100
AcDbEntity
  8
Calque 1
370
     0
100
AcDbSpline
210
0.0
220
0.0
230
1.0
 70
    11
 71
     3
 72
    26
 73
    22
 74
     0
 42
0.0000000001
 43
0.0000000001
 12
1.0
 22
0.0
 32
0.0
 13
1.0
 23
0.0
 33
0.0
 40
0.0
 40
0.0
 40
0.0
 40
0.0
 40
1.0
 40
1.0
 40
1.0
 40
2.0
 40
2.0
 40
2.0
 40
3.0
 40
3.0
 40
3.0
 40
4.0
 40
4.0
 40
4.0
 40
5.0
 40
5.0
 40
5.0
 40
6.0
 40
6.0
 40
6.0
 40
7.0
 40
7.0
 40
7.0
 40
7.0
 10
18.05960415037222
 20
8.873807497781522
 30
0.0
 10
18.05960415037222
 20
8.873807497781522
 30
0.0
 10
17.82371929527903
 20
8.873807497781522
 30
0.0
 10
17.82371929527903
 20
8.873807497781522
 30
0.0
 10
17.7908862683389
 20
8.873807497781522
 30
0.0
 10
17.76325671348823
 20
8.862334940569665
 30
0.0
 10
17.74024194000937
 20
8.839425552265244
 30
0.0
 10
17.71726507577269
 20
8.816826608397346
 30
0.0
 10
17.70585977050811
 20
8.78919705354668
 30
0.0
 10
17.70585977050811
 20
8.756536887713242
 30
0.0
 10
17.70585977050811
 20
8.724875082965447
 30
0.0
 10
17.71726507577269
 20
8.697245528114781
 30
0.0
 10
17.74065776962033
 20
8.67426911203429
 30
0.0
 10
17.7638427733368
 20
8.65097872373959
 30
0.0
 10
17.79126374055149
 20
8.639749807359395
 30
0.0
 10
17.82371929527903
 20
8.639749807359395
 30
0.0
 10
17.82371929527903
 20
8.639749807359395
 30
0.0
 10
18.05960415037222
 20
8.639749807359395
 30
0.0
 10
18.05960415037222
 20
8.639749807359395
 30
0.0
 10
18.05960415037222
 20
8.639749807359395
 30
0.0
 10
18.05960415037222
 20
8.873807497781522
 30
0.0
 10
18.05960415037222
 20
8.873807497781522
 30
0.0
  0
HATCH
  5
A3
330
90
100
AcDbEntity
  8
Calque 1
 62
   179
420
  1842203
100
AcDbHatch
 10
0.0
 20
0.0
 30
0.0
210
0.0
220
0.0
230
1.0
  2
SOLID
 70
     1
 71
     0
 91
        2
 92
        1
 93
        1
 72
     4
 94
        3
 73
     0
 74
     1
 95
       56
 96
       52
 40
0.0
 40
0.0
 40
0.0
 40
0.0
 40
1.0
 40
1.0
 40
1.0
 40
2.0
 40
2.0
 40
2.0
 40
3.0
 40
3.0
 40
3.0
 40
4.0
 40
4.0
 40
4.0
 40
5.0
 40
5.0
 40
5.0
 40
6.0
 40
6.0
 40
6.0
 40
7.0
 40
7.0
 40
7.0
 40
8.0
 40
8.0
 40
8.0
 40
9.0
 40
9.0
 40
9.0
 40
10.0
 40
10.0
 40
10.0
 40
11.0
 40
11.0
 40
11.0
 40
12.0
 40
12.0
 40
12.0
 40
13.0
 40
13.0
 40
13.0
 40
14.0
 40
14.0
 40
14.0
 40
15.0
 40
15.0
 40
15.0
 40
16.0
 40
16.0
 40
16.0
 40
17.0
 40
17.0
 40
17.0
 40
17.0
 10
17.82371929527903
 20
8.521029720091938
 10
17.75746763030259
 20
8.521029720091938
 10
17.70183104838866
 20
8.543766032030367
 10
17.65621688288571
 20
8.589344919756442
 10
17.61043338405375
 20
8.634923807482517
 10
17.58762630130227
 20
8.690666222727076
 10
17.58762630130227
 20
8.756536887713242
 10
17.58762630130227
 20
8.79963574772481
 10
17.59844246769299
 20
8.839217413381665
 10
17.61911524494337
 20
8.875253886670087
 10
17.66355466047629
 20
8.953425688245746
 10
17.73194063095384
 20
8.992457020583307
 10
17.82371929527903
 20
8.992457020583307
 10
17.82371929527903
 20
8.992457020583307
 10
18.05960415037222
 20
8.992457020583307
 10
18.05960415037222
 20
8.992457020583307
 10
18.05960415037222
 20
8.992457020583307
 10
18.05960415037222
 20
9.110210712023605
 10
18.05960415037222
 20
9.110210712023605
 10
18.05960415037222
 20
9.143629350059914
 10
18.04840698399122
 20
9.171636377123173
 10
18.02563517901662
 20
9.194341386590317
 10
18.00282809626514
 20
9.216869542635845
 10
17.97461293031831
 20
9.228169014569794
 10
17.94157529227228
 20
9.228169014569794
 10
17.94157529227228
 20
9.228169014569794
 10
17.70585977050811
 20
9.228169014569794
 10
17.70585977050811
 20
9.228169014569794
 10
17.66627810485125
 20
9.228169014569794
 10
17.64674479979403
 20
9.24794573628747
 10
17.64674479979403
 20
9.287460374168257
 10
17.64674479979403
 20
9.326872706496097
 10
17.66627810485125
 20
9.34695634487261
 10
17.70585977050811
 20
9.34695634487261
 10
17.70585977050811
 20
9.34695634487261
 10
17.94157529227228
 20
9.34695634487261
 10
17.94157529227228
 20
9.34695634487261
 10
18.00765056836434
 20
9.34695634487261
 10
18.06349528916184
 20
9.32397992879212
 10
18.10928277325048
 20
9.278401041066045
 10
18.15544681459374
 20
9.232716320009338
 10
18.17804575846164
 20
9.176977432542467
 10
18.17804575846164
 20
9.110761045342898
 10
18.17804575846164
 20
9.110761045342898
 10
18.17804575846164
 20
8.579873053410612
 10
18.17804575846164
 20
8.579873053410612
 10
18.17804575846164
 20
8.540460504336922
 10
18.15833959229771
 20
8.521029720091938
 10
18.11872264886398
 20
8.521029720091938
 10
18.11872264886398
 20
8.521029720091938
 10
17.82371929527903
 20
8.521029720091938
 10
17.82371929527903
 20
8.521029720091938
 97
        0
 97
        0
 92
        1
 93
        1
 72
     4
 94
        3
 73
     0
 74
     1
 95
       26
 96
       22
 40
0.0
 40
0.0
 40
0.0
 40
0.0
 40
1.0
 40
1.0
 40
1.0
 40
2.0
 40
2.0
 40
2.0
 40
3.0
 40
3.0
 40
3.0
 40
4.0
 40
4.0
 40
4.0
 40
5.0
 40
5.0
 40
5.0
 40
6.0
 40
6.0
 40
6.0
 40
7.0
 40
7.0
 40
7.0
 40
7.0
 10
18.05960415037222
 20
8.873807497781522
 10
18.05960415037222
 20
8.873807497781522
 10
17.82371929527903
 20
8.873807497781522
 10
17.82371929527903
 20
8.873807497781522
 10
17.7908862683389
 20
8.873807497781522
 10
17.76325671348823
 20
8.862334940569665
 10
17.74024194000937
 20
8.839425552265244
 10
17.71726507577269
 20
8.816826608397346
 10
17.70585977050811
 20
8.78919705354668
 10
17.70585977050811
 20
8.756536887713242
 10
17.70585977050811
 20
8.724875082965447
 10
17.71726507577269
 20
8.697245528114781
 10
17.74065776962033
 20
8.67426911203429
 10
17.7638427733368
 20
8.65097872373959
 10
17.79126374055149
 20
8.639749807359395
 10
17.82371929527903
 20
8.639749807359395
 10
17.82371929527903
 20
8.639749807359395
 10
18.05960415037222
 20
8.639749807359395
 10
18.05960415037222
 20
8.639749807359395
 10
18.05960415037222
 20
8.639749807359395
 10
18.05960415037222
 20
8.873807497781522
 10
18.05960415037222
 20
8.873807497781522
 97
        0
 97
        0
 75
     2
 76
     1
 98
        0
  0
ENDBLK
  5
93
330
90
100
AcDbEntity
  8
0
100
AcDbBlockEnd
  0
ENDSEC
  0
SECTION
  2
ENTITIES
  0
INSERT
  5
42
330
1F
100
AcDbEntity
  8
Calque 1
100
AcDbBlockReference
  2
block 2
 10
0.0
 20
0.0
 30
0.0
  0
ENDSEC
  0
SECTION
  2
OBJECTS
  0
DICTIONARY
  5
C
330
0
100
AcDbDictionary
281
     1
  3
ACAD_GROUP
350
D
  3
ACAD_LAYOUT
350
1A
  3
ACAD_MATERIAL
350
3B
  3
ACAD_MLEADERSTYLE
350
A5
  3
ACAD_MLINESTYLE
350
17
  3
ACAD_PLOTSETTINGS
350
19
  3
ACAD_PLOTSTYLENAME
350
E
  3
ACAD_TABLESTYLE
350
A4
  3
ACAD_VISUALSTYLE
350
2A
  0
SUN
  5
3F
330
29
100
AcDbSun
 90
        1
290
     0
 63
     7
421
 16777215
 40
1.0
291
     1
 91
  2455826
 92
 54000000
292
     0
 70
     2
 71
   256
280
     1
  0
DICTIONARY
  5
D
102
{ACAD_REACTORS
330
C
102
}
330
C
100
AcDbDictionary
281
     1
  0
DICTIONARY
  5
1A
102
{ACAD_REACTORS
330
C
102
}
330
C
100
AcDbDictionary
281
     1
  3
Layout1
350
1E
  3
Layout2
350
26
  3
Model
350
22
  0
DICTIONARY
  5
3B
102
{ACAD_REACTORS
330
C
102
}
330
C
100
AcDbDictionary
281
     1
  3
ByBlock
350
3D
  3
ByLayer
350
3C
  3
Global
350
3E
  0
DICTIONARY
  5
A5
102
{ACAD_REACTORS
330
C
102
}
330
C
100
AcDbDictionary
281
     1
  0
DICTIONARY
  5
17
102
{ACAD_REACTORS
330
C
102
}
330
C
100
AcDbDictionary
281
     1
  3
Standard
350
18
  0
DICTIONARY
  5
19
102
{ACAD_REACTORS
330
C
102
}
330
C
100
AcDbDictionary
281
     1
  0
ACDBDICTIONARYWDFLT
  5
E
102
{ACAD_REACTORS
330
C
102
}
330
C
100
AcDbDictionary
281
     1
  3
Normal
350
F
100
AcDbDictionaryWithDefault
340
F
  0
DICTIONARY
  5
A4
102
{ACAD_REACTORS
330
C
102
}
330
C
100
AcDbDictionary
281
     1
  0
DICTIONARY
  5
2A
102
{ACAD_REACTORS
330
C
102
}
330
C
100
AcDbDictionary
281
     1
  3
2dWireframe
350
2F
  3
3D Hidden
350
31
  3
3dWireframe
350
30
  3
Basic
350
32
  3
Brighten
350
36
  3
ColorChange
350
3A
  3
Conceptual
350
34
  3
Dim
350
35
  3
Facepattern
350
39
  3
Flat
350
2B
  3
FlatWithEdges
350
2C
  3
Gouraud
350
2D
  3
GouraudWithEdges
350
2E
  3
Linepattern
350
38
  3
Realistic
350
33
  3
Thicken
350
37
  0
LAYOUT
  5
1E
102
{ACAD_REACTORS
330
1A
102
}
330
1A
100
AcDbPlotSettings
  1

  2
none_device
  4

  6

 40
0.0
 41
0.0
 42
0.0
 43
0.0
 44
0.0
 45
0.0
 46
0.0
 47
0.0
 48
0.0
 49
0.0
140
0.0
141
0.0
142
1.0
143
1.0
 70
   688
 72
     0
 73
     0
 74
     5
  7

 75
    16
 76
     0
 77
     2
 78
   300
147
1.0
148
0.0
149
0.0
100
AcDbLayout
  1
Layout1
 70
     1
 71
     1
 10
0.0
 20
0.0
 11
12.0
 21
9.0
 12
0.0
 22
0.0
 32
0.0
 14
1.000000000000000E+20
 24
1.000000000000000E+20
 34
1.000000000000000E+20
 15
-1.000000000000000E+20
 25
-1.000000000000000E+20
 35
-1.000000000000000E+20
146
0.0
 13
0.0
 23
0.0
 33
0.0
 16
1.0
 26
0.0
 36
0.0
 17
0.0
 27
1.0
 37
0.0
 76
     0
330
1B
  0
LAYOUT
  5
26
102
{ACAD_REACTORS
330
1A
102
}
330
1A
100
AcDbPlotSettings
  1

  2
none_device
  4

  6

 40
0.0
 41
0.0
 42
0.0
 43
0.0
 44
0.0
 45
0.0
 46
0.0
 47
0.0
 48
0.0
 49
0.0
140
0.0
141
0.0
142
1.0
143
1.0
 70
   688
 72
     0
 73
     0
 74
     5
  7

 75
    16
 76
     0
 77
     2
 78
   300
147
1.0
148
0.0
149
0.0
100
AcDbLayout
  1
Layout2
 70
     1
 71
     2
 10
0.0
 20
0.0
 11
0.0
 21
0.0
 12
0.0
 22
0.0
 32
0.0
 14
0.0
 24
0.0
 34
0.0
 15
0.0
 25
0.0
 35
0.0
146
0.0
 13
0.0
 23
0.0
 33
0.0
 16
1.0
 26
0.0
 36
0.0
 17
0.0
 27
1.0
 37
0.0
 76
     0
330
23
  0
LAYOUT
  5
22
102
{ACAD_REACTORS
330
1A
102
}
330
1A
100
AcDbPlotSettings
  1

  2
none_device
  4

  6

 40
0.0
 41
0.0
 42
0.0
 43
0.0
 44
0.0
 45
0.0
 46
0.0
 47
0.0
 48
0.0
 49
0.0
140
0.0
141
0.0
142
1.0
143
1.0
 70
  1712
 72
     0
 73
     0
 74
     0
  7

 75
     0
 76
     0
 77
     2
 78
   300
147
1.0
148
0.0
149
0.0
100
AcDbLayout
  1
Model
 70
     1
 71
     0
 10
0.0
 20
0.0
 11
12.0
 21
9.0
 12
0.0
 22
0.0
 32
0.0
 14
1.000000000000000E+20
 24
1.000000000000000E+20
 34
1.000000000000000E+20
 15
-1.000000000000000E+20
 25
-1.000000000000000E+20
 35
-1.000000000000000E+20
146
0.0
 13
0.0
 23
0.0
 33
0.0
 16
1.0
 26
0.0
 36
0.0
 17
0.0
 27
1.0
 37
0.0
 76
     0
330
1F
331
29
  0
MATERIAL
  5
3D
102
{ACAD_REACTORS
330
3B
102
}
330
3B
100
AcDbMaterial
  1
ByBlock
 72
     1
 94
      127
  0
MATERIAL
  5
3C
102
{ACAD_REACTORS
330
3B
102
}
330
3B
100
AcDbMaterial
  1
ByLayer
 72
     1
 94
      127
  0
MATERIAL
  5
3E
102
{ACAD_REACTORS
330
3B
102
}
330
3B
100
AcDbMaterial
  1
Global
 72
     1
 94
      127
  0
MLINESTYLE
  5
18
102
{ACAD_REACTORS
330
17
102
}
330
17
100
AcDbMlineStyle
  2
Standard
 70
     0
  3

 62
   256
 51
90.0
 52
90.0
 71
     2
 49
0.5
 62
   256
  6
BYLAYER
 49
-0.5
 62
   256
  6
BYLAYER
  0
ACDBPLACEHOLDER
  5
F
102
{ACAD_REACTORS
330
E
102
}
330
E
  0
VISUALSTYLE
  5
2F
102
{ACAD_REACTORS
330
2A
102
}
330
2A
100
AcDbVisualStyle
  2
2dWireframe
 70
     4
177
     2
291
     0
 71
     0
176
     1
 72
     2
176
     1
 73
     0
176
     1
 90
        0
176
     1
 40
-0.6
176
     1
 41
-30.0
176
     1
 62
     5
 63
     7
421
 16777215
176
     1
 74
     1
176
     1
 91
        4
176
     1
 64
     7
176
     1
 65
   257
176
     1
 75
     1
176
     1
175
     1
176
     1
 42
1.0
176
     1
 92
        0
176
     1
 66
   257
176
     1
 43
1.0
176
     1
 76
     1
176
     1
 77
     6
176
     1
 78
     2
176
     1
 67
     7
176
     1
 79
     5
176
     1
170
     0
176
     1
171
     0
176
     1
290
     0
176
     1
 93
        1
176
     1
 44
0.0
176
     1
173
     0
176
     1
  0
VISUALSTYLE
  5
31
102
{ACAD_REACTORS
330
2A
102
}
330
2A
100
AcDbVisualStyle
  2
3D Hidden
 70
     6
177
     2
291
     0
 71
     1
176
     1
 72
     2
176
     1
 73
     2
176
     1
 90
        0
176
     1
 40
-0.6
176
     1
 41
-30.0
176
     1
 62
     5
 63
     7
421
 16777215
176
     1
 74
     2
176
     1
 91
        2
176
     1
 64
     7
176
     1
 65
   257
176
     1
 75
     2
176
     1
175
     1
176
     1
 42
40.0
176
     1
 92
        0
176
     1
 66
   257
176
     1
 43
1.0
176
     1
 76
     1
176
     1
 77
     6
176
     1
 78
     2
176
     1
 67
     7
176
     1
 79
     3
176
     1
170
     0
176
     1
171
     0
176
     1
290
     0
176
     1
 93
        1
176
     1
 44
0.0
176
     1
173
     0
176
     1
  0
VISUALSTYLE
  5
30
102
{ACAD_REACTORS
330
2A
102
}
330
2A
100
AcDbVisualStyle
  2
3dWireframe
 70
     5
177
     2
291
     0
 71
     0
176
     1
 72
     2
176
     1
 73
     0
176
     1
 90
        0
176
     1
 40
-0.6
176
     1
 41
-30.0
176
     1
 62
     5
 63
     7
421
 16777215
176
     1
 74
     1
176
     1
 91
        4
176
     1
 64
     7
176
     1
 65
   257
176
     1
 75
     1
176
     1
175
     1
176
     1
 42
1.0
176
     1
 92
        0
176
     1
 66
   257
176
     1
 43
1.0
176
     1
 76
     1
176
     1
 77
     6
176
     1
 78
     2
176
     1
 67
     7
176
     1
 79
     5
176
     1
170
     0
176
     1
171
     0
176
     1
290
     0
176
     1
 93
        1
176
     1
 44
0.0
176
     1
173
     0
176
     1
  0
VISUALSTYLE
  5
32
102
{ACAD_REACTORS
330
2A
102
}
330
2A
100
AcDbVisualStyle
  2
Basic
 70
     7
177
     2
291
     1
 71
     1
176
     1
 72
     0
176
     1
 73
     1
176
     1
 90
        0
176
     1
 40
-0.6
176
     1
 41
-30.0
176
     1
 62
     5
 63
     7
421
 16777215
176
     1
 74
     0
176
     1
 91
        4
176
     1
 64
     7
176
     1
 65
   257
176
     1
 75
     1
176
     1
175
     1
176
     1
 42
1.0
176
     1
 92
        8
176
     1
 66
     7
176
     1
 43
1.0
176
     1
 76
     1
176
     1
 77
     6
176
     1
 78
     2
176
     1
 67
     7
176
     1
 79
     5
176
     1
170
     0
176
     1
171
     0
176
     1
290
     0
176
     1
 93
        1
176
     1
 44
0.0
176
     1
173
     0
176
     1
  0
VISUALSTYLE
  5
36
102
{ACAD_REACTORS
330
2A
102
}
330
2A
100
AcDbVisualStyle
  2
Brighten
 70
    12
177
     2
291
     1
 71
     2
176
     1
 72
     2
176
     1
 73
     0
176
     1
 90
        0
176
     1
 40
-0.6
176
     1
 41
-30.0
176
     1
 62
     5
 63
     7
421
 16777215
176
     1
 74
     1
176
     1
 91
        4
176
     1
 64
     7
176
     1
 65
   257
176
     1
 75
     1
176
     1
175
     1
176
     1
 42
1.0
176
     1
 92
        8
176
     1
 66
     7
176
     1
 43
1.0
176
     1
 76
     1
176
     1
 77
     6
176
     1
 78
     2
176
     1
 67
     7
176
     1
 79
     5
176
     1
170
     0
176
     1
171
     0
176
     1
290
     0
176
     1
 93
        1
176
     1
 44
50.0
176
     1
173
     0
176
     1
  0
VISUALSTYLE
  5
3A
102
{ACAD_REACTORS
330
2A
102
}
330
2A
100
AcDbVisualStyle
  2
ColorChange
 70
    16
177
     2
291
     1
 71
     2
176
     1
 72
     2
176
     1
 73
     3
176
     1
 90
        0
176
     1
 40
-0.6
176
     1
 41
-30.0
176
     1
 62
     5
 63
     8
421
  8421504
176
     1
 74
     1
176
     1
 91
        4
176
     1
 64
     7
176
     1
 65
   257
176
     1
 75
     1
176
     1
175
     1
176
     1
 42
1.0
176
     1
 92
        8
176
     1
 66
     8
424
  8421504
176
     1
 43
1.0
176
     1
 76
     1
176
     1
 77
     6
176
     1
 78
     2
176
     1
 67
     7
176
     1
 79
     5
176
     1
170
     0
176
     1
171
     0
176
     1
290
     0
176
     1
 93
        1
176
     1
 44
0.0
176
     1
173
     0
176
     1
  0
VISUALSTYLE
  5
34
102
{ACAD_REACTORS
330
2A
102
}
330
2A
100
AcDbVisualStyle
  2
Conceptual
 70
     9
177
     2
291
     0
 71
     3
176
     1
 72
     2
176
     1
 73
     0
176
     1
 90
        0
176
     1
 40
-0.6
176
     1
 41
-30.0
176
     1
 62
     5
 63
     7
421
 16777215
176
     1
 74
     2
176
     1
 91
        2
176
     1
 64
     7
176
     1
 65
   257
176
     1
 75
     1
176
     1
175
     1
176
     1
 42
40.0
176
     1
 92
        8
176
     1
 66
     7
176
     1
 43
1.0
176
     1
 76
     1
176
     1
 77
     6
176
     1
 78
     2
176
     1
 67
     7
176
     1
 79
     3
176
     1
170
     0
176
     1
171
     0
176
     1
290
     0
176
     1
 93
        1
176
     1
 44
0.0
176
     1
173
     0
176
     1
  0
VISUALSTYLE
  5
35
102
{ACAD_REACTORS
330
2A
102
}
330
2A
100
AcDbVisualStyle
  2
Dim
 70
    11
177
     2
291
     1
 71
     2
176
     1
 72
     2
176
     1
 73
     0
176
     1
 90
        0
176
     1
 40
-0.6
176
     1
 41
-30.0
176
     1
 62
     5
 63
     7
421
 16777215
176
     1
 74
     1
176
     1
 91
        4
176
     1
 64
     7
176
     1
 65
   257
176
     1
 75
     1
176
     1
175
     1
176
     1
 42
1.0
176
     1
 92
        8
176
     1
 66
     7
176
     1
 43
1.0
176
     1
 76
     1
176
     1
 77
     6
176
     1
 78
     2
176
     1
 67
     7
176
     1
 79
     5
176
     1
170
     0
176
     1
171
     0
176
     1
290
     0
176
     1
 93
        1
176
     1
 44
-50.0
176
     1
173
     0
176
     1
  0
VISUALSTYLE
  5
39
102
{ACAD_REACTORS
330
2A
102
}
330
2A
100
AcDbVisualStyle
  2
Facepattern
 70
    15
177
     2
291
     1
 71
     2
176
     1
 72
     2
176
     1
 73
     0
176
     1
 90
        0
176
     1
 40
-0.6
176
     1
 41
-30.0
176
     1
 62
     5
 63
     7
421
 16777215
176
     1
 74
     1
176
     1
 91
        4
176
     1
 64
     7
176
     1
 65
   257
176
     1
 75
     1
176
     1
175
     1
176
     1
 42
1.0
176
     1
 92
        8
176
     1
 66
     7
176
     1
 43
1.0
176
     1
 76
     1
176
     1
 77
     6
176
     1
 78
     2
176
     1
 67
     7
176
     1
 79
     5
176
     1
170
     0
176
     1
171
     0
176
     1
290
     0
176
     1
 93
        1
176
     1
 44
0.0
176
     1
173
     0
176
     1
  0
VISUALSTYLE
  5
2B
102
{ACAD_REACTORS
330
2A
102
}
330
2A
100
AcDbVisualStyle
  2
Flat
 70
     0
177
     2
291
     1
 71
     2
176
     1
 72
     1
176
     1
 73
     1
176
     1
 90
        2
176
     1
 40
-0.6
176
     1
 41
30.0
176
     1
 62
     5
 63
     7
421
 16777215
176
     1
 74
     0
176
     1
 91
        4
176
     1
 64
     7
176
     1
 65
   257
176
     1
 75
     1
176
     1
175
     1
176
     1
 42
1.0
176
     1
 92
        8
176
     1
 66
     7
176
     1
 43
1.0
176
     1
 76
     1
176
     1
 77
     6
176
     1
 78
     2
176
     1
 67
     7
176
     1
 79
     5
176
     1
170
     0
176
     1
171
     0
176
     1
290
     0
176
     1
 93
       13
176
     1
 44
0.0
176
     1
173
     0
176
     1
  0
VISUALSTYLE
  5
2C
102
{ACAD_REACTORS
330
2A
102
}
330
2A
100
AcDbVisualStyle
  2
FlatWithEdges
 70
     1
177
     2
291
     1
 71
     2
176
     1
 72
     1
176
     1
 73
     1
176
     1
 90
        2
176
     1
 40
-0.6
176
     1
 41
30.0
176
     1
 62
     5
 63
     7
421
 16777215
176
     1
 74
     1
176
     1
 91
        4
176
     1
 64
     7
176
     1
 65
   257
176
     1
 75
     1
176
     1
175
     1
176
     1
 42
1.0
176
     1
 92
        0
176
     1
 66
   257
176
     1
 43
1.0
176
     1
 76
     1
176
     1
 77
     6
176
     1
 78
     2
176
     1
 67
     7
176
     1
 79
     5
176
     1
170
     0
176
     1
171
     0
176
     1
290
     0
176
     1
 93
       13
176
     1
 44
0.0
176
     1
173
     0
176
     1
  0
VISUALSTYLE
  5
2D
102
{ACAD_REACTORS
330
2A
102
}
330
2A
100
AcDbVisualStyle
  2
Gouraud
 70
     2
177
     2
291
     1
 71
     2
176
     1
 72
     2
176
     1
 73
     1
176
     1
 90
        2
176
     1
 40
-0.6
176
     1
 41
30.0
176
     1
 62
     5
 63
     7
421
 16777215
176
     1
 74
     0
176
     1
 91
        4
176
     1
 64
     7
176
     1
 65
   257
176
     1
 75
     1
176
     1
175
     1
176
     1
 42
1.0
176
     1
 92
        0
176
     1
 66
     7
176
     1
 43
1.0
176
     1
 76
     1
176
     1
 77
     6
176
     1
 78
     2
176
     1
 67
     7
176
     1
 79
     5
176
     1
170
     0
176
     1
171
     0
176
     1
290
     0
176
     1
 93
       13
176
     1
 44
0.0
176
     1
173
     0
176
     1
  0
VISUALSTYLE
  5
2E
102
{ACAD_REACTORS
330
2A
102
}
330
2A
100
AcDbVisualStyle
  2
GouraudWithEdges
 70
     3
177
     2
291
     1
 71
     2
176
     1
 72
     2
176
     1
 73
     1
176
     1
 90
        2
176
     1
 40
-0.6
176
     1
 41
30.0
176
     1
 62
     5
 63
     7
421
 16777215
176
     1
 74
     1
176
     1
 91
        4
176
     1
 64
     7
176
     1
 65
   257
176
     1
 75
     1
176
     1
175
     1
176
     1
 42
1.0
176
     1
 92
        0
176
     1
 66
   257
176
     1
 43
1.0
176
     1
 76
     1
176
     1
 77
     6
176
     1
 78
     2
176
     1
 67
     7
176
     1
 79
     5
176
     1
170
     0
176
     1
171
     0
176
     1
290
     0
176
     1
 93
       13
176
     1
 44
0.0
176
     1
173
     0
176
     1
  0
VISUALSTYLE
  5
38
102
{ACAD_REACTORS
330
2A
102
}
330
2A
100
AcDbVisualStyle
  2
Linepattern
 70
    14
177
     2
291
     1
 71
     2
176
     1
 72
     2
176
     1
 73
     0
176
     1
 90
        0
176
     1
 40
-0.6
176
     1
 41
-30.0
176
     1
 62
     5
 63
     7
421
 16777215
176
     1
 74
     1
176
     1
 91
        4
176
     1
 64
     7
176
     1
 65
   257
176
     1
 75
     7
176
     1
175
     7
176
     1
 42
1.0
176
     1
 92
        8
176
     1
 66
     7
176
     1
 43
1.0
176
     1
 76
     1
176
     1
 77
     6
176
     1
 78
     2
176
     1
 67
     7
176
     1
 79
     5
176
     1
170
     0
176
     1
171
     0
176
     1
290
     0
176
     1
 93
        1
176
     1
 44
0.0
176
     1
173
     0
176
     1
  0
VISUALSTYLE
  5
33
102
{ACAD_REACTORS
330
2A
102
}
330
2A
100
AcDbVisualStyle
  2
Realistic
 70
     8
177
     2
291
     0
 71
     2
176
     1
 72
     2
176
     1
 73
     0
176
     1
 90
        0
176
     1
 40
-0.6
176
     1
 41
-30.0
176
     1
 62
     5
 63
     7
421
 16777215
176
     1
 74
     1
176
     1
 91
        0
176
     1
 64
     7
176
     1
 65
   257
176
     1
 75
     1
176
     1
175
     1
176
     1
 42
1.0
176
     1
 92
        8
176
     1
 66
     8
424
  7895160
176
     1
 43
1.0
176
     1
 76
     1
176
     1
 77
     6
176
     1
 78
     2
176
     1
 67
     7
176
     1
 79
     5
176
     1
170
     0
176
     1
171
     0
176
     1
290
     0
176
     1
 93
       13
176
     1
 44
0.0
176
     1
173
     0
176
     1
  0
VISUALSTYLE
  5
37
102
{ACAD_REACTORS
330
2A
102
}
330
2A
100
AcDbVisualStyle
  2
Thicken
 70
    13
177
     2
291
     1
 71
     2
176
     1
 72
     2
176
     1
 73
     0
176
     1
 90
        0
176
     1
 40
-0.6
176
     1
 41
-30.0
176
     1
 62
     5
 63
     7
421
 16777215
176
     1
 74
     1
176
     1
 91
        4
176
     1
 64
     7
176
     1
 65
   257
176
     1
 75
     1
176
     1
175
     1
176
     1
 42
1.0
176
     1
 92
       12
176
     1
 66
     7
176
     1
 43
1.0
176
     1
 76
     1
176
     1
 77
     6
176
     1
 78
     2
176
     1
 67
     7
176
     1
 79
     5
176
     1
170
     0
176
     1
171
     0
176
     1
290
     0
176
     1
 93
        1
176
     1
 44
0.0
176
     1
173
     0
176
     1
  0
ENDSEC
  0
EOF
