  0
SECTION
  2
HEADER
  9
$ACADVER
  1
AC1024
  9
$ACADMAINTVER
 70
     6
  9
$DWGCODEPAGE
  3
UNDEFINED
  9
$INSBASE
 10
0.0
 20
0.0
 30
0.0
  9
$EXTMIN
 10
1.000000000000000E+20
 20
1.000000000000000E+20
 30
1.000000000000000E+20
  9
$EXTMAX
 10
-1.000000000000000E+20
 20
-1.000000000000000E+20
 30
-1.000000000000000E+20
  9
$LIMMIN
 10
0.0
 20
0.0
  9
$LIMMAX
 10
12.0
 20
9.0
  9
$ORTHOMODE
 70
     0
  9
$REGENMODE
 70
     1
  9
$FILLMODE
 70
     1
  9
$QTEXTMODE
 70
     0
  9
$MIRRTEXT
 70
     1
  9
$LTSCALE
 40
1.0
  9
$ATTMODE
 70
     1
  9
$TEXTSIZE
 40
0.2
  9
$TRACEWID
 40
0.05
  9
$TEXTSTYLE
  7
Standard
  9
$CLAYER
  8
0
  9
$CELTYPE
  6
ByLayer
  9
$CECOLOR
 62
   256
  9
$CELTSCALE
 40
1.0
  9
$DISPSILH
 70
     0
  9
$DIMSCALE
 40
1.0
  9
$DIMASZ
 40
0.18
  9
$DIMEXO
 40
0.0625
  9
$DIMDLI
 40
0.38
  9
$DIMRND
 40
0.0
  9
$DIMDLE
 40
0.0
  9
$DIMEXE
 40
0.18
  9
$DIMTP
 40
0.0
  9
$DIMTM
 40
0.0
  9
$DIMTXT
 40
0.18
  9
$DIMCEN
 40
0.09
  9
$DIMTSZ
 40
0.0
  9
$DIMTOL
 70
     0
  9
$DIMLIM
 70
     0
  9
$DIMTIH
 70
     1
  9
$DIMTOH
 70
     1
  9
$DIMSE1
 70
     0
  9
$DIMSE2
 70
     0
  9
$DIMTAD
 70
     0
  9
$DIMZIN
 70
     0
  9
$DIMBLK
  1

  9
$DIMASO
 70
     1
  9
$DIMSHO
 70
     1
  9
$DIMPOST
  1

  9
$DIMAPOST
  1

  9
$DIMALT
 70
     0
  9
$DIMALTD
 70
     2
  9
$DIMALTF
 40
25.4
  9
$DIMLFAC
 40
1.0
  9
$DIMTOFL
 70
     0
  9
$DIMTVP
 40
0.0
  9
$DIMTIX
 70
     0
  9
$DIMSOXD
 70
     0
  9
$DIMSAH
 70
     0
  9
$DIMBLK1
  1

  9
$DIMBLK2
  1

  9
$DIMSTYLE
  2
Standard
  9
$DIMCLRD
 70
     0
  9
$DIMCLRE
 70
     0
  9
$DIMCLRT
 70
     0
  9
$DIMTFAC
 40
1.0
  9
$DIMGAP
 40
0.09
  9
$DIMJUST
 70
     0
  9
$DIMSD1
 70
     0
  9
$DIMSD2
 70
     0
  9
$DIMTOLJ
 70
     1
  9
$DIMTZIN
 70
     0
  9
$DIMALTZ
 70
     0
  9
$DIMALTTZ
 70
     0
  9
$DIMUPT
 70
     0
  9
$DIMDEC
 70
     4
  9
$DIMTDEC
 70
     4
  9
$DIMALTU
 70
     2
  9
$DIMALTTD
 70
     2
  9
$DIMTXSTY
  7
Standard
  9
$DIMAUNIT
 70
     0
  9
$DIMADEC
 70
     0
  9
$DIMALTRND
 40
0.0
  9
$DIMAZIN
 70
     0
  9
$DIMDSEP
 70
    46
  9
$DIMATFIT
 70
     3
  9
$DIMFRAC
 70
     0
  9
$DIMLDRBLK
  1

  9
$DIMLUNIT
 70
     2
  9
$DIMLWD
 70
    -2
  9
$DIMLWE
 70
    -2
  9
$DIMTMOVE
 70
     0
  9
$DIMFXL
 40
1.0
  9
$DIMFXLON
 70
     0
  9
$DIMJOGANG
 40
0.7853981633974483
  9
$DIMTFILL
 70
     0
  9
$DIMTFILLCLR
 70
     0
  9
$DIMARCSYM
 70
     0
  9
$DIMLTYPE
  6

  9
$DIMLTEX1
  6

  9
$DIMLTEX2
  6

  9
$DIMTXTDIRECTION
 70
     0
  9
$LUNITS
 70
     2
  9
$LUPREC
 70
     4
  9
$SKETCHINC
 40
0.1
  9
$FILLETRAD
 40
0.5
  9
$AUNITS
 70
     0
  9
$AUPREC
 70
     0
  9
$MENU
  1
.
  9
$ELEVATION
 40
0.0
  9
$PELEVATION
 40
0.0
  9
$THICKNESS
 40
0.0
  9
$LIMCHECK
 70
     0
  9
$CHAMFERA
 40
0.5
  9
$CHAMFERB
 40
0.5
  9
$CHAMFERC
 40
1.0
  9
$CHAMFERD
 40
0.0
  9
$SKPOLY
 70
     0
  9
$TDCREATE
 40
2458016.379479155
  9
$TDUCREATE
 40
2458016.3378125
  9
$TDUPDATE
 40
2458016.379479155
  9
$TDUUPDATE
 40
2458016.3378125
  9
$TDINDWG
 40
0.0000000116
  9
$TDUSRTIMER
 40
0.0000000116
  9
$USRTIMER
 70
     1
  9
$ANGBASE
 50
0.0
  9
$ANGDIR
 70
     0
  9
$PDMODE
 70
     0
  9
$PDSIZE
 40
0.0
  9
$PLINEWID
 40
0.0
  9
$SPLFRAME
 70
     0
  9
$SPLINETYPE
 70
     6
  9
$SPLINESEGS
 70
     8
  9
$HANDSEED
  5
9D
  9
$SURFTAB1
 70
     6
  9
$SURFTAB2
 70
     6
  9
$SURFTYPE
 70
     6
  9
$SURFU
 70
     6
  9
$SURFV
 70
     6
  9
$UCSBASE
  2

  9
$UCSNAME
  2

  9
$UCSORG
 10
0.0
 20
0.0
 30
0.0
  9
$UCSXDIR
 10
1.0
 20
0.0
 30
0.0
  9
$UCSYDIR
 10
0.0
 20
1.0
 30
0.0
  9
$UCSORTHOREF
  2

  9
$UCSORTHOVIEW
 70
     0
  9
$UCSORGTOP
 10
0.0
 20
0.0
 30
0.0
  9
$UCSORGBOTTOM
 10
0.0
 20
0.0
 30
0.0
  9
$UCSORGLEFT
 10
0.0
 20
0.0
 30
0.0
  9
$UCSORGRIGHT
 10
0.0
 20
0.0
 30
0.0
  9
$UCSORGFRONT
 10
0.0
 20
0.0
 30
0.0
  9
$UCSORGBACK
 10
0.0
 20
0.0
 30
0.0
  9
$PUCSBASE
  2

  9
$PUCSNAME
  2

  9
$PUCSORG
 10
0.0
 20
0.0
 30
0.0
  9
$PUCSXDIR
 10
1.0
 20
0.0
 30
0.0
  9
$PUCSYDIR
 10
0.0
 20
1.0
 30
0.0
  9
$PUCSORTHOREF
  2

  9
$PUCSORTHOVIEW
 70
     0
  9
$PUCSORGTOP
 10
0.0
 20
0.0
 30
0.0
  9
$PUCSORGBOTTOM
 10
0.0
 20
0.0
 30
0.0
  9
$PUCSORGLEFT
 10
0.0
 20
0.0
 30
0.0
  9
$PUCSORGRIGHT
 10
0.0
 20
0.0
 30
0.0
  9
$PUCSORGFRONT
 10
0.0
 20
0.0
 30
0.0
  9
$PUCSORGBACK
 10
0.0
 20
0.0
 30
0.0
  9
$USERI1
 70
     0
  9
$USERI2
 70
     0
  9
$USERI3
 70
     0
  9
$USERI4
 70
     0
  9
$USERI5
 70
     0
  9
$USERR1
 40
0.0
  9
$USERR2
 40
0.0
  9
$USERR3
 40
0.0
  9
$USERR4
 40
0.0
  9
$USERR5
 40
0.0
  9
$WORLDVIEW
 70
     1
  9
$SHADEDGE
 70
     3
  9
$SHADEDIF
 70
    70
  9
$TILEMODE
 70
     1
  9
$MAXACTVP
 70
    64
  9
$PINSBASE
 10
0.0
 20
0.0
 30
0.0
  9
$PLIMCHECK
 70
     0
  9
$PEXTMIN
 10
1.000000000000000E+20
 20
1.000000000000000E+20
 30
1.000000000000000E+20
  9
$PEXTMAX
 10
-1.000000000000000E+20
 20
-1.000000000000000E+20
 30
-1.000000000000000E+20
  9
$PLIMMIN
 10
0.0
 20
0.0
  9
$PLIMMAX
 10
12.0
 20
9.0
  9
$UNITMODE
 70
     0
  9
$VISRETAIN
 70
     1
  9
$PLINEGEN
 70
     0
  9
$PSLTSCALE
 70
     1
  9
$TREEDEPTH
 70
  3020
  9
$CMLSTYLE
  2
Standard
  9
$CMLJUST
 70
     0
  9
$CMLSCALE
 40
1.0
  9
$PROXYGRAPHICS
 70
     1
  9
$MEASUREMENT
 70
     0
  9
$CELWEIGHT
370
    -1
  9
$ENDCAPS
280
     0
  9
$JOINSTYLE
280
     0
  9
$LWDISPLAY
290
     1
  9
$INSUNITS
 70
     1
  9
$HYPERLINKBASE
  1

  9
$STYLESHEET
  1

  9
$XEDIT
290
     1
  9
$CEPSNTYPE
380
     0
  9
$PSTYLEMODE
290
     1
  9
$FINGERPRINTGUID
  2
{7C107BA8-C587-8BCE-9CD8-2E82344ADED7}
  9
$VERSIONGUID
  2
{FAEB1C32-E019-11D5-929B-00C0DF256EC4}
  9
$EXTNAMES
290
     1
  9
$PSVPSCALE
 40
0.0
  9
$OLESTARTUP
290
     0
  9
$SORTENTS
280
   127
  9
$INDEXCTL
280
     0
  9
$HIDETEXT
280
     1
  9
$XCLIPFRAME
280
     2
  9
$HALOGAP
280
     0
  9
$OBSCOLOR
 70
   257
  9
$OBSLTYPE
280
     0
  9
$INTERSECTIONDISPLAY
280
     0
  9
$INTERSECTIONCOLOR
 70
   257
  9
$DIMASSOC
280
     2
  9
$PROJECTNAME
  1

  9
$CAMERADISPLAY
290
     0
  9
$LENSLENGTH
 40
50.0
  9
$CAMERAHEIGHT
 40
0.0
  9
$STEPSPERSEC
 40
2.0
  9
$STEPSIZE
 40
6.0
  9
$3DDWFPREC
 40
2.0
  9
$PSOLWIDTH
 40
0.25
  9
$PSOLHEIGHT
 40
4.0
  9
$LOFTANG1
 40
1.570796326794897
  9
$LOFTANG2
 40
1.570796326794897
  9
$LOFTMAG1
 40
0.0
  9
$LOFTMAG2
 40
0.0
  9
$LOFTPARAM
 70
     7
  9
$LOFTNORMALS
280
     1
  9
$LATITUDE
 40
37.795
  9
$LONGITUDE
 40
-122.394
  9
$NORTHDIRECTION
 40
0.0
  9
$TIMEZONE
 70
 -8000
  9
$LIGHTGLYPHDISPLAY
280
     1
  9
$TILEMODELIGHTSYNCH
280
     1
  9
$CMATERIAL
347
3C
  9
$SOLIDHIST
280
     1
  9
$SHOWHIST
280
     1
  9
$DWFFRAME
280
     2
  9
$DGNFRAME
280
     2
  9
$REALWORLDSCALE
290
     1
  9
$INTERFERECOLOR
 62
   256
  9
$CSHADOW
280
     0
  9
$SHADOWPLANELOCATION
 40
0.0
  0
ENDSEC
  0
SECTION
  2
CLASSES
  0
CLASS
  1
ACDBDICTIONARYWDFLT
  2
AcDbDictionaryWithDefault
  3
ObjectDBX Classes
 90
        0
 91
        4
280
     0
281
     0
  0
CLASS
  1
VISUALSTYLE
  2
AcDbVisualStyle
  3
ObjectDBX Classes
 90
     4095
 91
        4
280
     0
281
     0
  0
CLASS
  1
MATERIAL
  2
AcDbMaterial
  3
ObjectDBX Classes
 90
     1153
 91
        4
280
     0
281
     0
  0
CLASS
  1
SUN
  2
AcDbSun
  3
SCENEOE
 90
     1024
 91
        4
280
     0
281
     0
  0
ENDSEC
  0
SECTION
  2
TABLES
  0
TABLE
  2
VPORT
  5
8
330
0
100
AcDbSymbolTable
 70
     1
  0
VPORT
  5
29
330
8
100
AcDbSymbolTableRecord
100
AcDbViewportTableRecord
  2
*Active
 70
     0
 10
0.0
 20
0.0
 11
1.0
 21
1.0
 12
0.0
 22
0.0
 13
0.0
 23
0.0
 14
0.5
 24
0.5
 15
0.5
 25
0.5
 16
0.0
 26
0.0
 36
1.0
 17
50.00000455772695
 27
99.99985289198621
 37
0.0
 40
199.9999829531309
 41
0.5000000881944497
 42
50.0
 43
0.0
 44
0.0
 50
0.0
 51
0.0
 71
     0
 72
   100
 73
     1
 74
     3
 75
     0
 76
     0
 77
     0
 78
     0
281
     0
 65
     1
110
0.0
120
0.0
130
0.0
111
1.0
121
0.0
131
0.0
112
0.0
122
1.0
132
0.0
 79
     0
146
0.0
 60
     3
 61
     5
292
     1
282
     1
141
0.0
142
0.0
 63
   250
361
3F
  0
ENDTAB
  0
TABLE
  2
LTYPE
  5
5
330
0
100
AcDbSymbolTable
 70
     1
  0
LTYPE
  5
14
330
5
100
AcDbSymbolTableRecord
100
AcDbLinetypeTableRecord
  2
ByBlock
 70
     0
  3

 72
    65
 73
     0
 40
0.0
  0
LTYPE
  5
15
330
5
100
AcDbSymbolTableRecord
100
AcDbLinetypeTableRecord
  2
ByLayer
 70
     0
  3

 72
    65
 73
     0
 40
0.0
  0
LTYPE
  5
16
330
5
100
AcDbSymbolTableRecord
100
AcDbLinetypeTableRecord
  2
Continuous
 70
     0
  3
Solid line
 72
    65
 73
     0
 40
0.0
  0
ENDTAB
  0
TABLE
  2
LAYER
  5
2
330
0
100
AcDbSymbolTable
 70
     2
  0
LAYER
  5
10
330
2
100
AcDbSymbolTableRecord
100
AcDbLayerTableRecord
  2
0
 70
     0
 62
     7
  6
Continuous
370
    -3
390
F
347
3E
  0
LAYER
  5
40
330
2
100
AcDbSymbolTableRecord
100
AcDbLayerTableRecord
  2
Layer 1
 70
     0
 62
     7
  6
Continuous
370
    -3
390
F
347
3E
  0
ENDTAB
  0
TABLE
  2
STYLE
  5
3
330
0
100
AcDbSymbolTable
 70
     1
  0
STYLE
  5
11
330
3
100
AcDbSymbolTableRecord
100
AcDbTextStyleTableRecord
  2
Standard
 70
     0
 40
0.0
 41
1.0
 50
0.0
 71
     0
 42
0.2
  3
txt
  4

  0
ENDTAB
  0
TABLE
  2
VIEW
  5
6
330
0
100
AcDbSymbolTable
 70
     0
  0
ENDTAB
  0
TABLE
  2
UCS
  5
7
330
0
100
AcDbSymbolTable
 70
     0
  0
ENDTAB
  0
TABLE
  2
APPID
  5
9
330
0
100
AcDbSymbolTable
 70
     1
  0
APPID
  5
12
330
9
100
AcDbSymbolTableRecord
100
AcDbRegAppTableRecord
  2
ACAD
 70
     0
  0
ENDTAB
  0
TABLE
  2
DIMSTYLE
  5
A
330
0
100
AcDbSymbolTable
 70
     1
100
AcDbDimStyleTable
  0
DIMSTYLE
105
27
330
A
100
AcDbSymbolTableRecord
100
AcDbDimStyleTableRecord
  2
Standard
 70
     0
178
     0
340
11
  0
ENDTAB
  0
TABLE
  2
BLOCK_RECORD
  5
1
330
0
100
AcDbSymbolTable
 70
    14
  0
BLOCK_RECORD
  5
1F
330
1
100
AcDbSymbolTableRecord
100
AcDbBlockTableRecord
  2
*Model_Space
340
22
 70
     0
280
     1
281
     0
  0
BLOCK_RECORD
  5
1B
330
1
100
AcDbSymbolTableRecord
100
AcDbBlockTableRecord
  2
*Paper_Space
340
1E
 70
     0
280
     1
281
     0
  0
BLOCK_RECORD
  5
23
330
1
100
AcDbSymbolTableRecord
100
AcDbBlockTableRecord
  2
*Paper_Space0
340
26
 70
     0
280
     1
281
     0
  0
BLOCK_RECORD
  5
41
330
1
100
AcDbSymbolTableRecord
100
AcDbBlockTableRecord
  2
block 2
340
0
102
{BLKREFS
331
42
102
}
 70
     0
280
     1
281
     0
  0
BLOCK_RECORD
  5
48
330
1
100
AcDbSymbolTableRecord
100
AcDbBlockTableRecord
  2
block 3
340
0
102
{BLKREFS
331
49
102
}
 70
     0
280
     1
281
     0
  0
BLOCK_RECORD
  5
4C
330
1
100
AcDbSymbolTableRecord
100
AcDbBlockTableRecord
  2
block 4
340
0
102
{BLKREFS
331
4D
102
}
 70
     0
280
     1
281
     0
  0
BLOCK_RECORD
  5
51
330
1
100
AcDbSymbolTableRecord
100
AcDbBlockTableRecord
  2
block 5
340
0
102
{BLKREFS
331
52
102
}
 70
     0
280
     1
281
     0
  0
BLOCK_RECORD
  5
57
330
1
100
AcDbSymbolTableRecord
100
AcDbBlockTableRecord
  2
block 6
340
0
102
{BLKREFS
331
58
102
}
 70
     0
280
     1
281
     0
  0
BLOCK_RECORD
  5
5D
330
1
100
AcDbSymbolTableRecord
100
AcDbBlockTableRecord
  2
block 7
340
0
102
{BLKREFS
331
5E
102
}
 70
     0
280
     1
281
     0
  0
BLOCK_RECORD
  5
63
330
1
100
AcDbSymbolTableRecord
100
AcDbBlockTableRecord
  2
block 8
340
0
102
{BLKREFS
331
64
102
}
 70
     0
280
     1
281
     0
  0
BLOCK_RECORD
  5
69
330
1
100
AcDbSymbolTableRecord
100
AcDbBlockTableRecord
  2
block 9
340
0
102
{BLKREFS
331
6A
102
}
 70
     0
280
     1
281
     0
  0
BLOCK_RECORD
  5
6F
330
1
100
AcDbSymbolTableRecord
100
AcDbBlockTableRecord
  2
block 10
340
0
102
{BLKREFS
331
70
102
}
 70
     0
280
     1
281
     0
  0
BLOCK_RECORD
  5
75
330
1
100
AcDbSymbolTableRecord
100
AcDbBlockTableRecord
  2
block 11
340
0
102
{BLKREFS
331
76
102
}
 70
     0
280
     1
281
     0
  0
BLOCK_RECORD
  5
7B
330
1
100
AcDbSymbolTableRecord
100
AcDbBlockTableRecord
  2
block 12
340
0
102
{BLKREFS
331
7C
102
}
 70
     0
280
     1
281
     0
  0
BLOCK_RECORD
  5
81
330
1
100
AcDbSymbolTableRecord
100
AcDbBlockTableRecord
  2
block 13
340
0
102
{BLKREFS
331
82
102
}
 70
     0
280
     1
281
     0
  0
BLOCK_RECORD
  5
87
330
1
100
AcDbSymbolTableRecord
100
AcDbBlockTableRecord
  2
block 14
340
0
102
{BLKREFS
331
88
102
}
 70
     0
280
     1
281
     0
  0
ENDTAB
  0
ENDSEC
  0
SECTION
  2
BLOCKS
  0
BLOCK
  5
20
330
1F
100
AcDbEntity
  8
0
100
AcDbBlockBegin
  2
*Model_Space
 70
     0
 10
0.0
 20
0.0
 30
0.0
  3
*Model_Space
  1

  0
ENDBLK
  5
21
330
1F
100
AcDbEntity
  8
0
100
AcDbBlockEnd
  0
BLOCK
  5
1C
330
1B
100
AcDbEntity
 67
     1
  8
0
100
AcDbBlockBegin
  2
*Paper_Space
 70
     0
 10
0.0
 20
0.0
 30
0.0
  3
*Paper_Space
  1

  0
ENDBLK
  5
1D
330
1B
100
AcDbEntity
 67
     1
  8
0
100
AcDbBlockEnd
  0
BLOCK
  5
24
330
23
100
AcDbEntity
  8
0
100
AcDbBlockBegin
  2
*Paper_Space0
 70
     0
 10
0.0
 20
0.0
 30
0.0
  3
*Paper_Space0
  1

  0
ENDBLK
  5
25
330
23
100
AcDbEntity
  8
0
100
AcDbBlockEnd
  0
BLOCK
  5
43
330
41
100
AcDbEntity
  8
0
100
AcDbBlockBegin
  2
block 2
 70
     0
 10
0.0
 20
0.0
 30
0.0
  3
block 2
  1

  0
SPLINE
  5
45
330
41
100
AcDbEntity
  8
Layer 1
370
     0
100
AcDbSpline
210
0.0
220
0.0
230
1.0
 70
    11
 71
     3
 72
    17
 73
    13
 74
     0
 42
0.0000000001
 43
0.0000000001
 12
1.0
 22
0.0
 32
0.0
 13
1.0
 23
0.0
 33
0.0
 40
0.0
 40
0.0
 40
0.0
 40
0.0
 40
1.0
 40
1.0
 40
1.0
 40
2.0
 40
2.0
 40
2.0
 40
3.0
 40
3.0
 40
3.0
 40
4.0
 40
4.0
 40
4.0
 40
4.0
 10
41.45932533117338
 20
104.1719237312417
 30
0.0
 10
41.45932533117338
 20
99.67383330841518
 30
0.0
 10
45.11939468224168
 20
96.01376386488576
 30
0.0
 10
49.61731123415693
 20
96.01376386488576
 30
0.0
 10
54.11589806383287
 20
96.01376386488576
 30
0.0
 10
57.77529713714048
 20
99.67383330841518
 30
0.0
 10
57.77529713714048
 20
104.1719237312417
 30
0.0
 10
57.77529713714048
 20
108.6701930609257
 30
0.0
 10
54.11589806383287
 20
112.3300888608064
 30
0.0
 10
49.61731123415693
 20
112.3300888608064
 30
0.0
 10
45.11939468224168
 20
112.3300888608064
 30
0.0
 10
41.45932533117338
 20
108.6701930609257
 30
0.0
 10
41.45932533117338
 20
104.1719237312417
 30
0.0
  0
SPLINE
  5
46
330
41
100
AcDbEntity
  8
Layer 1
370
     0
100
AcDbSpline
210
0.0
220
0.0
230
1.0
 70
    11
 71
     3
 72
    17
 73
    13
 74
     0
 42
0.0000000001
 43
0.0000000001
 12
1.0
 22
0.0
 32
0.0
 13
1.0
 23
0.0
 33
0.0
 40
0.0
 40
0.0
 40
0.0
 40
0.0
 40
1.0
 40
1.0
 40
1.0
 40
2.0
 40
2.0
 40
2.0
 40
3.0
 40
3.0
 40
3.0
 40
4.0
 40
4.0
 40
4.0
 40
4.0
 10
41.85584754327948
 20
104.1719237312417
 30
0.0
 10
41.85584754327948
 20
108.4516119553911
 30
0.0
 10
45.33779939889193
 20
111.9335666386834
 30
0.0
 10
49.61731123415693
 20
111.9335666386834
 30
0.0
 10
53.89678779164505
 20
111.9335666386834
 30
0.0
 10
57.37909242502629
 20
108.4516119553911
 30
0.0
 10
57.37909242502629
 20
104.1719237312417
 30
0.0
 10
57.37909242502629
 20
99.8922707848692
 30
0.0
 10
53.89678779164505
 20
96.41063886478655
 30
0.0
 10
49.61731123415693
 20
96.41063886478655
 30
0.0
 10
45.33779939889193
 20
96.41063886478655
 30
0.0
 10
41.85584754327948
 20
99.8922707848692
 30
0.0
 10
41.85584754327948
 20
104.1719237312417
 30
0.0
  0
HATCH
  5
47
330
41
100
AcDbEntity
  8
Layer 1
 62
     7
420
 16777215
100
AcDbHatch
 10
0.0
 20
0.0
 30
0.0
210
0.0
220
0.0
230
1.0
  2
SOLID
 70
     1
 71
     0
 91
        2
 92
        1
 93
        1
 72
     4
 94
        3
 73
     0
 74
     1
 95
       17
 96
       13
 40
0.0
 40
0.0
 40
0.0
 40
0.0
 40
1.0
 40
1.0
 40
1.0
 40
2.0
 40
2.0
 40
2.0
 40
3.0
 40
3.0
 40
3.0
 40
4.0
 40
4.0
 40
4.0
 40
4.0
 10
41.45932533117338
 20
104.1719237312417
 10
41.45932533117338
 20
99.67383330841518
 10
45.11939468224168
 20
96.01376386488576
 10
49.61731123415693
 20
96.01376386488576
 10
54.11589806383287
 20
96.01376386488576
 10
57.77529713714048
 20
99.67383330841518
 10
57.77529713714048
 20
104.1719237312417
 10
57.77529713714048
 20
108.6701930609257
 10
54.11589806383287
 20
112.3300888608064
 10
49.61731123415693
 20
112.3300888608064
 10
45.11939468224168
 20
112.3300888608064
 10
41.45932533117338
 20
108.6701930609257
 10
41.45932533117338
 20
104.1719237312417
 97
        0
 97
        0
 92
        1
 93
        1
 72
     4
 94
        3
 73
     0
 74
     1
 95
       17
 96
       13
 40
0.0
 40
0.0
 40
0.0
 40
0.0
 40
1.0
 40
1.0
 40
1.0
 40
2.0
 40
2.0
 40
2.0
 40
3.0
 40
3.0
 40
3.0
 40
4.0
 40
4.0
 40
4.0
 40
4.0
 10
41.85584754327948
 20
104.1719237312417
 10
41.85584754327948
 20
108.4516119553911
 10
45.33779939889193
 20
111.9335666386834
 10
49.61731123415693
 20
111.9335666386834
 10
53.89678779164505
 20
111.9335666386834
 10
57.37909242502629
 20
108.4516119553911
 10
57.37909242502629
 20
104.1719237312417
 10
57.37909242502629
 20
99.8922707848692
 10
53.89678779164505
 20
96.41063886478655
 10
49.61731123415693
 20
96.41063886478655
 10
45.33779939889193
 20
96.41063886478655
 10
41.85584754327948
 20
99.8922707848692
 10
41.85584754327948
 20
104.1719237312417
 97
        0
 97
        0
 75
     2
 76
     1
 98
        0
  0
INSERT
  5
49
330
41
100
AcDbEntity
  8
Layer 1
100
AcDbBlockReference
  2
block 3
 10
0.0
 20
0.0
 30
0.0
  0
INSERT
  5
88
330
41
100
AcDbEntity
  8
Layer 1
100
AcDbBlockReference
  2
block 14
 10
0.0
 20
0.0
 30
0.0
  0
ENDBLK
  5
44
330
41
100
AcDbEntity
  8
0
100
AcDbBlockEnd
  0
BLOCK
  5
4A
330
48
100
AcDbEntity
  8
0
100
AcDbBlockBegin
  2
block 3
 70
     0
 10
0.0
 20
0.0
 30
0.0
  3
block 3
  1

  0
INSERT
  5
4D
330
48
100
AcDbEntity
  8
Layer 1
100
AcDbBlockReference
  2
block 4
 10
0.0
 20
0.0
 30
0.0
  0
INSERT
  5
52
330
48
100
AcDbEntity
  8
Layer 1
100
AcDbBlockReference
  2
block 5
 10
0.0
 20
0.0
 30
0.0
  0
INSERT
  5
58
330
48
100
AcDbEntity
  8
Layer 1
100
AcDbBlockReference
  2
block 6
 10
0.0
 20
0.0
 30
0.0
  0
INSERT
  5
5E
330
48
100
AcDbEntity
  8
Layer 1
100
AcDbBlockReference
  2
block 7
 10
0.0
 20
0.0
 30
0.0
  0
INSERT
  5
64
330
48
100
AcDbEntity
  8
Layer 1
100
AcDbBlockReference
  2
block 8
 10
0.0
 20
0.0
 30
0.0
  0
INSERT
  5
6A
330
48
100
AcDbEntity
  8
Layer 1
100
AcDbBlockReference
  2
block 9
 10
0.0
 20
0.0
 30
0.0
  0
INSERT
  5
70
330
48
100
AcDbEntity
  8
Layer 1
100
AcDbBlockReference
  2
block 10
 10
0.0
 20
0.0
 30
0.0
  0
INSERT
  5
76
330
48
100
AcDbEntity
  8
Layer 1
100
AcDbBlockReference
  2
block 11
 10
0.0
 20
0.0
 30
0.0
  0
INSERT
  5
7C
330
48
100
AcDbEntity
  8
Layer 1
100
AcDbBlockReference
  2
block 12
 10
0.0
 20
0.0
 30
0.0
  0
INSERT
  5
82
330
48
100
AcDbEntity
  8
Layer 1
100
AcDbBlockReference
  2
block 13
 10
0.0
 20
0.0
 30
0.0
  0
ENDBLK
  5
4B
330
48
100
AcDbEntity
  8
0
100
AcDbBlockEnd
  0
BLOCK
  5
4E
330
4C
100
AcDbEntity
  8
0
100
AcDbBlockBegin
  2
block 4
 70
     0
 10
0.0
 20
0.0
 30
0.0
  3
block 4
  1

  0
SPLINE
  5
50
330
4C
100
AcDbEntity
  8
Layer 1
370
     0
100
AcDbSpline
210
0.0
220
0.0
230
1.0
 70
    11
 71
     3
 72
    14
 73
    10
 74
     0
 42
0.0000000001
 43
0.0000000001
 12
1.0
 22
0.0
 32
0.0
 13
1.0
 23
0.0
 33
0.0
 40
0.0
 40
0.0
 40
0.0
 40
0.0
 40
1.0
 40
1.0
 40
1.0
 40
2.0
 40
2.0
 40
2.0
 40
3.0
 40
3.0
 40
3.0
 40
3.0
 10
54.50039055402365
 20
104.1338590099906
 30
0.0
 10
54.50039055402365
 20
104.1383392876541
 30
0.0
 10
54.49968499848609
 20
104.1431749739642
 30
0.0
 10
54.49968499848609
 20
104.1480053985186
 30
0.0
 10
54.49968499848609
 20
104.1428221961864
 30
0.0
 10
54.49968499848609
 20
104.1379865098853
 30
0.0
 10
54.49968499848609
 20
104.1328359544611
 30
0.0
 10
54.49968499848609
 20
104.1331887322299
 30
0.0
 10
54.49968499848609
 20
104.1335062322218
 30
0.0
 10
54.50039055402365
 20
104.1338590099906
 30
0.0
  0
ENDBLK
  5
4F
330
4C
100
AcDbEntity
  8
0
100
AcDbBlockEnd
  0
BLOCK
  5
53
330
51
100
AcDbEntity
  8
0
100
AcDbBlockBegin
  2
block 5
 70
     0
 10
0.0
 20
0.0
 30
0.0
  3
block 5
  1

  0
SPLINE
  5
55
330
51
100
AcDbEntity
  8
Layer 1
370
     0
100
AcDbSpline
210
0.0
220
0.0
230
1.0
 70
    11
 71
     3
 72
    23
 73
    19
 74
     0
 42
0.0000000001
 43
0.0000000001
 12
1.0
 22
0.0
 32
0.0
 13
1.0
 23
0.0
 33
0.0
 40
0.0
 40
0.0
 40
0.0
 40
0.0
 40
1.0
 40
1.0
 40
1.0
 40
2.0
 40
2.0
 40
2.0
 40
3.0
 40
3.0
 40
3.0
 40
4.0
 40
4.0
 40
4.0
 40
5.0
 40
5.0
 40
5.0
 40
6.0
 40
6.0
 40
6.0
 40
6.0
 10
49.49398012619226
 20
109.9881002495253
 30
0.0
 10
50.40897982507089
 20
108.305879459109
 30
0.0
 10
50.92713981185153
 20
106.3845458970152
 30
0.0
 10
50.9643225886807
 20
104.3884587257174
 30
0.0
 10
50.9643225886807
 20
104.3877531701799
 30
0.0
 10
50.96294675538247
 20
104.3195638628089
 30
0.0
 10
50.96294675538247
 20
104.3195638628089
 30
0.0
 10
50.96294675538247
 20
104.3195638628089
 30
0.0
 10
50.96157220948202
 20
104.2310166406088
 30
0.0
 10
50.96090064432355
 20
104.1851881753477
 30
0.0
 10
50.2436328848448
 20
102.9463384847312
 30
0.0
 10
49.75373039734325
 20
101.573468519756
 30
0.0
 10
49.50085929268342
 20
100.1348055009038
 30
0.0
 10
49.24728263248603
 20
101.5775960196507
 30
0.0
 10
48.75603958946314
 20
102.9542759845287
 30
0.0
 10
48.03531460785036
 20
104.1958773417417
 30
0.0
 10
48.04289932987908
 20
106.2577575669165
 30
0.0
 10
48.54931181695942
 20
108.2486941827902
 30
0.0
 10
49.49398012619226
 20
109.9881002495253
 30
0.0
  0
HATCH
  5
56
330
51
100
AcDbEntity
  8
Layer 1
 62
     7
420
 16777215
100
AcDbHatch
 10
0.0
 20
0.0
 30
0.0
210
0.0
220
0.0
230
1.0
  2
SOLID
 70
     1
 71
     0
 91
        1
 92
        1
 93
        1
 72
     4
 94
        3
 73
     0
 74
     1
 95
       23
 96
       19
 40
0.0
 40
0.0
 40
0.0
 40
0.0
 40
1.0
 40
1.0
 40
1.0
 40
2.0
 40
2.0
 40
2.0
 40
3.0
 40
3.0
 40
3.0
 40
4.0
 40
4.0
 40
4.0
 40
5.0
 40
5.0
 40
5.0
 40
6.0
 40
6.0
 40
6.0
 40
6.0
 10
49.49398012619226
 20
109.9881002495253
 10
50.40897982507089
 20
108.305879459109
 10
50.92713981185153
 20
106.3845458970152
 10
50.9643225886807
 20
104.3884587257174
 10
50.9643225886807
 20
104.3877531701799
 10
50.96294675538247
 20
104.3195638628089
 10
50.96294675538247
 20
104.3195638628089
 10
50.96294675538247
 20
104.3195638628089
 10
50.96157220948202
 20
104.2310166406088
 10
50.96090064432355
 20
104.1851881753477
 10
50.2436328848448
 20
102.9463384847312
 10
49.75373039734325
 20
101.573468519756
 10
49.50085929268342
 20
100.1348055009038
 10
49.24728263248603
 20
101.5775960196507
 10
48.75603958946314
 20
102.9542759845287
 10
48.03531460785036
 20
104.1958773417417
 10
48.04289932987908
 20
106.2577575669165
 10
48.54931181695942
 20
108.2486941827902
 10
49.49398012619226
 20
109.9881002495253
 97
        0
 97
        0
 75
     2
 76
     1
 98
        0
  0
ENDBLK
  5
54
330
51
100
AcDbEntity
  8
0
100
AcDbBlockEnd
  0
BLOCK
  5
59
330
57
100
AcDbEntity
  8
0
100
AcDbBlockBegin
  2
block 6
 70
     0
 10
0.0
 20
0.0
 30
0.0
  3
block 6
  1

  0
SPLINE
  5
5B
330
57
100
AcDbEntity
  8
Layer 1
370
     0
100
AcDbSpline
210
0.0
220
0.0
230
1.0
 70
    11
 71
     3
 72
    23
 73
    19
 74
     0
 42
0.0000000001
 43
0.0000000001
 12
1.0
 22
0.0
 32
0.0
 13
1.0
 23
0.0
 33
0.0
 40
0.0
 40
0.0
 40
0.0
 40
0.0
 40
1.0
 40
1.0
 40
1.0
 40
2.0
 40
2.0
 40
2.0
 40
3.0
 40
3.0
 40
3.0
 40
4.0
 40
4.0
 40
4.0
 40
5.0
 40
5.0
 40
5.0
 40
6.0
 40
6.0
 40
6.0
 40
6.0
 10
51.3667009117485
 20
104.3098951166106
 30
0.0
 10
51.3667009117485
 20
104.3098951166106
 30
0.0
 10
51.36811202282362
 20
104.3881059479487
 30
0.0
 10
51.36811202282362
 20
104.3881059479487
 30
0.0
 10
51.40529479965278
 20
106.3845458970152
 30
0.0
 10
51.92274923089587
 20
108.305879459109
 30
0.0
 10
52.83778420755138
 20
109.9877827495335
 30
0.0
 10
53.7851689056038
 20
108.2442166396056
 30
0.0
 10
54.29161667046102
 20
106.2481267338289
 30
0.0
 10
54.29712000365395
 20
104.1817662309906
 30
0.0
 10
53.58052252193588
 20
102.9439395959035
 30
0.0
 10
53.09132558997189
 20
101.571739908689
 30
0.0
 10
52.83916004084961
 20
100.1334296676056
 30
0.0
 10
52.58491310289155
 20
101.5834521306124
 30
0.0
 10
52.09017755995774
 20
102.9663083075916
 30
0.0
 10
51.36465480068959
 20
104.2120698413286
 30
0.0
 10
51.36532507845028
 20
104.2589187290223
 30
0.0
 10
51.3667009117485
 20
104.3098951166106
 30
0.0
 10
51.3667009117485
 20
104.3098951166106
 30
0.0
  0
HATCH
  5
5C
330
57
100
AcDbEntity
  8
Layer 1
 62
     7
420
 16777215
100
AcDbHatch
 10
0.0
 20
0.0
 30
0.0
210
0.0
220
0.0
230
1.0
  2
SOLID
 70
     1
 71
     0
 91
        1
 92
        1
 93
        1
 72
     4
 94
        3
 73
     0
 74
     1
 95
       23
 96
       19
 40
0.0
 40
0.0
 40
0.0
 40
0.0
 40
1.0
 40
1.0
 40
1.0
 40
2.0
 40
2.0
 40
2.0
 40
3.0
 40
3.0
 40
3.0
 40
4.0
 40
4.0
 40
4.0
 40
5.0
 40
5.0
 40
5.0
 40
6.0
 40
6.0
 40
6.0
 40
6.0
 10
51.3667009117485
 20
104.3098951166106
 10
51.3667009117485
 20
104.3098951166106
 10
51.36811202282362
 20
104.3881059479487
 10
51.36811202282362
 20
104.3881059479487
 10
51.40529479965278
 20
106.3845458970152
 10
51.92274923089587
 20
108.305879459109
 10
52.83778420755138
 20
109.9877827495335
 10
53.7851689056038
 20
108.2442166396056
 10
54.29161667046102
 20
106.2481267338289
 10
54.29712000365395
 20
104.1817662309906
 10
53.58052252193588
 20
102.9439395959035
 10
53.09132558997189
 20
101.571739908689
 10
52.83916004084961
 20
100.1334296676056
 10
52.58491310289155
 20
101.5834521306124
 10
52.09017755995774
 20
102.9663083075916
 10
51.36465480068959
 20
104.2120698413286
 10
51.36532507845028
 20
104.2589187290223
 10
51.3667009117485
 20
104.3098951166106
 10
51.3667009117485
 20
104.3098951166106
 97
        0
 97
        0
 75
     2
 76
     1
 98
        0
  0
ENDBLK
  5
5A
330
57
100
AcDbEntity
  8
0
100
AcDbBlockEnd
  0
BLOCK
  5
5F
330
5D
100
AcDbEntity
  8
0
100
AcDbBlockBegin
  2
block 7
 70
     0
 10
0.0
 20
0.0
 30
0.0
  3
block 7
  1

  0
SPLINE
  5
61
330
5D
100
AcDbEntity
  8
Layer 1
370
     0
100
AcDbSpline
210
0.0
220
0.0
230
1.0
 70
    11
 71
     3
 72
    17
 73
    13
 74
     0
 42
0.0000000001
 43
0.0000000001
 12
1.0
 22
0.0
 32
0.0
 13
1.0
 23
0.0
 33
0.0
 40
0.0
 40
0.0
 40
0.0
 40
0.0
 40
1.0
 40
1.0
 40
1.0
 40
2.0
 40
2.0
 40
2.0
 40
3.0
 40
3.0
 40
3.0
 40
4.0
 40
4.0
 40
4.0
 40
4.0
 10
55.48361747338388
 20
108.4770825102968
 30
0.0
 10
56.4330835602721
 20
107.2113864314763
 30
0.0
 10
56.95812271354389
 20
105.6651967487007
 30
0.0
 10
56.95812271354389
 20
104.076320955903
 30
0.0
 10
56.95812271354389
 20
102.8636499742842
 30
0.0
 10
56.64323327713295
 20
101.6857929613349
 30
0.0
 10
56.07409690276394
 20
100.6240024328678
 30
0.0
 10
55.7991771875555
 20
101.8997174003216
 30
0.0
 10
55.34578719912245
 20
103.1051590362349
 30
0.0
 10
54.70500165991469
 20
104.2075895636651
 30
0.0
 10
54.71121054864518
 20
105.6910553591521
 30
0.0
 10
54.97925109736245
 20
107.1231919892819
 30
0.0
 10
55.48361747338388
 20
108.4770825102968
 30
0.0
  0
HATCH
  5
62
330
5D
100
AcDbEntity
  8
Layer 1
 62
     7
420
 16777215
100
AcDbHatch
 10
0.0
 20
0.0
 30
0.0
210
0.0
220
0.0
230
1.0
  2
SOLID
 70
     1
 71
     0
 91
        1
 92
        1
 93
        1
 72
     4
 94
        3
 73
     0
 74
     1
 95
       17
 96
       13
 40
0.0
 40
0.0
 40
0.0
 40
0.0
 40
1.0
 40
1.0
 40
1.0
 40
2.0
 40
2.0
 40
2.0
 40
3.0
 40
3.0
 40
3.0
 40
4.0
 40
4.0
 40
4.0
 40
4.0
 10
55.48361747338388
 20
108.4770825102968
 10
56.4330835602721
 20
107.2113864314763
 10
56.95812271354389
 20
105.6651967487007
 10
56.95812271354389
 20
104.076320955903
 10
56.95812271354389
 20
102.8636499742842
 10
56.64323327713295
 20
101.6857929613349
 10
56.07409690276394
 20
100.6240024328678
 10
55.7991771875555
 20
101.8997174003216
 10
55.34578719912245
 20
103.1051590362349
 10
54.70500165991469
 20
104.2075895636651
 10
54.71121054864518
 20
105.6910553591521
 10
54.97925109736245
 20
107.1231919892819
 10
55.48361747338388
 20
108.4770825102968
 97
        0
 97
        0
 75
     2
 76
     1
 98
        0
  0
ENDBLK
  5
60
330
5D
100
AcDbEntity
  8
0
100
AcDbBlockEnd
  0
BLOCK
  5
65
330
63
100
AcDbEntity
  8
0
100
AcDbBlockBegin
  2
block 8
 70
     0
 10
0.0
 20
0.0
 30
0.0
  3
block 8
  1

  0
SPLINE
  5
67
330
63
100
AcDbEntity
  8
Layer 1
370
     0
100
AcDbSpline
210
0.0
220
0.0
230
1.0
 70
    11
 71
     3
 72
    17
 73
    13
 74
     0
 42
0.0000000001
 43
0.0000000001
 12
1.0
 22
0.0
 32
0.0
 13
1.0
 23
0.0
 33
0.0
 40
0.0
 40
0.0
 40
0.0
 40
0.0
 40
1.0
 40
1.0
 40
1.0
 40
2.0
 40
2.0
 40
2.0
 40
3.0
 40
3.0
 40
3.0
 40
4.0
 40
4.0
 40
4.0
 40
4.0
 10
46.16255854451724
 20
110.0005180269863
 30
0.0
 10
47.112730186943
 20
108.2583277507131
 30
0.0
 10
47.62051850732158
 20
106.2629434001176
 30
0.0
 10
47.6281032293503
 20
104.1958773417417
 30
0.0
 10
46.90808380327508
 20
102.9542759845287
 30
0.0
 10
46.41609992693775
 20
101.5775960196507
 30
0.0
 10
46.16255854451724
 20
100.1348055009038
 30
0.0
 10
45.90968743985741
 20
101.5775960196507
 30
0.0
 10
45.41773884129695
 20
102.9542759845287
 30
0.0
 10
44.69768413744485
 20
104.1958773417417
 30
0.0
 10
44.70526885947357
 20
106.2625906223488
 30
0.0
 10
45.21309245762902
 20
108.2583277507131
 30
0.0
 10
46.16255854451724
 20
110.0005180269863
 30
0.0
  0
HATCH
  5
68
330
63
100
AcDbEntity
  8
Layer 1
 62
     7
420
 16777215
100
AcDbHatch
 10
0.0
 20
0.0
 30
0.0
210
0.0
220
0.0
230
1.0
  2
SOLID
 70
     1
 71
     0
 91
        1
 92
        1
 93
        1
 72
     4
 94
        3
 73
     0
 74
     1
 95
       17
 96
       13
 40
0.0
 40
0.0
 40
0.0
 40
0.0
 40
1.0
 40
1.0
 40
1.0
 40
2.0
 40
2.0
 40
2.0
 40
3.0
 40
3.0
 40
3.0
 40
4.0
 40
4.0
 40
4.0
 40
4.0
 10
46.16255854451724
 20
110.0005180269863
 10
47.112730186943
 20
108.2583277507131
 10
47.62051850732158
 20
106.2629434001176
 10
47.6281032293503
 20
104.1958773417417
 10
46.90808380327508
 20
102.9542759845287
 10
46.41609992693775
 20
101.5775960196507
 10
46.16255854451724
 20
100.1348055009038
 10
45.90968743985741
 20
101.5775960196507
 10
45.41773884129695
 20
102.9542759845287
 10
44.69768413744485
 20
104.1958773417417
 10
44.70526885947357
 20
106.2625906223488
 10
45.21309245762902
 20
108.2583277507131
 10
46.16255854451724
 20
110.0005180269863
 97
        0
 97
        0
 75
     2
 76
     1
 98
        0
  0
ENDBLK
  5
66
330
63
100
AcDbEntity
  8
0
100
AcDbBlockEnd
  0
BLOCK
  5
6B
330
69
100
AcDbEntity
  8
0
100
AcDbBlockBegin
  2
block 9
 70
     0
 10
0.0
 20
0.0
 30
0.0
  3
block 9
  1

  0
SPLINE
  5
6D
330
69
100
AcDbEntity
  8
Layer 1
370
     0
100
AcDbSpline
210
0.0
220
0.0
230
1.0
 70
    11
 71
     3
 72
    20
 73
    16
 74
     0
 42
0.0000000001
 43
0.0000000001
 12
1.0
 22
0.0
 32
0.0
 13
1.0
 23
0.0
 33
0.0
 40
0.0
 40
0.0
 40
0.0
 40
0.0
 40
1.0
 40
1.0
 40
1.0
 40
2.0
 40
2.0
 40
2.0
 40
3.0
 40
3.0
 40
3.0
 40
4.0
 40
4.0
 40
4.0
 40
5.0
 40
5.0
 40
5.0
 40
5.0
 10
42.27649975476997
 20
104.076320955903
 30
0.0
 10
42.27649975476997
 20
104.076320955903
 30
0.0
 10
42.27649975476997
 20
104.076320955903
 30
0.0
 10
42.27649975476997
 20
104.076320955903
 30
0.0
 10
42.27649975476997
 20
105.5842342507662
 30
0.0
 10
42.74502498931388
 20
107.0081158811066
 30
0.0
 10
43.59733610021165
 20
108.236629183098
 30
0.0
 10
44.04589193185124
 20
106.948849215952
 30
0.0
 10
44.28496942575186
 20
105.5931948060932
 30
0.0
 10
44.28980248118412
 20
104.1937959529059
 30
0.0
 10
43.70690777383277
 20
103.1888732007659
 30
0.0
 10
43.27902361808234
 20
102.0943801731331
 30
0.0
 10
42.99789501414342
 20
100.9381888636543
 30
0.0
 10
42.5334983593245
 20
101.9172857332068
 30
0.0
 10
42.27649975476997
 20
102.9873312614632
 30
0.0
 10
42.27649975476997
 20
104.076320955903
 30
0.0
  0
HATCH
  5
6E
330
69
100
AcDbEntity
  8
Layer 1
 62
     7
420
 16777215
100
AcDbHatch
 10
0.0
 20
0.0
 30
0.0
210
0.0
220
0.0
230
1.0
  2
SOLID
 70
     1
 71
     0
 91
        1
 92
        1
 93
        1
 72
     4
 94
        3
 73
     0
 74
     1
 95
       20
 96
       16
 40
0.0
 40
0.0
 40
0.0
 40
0.0
 40
1.0
 40
1.0
 40
1.0
 40
2.0
 40
2.0
 40
2.0
 40
3.0
 40
3.0
 40
3.0
 40
4.0
 40
4.0
 40
4.0
 40
5.0
 40
5.0
 40
5.0
 40
5.0
 10
42.27649975476997
 20
104.076320955903
 10
42.27649975476997
 20
104.076320955903
 10
42.27649975476997
 20
104.076320955903
 10
42.27649975476997
 20
104.076320955903
 10
42.27649975476997
 20
105.5842342507662
 10
42.74502498931388
 20
107.0081158811066
 10
43.59733610021165
 20
108.236629183098
 10
44.04589193185124
 20
106.948849215952
 10
44.28496942575186
 20
105.5931948060932
 10
44.28980248118412
 20
104.1937959529059
 10
43.70690777383277
 20
103.1888732007659
 10
43.27902361808234
 20
102.0943801731331
 10
42.99789501414342
 20
100.9381888636543
 10
42.5334983593245
 20
101.9172857332068
 10
42.27649975476997
 20
102.9873312614632
 10
42.27649975476997
 20
104.076320955903
 97
        0
 97
        0
 75
     2
 76
     1
 98
        0
  0
ENDBLK
  5
6C
330
69
100
AcDbEntity
  8
0
100
AcDbBlockEnd
  0
BLOCK
  5
71
330
6F
100
AcDbEntity
  8
0
100
AcDbBlockBegin
  2
block 10
 70
     0
 10
0.0
 20
0.0
 30
0.0
  3
block 10
  1

  0
SPLINE
  5
73
330
6F
100
AcDbEntity
  8
Layer 1
370
     0
100
AcDbSpline
210
0.0
220
0.0
230
1.0
 70
    11
 71
     3
 72
    17
 73
    13
 74
     0
 42
0.0000000001
 43
0.0000000001
 12
1.0
 22
0.0
 32
0.0
 13
1.0
 23
0.0
 33
0.0
 40
0.0
 40
0.0
 40
0.0
 40
0.0
 40
1.0
 40
1.0
 40
1.0
 40
2.0
 40
2.0
 40
2.0
 40
3.0
 40
3.0
 40
3.0
 40
4.0
 40
4.0
 40
4.0
 40
4.0
 10
44.49582469815027
 20
103.7207915205288
 30
0.0
 10
45.45149967376897
 20
101.9655104541987
 30
0.0
 10
45.96066382744578
 20
99.95358608612258
 30
0.0
 10
45.96066382744578
 20
97.87103055865755
 30
0.0
 10
45.96066382744578
 20
97.87103055865755
 30
0.0
 10
45.95928799414754
 20
97.78904500519361
 30
0.0
 10
45.95791216084931
 20
97.73217722886666
 30
0.0
 10
44.8513541335244
 20
98.37158693477618
 30
0.0
 10
43.92739387931882
 20
99.27420413397071
 30
0.0
 10
43.28039945138057
 20
100.3821732723707
 30
0.0
 10
43.52085277857943
 20
101.5703666412741
 30
0.0
 10
43.93356749027242
 20
102.6886343246391
 30
0.0
 10
44.49582469815027
 20
103.7207915205288
 30
0.0
  0
HATCH
  5
74
330
6F
100
AcDbEntity
  8
Layer 1
 62
     7
420
 16777215
100
AcDbHatch
 10
0.0
 20
0.0
 30
0.0
210
0.0
220
0.0
230
1.0
  2
SOLID
 70
     1
 71
     0
 91
        1
 92
        1
 93
        1
 72
     4
 94
        3
 73
     0
 74
     1
 95
       17
 96
       13
 40
0.0
 40
0.0
 40
0.0
 40
0.0
 40
1.0
 40
1.0
 40
1.0
 40
2.0
 40
2.0
 40
2.0
 40
3.0
 40
3.0
 40
3.0
 40
4.0
 40
4.0
 40
4.0
 40
4.0
 10
44.49582469815027
 20
103.7207915205288
 10
45.45149967376897
 20
101.9655104541987
 10
45.96066382744578
 20
99.95358608612258
 10
45.96066382744578
 20
97.87103055865755
 10
45.96066382744578
 20
97.87103055865755
 10
45.95928799414754
 20
97.78904500519361
 10
45.95791216084931
 20
97.73217722886666
 10
44.8513541335244
 20
98.37158693477618
 10
43.92739387931882
 20
99.27420413397071
 10
43.28039945138057
 20
100.3821732723707
 10
43.52085277857943
 20
101.5703666412741
 10
43.93356749027242
 20
102.6886343246391
 10
44.49582469815027
 20
103.7207915205288
 97
        0
 97
        0
 75
     2
 76
     1
 98
        0
  0
ENDBLK
  5
72
330
6F
100
AcDbEntity
  8
0
100
AcDbBlockEnd
  0
BLOCK
  5
77
330
75
100
AcDbEntity
  8
0
100
AcDbBlockBegin
  2
block 11
 70
     0
 10
0.0
 20
0.0
 30
0.0
  3
block 11
  1

  0
SPLINE
  5
79
330
75
100
AcDbEntity
  8
Layer 1
370
     0
100
AcDbSpline
210
0.0
220
0.0
230
1.0
 70
    11
 71
     3
 72
    20
 73
    16
 74
     0
 42
0.0000000001
 43
0.0000000001
 12
1.0
 22
0.0
 32
0.0
 13
1.0
 23
0.0
 33
0.0
 40
0.0
 40
0.0
 40
0.0
 40
0.0
 40
1.0
 40
1.0
 40
1.0
 40
2.0
 40
2.0
 40
2.0
 40
3.0
 40
3.0
 40
3.0
 40
4.0
 40
4.0
 40
4.0
 40
5.0
 40
5.0
 40
5.0
 40
5.0
 10
46.3644532615887
 20
97.87103055865755
 30
0.0
 10
46.3644532615887
 20
99.95460661661221
 30
0.0
 10
46.87499443272563
 20
101.9679471967301
 30
0.0
 10
47.83204405748067
 20
103.7238959648941
 30
0.0
 10
48.7890948663976
 20
101.9679471967301
 30
0.0
 10
49.29896457561197
 20
99.95495939438098
 30
0.0
 10
49.29896457561197
 20
97.87103055865755
 30
0.0
 10
49.29896457561197
 20
97.50135473475542
 30
0.0
 10
49.27349402070622
 20
97.12723391096671
 30
0.0
 10
49.24110902153243
 20
96.75551197600569
 30
0.0
 10
48.23512793608603
 20
96.80613558582529
 30
0.0
 10
47.27119796067794
 20
97.05385613506095
 30
0.0
 10
46.37270826137809
 20
97.49825275340308
 30
0.0
 10
46.36995659478163
 20
97.63780917571863
 30
0.0
 10
46.3644532615887
 20
97.87103055865755
 30
0.0
 10
46.3644532615887
 20
97.87103055865755
 30
0.0
  0
HATCH
  5
7A
330
75
100
AcDbEntity
  8
Layer 1
 62
     7
420
 16777215
100
AcDbHatch
 10
0.0
 20
0.0
 30
0.0
210
0.0
220
0.0
230
1.0
  2
SOLID
 70
     1
 71
     0
 91
        1
 92
        1
 93
        1
 72
     4
 94
        3
 73
     0
 74
     1
 95
       20
 96
       16
 40
0.0
 40
0.0
 40
0.0
 40
0.0
 40
1.0
 40
1.0
 40
1.0
 40
2.0
 40
2.0
 40
2.0
 40
3.0
 40
3.0
 40
3.0
 40
4.0
 40
4.0
 40
4.0
 40
5.0
 40
5.0
 40
5.0
 40
5.0
 10
46.3644532615887
 20
97.87103055865755
 10
46.3644532615887
 20
99.95460661661221
 10
46.87499443272563
 20
101.9679471967301
 10
47.83204405748067
 20
103.7238959648941
 10
48.7890948663976
 20
101.9679471967301
 10
49.29896457561197
 20
99.95495939438098
 10
49.29896457561197
 20
97.87103055865755
 10
49.29896457561197
 20
97.50135473475542
 10
49.27349402070622
 20
97.12723391096671
 10
49.24110902153243
 20
96.75551197600569
 10
48.23512793608603
 20
96.80613558582529
 10
47.27119796067794
 20
97.05385613506095
 10
46.37270826137809
 20
97.49825275340308
 10
46.36995659478163
 20
97.63780917571863
 10
46.3644532615887
 20
97.87103055865755
 10
46.3644532615887
 20
97.87103055865755
 97
        0
 97
        0
 75
     2
 76
     1
 98
        0
  0
ENDBLK
  5
78
330
75
100
AcDbEntity
  8
0
100
AcDbBlockEnd
  0
BLOCK
  5
7D
330
7B
100
AcDbEntity
  8
0
100
AcDbBlockBegin
  2
block 12
 70
     0
 10
0.0
 20
0.0
 30
0.0
  3
block 12
  1

  0
SPLINE
  5
7F
330
7B
100
AcDbEntity
  8
Layer 1
370
     0
100
AcDbSpline
210
0.0
220
0.0
230
1.0
 70
    11
 71
     3
 72
    26
 73
    22
 74
     0
 42
0.0000000001
 43
0.0000000001
 12
1.0
 22
0.0
 32
0.0
 13
1.0
 23
0.0
 33
0.0
 40
0.0
 40
0.0
 40
0.0
 40
0.0
 40
1.0
 40
1.0
 40
1.0
 40
2.0
 40
2.0
 40
2.0
 40
3.0
 40
3.0
 40
3.0
 40
4.0
 40
4.0
 40
4.0
 40
5.0
 40
5.0
 40
5.0
 40
6.0
 40
6.0
 40
6.0
 40
7.0
 40
7.0
 40
7.0
 40
7.0
 10
49.702718731978
 20
97.87103055865755
 30
0.0
 10
49.702718731978
 20
97.87103055865755
 30
0.0
 10
49.702718731978
 20
97.87103055865755
 30
0.0
 10
49.702718731978
 20
97.87103055865755
 30
0.0
 10
49.702718731978
 20
99.95429164167811
 30
0.0
 10
50.21329399672992
 20
101.9675944189527
 30
0.0
 10
51.17034480564686
 20
103.7238959648941
 30
0.0
 10
52.12464394796732
 20
101.9724248984667
 30
0.0
 10
52.63451365718169
 20
99.96391994970793
 30
0.0
 10
52.63726665350755
 20
97.88482416941676
 30
0.0
 10
52.63726665350755
 20
97.88482416941676
 30
0.0
 10
52.63726665350755
 20
97.88447139164798
 30
0.0
 10
52.63726665350755
 20
97.8841186138792
 30
0.0
 10
52.63726665350755
 20
97.86930194759054
 30
0.0
 10
52.62901032398875
 20
97.56372584427533
 30
0.0
 10
52.6241772685565
 20
97.3849380710588
 30
0.0
 10
51.7188084027655
 20
96.97737391478996
 30
0.0
 10
50.75763009395386
 20
96.76239114249685
 30
0.0
 10
49.76131511937198
 20
96.74309419854471
 30
0.0
 10
49.72822456466063
 20
97.119649188938
 30
0.0
 10
49.702718731978
 20
97.49825275340308
 30
0.0
 10
49.702718731978
 20
97.87103055865755
 30
0.0
  0
HATCH
  5
80
330
7B
100
AcDbEntity
  8
Layer 1
 62
     7
420
 16777215
100
AcDbHatch
 10
0.0
 20
0.0
 30
0.0
210
0.0
220
0.0
230
1.0
  2
SOLID
 70
     1
 71
     0
 91
        1
 92
        1
 93
        1
 72
     4
 94
        3
 73
     0
 74
     1
 95
       26
 96
       22
 40
0.0
 40
0.0
 40
0.0
 40
0.0
 40
1.0
 40
1.0
 40
1.0
 40
2.0
 40
2.0
 40
2.0
 40
3.0
 40
3.0
 40
3.0
 40
4.0
 40
4.0
 40
4.0
 40
5.0
 40
5.0
 40
5.0
 40
6.0
 40
6.0
 40
6.0
 40
7.0
 40
7.0
 40
7.0
 40
7.0
 10
49.702718731978
 20
97.87103055865755
 10
49.702718731978
 20
97.87103055865755
 10
49.702718731978
 20
97.87103055865755
 10
49.702718731978
 20
97.87103055865755
 10
49.702718731978
 20
99.95429164167811
 10
50.21329399672992
 20
101.9675944189527
 10
51.17034480564686
 20
103.7238959648941
 10
52.12464394796732
 20
101.9724248984667
 10
52.63451365718169
 20
99.96391994970793
 10
52.63726665350755
 20
97.88482416941676
 10
52.63726665350755
 20
97.88482416941676
 10
52.63726665350755
 20
97.88447139164798
 10
52.63726665350755
 20
97.8841186138792
 10
52.63726665350755
 20
97.86930194759054
 10
52.62901032398875
 20
97.56372584427533
 10
52.6241772685565
 20
97.3849380710588
 10
51.7188084027655
 20
96.97737391478996
 10
50.75763009395386
 20
96.76239114249685
 10
49.76131511937198
 20
96.74309419854471
 10
49.72822456466063
 20
97.119649188938
 10
49.702718731978
 20
97.49825275340308
 10
49.702718731978
 20
97.87103055865755
 97
        0
 97
        0
 75
     2
 76
     1
 98
        0
  0
ENDBLK
  5
7E
330
7B
100
AcDbEntity
  8
0
100
AcDbBlockEnd
  0
BLOCK
  5
83
330
81
100
AcDbEntity
  8
0
100
AcDbBlockBegin
  2
block 13
 70
     0
 10
0.0
 20
0.0
 30
0.0
  3
block 13
  1

  0
SPLINE
  5
85
330
81
100
AcDbEntity
  8
Layer 1
370
     0
100
AcDbSpline
210
0.0
220
0.0
230
1.0
 70
    11
 71
     3
 72
    17
 73
    13
 74
     0
 42
0.0000000001
 43
0.0000000001
 12
1.0
 22
0.0
 32
0.0
 13
1.0
 23
0.0
 33
0.0
 40
0.0
 40
0.0
 40
0.0
 40
0.0
 40
1.0
 40
1.0
 40
1.0
 40
2.0
 40
2.0
 40
2.0
 40
3.0
 40
3.0
 40
3.0
 40
4.0
 40
4.0
 40
4.0
 40
4.0
 10
53.04101948014419
 20
97.87103055865755
 30
0.0
 10
53.04380642451753
 20
99.96152106088024
 30
0.0
 10
53.55297057819434
 20
101.9689676763327
 30
0.0
 10
54.50589388721657
 20
103.7190629094618
 30
0.0
 10
55.11496470501122
 20
102.6011454379823
 30
0.0
 10
55.54630608289567
 20
101.3860729689813
 30
0.0
 10
55.77642302146934
 20
100.0934599464031
 30
0.0
 10
55.09224720844897
 20
99.03752552889779
 30
0.0
 10
54.1517416531288
 20
98.18934441989722
 30
0.0
 10
53.04793392441223
 20
97.60299000994027
 30
0.0
 10
53.04447670227821
 20
97.73563445100068
 30
0.0
 10
53.04101948014419
 20
97.87103055865755
 30
0.0
 10
53.04101948014419
 20
97.87103055865755
 30
0.0
  0
HATCH
  5
86
330
81
100
AcDbEntity
  8
Layer 1
 62
     7
420
 16777215
100
AcDbHatch
 10
0.0
 20
0.0
 30
0.0
210
0.0
220
0.0
230
1.0
  2
SOLID
 70
     1
 71
     0
 91
        1
 92
        1
 93
        1
 72
     4
 94
        3
 73
     0
 74
     1
 95
       17
 96
       13
 40
0.0
 40
0.0
 40
0.0
 40
0.0
 40
1.0
 40
1.0
 40
1.0
 40
2.0
 40
2.0
 40
2.0
 40
3.0
 40
3.0
 40
3.0
 40
4.0
 40
4.0
 40
4.0
 40
4.0
 10
53.04101948014419
 20
97.87103055865755
 10
53.04380642451753
 20
99.96152106088024
 10
53.55297057819434
 20
101.9689676763327
 10
54.50589388721657
 20
103.7190629094618
 10
55.11496470501122
 20
102.6011454379823
 10
55.54630608289567
 20
101.3860729689813
 10
55.77642302146934
 20
100.0934599464031
 10
55.09224720844897
 20
99.03752552889779
 10
54.1517416531288
 20
98.18934441989722
 10
53.04793392441223
 20
97.60299000994027
 10
53.04447670227821
 20
97.73563445100068
 10
53.04101948014419
 20
97.87103055865755
 10
53.04101948014419
 20
97.87103055865755
 97
        0
 97
        0
 75
     2
 76
     1
 98
        0
  0
ENDBLK
  5
84
330
81
100
AcDbEntity
  8
0
100
AcDbBlockEnd
  0
BLOCK
  5
89
330
87
100
AcDbEntity
  8
0
100
AcDbBlockBegin
  2
block 14
 70
     0
 10
0.0
 20
0.0
 30
0.0
  3
block 14
  1

  0
SPLINE
  5
8B
330
87
100
AcDbEntity
  8
Layer 1
370
     0
100
AcDbSpline
210
0.0
220
0.0
230
1.0
 70
    11
 71
     3
 72
    41
 73
    37
 74
     0
 42
0.0000000001
 43
0.0000000001
 12
1.0
 22
0.0
 32
0.0
 13
1.0
 23
0.0
 33
0.0
 40
0.0
 40
0.0
 40
0.0
 40
0.0
 40
1.0
 40
1.0
 40
1.0
 40
2.0
 40
2.0
 40
2.0
 40
3.0
 40
3.0
 40
3.0
 40
4.0
 40
4.0
 40
4.0
 40
5.0
 40
5.0
 40
5.0
 40
6.0
 40
6.0
 40
6.0
 40
7.0
 40
7.0
 40
7.0
 40
8.0
 40
8.0
 40
8.0
 40
9.0
 40
9.0
 40
9.0
 40
10.0
 40
10.0
 40
10.0
 40
11.0
 40
11.0
 40
11.0
 40
12.0
 40
12.0
 40
12.0
 40
12.0
 10
35.53237659349355
 20
92.32822153339971
 30
0.0
 10
35.53237659349355
 20
92.48841791820166
 30
0.0
 10
35.61228075812169
 20
92.56867486059858
 30
0.0
 10
35.77215964293173
 20
92.56867486059858
 30
0.0
 10
35.77215964293173
 20
92.56867486059858
 30
0.0
 10
36.97068683457698
 20
92.56867486059858
 30
0.0
 10
36.97068683457698
 20
92.56867486059858
 30
0.0
 10
37.23939766105493
 20
92.56867486059858
 30
0.0
 10
37.46644543304024
 20
92.47564736297191
 30
0.0
 10
37.65144209498724
 20
92.28998042326423
 30
0.0
 10
37.83714431247181
 20
92.10392775475192
 30
0.0
 10
37.92946625456092
 20
91.87656015603368
 30
0.0
 10
37.92946625456092
 20
91.60714377401817
 30
0.0
 10
37.92946625456092
 20
91.60714377401817
 30
0.0
 10
37.92946625456092
 20
90.16537631080072
 30
0.0
 10
37.92946625456092
 20
90.16537631080072
 30
0.0
 10
37.92946625456092
 20
89.89874687315856
 30
0.0
 10
37.83714431247181
 20
89.67169910117326
 30
0.0
 10
37.6524651505167
 20
89.48462105039046
 30
0.0
 10
37.4674694350777
 20
89.29758053323131
 30
0.0
 10
37.24080877213004
 20
89.20455077975787
 30
0.0
 10
36.97276822341276
 20
89.20455077975787
 30
0.0
 10
36.97276822341276
 20
89.20455077975787
 30
0.0
 10
36.01571741449583
 20
89.20455077975787
 30
0.0
 10
36.01571741449583
 20
89.20455077975787
 30
0.0
 10
36.01571741449583
 20
89.20455077975787
 30
0.0
 10
36.01571741449583
 20
88.0011552549035
 30
0.0
 10
36.01571741449583
 20
88.0011552549035
 30
0.0
 10
36.01571741449583
 20
87.84096108915072
 30
0.0
 10
35.93510769433014
 20
87.76070192770463
 30
0.0
 10
35.77420575399064
 20
87.76070192770463
 30
0.0
 10
35.61298631365925
 20
87.76070192770463
 30
0.0
 10
35.53237659349355
 20
87.84096108915072
 30
0.0
 10
35.53237659349355
 20
88.00083775491159
 30
0.0
 10
35.53237659349355
 20
88.00083775491159
 30
0.0
 10
35.53237659349355
 20
92.32822153339971
 30
0.0
 10
35.53237659349355
 20
92.32822153339971
 30
0.0
  0
SPLINE
  5
8C
330
87
100
AcDbEntity
  8
Layer 1
370
     0
100
AcDbSpline
210
0.0
220
0.0
230
1.0
 70
    11
 71
     3
 72
    29
 73
    25
 74
     0
 42
0.0000000001
 43
0.0000000001
 12
1.0
 22
0.0
 32
0.0
 13
1.0
 23
0.0
 33
0.0
 40
0.0
 40
0.0
 40
0.0
 40
0.0
 40
1.0
 40
1.0
 40
1.0
 40
2.0
 40
2.0
 40
2.0
 40
3.0
 40
3.0
 40
3.0
 40
4.0
 40
4.0
 40
4.0
 40
5.0
 40
5.0
 40
5.0
 40
6.0
 40
6.0
 40
6.0
 40
7.0
 40
7.0
 40
7.0
 40
8.0
 40
8.0
 40
8.0
 40
8.0
 10
36.01571741449583
 20
92.08533403959629
 30
0.0
 10
36.01571741449583
 20
92.08533403959629
 30
0.0
 10
36.01571741449583
 20
89.68789160076015
 30
0.0
 10
36.01571741449583
 20
89.68789160076015
 30
0.0
 10
36.01571741449583
 20
89.68789160076015
 30
0.0
 10
36.96931100127875
 20
89.68789160076015
 30
0.0
 10
36.96931100127875
 20
89.68789160076015
 30
0.0
 10
37.10160266457037
 20
89.68789160076015
 30
0.0
 10
37.21427988391796
 20
89.73438771068504
 30
0.0
 10
37.30695554622896
 20
89.82776798608049
 30
0.0
 10
37.39959404585687
 20
89.92079548370717
 30
0.0
 10
37.44612543355864
 20
90.03410770303856
 30
0.0
 10
37.44612543355864
 20
90.16710492186773
 30
0.0
 10
37.44612543355864
 20
90.16710492186773
 30
0.0
 10
37.44612543355864
 20
91.60541516295116
 30
0.0
 10
37.44612543355864
 20
91.60541516295116
 30
0.0
 10
37.44612543355864
 20
91.7411640483768
 30
0.0
 10
37.40029960139442
 20
91.85486664370302
 30
0.0
 10
37.30900071483476
 20
91.94718626534296
 30
0.0
 10
37.21734999069552
 20
92.0391554296633
 30
0.0
 10
37.10435433116684
 20
92.08533403959629
 30
0.0
 10
36.96931100127875
 20
92.08533403959629
 30
0.0
 10
36.96931100127875
 20
92.08533403959629
 30
0.0
 10
36.01571741449583
 20
92.08533403959629
 30
0.0
 10
36.01571741449583
 20
92.08533403959629
 30
0.0
  0
HATCH
  5
8D
330
87
100
AcDbEntity
  8
Layer 1
 62
     7
420
 16777215
100
AcDbHatch
 10
0.0
 20
0.0
 30
0.0
210
0.0
220
0.0
230
1.0
  2
SOLID
 70
     1
 71
     0
 91
        2
 92
        1
 93
        1
 72
     4
 94
        3
 73
     0
 74
     1
 95
       41
 96
       37
 40
0.0
 40
0.0
 40
0.0
 40
0.0
 40
1.0
 40
1.0
 40
1.0
 40
2.0
 40
2.0
 40
2.0
 40
3.0
 40
3.0
 40
3.0
 40
4.0
 40
4.0
 40
4.0
 40
5.0
 40
5.0
 40
5.0
 40
6.0
 40
6.0
 40
6.0
 40
7.0
 40
7.0
 40
7.0
 40
8.0
 40
8.0
 40
8.0
 40
9.0
 40
9.0
 40
9.0
 40
10.0
 40
10.0
 40
10.0
 40
11.0
 40
11.0
 40
11.0
 40
12.0
 40
12.0
 40
12.0
 40
12.0
 10
35.53237659349355
 20
92.32822153339971
 10
35.53237659349355
 20
92.48841791820166
 10
35.61228075812169
 20
92.56867486059858
 10
35.77215964293173
 20
92.56867486059858
 10
35.77215964293173
 20
92.56867486059858
 10
36.97068683457698
 20
92.56867486059858
 10
36.97068683457698
 20
92.56867486059858
 10
37.23939766105493
 20
92.56867486059858
 10
37.46644543304024
 20
92.47564736297191
 10
37.65144209498724
 20
92.28998042326423
 10
37.83714431247181
 20
92.10392775475192
 10
37.92946625456092
 20
91.87656015603368
 10
37.92946625456092
 20
91.60714377401817
 10
37.92946625456092
 20
91.60714377401817
 10
37.92946625456092
 20
90.16537631080072
 10
37.92946625456092
 20
90.16537631080072
 10
37.92946625456092
 20
89.89874687315856
 10
37.83714431247181
 20
89.67169910117326
 10
37.6524651505167
 20
89.48462105039046
 10
37.4674694350777
 20
89.29758053323131
 10
37.24080877213004
 20
89.20455077975787
 10
36.97276822341276
 20
89.20455077975787
 10
36.97276822341276
 20
89.20455077975787
 10
36.01571741449583
 20
89.20455077975787
 10
36.01571741449583
 20
89.20455077975787
 10
36.01571741449583
 20
89.20455077975787
 10
36.01571741449583
 20
88.0011552549035
 10
36.01571741449583
 20
88.0011552549035
 10
36.01571741449583
 20
87.84096108915072
 10
35.93510769433014
 20
87.76070192770463
 10
35.77420575399064
 20
87.76070192770463
 10
35.61298631365925
 20
87.76070192770463
 10
35.53237659349355
 20
87.84096108915072
 10
35.53237659349355
 20
88.00083775491159
 10
35.53237659349355
 20
88.00083775491159
 10
35.53237659349355
 20
92.32822153339971
 10
35.53237659349355
 20
92.32822153339971
 97
        0
 97
        0
 92
        1
 93
        1
 72
     4
 94
        3
 73
     0
 74
     1
 95
       29
 96
       25
 40
0.0
 40
0.0
 40
0.0
 40
0.0
 40
1.0
 40
1.0
 40
1.0
 40
2.0
 40
2.0
 40
2.0
 40
3.0
 40
3.0
 40
3.0
 40
4.0
 40
4.0
 40
4.0
 40
5.0
 40
5.0
 40
5.0
 40
6.0
 40
6.0
 40
6.0
 40
7.0
 40
7.0
 40
7.0
 40
8.0
 40
8.0
 40
8.0
 40
8.0
 10
36.01571741449583
 20
92.08533403959629
 10
36.01571741449583
 20
92.08533403959629
 10
36.01571741449583
 20
89.68789160076015
 10
36.01571741449583
 20
89.68789160076015
 10
36.01571741449583
 20
89.68789160076015
 10
36.96931100127875
 20
89.68789160076015
 10
36.96931100127875
 20
89.68789160076015
 10
37.10160266457037
 20
89.68789160076015
 10
37.21427988391796
 20
89.73438771068504
 10
37.30695554622896
 20
89.82776798608049
 10
37.39959404585687
 20
89.92079548370717
 10
37.44612543355864
 20
90.03410770303856
 10
37.44612543355864
 20
90.16710492186773
 10
37.44612543355864
 20
90.16710492186773
 10
37.44612543355864
 20
91.60541516295116
 10
37.44612543355864
 20
91.60541516295116
 10
37.44612543355864
 20
91.7411640483768
 10
37.40029960139442
 20
91.85486664370302
 10
37.30900071483476
 20
91.94718626534296
 10
37.21734999069552
 20
92.0391554296633
 10
37.10435433116684
 20
92.08533403959629
 10
36.96931100127875
 20
92.08533403959629
 10
36.96931100127875
 20
92.08533403959629
 10
36.01571741449583
 20
92.08533403959629
 10
36.01571741449583
 20
92.08533403959629
 97
        0
 97
        0
 75
     2
 76
     1
 98
        0
  0
SPLINE
  5
8E
330
87
100
AcDbEntity
  8
Layer 1
370
     0
100
AcDbSpline
210
0.0
220
0.0
230
1.0
 70
    11
 71
     3
 72
    23
 73
    19
 74
     0
 42
0.0000000001
 43
0.0000000001
 12
1.0
 22
0.0
 32
0.0
 13
1.0
 23
0.0
 33
0.0
 40
0.0
 40
0.0
 40
0.0
 40
0.0
 40
1.0
 40
1.0
 40
1.0
 40
2.0
 40
2.0
 40
2.0
 40
3.0
 40
3.0
 40
3.0
 40
4.0
 40
4.0
 40
4.0
 40
5.0
 40
5.0
 40
5.0
 40
6.0
 40
6.0
 40
6.0
 40
6.0
 10
41.77213337874853
 20
93.52505539175483
 30
0.0
 10
41.77213337874853
 20
93.52505539175483
 30
0.0
 10
41.77213337874853
 20
93.76515830989179
 30
0.0
 10
41.77213337874853
 20
93.76515830989179
 30
0.0
 10
41.77213337874853
 20
93.92570510375563
 30
0.0
 10
41.85274309891423
 20
94.00564454616065
 30
0.0
 10
42.01396253924563
 20
94.00564454616065
 30
0.0
 10
42.17486447958512
 20
94.00564454616065
 30
0.0
 10
42.25547419975082
 20
93.92570510375563
 30
0.0
 10
42.25547419975082
 20
93.76515830989179
 30
0.0
 10
42.25547419975082
 20
93.76515830989179
 30
0.0
 10
42.25547419975082
 20
93.52505539175483
 30
0.0
 10
42.25547419975082
 20
93.52505539175483
 30
0.0
 10
42.25547419975082
 20
93.3648590069529
 30
0.0
 10
42.17486447958512
 20
93.2845667867791
 30
0.0
 10
42.01396253924563
 20
93.2845667867791
 30
0.0
 10
41.85274309891423
 20
93.2845667867791
 30
0.0
 10
41.77213337874853
 20
93.3648590069529
 30
0.0
 10
41.77213337874853
 20
93.52505539175483
 30
0.0
  0
SPLINE
  5
8F
330
87
100
AcDbEntity
  8
Layer 1
370
     0
100
AcDbSpline
210
0.0
220
0.0
230
1.0
 70
    11
 71
     3
 72
    23
 73
    19
 74
     0
 42
0.0000000001
 43
0.0000000001
 12
1.0
 22
0.0
 32
0.0
 13
1.0
 23
0.0
 33
0.0
 40
0.0
 40
0.0
 40
0.0
 40
0.0
 40
1.0
 40
1.0
 40
1.0
 40
2.0
 40
2.0
 40
2.0
 40
3.0
 40
3.0
 40
3.0
 40
4.0
 40
4.0
 40
4.0
 40
5.0
 40
5.0
 40
5.0
 40
6.0
 40
6.0
 40
6.0
 40
6.0
 10
41.77213337874853
 20
92.32684570010149
 30
0.0
 10
41.77213337874853
 20
92.48735958489533
 30
0.0
 10
41.85274309891423
 20
92.56694624953157
 30
0.0
 10
42.01396253924563
 20
92.56694624953157
 30
0.0
 10
42.17486447958512
 20
92.56694624953157
 30
0.0
 10
42.25547419975082
 20
92.48735958489533
 30
0.0
 10
42.25547419975082
 20
92.32684570010149
 30
0.0
 10
42.25547419975082
 20
92.32684570010149
 30
0.0
 10
42.25547419975082
 20
89.44465132918795
 30
0.0
 10
42.25547419975082
 20
89.44465132918795
 30
0.0
 10
42.25547419975082
 20
89.2841374443941
 30
0.0
 10
42.17486447958512
 20
89.20455077975787
 30
0.0
 10
42.01396253924563
 20
89.20455077975787
 30
0.0
 10
41.85274309891423
 20
89.20455077975787
 30
0.0
 10
41.77213337874853
 20
89.2841374443941
 30
0.0
 10
41.77213337874853
 20
89.44465132918795
 30
0.0
 10
41.77213337874853
 20
89.44465132918795
 30
0.0
 10
41.77213337874853
 20
92.32684570010149
 30
0.0
 10
41.77213337874853
 20
92.32684570010149
 30
0.0
  0
HATCH
  5
90
330
87
100
AcDbEntity
  8
Layer 1
 62
     7
420
 16777215
100
AcDbHatch
 10
0.0
 20
0.0
 30
0.0
210
0.0
220
0.0
230
1.0
  2
SOLID
 70
     1
 71
     0
 91
        2
 92
        1
 93
        1
 72
     4
 94
        3
 73
     0
 74
     1
 95
       23
 96
       19
 40
0.0
 40
0.0
 40
0.0
 40
0.0
 40
1.0
 40
1.0
 40
1.0
 40
2.0
 40
2.0
 40
2.0
 40
3.0
 40
3.0
 40
3.0
 40
4.0
 40
4.0
 40
4.0
 40
5.0
 40
5.0
 40
5.0
 40
6.0
 40
6.0
 40
6.0
 40
6.0
 10
41.77213337874853
 20
93.52505539175483
 10
41.77213337874853
 20
93.52505539175483
 10
41.77213337874853
 20
93.76515830989179
 10
41.77213337874853
 20
93.76515830989179
 10
41.77213337874853
 20
93.92570510375563
 10
41.85274309891423
 20
94.00564454616065
 10
42.01396253924563
 20
94.00564454616065
 10
42.17486447958512
 20
94.00564454616065
 10
42.25547419975082
 20
93.92570510375563
 10
42.25547419975082
 20
93.76515830989179
 10
42.25547419975082
 20
93.76515830989179
 10
42.25547419975082
 20
93.52505539175483
 10
42.25547419975082
 20
93.52505539175483
 10
42.25547419975082
 20
93.3648590069529
 10
42.17486447958512
 20
93.2845667867791
 10
42.01396253924563
 20
93.2845667867791
 10
41.85274309891423
 20
93.2845667867791
 10
41.77213337874853
 20
93.3648590069529
 10
41.77213337874853
 20
93.52505539175483
 97
        0
 97
        0
 92
        1
 93
        1
 72
     4
 94
        3
 73
     0
 74
     1
 95
       23
 96
       19
 40
0.0
 40
0.0
 40
0.0
 40
0.0
 40
1.0
 40
1.0
 40
1.0
 40
2.0
 40
2.0
 40
2.0
 40
3.0
 40
3.0
 40
3.0
 40
4.0
 40
4.0
 40
4.0
 40
5.0
 40
5.0
 40
5.0
 40
6.0
 40
6.0
 40
6.0
 40
6.0
 10
41.77213337874853
 20
92.32684570010149
 10
41.77213337874853
 20
92.48735958489533
 10
41.85274309891423
 20
92.56694624953157
 10
42.01396253924563
 20
92.56694624953157
 10
42.17486447958512
 20
92.56694624953157
 10
42.25547419975082
 20
92.48735958489533
 10
42.25547419975082
 20
92.32684570010149
 10
42.25547419975082
 20
92.32684570010149
 10
42.25547419975082
 20
89.44465132918795
 10
42.25547419975082
 20
89.44465132918795
 10
42.25547419975082
 20
89.2841374443941
 10
42.17486447958512
 20
89.20455077975787
 10
42.01396253924563
 20
89.20455077975787
 10
41.85274309891423
 20
89.20455077975787
 10
41.77213337874853
 20
89.2841374443941
 10
41.77213337874853
 20
89.44465132918795
 10
41.77213337874853
 20
89.44465132918795
 10
41.77213337874853
 20
92.32684570010149
 10
41.77213337874853
 20
92.32684570010149
 97
        0
 97
        0
 75
     2
 76
     1
 98
        0
  0
SPLINE
  5
91
330
87
100
AcDbEntity
  8
Layer 1
370
     0
100
AcDbSpline
210
0.0
220
0.0
230
1.0
 70
    11
 71
     3
 72
    53
 73
    49
 74
     0
 42
0.0000000001
 43
0.0000000001
 12
1.0
 22
0.0
 32
0.0
 13
1.0
 23
0.0
 33
0.0
 40
0.0
 40
0.0
 40
0.0
 40
0.0
 40
1.0
 40
1.0
 40
1.0
 40
2.0
 40
2.0
 40
2.0
 40
3.0
 40
3.0
 40
3.0
 40
4.0
 40
4.0
 40
4.0
 40
5.0
 40
5.0
 40
5.0
 40
6.0
 40
6.0
 40
6.0
 40
7.0
 40
7.0
 40
7.0
 40
8.0
 40
8.0
 40
8.0
 40
9.0
 40
9.0
 40
9.0
 40
10.0
 40
10.0
 40
10.0
 40
11.0
 40
11.0
 40
11.0
 40
12.0
 40
12.0
 40
12.0
 40
13.0
 40
13.0
 40
13.0
 40
14.0
 40
14.0
 40
14.0
 40
15.0
 40
15.0
 40
15.0
 40
16.0
 40
16.0
 40
16.0
 40
16.0
 10
46.82331130543781
 20
92.08533403959629
 30
0.0
 10
46.82331130543781
 20
92.08533403959629
 30
0.0
 10
46.58356353377651
 20
92.08533403959629
 30
0.0
 10
46.58356353377651
 20
92.08533403959629
 30
0.0
 10
46.42301437120579
 20
92.08533403959629
 30
0.0
 10
46.34307492880077
 20
92.16594375976199
 30
0.0
 10
46.34307492880077
 20
92.32684570010149
 30
0.0
 10
46.34307492880077
 20
92.48806514043288
 30
0.0
 10
46.42301437120579
 20
92.56867486059858
 30
0.0
 10
46.58356353377651
 20
92.56867486059858
 30
0.0
 10
46.58356353377651
 20
92.56867486059858
 30
0.0
 10
46.82331130543781
 20
92.56867486059858
 30
0.0
 10
46.82331130543781
 20
92.56867486059858
 30
0.0
 10
46.82331130543781
 20
92.56867486059858
 30
0.0
 10
46.82331130543781
 20
93.76617899671437
 30
0.0
 10
46.82331130543781
 20
93.76617899671437
 30
0.0
 10
46.82331130543781
 20
93.92570510375563
 30
0.0
 10
46.90395630338038
 20
94.00564454616065
 30
0.0
 10
47.06517574371178
 20
94.00564454616065
 30
0.0
 10
47.22639518404317
 20
94.00564454616065
 30
0.0
 10
47.30700490420887
 20
93.92570510375563
 30
0.0
 10
47.30700490420887
 20
93.76617899671437
 30
0.0
 10
47.30700490420887
 20
93.76617899671437
 30
0.0
 10
47.30700490420887
 20
92.56867486059858
 30
0.0
 10
47.30700490420887
 20
92.56867486059858
 30
0.0
 10
47.30700490420887
 20
92.56867486059858
 30
0.0
 10
48.02772988582164
 20
92.56867486059858
 30
0.0
 10
48.02772988582164
 20
92.56867486059858
 30
0.0
 10
48.1875734928548
 20
92.56867486059858
 30
0.0
 10
48.2678657130286
 20
92.48806514043288
 30
0.0
 10
48.2678657130286
 20
92.32684570010149
 30
0.0
 10
48.2678657130286
 20
92.16594375976199
 30
0.0
 10
48.1875734928548
 20
92.08533403959629
 30
0.0
 10
48.02772988582164
 20
92.08533403959629
 30
0.0
 10
48.02772988582164
 20
92.08533403959629
 30
0.0
 10
47.30700490420887
 20
92.08533403959629
 30
0.0
 10
47.30700490420887
 20
92.08533403959629
 30
0.0
 10
47.30700490420887
 20
92.08533403959629
 30
0.0
 10
47.30700490420887
 20
89.44465132918795
 30
0.0
 10
47.30700490420887
 20
89.44465132918795
 30
0.0
 10
47.30700490420887
 20
89.2841374443941
 30
0.0
 10
47.22639518404317
 20
89.20455077975787
 30
0.0
 10
47.06517574371178
 20
89.20455077975787
 30
0.0
 10
46.90395630338038
 20
89.20455077975787
 30
0.0
 10
46.82331130543781
 20
89.2841374443941
 30
0.0
 10
46.82331130543781
 20
89.44465132918795
 30
0.0
 10
46.82331130543781
 20
89.44465132918795
 30
0.0
 10
46.82331130543781
 20
92.08533403959629
 30
0.0
 10
46.82331130543781
 20
92.08533403959629
 30
0.0
  0
HATCH
  5
92
330
87
100
AcDbEntity
  8
Layer 1
 62
     7
420
 16777215
100
AcDbHatch
 10
0.0
 20
0.0
 30
0.0
210
0.0
220
0.0
230
1.0
  2
SOLID
 70
     1
 71
     0
 91
        1
 92
        1
 93
        1
 72
     4
 94
        3
 73
     0
 74
     1
 95
       53
 96
       49
 40
0.0
 40
0.0
 40
0.0
 40
0.0
 40
1.0
 40
1.0
 40
1.0
 40
2.0
 40
2.0
 40
2.0
 40
3.0
 40
3.0
 40
3.0
 40
4.0
 40
4.0
 40
4.0
 40
5.0
 40
5.0
 40
5.0
 40
6.0
 40
6.0
 40
6.0
 40
7.0
 40
7.0
 40
7.0
 40
8.0
 40
8.0
 40
8.0
 40
9.0
 40
9.0
 40
9.0
 40
10.0
 40
10.0
 40
10.0
 40
11.0
 40
11.0
 40
11.0
 40
12.0
 40
12.0
 40
12.0
 40
13.0
 40
13.0
 40
13.0
 40
14.0
 40
14.0
 40
14.0
 40
15.0
 40
15.0
 40
15.0
 40
16.0
 40
16.0
 40
16.0
 40
16.0
 10
46.82331130543781
 20
92.08533403959629
 10
46.82331130543781
 20
92.08533403959629
 10
46.58356353377651
 20
92.08533403959629
 10
46.58356353377651
 20
92.08533403959629
 10
46.42301437120579
 20
92.08533403959629
 10
46.34307492880077
 20
92.16594375976199
 10
46.34307492880077
 20
92.32684570010149
 10
46.34307492880077
 20
92.48806514043288
 10
46.42301437120579
 20
92.56867486059858
 10
46.58356353377651
 20
92.56867486059858
 10
46.58356353377651
 20
92.56867486059858
 10
46.82331130543781
 20
92.56867486059858
 10
46.82331130543781
 20
92.56867486059858
 10
46.82331130543781
 20
92.56867486059858
 10
46.82331130543781
 20
93.76617899671437
 10
46.82331130543781
 20
93.76617899671437
 10
46.82331130543781
 20
93.92570510375563
 10
46.90395630338038
 20
94.00564454616065
 10
47.06517574371178
 20
94.00564454616065
 10
47.22639518404317
 20
94.00564454616065
 10
47.30700490420887
 20
93.92570510375563
 10
47.30700490420887
 20
93.76617899671437
 10
47.30700490420887
 20
93.76617899671437
 10
47.30700490420887
 20
92.56867486059858
 10
47.30700490420887
 20
92.56867486059858
 10
47.30700490420887
 20
92.56867486059858
 10
48.02772988582164
 20
92.56867486059858
 10
48.02772988582164
 20
92.56867486059858
 10
48.1875734928548
 20
92.56867486059858
 10
48.2678657130286
 20
92.48806514043288
 10
48.2678657130286
 20
92.32684570010149
 10
48.2678657130286
 20
92.16594375976199
 10
48.1875734928548
 20
92.08533403959629
 10
48.02772988582164
 20
92.08533403959629
 10
48.02772988582164
 20
92.08533403959629
 10
47.30700490420887
 20
92.08533403959629
 10
47.30700490420887
 20
92.08533403959629
 10
47.30700490420887
 20
92.08533403959629
 10
47.30700490420887
 20
89.44465132918795
 10
47.30700490420887
 20
89.44465132918795
 10
47.30700490420887
 20
89.2841374443941
 10
47.22639518404317
 20
89.20455077975787
 10
47.06517574371178
 20
89.20455077975787
 10
46.90395630338038
 20
89.20455077975787
 10
46.82331130543781
 20
89.2841374443941
 10
46.82331130543781
 20
89.44465132918795
 10
46.82331130543781
 20
89.44465132918795
 10
46.82331130543781
 20
92.08533403959629
 10
46.82331130543781
 20
92.08533403959629
 97
        0
 97
        0
 75
     2
 76
     1
 98
        0
  0
SPLINE
  5
93
330
87
100
AcDbEntity
  8
Layer 1
370
     0
100
AcDbSpline
210
0.0
220
0.0
230
1.0
 70
    11
 71
     3
 72
    56
 73
    52
 74
     0
 42
0.0000000001
 43
0.0000000001
 12
1.0
 22
0.0
 32
0.0
 13
1.0
 23
0.0
 33
0.0
 40
0.0
 40
0.0
 40
0.0
 40
0.0
 40
1.0
 40
1.0
 40
1.0
 40
2.0
 40
2.0
 40
2.0
 40
3.0
 40
3.0
 40
3.0
 40
4.0
 40
4.0
 40
4.0
 40
5.0
 40
5.0
 40
5.0
 40
6.0
 40
6.0
 40
6.0
 40
7.0
 40
7.0
 40
7.0
 40
8.0
 40
8.0
 40
8.0
 40
9.0
 40
9.0
 40
9.0
 40
10.0
 40
10.0
 40
10.0
 40
11.0
 40
11.0
 40
11.0
 40
12.0
 40
12.0
 40
12.0
 40
13.0
 40
13.0
 40
13.0
 40
14.0
 40
14.0
 40
14.0
 40
15.0
 40
15.0
 40
15.0
 40
16.0
 40
16.0
 40
16.0
 40
17.0
 40
17.0
 40
17.0
 40
17.0
 10
52.35098616441508
 20
89.20455077975787
 30
0.0
 10
52.08121700463079
 20
89.20455077975787
 30
0.0
 10
51.85385173265359
 20
89.29722775545355
 30
0.0
 10
51.6685022929378
 20
89.48257493933154
 30
0.0
 10
51.48280007545323
 20
89.66824187903923
 30
0.0
 10
51.39016063337222
 20
89.89528965102454
 30
0.0
 10
51.39016063337222
 20
90.16470831079185
 30
0.0
 10
51.39016063337222
 20
90.33936630636187
 30
0.0
 10
51.43253054269731
 20
90.50058574669326
 30
0.0
 10
51.51726646346281
 20
90.64804685404232
 30
0.0
 10
51.69951145881335
 20
90.96600545704163
 30
0.0
 10
51.97718284061825
 20
91.12482600854534
 30
0.0
 10
52.35098616441508
 20
91.12482600854534
 30
0.0
 10
52.35098616441508
 20
91.12482600854534
 30
0.0
 10
53.31181169545793
 20
91.12482600854534
 30
0.0
 10
53.31181169545793
 20
91.12482600854534
 30
0.0
 10
53.31181169545793
 20
91.12482600854534
 30
0.0
 10
53.31181169545793
 20
91.60509997709862
 30
0.0
 10
53.31181169545793
 20
91.60509997709862
 30
0.0
 10
53.31181169545793
 20
91.74049377061613
 30
0.0
 10
53.26566836330181
 20
91.85486664370302
 30
0.0
 10
53.17331114343582
 20
91.94683348757418
 30
0.0
 10
53.0809892013467
 20
92.0391554296633
 30
0.0
 10
52.96697142647776
 20
92.08533403959629
 30
0.0
 10
52.83122254105211
 20
92.08533403959629
 30
0.0
 10
52.83122254105211
 20
92.08533403959629
 30
0.0
 10
51.87039701000926
 20
92.08533403959629
 30
0.0
 10
51.87039701000926
 20
92.08533403959629
 30
0.0
 10
51.71020062520732
 20
92.08533403959629
 30
0.0
 10
51.6302611828023
 20
92.16594375976199
 30
0.0
 10
51.6302611828023
 20
92.32684570010149
 30
0.0
 10
51.6302611828023
 20
92.48806514043288
 30
0.0
 10
51.71020062520732
 20
92.56867486059858
 30
0.0
 10
51.87039701000926
 20
92.56867486059858
 30
0.0
 10
51.87039701000926
 20
92.56867486059858
 30
0.0
 10
52.83122254105211
 20
92.56867486059858
 30
0.0
 10
52.83122254105211
 20
92.56867486059858
 30
0.0
 10
53.10063892306761
 20
92.56867486059858
 30
0.0
 10
53.32871109777881
 20
92.47564736297191
 30
0.0
 10
53.51508224582762
 20
92.28998042326423
 30
0.0
 10
53.70180751884164
 20
92.10392775475192
 30
0.0
 10
53.79515251646021
 20
91.87656015603368
 30
0.0
 10
53.79515251646021
 20
91.60714377401817
 30
0.0
 10
53.79515251646021
 20
91.60714377401817
 30
0.0
 10
53.79515251646021
 20
89.44465132918795
 30
0.0
 10
53.79515251646021
 20
89.44465132918795
 30
0.0
 10
53.79515251646021
 20
89.2841374443941
 30
0.0
 10
53.71454279629452
 20
89.20455077975787
 30
0.0
 10
53.55332335596312
 20
89.20455077975787
 30
0.0
 10
53.55332335596312
 20
89.20455077975787
 30
0.0
 10
52.35098616441508
 20
89.20455077975787
 30
0.0
 10
52.35098616441508
 20
89.20455077975787
 30
0.0
  0
SPLINE
  5
94
330
87
100
AcDbEntity
  8
Layer 1
370
     0
100
AcDbSpline
210
0.0
220
0.0
230
1.0
 70
    11
 71
     3
 72
    26
 73
    22
 74
     0
 42
0.0000000001
 43
0.0000000001
 12
1.0
 22
0.0
 32
0.0
 13
1.0
 23
0.0
 33
0.0
 40
0.0
 40
0.0
 40
0.0
 40
0.0
 40
1.0
 40
1.0
 40
1.0
 40
2.0
 40
2.0
 40
2.0
 40
3.0
 40
3.0
 40
3.0
 40
4.0
 40
4.0
 40
4.0
 40
5.0
 40
5.0
 40
5.0
 40
6.0
 40
6.0
 40
6.0
 40
7.0
 40
7.0
 40
7.0
 40
7.0
 10
53.31181169545793
 20
90.64148518754305
 30
0.0
 10
53.31181169545793
 20
90.64148518754305
 30
0.0
 10
52.35098616441508
 20
90.64148518754305
 30
0.0
 10
52.35098616441508
 20
90.64148518754305
 30
0.0
 10
52.21731866782522
 20
90.64148518754305
 30
0.0
 10
52.10397117071695
 20
90.59498907761817
 30
0.0
 10
52.01059089532151
 20
90.50196386626314
 30
0.0
 10
51.91724720924272
 20
90.4092868601336
 30
0.0
 10
51.87039701000926
 20
90.29699997742544
 30
0.0
 10
51.87039701000926
 20
90.16470831079185
 30
0.0
 10
51.87039701000926
 20
90.03446048080733
 30
0.0
 10
51.91759998702049
 20
89.9224888169973
 30
0.0
 10
52.01267228415729
 20
89.82843826384116
 30
0.0
 10
52.10707561508219
 20
89.73438771068504
 30
0.0
 10
52.2197175566529
 20
89.68789160076015
 30
0.0
 10
52.35098616441508
 20
89.68789160076015
 30
0.0
 10
52.35098616441508
 20
89.68789160076015
 30
0.0
 10
53.31181169545793
 20
89.68789160076015
 30
0.0
 10
53.31181169545793
 20
89.68789160076015
 30
0.0
 10
53.31181169545793
 20
89.68789160076015
 30
0.0
 10
53.31181169545793
 20
90.64148518754305
 30
0.0
 10
53.31181169545793
 20
90.64148518754305
 30
0.0
  0
HATCH
  5
95
330
87
100
AcDbEntity
  8
Layer 1
 62
     7
420
 16777215
100
AcDbHatch
 10
0.0
 20
0.0
 30
0.0
210
0.0
220
0.0
230
1.0
  2
SOLID
 70
     1
 71
     0
 91
        2
 92
        1
 93
        1
 72
     4
 94
        3
 73
     0
 74
     1
 95
       56
 96
       52
 40
0.0
 40
0.0
 40
0.0
 40
0.0
 40
1.0
 40
1.0
 40
1.0
 40
2.0
 40
2.0
 40
2.0
 40
3.0
 40
3.0
 40
3.0
 40
4.0
 40
4.0
 40
4.0
 40
5.0
 40
5.0
 40
5.0
 40
6.0
 40
6.0
 40
6.0
 40
7.0
 40
7.0
 40
7.0
 40
8.0
 40
8.0
 40
8.0
 40
9.0
 40
9.0
 40
9.0
 40
10.0
 40
10.0
 40
10.0
 40
11.0
 40
11.0
 40
11.0
 40
12.0
 40
12.0
 40
12.0
 40
13.0
 40
13.0
 40
13.0
 40
14.0
 40
14.0
 40
14.0
 40
15.0
 40
15.0
 40
15.0
 40
16.0
 40
16.0
 40
16.0
 40
17.0
 40
17.0
 40
17.0
 40
17.0
 10
52.35098616441508
 20
89.20455077975787
 10
52.08121700463079
 20
89.20455077975787
 10
51.85385173265359
 20
89.29722775545355
 10
51.6685022929378
 20
89.48257493933154
 10
51.48280007545323
 20
89.66824187903923
 10
51.39016063337222
 20
89.89528965102454
 10
51.39016063337222
 20
90.16470831079185
 10
51.39016063337222
 20
90.33936630636187
 10
51.43253054269731
 20
90.50058574669326
 10
51.51726646346281
 20
90.64804685404232
 10
51.69951145881335
 20
90.96600545704163
 10
51.97718284061825
 20
91.12482600854534
 10
52.35098616441508
 20
91.12482600854534
 10
52.35098616441508
 20
91.12482600854534
 10
53.31181169545793
 20
91.12482600854534
 10
53.31181169545793
 20
91.12482600854534
 10
53.31181169545793
 20
91.12482600854534
 10
53.31181169545793
 20
91.60509997709862
 10
53.31181169545793
 20
91.60509997709862
 10
53.31181169545793
 20
91.74049377061613
 10
53.26566836330181
 20
91.85486664370302
 10
53.17331114343582
 20
91.94683348757418
 10
53.0809892013467
 20
92.0391554296633
 10
52.96697142647776
 20
92.08533403959629
 10
52.83122254105211
 20
92.08533403959629
 10
52.83122254105211
 20
92.08533403959629
 10
51.87039701000926
 20
92.08533403959629
 10
51.87039701000926
 20
92.08533403959629
 10
51.71020062520732
 20
92.08533403959629
 10
51.6302611828023
 20
92.16594375976199
 10
51.6302611828023
 20
92.32684570010149
 10
51.6302611828023
 20
92.48806514043288
 10
51.71020062520732
 20
92.56867486059858
 10
51.87039701000926
 20
92.56867486059858
 10
51.87039701000926
 20
92.56867486059858
 10
52.83122254105211
 20
92.56867486059858
 10
52.83122254105211
 20
92.56867486059858
 10
53.10063892306761
 20
92.56867486059858
 10
53.32871109777881
 20
92.47564736297191
 10
53.51508224582762
 20
92.28998042326423
 10
53.70180751884164
 20
92.10392775475192
 10
53.79515251646021
 20
91.87656015603368
 10
53.79515251646021
 20
91.60714377401817
 10
53.79515251646021
 20
91.60714377401817
 10
53.79515251646021
 20
89.44465132918795
 10
53.79515251646021
 20
89.44465132918795
 10
53.79515251646021
 20
89.2841374443941
 10
53.71454279629452
 20
89.20455077975787
 10
53.55332335596312
 20
89.20455077975787
 10
53.55332335596312
 20
89.20455077975787
 10
52.35098616441508
 20
89.20455077975787
 10
52.35098616441508
 20
89.20455077975787
 97
        0
 97
        0
 92
        1
 93
        1
 72
     4
 94
        3
 73
     0
 74
     1
 95
       26
 96
       22
 40
0.0
 40
0.0
 40
0.0
 40
0.0
 40
1.0
 40
1.0
 40
1.0
 40
2.0
 40
2.0
 40
2.0
 40
3.0
 40
3.0
 40
3.0
 40
4.0
 40
4.0
 40
4.0
 40
5.0
 40
5.0
 40
5.0
 40
6.0
 40
6.0
 40
6.0
 40
7.0
 40
7.0
 40
7.0
 40
7.0
 10
53.31181169545793
 20
90.64148518754305
 10
53.31181169545793
 20
90.64148518754305
 10
52.35098616441508
 20
90.64148518754305
 10
52.35098616441508
 20
90.64148518754305
 10
52.21731866782522
 20
90.64148518754305
 10
52.10397117071695
 20
90.59498907761817
 10
52.01059089532151
 20
90.50196386626314
 10
51.91724720924272
 20
90.4092868601336
 10
51.87039701000926
 20
90.29699997742544
 10
51.87039701000926
 20
90.16470831079185
 10
51.87039701000926
 20
90.03446048080733
 10
51.91759998702049
 20
89.9224888169973
 10
52.01267228415729
 20
89.82843826384116
 10
52.10707561508219
 20
89.73438771068504
 10
52.2197175566529
 20
89.68789160076015
 10
52.35098616441508
 20
89.68789160076015
 10
52.35098616441508
 20
89.68789160076015
 10
53.31181169545793
 20
89.68789160076015
 10
53.31181169545793
 20
89.68789160076015
 10
53.31181169545793
 20
89.68789160076015
 10
53.31181169545793
 20
90.64148518754305
 10
53.31181169545793
 20
90.64148518754305
 97
        0
 97
        0
 75
     2
 76
     1
 98
        0
  0
SPLINE
  5
96
330
87
100
AcDbEntity
  8
Layer 1
370
     0
100
AcDbSpline
210
0.0
220
0.0
230
1.0
 70
    11
 71
     3
 72
    53
 73
    49
 74
     0
 42
0.0000000001
 43
0.0000000001
 12
1.0
 22
0.0
 32
0.0
 13
1.0
 23
0.0
 33
0.0
 40
0.0
 40
0.0
 40
0.0
 40
0.0
 40
1.0
 40
1.0
 40
1.0
 40
2.0
 40
2.0
 40
2.0
 40
3.0
 40
3.0
 40
3.0
 40
4.0
 40
4.0
 40
4.0
 40
5.0
 40
5.0
 40
5.0
 40
6.0
 40
6.0
 40
6.0
 40
7.0
 40
7.0
 40
7.0
 40
8.0
 40
8.0
 40
8.0
 40
9.0
 40
9.0
 40
9.0
 40
10.0
 40
10.0
 40
10.0
 40
11.0
 40
11.0
 40
11.0
 40
12.0
 40
12.0
 40
12.0
 40
13.0
 40
13.0
 40
13.0
 40
14.0
 40
14.0
 40
14.0
 40
15.0
 40
15.0
 40
15.0
 40
16.0
 40
16.0
 40
16.0
 40
16.0
 10
57.22439937341728
 20
88.24129108211045
 30
0.0
 10
57.22439937341728
 20
88.24129108211045
 30
0.0
 10
57.62473158542618
 20
89.44327775541727
 30
0.0
 10
57.62473158542618
 20
89.44327775541727
 30
0.0
 10
57.62473158542618
 20
89.44327775541727
 30
0.0
 10
56.69318660919187
 20
92.25174164360381
 30
0.0
 10
56.69318660919187
 20
92.25174164360381
 30
0.0
 10
56.68320299833546
 20
92.28066942137447
 30
0.0
 10
56.67872272067198
 20
92.3065257006199
 30
0.0
 10
56.67872272067198
 20
92.32822153339971
 30
0.0
 10
56.67872272067198
 20
92.48841791820166
 30
0.0
 10
56.75862688530012
 20
92.56867486059858
 30
0.0
 10
56.91882327010207
 20
92.56867486059858
 30
0.0
 10
57.03527521157557
 20
92.56867486059858
 30
0.0
 10
57.11140465407779
 20
92.5135709731155
 30
0.0
 10
57.14791715314628
 20
92.40470375367072
 30
0.0
 10
57.14791715314628
 20
92.40470375367072
 30
0.0
 10
57.8796840789218
 20
90.20845275522593
 30
0.0
 10
57.8796840789218
 20
90.20845275522593
 30
0.0
 10
57.8796840789218
 20
90.20845275522593
 30
0.0
 10
58.61106294915165
 20
92.40470375367072
 30
0.0
 10
58.61106294915165
 20
92.40470375367072
 30
0.0
 10
58.64517655939245
 20
92.5135709731155
 30
0.0
 10
58.72165877966345
 20
92.56867486059858
 30
0.0
 10
58.8405110964008
 20
92.56867486059858
 30
0.0
 10
59.00035321699781
 20
92.56867486059858
 30
0.0
 10
59.0806454371716
 20
92.48841791820166
 30
0.0
 10
59.0806454371716
 20
92.32822153339971
 30
0.0
 10
59.0806454371716
 20
92.3065257006199
 30
0.0
 10
59.0758138741202
 20
92.28066942137447
 30
0.0
 10
59.06614627087485
 20
92.25174164360381
 30
0.0
 10
59.06614627087485
 20
92.25174164360381
 30
0.0
 10
57.62850630755209
 20
87.9243555346406
 30
0.0
 10
57.62850630755209
 20
87.9243555346406
 30
0.0
 10
57.59199380848361
 20
87.81513553742703
 30
0.0
 10
57.51551158821261
 20
87.76070192770463
 30
0.0
 10
57.39941387453916
 20
87.76070192770463
 30
0.0
 10
57.39941387453916
 20
87.76070192770463
 30
0.0
 10
56.9150499857715
 20
87.76070192770463
 30
0.0
 10
56.9150499857715
 20
87.76070192770463
 30
0.0
 10
56.75520494094298
 20
87.76070192770463
 30
0.0
 10
56.67491272076919
 20
87.84096108915072
 30
0.0
 10
56.67491272076919
 20
88.00083775491159
 30
0.0
 10
56.67491272076919
 20
88.1296721960692
 30
0.0
 10
56.74176410795256
 20
88.20717747186964
 30
0.0
 10
56.87507882677363
 20
88.23405913785051
 30
0.0
 10
56.89677465955346
 20
88.2388944223848
 30
0.0
 10
57.01322660102696
 20
88.24129108211045
 30
0.0
 10
57.22439937341728
 20
88.24129108211045
 30
0.0
  0
HATCH
  5
97
330
87
100
AcDbEntity
  8
Layer 1
 62
     7
420
 16777215
100
AcDbHatch
 10
0.0
 20
0.0
 30
0.0
210
0.0
220
0.0
230
1.0
  2
SOLID
 70
     1
 71
     0
 91
        1
 92
        1
 93
        1
 72
     4
 94
        3
 73
     0
 74
     1
 95
       53
 96
       49
 40
0.0
 40
0.0
 40
0.0
 40
0.0
 40
1.0
 40
1.0
 40
1.0
 40
2.0
 40
2.0
 40
2.0
 40
3.0
 40
3.0
 40
3.0
 40
4.0
 40
4.0
 40
4.0
 40
5.0
 40
5.0
 40
5.0
 40
6.0
 40
6.0
 40
6.0
 40
7.0
 40
7.0
 40
7.0
 40
8.0
 40
8.0
 40
8.0
 40
9.0
 40
9.0
 40
9.0
 40
10.0
 40
10.0
 40
10.0
 40
11.0
 40
11.0
 40
11.0
 40
12.0
 40
12.0
 40
12.0
 40
13.0
 40
13.0
 40
13.0
 40
14.0
 40
14.0
 40
14.0
 40
15.0
 40
15.0
 40
15.0
 40
16.0
 40
16.0
 40
16.0
 40
16.0
 10
57.22439937341728
 20
88.24129108211045
 10
57.22439937341728
 20
88.24129108211045
 10
57.62473158542618
 20
89.44327775541727
 10
57.62473158542618
 20
89.44327775541727
 10
57.62473158542618
 20
89.44327775541727
 10
56.69318660919187
 20
92.25174164360381
 10
56.69318660919187
 20
92.25174164360381
 10
56.68320299833546
 20
92.28066942137447
 10
56.67872272067198
 20
92.3065257006199
 10
56.67872272067198
 20
92.32822153339971
 10
56.67872272067198
 20
92.48841791820166
 10
56.75862688530012
 20
92.56867486059858
 10
56.91882327010207
 20
92.56867486059858
 10
57.03527521157557
 20
92.56867486059858
 10
57.11140465407779
 20
92.5135709731155
 10
57.14791715314628
 20
92.40470375367072
 10
57.14791715314628
 20
92.40470375367072
 10
57.8796840789218
 20
90.20845275522593
 10
57.8796840789218
 20
90.20845275522593
 10
57.8796840789218
 20
90.20845275522593
 10
58.61106294915165
 20
92.40470375367072
 10
58.61106294915165
 20
92.40470375367072
 10
58.64517655939245
 20
92.5135709731155
 10
58.72165877966345
 20
92.56867486059858
 10
58.8405110964008
 20
92.56867486059858
 10
59.00035321699781
 20
92.56867486059858
 10
59.0806454371716
 20
92.48841791820166
 10
59.0806454371716
 20
92.32822153339971
 10
59.0806454371716
 20
92.3065257006199
 10
59.0758138741202
 20
92.28066942137447
 10
59.06614627087485
 20
92.25174164360381
 10
59.06614627087485
 20
92.25174164360381
 10
57.62850630755209
 20
87.9243555346406
 10
57.62850630755209
 20
87.9243555346406
 10
57.59199380848361
 20
87.81513553742703
 10
57.51551158821261
 20
87.76070192770463
 10
57.39941387453916
 20
87.76070192770463
 10
57.39941387453916
 20
87.76070192770463
 10
56.9150499857715
 20
87.76070192770463
 10
56.9150499857715
 20
87.76070192770463
 10
56.75520494094298
 20
87.76070192770463
 10
56.67491272076919
 20
87.84096108915072
 10
56.67491272076919
 20
88.00083775491159
 10
56.67491272076919
 20
88.1296721960692
 10
56.74176410795256
 20
88.20717747186964
 10
56.87507882677363
 20
88.23405913785051
 10
56.89677465955346
 20
88.2388944223848
 10
57.01322660102696
 20
88.24129108211045
 10
57.22439937341728
 20
88.24129108211045
 97
        0
 97
        0
 75
     2
 76
     1
 98
        0
  0
SPLINE
  5
98
330
87
100
AcDbEntity
  8
Layer 1
370
     0
100
AcDbSpline
210
0.0
220
0.0
230
1.0
 70
    11
 71
     3
 72
    56
 73
    52
 74
     0
 42
0.0000000001
 43
0.0000000001
 12
1.0
 22
0.0
 32
0.0
 13
1.0
 23
0.0
 33
0.0
 40
0.0
 40
0.0
 40
0.0
 40
0.0
 40
1.0
 40
1.0
 40
1.0
 40
2.0
 40
2.0
 40
2.0
 40
3.0
 40
3.0
 40
3.0
 40
4.0
 40
4.0
 40
4.0
 40
5.0
 40
5.0
 40
5.0
 40
6.0
 40
6.0
 40
6.0
 40
7.0
 40
7.0
 40
7.0
 40
8.0
 40
8.0
 40
8.0
 40
9.0
 40
9.0
 40
9.0
 40
10.0
 40
10.0
 40
10.0
 40
11.0
 40
11.0
 40
11.0
 40
12.0
 40
12.0
 40
12.0
 40
13.0
 40
13.0
 40
13.0
 40
14.0
 40
14.0
 40
14.0
 40
15.0
 40
15.0
 40
15.0
 40
16.0
 40
16.0
 40
16.0
 40
17.0
 40
17.0
 40
17.0
 40
17.0
 10
62.92363006135113
 20
89.20455077975787
 30
0.0
 10
62.65421367933562
 20
89.20455077975787
 30
0.0
 10
62.42684998439348
 20
89.29722775545355
 30
0.0
 10
62.24114618987385
 20
89.48257493933154
 30
0.0
 10
62.05547925016617
 20
89.66824187903923
 30
0.0
 10
61.96245175253949
 20
89.89528965102454
 30
0.0
 10
61.96245175253949
 20
90.16470831079185
 30
0.0
 10
61.96245175253949
 20
90.33936630636187
 30
0.0
 10
62.00482036256969
 20
90.50058574669326
 30
0.0
 10
62.09026313816764
 20
90.64804685404232
 30
0.0
 10
62.2718378557575
 20
90.96600545704163
 30
0.0
 10
62.54982673755431
 20
91.12482600854534
 30
0.0
 10
62.92363006135113
 20
91.12482600854534
 30
0.0
 10
62.92363006135113
 20
91.12482600854534
 30
0.0
 10
63.88445559239398
 20
91.12482600854534
 30
0.0
 10
63.88445559239398
 20
91.12482600854534
 30
0.0
 10
63.88445559239398
 20
91.12482600854534
 30
0.0
 10
63.88445559239398
 20
91.60509997709862
 30
0.0
 10
63.88445559239398
 20
91.60509997709862
 30
0.0
 10
63.88445559239398
 20
91.74049377061613
 30
0.0
 10
63.83831387292958
 20
91.85486664370302
 30
0.0
 10
63.74599031814874
 20
91.94683348757418
 30
0.0
 10
63.65398587605153
 20
92.0391554296633
 30
0.0
 10
63.53961532341381
 20
92.08533403959629
 30
0.0
 10
63.40386643798816
 20
92.08533403959629
 30
0.0
 10
63.40386643798816
 20
92.08533403959629
 30
0.0
 10
62.44304090694531
 20
92.08533403959629
 30
0.0
 10
62.44304090694531
 20
92.08533403959629
 30
0.0
 10
62.28284452214337
 20
92.08533403959629
 30
0.0
 10
62.20290507973835
 20
92.16594375976199
 30
0.0
 10
62.20290507973835
 20
92.32684570010149
 30
0.0
 10
62.20290507973835
 20
92.48806514043288
 30
0.0
 10
62.28284452214337
 20
92.56867486059858
 30
0.0
 10
62.44304090694531
 20
92.56867486059858
 30
0.0
 10
62.44304090694531
 20
92.56867486059858
 30
0.0
 10
63.40386643798816
 20
92.56867486059858
 30
0.0
 10
63.40386643798816
 20
92.56867486059858
 30
0.0
 10
63.67328282000366
 20
92.56867486059858
 30
0.0
 10
63.90100086974965
 20
92.47564736297191
 30
0.0
 10
64.08772776175559
 20
92.28998042326423
 30
0.0
 10
64.27445141577769
 20
92.10392775475192
 30
0.0
 10
64.36783331724106
 20
91.87656015603368
 30
0.0
 10
64.36783331724106
 20
91.60714377401817
 30
0.0
 10
64.36783331724106
 20
91.60714377401817
 30
0.0
 10
64.36783331724106
 20
89.44465132918795
 30
0.0
 10
64.36783331724106
 20
89.44465132918795
 30
0.0
 10
64.36783331724106
 20
89.2841374443941
 30
0.0
 10
64.28718669323057
 20
89.20455077975787
 30
0.0
 10
64.12596725289917
 20
89.20455077975787
 30
0.0
 10
64.12596725289917
 20
89.20455077975787
 30
0.0
 10
62.92363006135113
 20
89.20455077975787
 30
0.0
 10
62.92363006135113
 20
89.20455077975787
 30
0.0
  0
SPLINE
  5
99
330
87
100
AcDbEntity
  8
Layer 1
370
     0
100
AcDbSpline
210
0.0
220
0.0
230
1.0
 70
    11
 71
     3
 72
    26
 73
    22
 74
     0
 42
0.0000000001
 43
0.0000000001
 12
1.0
 22
0.0
 32
0.0
 13
1.0
 23
0.0
 33
0.0
 40
0.0
 40
0.0
 40
0.0
 40
0.0
 40
1.0
 40
1.0
 40
1.0
 40
2.0
 40
2.0
 40
2.0
 40
3.0
 40
3.0
 40
3.0
 40
4.0
 40
4.0
 40
4.0
 40
5.0
 40
5.0
 40
5.0
 40
6.0
 40
6.0
 40
6.0
 40
7.0
 40
7.0
 40
7.0
 40
7.0
 10
63.88445559239398
 20
90.64148518754305
 30
0.0
 10
63.88445559239398
 20
90.64148518754305
 30
0.0
 10
62.92363006135113
 20
90.64148518754305
 30
0.0
 10
62.92363006135113
 20
90.64148518754305
 30
0.0
 10
62.79031534253004
 20
90.64148518754305
 30
0.0
 10
62.67661665099725
 20
90.59498907761817
 30
0.0
 10
62.58327007003443
 20
90.50196386626314
 30
0.0
 10
62.4895370168702
 20
90.4092868601336
 30
0.0
 10
62.44304090694531
 20
90.29699997742544
 30
0.0
 10
62.44304090694531
 20
90.16470831079185
 30
0.0
 10
62.44304090694531
 20
90.03446048080733
 30
0.0
 10
62.49059535017653
 20
89.9224888169973
 30
0.0
 10
62.58499868110144
 20
89.82843826384116
 30
0.0
 10
62.67971951201825
 20
89.73438771068504
 30
0.0
 10
62.79236145358895
 20
89.68789160076015
 30
0.0
 10
62.92363006135113
 20
89.68789160076015
 30
0.0
 10
62.92363006135113
 20
89.68789160076015
 30
0.0
 10
63.88445559239398
 20
89.68789160076015
 30
0.0
 10
63.88445559239398
 20
89.68789160076015
 30
0.0
 10
63.88445559239398
 20
89.68789160076015
 30
0.0
 10
63.88445559239398
 20
90.64148518754305
 30
0.0
 10
63.88445559239398
 20
90.64148518754305
 30
0.0
  0
HATCH
  5
9A
330
87
100
AcDbEntity
  8
Layer 1
 62
     7
420
 16777215
100
AcDbHatch
 10
0.0
 20
0.0
 30
0.0
210
0.0
220
0.0
230
1.0
  2
SOLID
 70
     1
 71
     0
 91
        2
 92
        1
 93
        1
 72
     4
 94
        3
 73
     0
 74
     1
 95
       56
 96
       52
 40
0.0
 40
0.0
 40
0.0
 40
0.0
 40
1.0
 40
1.0
 40
1.0
 40
2.0
 40
2.0
 40
2.0
 40
3.0
 40
3.0
 40
3.0
 40
4.0
 40
4.0
 40
4.0
 40
5.0
 40
5.0
 40
5.0
 40
6.0
 40
6.0
 40
6.0
 40
7.0
 40
7.0
 40
7.0
 40
8.0
 40
8.0
 40
8.0
 40
9.0
 40
9.0
 40
9.0
 40
10.0
 40
10.0
 40
10.0
 40
11.0
 40
11.0
 40
11.0
 40
12.0
 40
12.0
 40
12.0
 40
13.0
 40
13.0
 40
13.0
 40
14.0
 40
14.0
 40
14.0
 40
15.0
 40
15.0
 40
15.0
 40
16.0
 40
16.0
 40
16.0
 40
17.0
 40
17.0
 40
17.0
 40
17.0
 10
62.92363006135113
 20
89.20455077975787
 10
62.65421367933562
 20
89.20455077975787
 10
62.42684998439348
 20
89.29722775545355
 10
62.24114618987385
 20
89.48257493933154
 10
62.05547925016617
 20
89.66824187903923
 10
61.96245175253949
 20
89.89528965102454
 10
61.96245175253949
 20
90.16470831079185
 10
61.96245175253949
 20
90.33936630636187
 10
62.00482036256969
 20
90.50058574669326
 10
62.09026313816764
 20
90.64804685404232
 10
62.2718378557575
 20
90.96600545704163
 10
62.54982673755431
 20
91.12482600854534
 10
62.92363006135113
 20
91.12482600854534
 10
62.92363006135113
 20
91.12482600854534
 10
63.88445559239398
 20
91.12482600854534
 10
63.88445559239398
 20
91.12482600854534
 10
63.88445559239398
 20
91.12482600854534
 10
63.88445559239398
 20
91.60509997709862
 10
63.88445559239398
 20
91.60509997709862
 10
63.88445559239398
 20
91.74049377061613
 10
63.83831387292958
 20
91.85486664370302
 10
63.74599031814874
 20
91.94683348757418
 10
63.65398587605153
 20
92.0391554296633
 10
63.53961532341381
 20
92.08533403959629
 10
63.40386643798816
 20
92.08533403959629
 10
63.40386643798816
 20
92.08533403959629
 10
62.44304090694531
 20
92.08533403959629
 10
62.44304090694531
 20
92.08533403959629
 10
62.28284452214337
 20
92.08533403959629
 10
62.20290507973835
 20
92.16594375976199
 10
62.20290507973835
 20
92.32684570010149
 10
62.20290507973835
 20
92.48806514043288
 10
62.28284452214337
 20
92.56867486059858
 10
62.44304090694531
 20
92.56867486059858
 10
62.44304090694531
 20
92.56867486059858
 10
63.40386643798816
 20
92.56867486059858
 10
63.40386643798816
 20
92.56867486059858
 10
63.67328282000366
 20
92.56867486059858
 10
63.90100086974965
 20
92.47564736297191
 10
64.08772776175559
 20
92.28998042326423
 10
64.27445141577769
 20
92.10392775475192
 10
64.36783331724106
 20
91.87656015603368
 10
64.36783331724106
 20
91.60714377401817
 10
64.36783331724106
 20
91.60714377401817
 10
64.36783331724106
 20
89.44465132918795
 10
64.36783331724106
 20
89.44465132918795
 10
64.36783331724106
 20
89.2841374443941
 10
64.28718669323057
 20
89.20455077975787
 10
64.12596725289917
 20
89.20455077975787
 10
64.12596725289917
 20
89.20455077975787
 10
62.92363006135113
 20
89.20455077975787
 10
62.92363006135113
 20
89.20455077975787
 97
        0
 97
        0
 92
        1
 93
        1
 72
     4
 94
        3
 73
     0
 74
     1
 95
       26
 96
       22
 40
0.0
 40
0.0
 40
0.0
 40
0.0
 40
1.0
 40
1.0
 40
1.0
 40
2.0
 40
2.0
 40
2.0
 40
3.0
 40
3.0
 40
3.0
 40
4.0
 40
4.0
 40
4.0
 40
5.0
 40
5.0
 40
5.0
 40
6.0
 40
6.0
 40
6.0
 40
7.0
 40
7.0
 40
7.0
 40
7.0
 10
63.88445559239398
 20
90.64148518754305
 10
63.88445559239398
 20
90.64148518754305
 10
62.92363006135113
 20
90.64148518754305
 10
62.92363006135113
 20
90.64148518754305
 10
62.79031534253004
 20
90.64148518754305
 10
62.67661665099725
 20
90.59498907761817
 10
62.58327007003443
 20
90.50196386626314
 10
62.4895370168702
 20
90.4092868601336
 10
62.44304090694531
 20
90.29699997742544
 10
62.44304090694531
 20
90.16470831079185
 10
62.44304090694531
 20
90.03446048080733
 10
62.49059535017653
 20
89.9224888169973
 10
62.58499868110144
 20
89.82843826384116
 10
62.67971951201825
 20
89.73438771068504
 10
62.79236145358895
 20
89.68789160076015
 10
62.92363006135113
 20
89.68789160076015
 10
62.92363006135113
 20
89.68789160076015
 10
63.88445559239398
 20
89.68789160076015
 10
63.88445559239398
 20
89.68789160076015
 10
63.88445559239398
 20
89.68789160076015
 10
63.88445559239398
 20
90.64148518754305
 10
63.88445559239398
 20
90.64148518754305
 97
        0
 97
        0
 75
     2
 76
     1
 98
        0
  0
ENDBLK
  5
8A
330
87
100
AcDbEntity
  8
0
100
AcDbBlockEnd
  0
ENDSEC
  0
SECTION
  2
ENTITIES
  0
INSERT
  5
42
330
1F
100
AcDbEntity
  8
Layer 1
100
AcDbBlockReference
  2
block 2
 10
0.0
 20
0.0
 30
0.0
  0
ENDSEC
  0
SECTION
  2
OBJECTS
  0
DICTIONARY
  5
C
330
0
100
AcDbDictionary
281
     1
  3
ACAD_GROUP
350
D
  3
ACAD_LAYOUT
350
1A
  3
ACAD_MATERIAL
350
3B
  3
ACAD_MLEADERSTYLE
350
9C
  3
ACAD_MLINESTYLE
350
17
  3
ACAD_PLOTSETTINGS
350
19
  3
ACAD_PLOTSTYLENAME
350
E
  3
ACAD_TABLESTYLE
350
9B
  3
ACAD_VISUALSTYLE
350
2A
  0
SUN
  5
3F
330
29
100
AcDbSun
 90
        1
290
     0
 63
     7
421
 16777215
 40
1.0
291
     1
 91
  2455826
 92
 54000000
292
     0
 70
     2
 71
   256
280
     1
  0
DICTIONARY
  5
D
102
{ACAD_REACTORS
330
C
102
}
330
C
100
AcDbDictionary
281
     1
  0
DICTIONARY
  5
1A
102
{ACAD_REACTORS
330
C
102
}
330
C
100
AcDbDictionary
281
     1
  3
Layout1
350
1E
  3
Layout2
350
26
  3
Model
350
22
  0
DICTIONARY
  5
3B
102
{ACAD_REACTORS
330
C
102
}
330
C
100
AcDbDictionary
281
     1
  3
ByBlock
350
3D
  3
ByLayer
350
3C
  3
Global
350
3E
  0
DICTIONARY
  5
9C
102
{ACAD_REACTORS
330
C
102
}
330
C
100
AcDbDictionary
281
     1
  0
DICTIONARY
  5
17
102
{ACAD_REACTORS
330
C
102
}
330
C
100
AcDbDictionary
281
     1
  3
Standard
350
18
  0
DICTIONARY
  5
19
102
{ACAD_REACTORS
330
C
102
}
330
C
100
AcDbDictionary
281
     1
  0
ACDBDICTIONARYWDFLT
  5
E
102
{ACAD_REACTORS
330
C
102
}
330
C
100
AcDbDictionary
281
     1
  3
Normal
350
F
100
AcDbDictionaryWithDefault
340
F
  0
DICTIONARY
  5
9B
102
{ACAD_REACTORS
330
C
102
}
330
C
100
AcDbDictionary
281
     1
  0
DICTIONARY
  5
2A
102
{ACAD_REACTORS
330
C
102
}
330
C
100
AcDbDictionary
281
     1
  3
2dWireframe
350
2F
  3
3D Hidden
350
31
  3
3dWireframe
350
30
  3
Basic
350
32
  3
Brighten
350
36
  3
ColorChange
350
3A
  3
Conceptual
350
34
  3
Dim
350
35
  3
Facepattern
350
39
  3
Flat
350
2B
  3
FlatWithEdges
350
2C
  3
Gouraud
350
2D
  3
GouraudWithEdges
350
2E
  3
Linepattern
350
38
  3
Realistic
350
33
  3
Thicken
350
37
  0
LAYOUT
  5
1E
102
{ACAD_REACTORS
330
1A
102
}
330
1A
100
AcDbPlotSettings
  1

  2
none_device
  4

  6

 40
0.0
 41
0.0
 42
0.0
 43
0.0
 44
0.0
 45
0.0
 46
0.0
 47
0.0
 48
0.0
 49
0.0
140
0.0
141
0.0
142
1.0
143
1.0
 70
   688
 72
     0
 73
     0
 74
     5
  7

 75
    16
 76
     0
 77
     2
 78
   300
147
1.0
148
0.0
149
0.0
100
AcDbLayout
  1
Layout1
 70
     1
 71
     1
 10
0.0
 20
0.0
 11
12.0
 21
9.0
 12
0.0
 22
0.0
 32
0.0
 14
1.000000000000000E+20
 24
1.000000000000000E+20
 34
1.000000000000000E+20
 15
-1.000000000000000E+20
 25
-1.000000000000000E+20
 35
-1.000000000000000E+20
146
0.0
 13
0.0
 23
0.0
 33
0.0
 16
1.0
 26
0.0
 36
0.0
 17
0.0
 27
1.0
 37
0.0
 76
     0
330
1B
  0
LAYOUT
  5
26
102
{ACAD_REACTORS
330
1A
102
}
330
1A
100
AcDbPlotSettings
  1

  2
none_device
  4

  6

 40
0.0
 41
0.0
 42
0.0
 43
0.0
 44
0.0
 45
0.0
 46
0.0
 47
0.0
 48
0.0
 49
0.0
140
0.0
141
0.0
142
1.0
143
1.0
 70
   688
 72
     0
 73
     0
 74
     5
  7

 75
    16
 76
     0
 77
     2
 78
   300
147
1.0
148
0.0
149
0.0
100
AcDbLayout
  1
Layout2
 70
     1
 71
     2
 10
0.0
 20
0.0
 11
0.0
 21
0.0
 12
0.0
 22
0.0
 32
0.0
 14
0.0
 24
0.0
 34
0.0
 15
0.0
 25
0.0
 35
0.0
146
0.0
 13
0.0
 23
0.0
 33
0.0
 16
1.0
 26
0.0
 36
0.0
 17
0.0
 27
1.0
 37
0.0
 76
     0
330
23
  0
LAYOUT
  5
22
102
{ACAD_REACTORS
330
1A
102
}
330
1A
100
AcDbPlotSettings
  1

  2
none_device
  4

  6

 40
0.0
 41
0.0
 42
0.0
 43
0.0
 44
0.0
 45
0.0
 46
0.0
 47
0.0
 48
0.0
 49
0.0
140
0.0
141
0.0
142
1.0
143
1.0
 70
  1712
 72
     0
 73
     0
 74
     0
  7

 75
     0
 76
     0
 77
     2
 78
   300
147
1.0
148
0.0
149
0.0
100
AcDbLayout
  1
Model
 70
     1
 71
     0
 10
0.0
 20
0.0
 11
12.0
 21
9.0
 12
0.0
 22
0.0
 32
0.0
 14
1.000000000000000E+20
 24
1.000000000000000E+20
 34
1.000000000000000E+20
 15
-1.000000000000000E+20
 25
-1.000000000000000E+20
 35
-1.000000000000000E+20
146
0.0
 13
0.0
 23
0.0
 33
0.0
 16
1.0
 26
0.0
 36
0.0
 17
0.0
 27
1.0
 37
0.0
 76
     0
330
1F
331
29
  0
MATERIAL
  5
3D
102
{ACAD_REACTORS
330
3B
102
}
330
3B
100
AcDbMaterial
  1
ByBlock
 72
     1
 94
      127
  0
MATERIAL
  5
3C
102
{ACAD_REACTORS
330
3B
102
}
330
3B
100
AcDbMaterial
  1
ByLayer
 72
     1
 94
      127
  0
MATERIAL
  5
3E
102
{ACAD_REACTORS
330
3B
102
}
330
3B
100
AcDbMaterial
  1
Global
 72
     1
 94
      127
  0
MLINESTYLE
  5
18
102
{ACAD_REACTORS
330
17
102
}
330
17
100
AcDbMlineStyle
  2
Standard
 70
     0
  3

 62
   256
 51
90.0
 52
90.0
 71
     2
 49
0.5
 62
   256
  6
BYLAYER
 49
-0.5
 62
   256
  6
BYLAYER
  0
ACDBPLACEHOLDER
  5
F
102
{ACAD_REACTORS
330
E
102
}
330
E
  0
VISUALSTYLE
  5
2F
102
{ACAD_REACTORS
330
2A
102
}
330
2A
100
AcDbVisualStyle
  2
2dWireframe
 70
     4
177
     2
291
     0
 71
     0
176
     1
 72
     2
176
     1
 73
     0
176
     1
 90
        0
176
     1
 40
-0.6
176
     1
 41
-30.0
176
     1
 62
     5
 63
     7
421
 16777215
176
     1
 74
     1
176
     1
 91
        4
176
     1
 64
     7
176
     1
 65
   257
176
     1
 75
     1
176
     1
175
     1
176
     1
 42
1.0
176
     1
 92
        0
176
     1
 66
   257
176
     1
 43
1.0
176
     1
 76
     1
176
     1
 77
     6
176
     1
 78
     2
176
     1
 67
     7
176
     1
 79
     5
176
     1
170
     0
176
     1
171
     0
176
     1
290
     0
176
     1
 93
        1
176
     1
 44
0.0
176
     1
173
     0
176
     1
  0
VISUALSTYLE
  5
31
102
{ACAD_REACTORS
330
2A
102
}
330
2A
100
AcDbVisualStyle
  2
3D Hidden
 70
     6
177
     2
291
     0
 71
     1
176
     1
 72
     2
176
     1
 73
     2
176
     1
 90
        0
176
     1
 40
-0.6
176
     1
 41
-30.0
176
     1
 62
     5
 63
     7
421
 16777215
176
     1
 74
     2
176
     1
 91
        2
176
     1
 64
     7
176
     1
 65
   257
176
     1
 75
     2
176
     1
175
     1
176
     1
 42
40.0
176
     1
 92
        0
176
     1
 66
   257
176
     1
 43
1.0
176
     1
 76
     1
176
     1
 77
     6
176
     1
 78
     2
176
     1
 67
     7
176
     1
 79
     3
176
     1
170
     0
176
     1
171
     0
176
     1
290
     0
176
     1
 93
        1
176
     1
 44
0.0
176
     1
173
     0
176
     1
  0
VISUALSTYLE
  5
30
102
{ACAD_REACTORS
330
2A
102
}
330
2A
100
AcDbVisualStyle
  2
3dWireframe
 70
     5
177
     2
291
     0
 71
     0
176
     1
 72
     2
176
     1
 73
     0
176
     1
 90
        0
176
     1
 40
-0.6
176
     1
 41
-30.0
176
     1
 62
     5
 63
     7
421
 16777215
176
     1
 74
     1
176
     1
 91
        4
176
     1
 64
     7
176
     1
 65
   257
176
     1
 75
     1
176
     1
175
     1
176
     1
 42
1.0
176
     1
 92
        0
176
     1
 66
   257
176
     1
 43
1.0
176
     1
 76
     1
176
     1
 77
     6
176
     1
 78
     2
176
     1
 67
     7
176
     1
 79
     5
176
     1
170
     0
176
     1
171
     0
176
     1
290
     0
176
     1
 93
        1
176
     1
 44
0.0
176
     1
173
     0
176
     1
  0
VISUALSTYLE
  5
32
102
{ACAD_REACTORS
330
2A
102
}
330
2A
100
AcDbVisualStyle
  2
Basic
 70
     7
177
     2
291
     1
 71
     1
176
     1
 72
     0
176
     1
 73
     1
176
     1
 90
        0
176
     1
 40
-0.6
176
     1
 41
-30.0
176
     1
 62
     5
 63
     7
421
 16777215
176
     1
 74
     0
176
     1
 91
        4
176
     1
 64
     7
176
     1
 65
   257
176
     1
 75
     1
176
     1
175
     1
176
     1
 42
1.0
176
     1
 92
        8
176
     1
 66
     7
176
     1
 43
1.0
176
     1
 76
     1
176
     1
 77
     6
176
     1
 78
     2
176
     1
 67
     7
176
     1
 79
     5
176
     1
170
     0
176
     1
171
     0
176
     1
290
     0
176
     1
 93
        1
176
     1
 44
0.0
176
     1
173
     0
176
     1
  0
VISUALSTYLE
  5
36
102
{ACAD_REACTORS
330
2A
102
}
330
2A
100
AcDbVisualStyle
  2
Brighten
 70
    12
177
     2
291
     1
 71
     2
176
     1
 72
     2
176
     1
 73
     0
176
     1
 90
        0
176
     1
 40
-0.6
176
     1
 41
-30.0
176
     1
 62
     5
 63
     7
421
 16777215
176
     1
 74
     1
176
     1
 91
        4
176
     1
 64
     7
176
     1
 65
   257
176
     1
 75
     1
176
     1
175
     1
176
     1
 42
1.0
176
     1
 92
        8
176
     1
 66
     7
176
     1
 43
1.0
176
     1
 76
     1
176
     1
 77
     6
176
     1
 78
     2
176
     1
 67
     7
176
     1
 79
     5
176
     1
170
     0
176
     1
171
     0
176
     1
290
     0
176
     1
 93
        1
176
     1
 44
50.0
176
     1
173
     0
176
     1
  0
VISUALSTYLE
  5
3A
102
{ACAD_REACTORS
330
2A
102
}
330
2A
100
AcDbVisualStyle
  2
ColorChange
 70
    16
177
     2
291
     1
 71
     2
176
     1
 72
     2
176
     1
 73
     3
176
     1
 90
        0
176
     1
 40
-0.6
176
     1
 41
-30.0
176
     1
 62
     5
 63
     8
421
  8421504
176
     1
 74
     1
176
     1
 91
        4
176
     1
 64
     7
176
     1
 65
   257
176
     1
 75
     1
176
     1
175
     1
176
     1
 42
1.0
176
     1
 92
        8
176
     1
 66
     8
424
  8421504
176
     1
 43
1.0
176
     1
 76
     1
176
     1
 77
     6
176
     1
 78
     2
176
     1
 67
     7
176
     1
 79
     5
176
     1
170
     0
176
     1
171
     0
176
     1
290
     0
176
     1
 93
        1
176
     1
 44
0.0
176
     1
173
     0
176
     1
  0
VISUALSTYLE
  5
34
102
{ACAD_REACTORS
330
2A
102
}
330
2A
100
AcDbVisualStyle
  2
Conceptual
 70
     9
177
     2
291
     0
 71
     3
176
     1
 72
     2
176
     1
 73
     0
176
     1
 90
        0
176
     1
 40
-0.6
176
     1
 41
-30.0
176
     1
 62
     5
 63
     7
421
 16777215
176
     1
 74
     2
176
     1
 91
        2
176
     1
 64
     7
176
     1
 65
   257
176
     1
 75
     1
176
     1
175
     1
176
     1
 42
40.0
176
     1
 92
        8
176
     1
 66
     7
176
     1
 43
1.0
176
     1
 76
     1
176
     1
 77
     6
176
     1
 78
     2
176
     1
 67
     7
176
     1
 79
     3
176
     1
170
     0
176
     1
171
     0
176
     1
290
     0
176
     1
 93
        1
176
     1
 44
0.0
176
     1
173
     0
176
     1
  0
VISUALSTYLE
  5
35
102
{ACAD_REACTORS
330
2A
102
}
330
2A
100
AcDbVisualStyle
  2
Dim
 70
    11
177
     2
291
     1
 71
     2
176
     1
 72
     2
176
     1
 73
     0
176
     1
 90
        0
176
     1
 40
-0.6
176
     1
 41
-30.0
176
     1
 62
     5
 63
     7
421
 16777215
176
     1
 74
     1
176
     1
 91
        4
176
     1
 64
     7
176
     1
 65
   257
176
     1
 75
     1
176
     1
175
     1
176
     1
 42
1.0
176
     1
 92
        8
176
     1
 66
     7
176
     1
 43
1.0
176
     1
 76
     1
176
     1
 77
     6
176
     1
 78
     2
176
     1
 67
     7
176
     1
 79
     5
176
     1
170
     0
176
     1
171
     0
176
     1
290
     0
176
     1
 93
        1
176
     1
 44
-50.0
176
     1
173
     0
176
     1
  0
VISUALSTYLE
  5
39
102
{ACAD_REACTORS
330
2A
102
}
330
2A
100
AcDbVisualStyle
  2
Facepattern
 70
    15
177
     2
291
     1
 71
     2
176
     1
 72
     2
176
     1
 73
     0
176
     1
 90
        0
176
     1
 40
-0.6
176
     1
 41
-30.0
176
     1
 62
     5
 63
     7
421
 16777215
176
     1
 74
     1
176
     1
 91
        4
176
     1
 64
     7
176
     1
 65
   257
176
     1
 75
     1
176
     1
175
     1
176
     1
 42
1.0
176
     1
 92
        8
176
     1
 66
     7
176
     1
 43
1.0
176
     1
 76
     1
176
     1
 77
     6
176
     1
 78
     2
176
     1
 67
     7
176
     1
 79
     5
176
     1
170
     0
176
     1
171
     0
176
     1
290
     0
176
     1
 93
        1
176
     1
 44
0.0
176
     1
173
     0
176
     1
  0
VISUALSTYLE
  5
2B
102
{ACAD_REACTORS
330
2A
102
}
330
2A
100
AcDbVisualStyle
  2
Flat
 70
     0
177
     2
291
     1
 71
     2
176
     1
 72
     1
176
     1
 73
     1
176
     1
 90
        2
176
     1
 40
-0.6
176
     1
 41
30.0
176
     1
 62
     5
 63
     7
421
 16777215
176
     1
 74
     0
176
     1
 91
        4
176
     1
 64
     7
176
     1
 65
   257
176
     1
 75
     1
176
     1
175
     1
176
     1
 42
1.0
176
     1
 92
        8
176
     1
 66
     7
176
     1
 43
1.0
176
     1
 76
     1
176
     1
 77
     6
176
     1
 78
     2
176
     1
 67
     7
176
     1
 79
     5
176
     1
170
     0
176
     1
171
     0
176
     1
290
     0
176
     1
 93
       13
176
     1
 44
0.0
176
     1
173
     0
176
     1
  0
VISUALSTYLE
  5
2C
102
{ACAD_REACTORS
330
2A
102
}
330
2A
100
AcDbVisualStyle
  2
FlatWithEdges
 70
     1
177
     2
291
     1
 71
     2
176
     1
 72
     1
176
     1
 73
     1
176
     1
 90
        2
176
     1
 40
-0.6
176
     1
 41
30.0
176
     1
 62
     5
 63
     7
421
 16777215
176
     1
 74
     1
176
     1
 91
        4
176
     1
 64
     7
176
     1
 65
   257
176
     1
 75
     1
176
     1
175
     1
176
     1
 42
1.0
176
     1
 92
        0
176
     1
 66
   257
176
     1
 43
1.0
176
     1
 76
     1
176
     1
 77
     6
176
     1
 78
     2
176
     1
 67
     7
176
     1
 79
     5
176
     1
170
     0
176
     1
171
     0
176
     1
290
     0
176
     1
 93
       13
176
     1
 44
0.0
176
     1
173
     0
176
     1
  0
VISUALSTYLE
  5
2D
102
{ACAD_REACTORS
330
2A
102
}
330
2A
100
AcDbVisualStyle
  2
Gouraud
 70
     2
177
     2
291
     1
 71
     2
176
     1
 72
     2
176
     1
 73
     1
176
     1
 90
        2
176
     1
 40
-0.6
176
     1
 41
30.0
176
     1
 62
     5
 63
     7
421
 16777215
176
     1
 74
     0
176
     1
 91
        4
176
     1
 64
     7
176
     1
 65
   257
176
     1
 75
     1
176
     1
175
     1
176
     1
 42
1.0
176
     1
 92
        0
176
     1
 66
     7
176
     1
 43
1.0
176
     1
 76
     1
176
     1
 77
     6
176
     1
 78
     2
176
     1
 67
     7
176
     1
 79
     5
176
     1
170
     0
176
     1
171
     0
176
     1
290
     0
176
     1
 93
       13
176
     1
 44
0.0
176
     1
173
     0
176
     1
  0
VISUALSTYLE
  5
2E
102
{ACAD_REACTORS
330
2A
102
}
330
2A
100
AcDbVisualStyle
  2
GouraudWithEdges
 70
     3
177
     2
291
     1
 71
     2
176
     1
 72
     2
176
     1
 73
     1
176
     1
 90
        2
176
     1
 40
-0.6
176
     1
 41
30.0
176
     1
 62
     5
 63
     7
421
 16777215
176
     1
 74
     1
176
     1
 91
        4
176
     1
 64
     7
176
     1
 65
   257
176
     1
 75
     1
176
     1
175
     1
176
     1
 42
1.0
176
     1
 92
        0
176
     1
 66
   257
176
     1
 43
1.0
176
     1
 76
     1
176
     1
 77
     6
176
     1
 78
     2
176
     1
 67
     7
176
     1
 79
     5
176
     1
170
     0
176
     1
171
     0
176
     1
290
     0
176
     1
 93
       13
176
     1
 44
0.0
176
     1
173
     0
176
     1
  0
VISUALSTYLE
  5
38
102
{ACAD_REACTORS
330
2A
102
}
330
2A
100
AcDbVisualStyle
  2
Linepattern
 70
    14
177
     2
291
     1
 71
     2
176
     1
 72
     2
176
     1
 73
     0
176
     1
 90
        0
176
     1
 40
-0.6
176
     1
 41
-30.0
176
     1
 62
     5
 63
     7
421
 16777215
176
     1
 74
     1
176
     1
 91
        4
176
     1
 64
     7
176
     1
 65
   257
176
     1
 75
     7
176
     1
175
     7
176
     1
 42
1.0
176
     1
 92
        8
176
     1
 66
     7
176
     1
 43
1.0
176
     1
 76
     1
176
     1
 77
     6
176
     1
 78
     2
176
     1
 67
     7
176
     1
 79
     5
176
     1
170
     0
176
     1
171
     0
176
     1
290
     0
176
     1
 93
        1
176
     1
 44
0.0
176
     1
173
     0
176
     1
  0
VISUALSTYLE
  5
33
102
{ACAD_REACTORS
330
2A
102
}
330
2A
100
AcDbVisualStyle
  2
Realistic
 70
     8
177
     2
291
     0
 71
     2
176
     1
 72
     2
176
     1
 73
     0
176
     1
 90
        0
176
     1
 40
-0.6
176
     1
 41
-30.0
176
     1
 62
     5
 63
     7
421
 16777215
176
     1
 74
     1
176
     1
 91
        0
176
     1
 64
     7
176
     1
 65
   257
176
     1
 75
     1
176
     1
175
     1
176
     1
 42
1.0
176
     1
 92
        8
176
     1
 66
     8
424
  7895160
176
     1
 43
1.0
176
     1
 76
     1
176
     1
 77
     6
176
     1
 78
     2
176
     1
 67
     7
176
     1
 79
     5
176
     1
170
     0
176
     1
171
     0
176
     1
290
     0
176
     1
 93
       13
176
     1
 44
0.0
176
     1
173
     0
176
     1
  0
VISUALSTYLE
  5
37
102
{ACAD_REACTORS
330
2A
102
}
330
2A
100
AcDbVisualStyle
  2
Thicken
 70
    13
177
     2
291
     1
 71
     2
176
     1
 72
     2
176
     1
 73
     0
176
     1
 90
        0
176
     1
 40
-0.6
176
     1
 41
-30.0
176
     1
 62
     5
 63
     7
421
 16777215
176
     1
 74
     1
176
     1
 91
        4
176
     1
 64
     7
176
     1
 65
   257
176
     1
 75
     1
176
     1
175
     1
176
     1
 42
1.0
176
     1
 92
       12
176
     1
 66
     7
176
     1
 43
1.0
176
     1
 76
     1
176
     1
 77
     6
176
     1
 78
     2
176
     1
 67
     7
176
     1
 79
     5
176
     1
170
     0
176
     1
171
     0
176
     1
290
     0
176
     1
 93
        1
176
     1
 44
0.0
176
     1
173
     0
176
     1
  0
ENDSEC
  0
EOF
